<svg id="Layer_1" data-name="Layer 1" xmlns="http://www.w3.org/2000/svg" viewBox="0 0 335 150"><defs><style>.cls-1{fill:#fff;}.cls-2{fill:#eaeaea;}.cls-3{fill:#f9e595;}</style></defs><rect class="cls-1" width="335" height="150"/><path class="cls-2" d="M103.65,103h0a1.89,1.89,0,0,1-1.89-1.89V61.76a1.89,1.89,0,0,1,1.89-1.89h0a1.9,1.9,0,0,1,1.9,1.89v39.32A1.89,1.89,0,0,1,103.65,103Z"/><path class="cls-2" d="M109.77,86.57h0a1.9,1.9,0,0,1-1.9-1.9V64.8a1.89,1.89,0,0,1,1.9-1.89h0a1.89,1.89,0,0,1,1.89,1.89V84.67A1.9,1.9,0,0,1,109.77,86.57Z"/><path class="cls-2" d="M85.57,82.81h-.51a1.64,1.64,0,0,1-1.64-1.64V61.55a1.9,1.9,0,0,1,1.89-1.9h0a1.89,1.89,0,0,1,1.89,1.9V81.17A1.64,1.64,0,0,1,85.57,82.81Z"/><path class="cls-2" d="M164.79,74.23h0a1.9,1.9,0,0,1-1.9-1.89V38.53a1.9,1.9,0,0,1,1.9-1.89h0a1.89,1.89,0,0,1,1.89,1.89V72.34A1.89,1.89,0,0,1,164.79,74.23Z"/><path class="cls-2" d="M164.79,34.2h0a1.9,1.9,0,0,1-1.9-1.89V26.85a1.9,1.9,0,0,1,1.9-1.9h0a1.9,1.9,0,0,1,1.89,1.9v5.46A1.89,1.89,0,0,1,164.79,34.2Z"/><rect class="cls-2" x="162.89" y="75.32" width="3.78" height="47.84" rx="1.89"/><path class="cls-2" d="M170.9,102h0a1.89,1.89,0,0,1-1.89-1.89V49.33a1.89,1.89,0,0,1,1.89-1.9h0a1.9,1.9,0,0,1,1.89,1.9v50.82A1.89,1.89,0,0,1,170.9,102Z"/><path class="cls-2" d="M158.67,57.43h0a1.89,1.89,0,0,1-1.89-1.89V33.37a1.89,1.89,0,0,1,1.89-1.89h0a1.9,1.9,0,0,1,1.9,1.89V55.54A1.89,1.89,0,0,1,158.67,57.43Z"/><path class="cls-2" d="M158.67,130.72h0a1.89,1.89,0,0,1-1.89-1.89V60.93A1.89,1.89,0,0,1,158.67,59h0a1.89,1.89,0,0,1,1.9,1.89v67.9A1.89,1.89,0,0,1,158.67,130.72Z"/><path class="cls-2" d="M91.68,91.5h-.51a1.64,1.64,0,0,1-1.64-1.64V61.16a1.89,1.89,0,0,1,1.9-1.89h0a1.89,1.89,0,0,1,1.89,1.89v28.7A1.63,1.63,0,0,1,91.68,91.5Z"/><path class="cls-2" d="M91.68,57.71h-.51a1.64,1.64,0,0,1-1.64-1.63V50.76a1.89,1.89,0,0,1,1.9-1.89h0a1.89,1.89,0,0,1,1.89,1.89v5.32A1.63,1.63,0,0,1,91.68,57.71Z"/><path class="cls-2" d="M146.45,120.9h0a1.89,1.89,0,0,0,1.89-1.89V12.86A1.89,1.89,0,0,0,146.45,11h0a1.9,1.9,0,0,0-1.9,1.89V119A1.89,1.89,0,0,0,146.45,120.9Z"/><rect class="cls-2" x="144.55" y="122.85" width="3.78" height="15.68" rx="1.89" transform="translate(292.89 261.38) rotate(180)"/><path class="cls-2" d="M128.11,129.91h0A1.89,1.89,0,0,0,130,128V21.45a1.89,1.89,0,0,0-1.89-1.89h0a1.9,1.9,0,0,0-1.9,1.89V128A1.9,1.9,0,0,0,128.11,129.91Z"/><rect class="cls-2" x="132.33" y="33.6" width="3.78" height="55.61" rx="1.89" transform="translate(268.44 122.81) rotate(180)"/><rect class="cls-2" x="132.33" y="90.3" width="3.78" height="27.16" rx="1.89" transform="translate(268.44 207.76) rotate(180)"/><path class="cls-2" d="M140.33,128.7h0a1.9,1.9,0,0,0,1.9-1.89V51.91a1.89,1.89,0,0,0-1.9-1.89h0a1.89,1.89,0,0,0-1.89,1.89v74.9A1.89,1.89,0,0,0,140.33,128.7Z"/><rect class="cls-2" x="138.44" y="28.95" width="3.78" height="19.21" rx="1.89" transform="translate(280.67 77.11) rotate(-180)"/><path class="cls-2" d="M140.33,27.09h0a1.9,1.9,0,0,0,1.9-1.89V20.06a1.9,1.9,0,0,0-1.9-1.89h0a1.89,1.89,0,0,0-1.89,1.89V25.2A1.89,1.89,0,0,0,140.33,27.09Z"/><path class="cls-2" d="M122,107.22h0a1.89,1.89,0,0,0,1.9-1.89V44.14a1.9,1.9,0,0,0-1.9-1.89h0a1.89,1.89,0,0,0-1.89,1.89v61.19A1.89,1.89,0,0,0,122,107.22Z"/><path class="cls-2" d="M152.56,113.26h0a1.89,1.89,0,0,0,1.89-1.89V38.11a1.9,1.9,0,0,0-1.89-1.9h0a1.89,1.89,0,0,0-1.89,1.9v73.26A1.89,1.89,0,0,0,152.56,113.26Z"/><path class="cls-2" d="M115.88,94.08h0A1.89,1.89,0,0,1,114,92.19V57.28a1.89,1.89,0,0,1,1.89-1.89h0a1.89,1.89,0,0,1,1.89,1.89V92.19A1.89,1.89,0,0,1,115.88,94.08Z"/><path class="cls-2" d="M79.2,76.6h0a1.89,1.89,0,0,1-1.89-1.9V67.76a1.89,1.89,0,0,1,1.89-1.9h0a1.9,1.9,0,0,1,1.89,1.9V74.7A1.9,1.9,0,0,1,79.2,76.6Z"/><path class="cls-2" d="M256.4,75.85h0A1.89,1.89,0,0,1,254.51,74V67a1.89,1.89,0,0,1,1.89-1.89h0A1.89,1.89,0,0,1,258.3,67V74A1.9,1.9,0,0,1,256.4,75.85Z"/><path class="cls-2" d="M97.79,80.54h-.51a1.64,1.64,0,0,1-1.63-1.64V41.15a1.89,1.89,0,0,1,1.89-1.9h0a1.9,1.9,0,0,1,1.89,1.9V78.9A1.64,1.64,0,0,1,97.79,80.54Z"/><path class="cls-2" d="M97.79,105.9h-.51a1.63,1.63,0,0,1-1.63-1.64V84.7a1.88,1.88,0,0,1,1.89-1.89h0a1.89,1.89,0,0,1,1.89,1.89v19.56A1.63,1.63,0,0,1,97.79,105.9Z"/><path class="cls-2" d="M225.92,125.09h0A1.88,1.88,0,0,1,224,123.2V28.1a1.89,1.89,0,0,1,1.89-1.9h0a1.9,1.9,0,0,1,1.89,1.9v95.1A1.89,1.89,0,0,1,225.92,125.09Z"/><path class="cls-2" d="M195.35,118.57h0a1.89,1.89,0,0,1-1.89-1.89V69a1.89,1.89,0,0,1,1.89-1.89h0a1.89,1.89,0,0,1,1.9,1.89v47.65A1.9,1.9,0,0,1,195.35,118.57Z"/><path class="cls-2" d="M232,89.27h0a1.89,1.89,0,0,1-1.89-1.89V42.69a1.9,1.9,0,0,1,1.89-1.9h0a1.9,1.9,0,0,1,1.9,1.9V87.38A1.9,1.9,0,0,1,232,89.27Z"/><path class="cls-2" d="M232,108.88h0a1.89,1.89,0,0,1-1.89-1.89V92.93A1.89,1.89,0,0,1,232,91h0a1.9,1.9,0,0,1,1.9,1.89V107A1.9,1.9,0,0,1,232,108.88Z"/><path class="cls-2" d="M219.81,65.12h0a1.9,1.9,0,0,1-1.9-1.9V55.33a1.89,1.89,0,0,1,1.9-1.89h0a1.89,1.89,0,0,1,1.89,1.89v7.89A1.9,1.9,0,0,1,219.81,65.12Z"/><path class="cls-2" d="M219.81,136.05h0a1.9,1.9,0,0,1-1.9-1.89V69.84a1.89,1.89,0,0,1,1.9-1.89h0a1.89,1.89,0,0,1,1.89,1.89v64.32A1.89,1.89,0,0,1,219.81,136.05Z"/><path class="cls-2" d="M213.69,119.32h0a1.89,1.89,0,0,1-1.89-1.89V68.27a1.89,1.89,0,0,1,1.89-1.89h0a1.9,1.9,0,0,1,1.9,1.89v49.16A1.89,1.89,0,0,1,213.69,119.32Z"/><path class="cls-2" d="M238.15,111.4h0a1.89,1.89,0,0,1-1.9-1.89V69a1.89,1.89,0,0,1,1.9-1.89h0A1.89,1.89,0,0,1,240,69v40.48A1.89,1.89,0,0,1,238.15,111.4Z"/><path class="cls-2" d="M201.47,95h0a1.9,1.9,0,0,1-1.9-1.89V64.57a1.89,1.89,0,0,1,1.9-1.89h0a1.89,1.89,0,0,1,1.89,1.89V93.09A1.89,1.89,0,0,1,201.47,95Z"/><rect class="cls-2" x="199.57" y="96.23" width="3.78" height="33.86" rx="1.89"/><path class="cls-2" d="M183.13,91h0a1.9,1.9,0,0,1-1.9-1.89V60.33a1.9,1.9,0,0,1,1.9-1.9h0a1.9,1.9,0,0,1,1.89,1.9V89.15A1.89,1.89,0,0,1,183.13,91Z"/><path class="cls-2" d="M177,100.45h0a1.89,1.89,0,0,1-1.89-1.89V50.91A1.89,1.89,0,0,1,177,49h0a1.9,1.9,0,0,1,1.9,1.89V98.56A1.9,1.9,0,0,1,177,100.45Z"/><path class="cls-2" d="M189.24,112.27h0a1.89,1.89,0,0,1-1.89-1.89v-35a1.89,1.89,0,0,1,1.89-1.9h0a1.9,1.9,0,0,1,1.89,1.9v35.05A1.89,1.89,0,0,1,189.24,112.27Z"/><path class="cls-2" d="M207.58,111.92h0a1.89,1.89,0,0,1-1.89-1.9V75.68a1.88,1.88,0,0,1,1.89-1.89h0a1.89,1.89,0,0,1,1.89,1.89V110A1.9,1.9,0,0,1,207.58,111.92Z"/><path class="cls-2" d="M250.37,81.91h0A1.89,1.89,0,0,1,248.48,80V61a1.9,1.9,0,0,1,1.89-1.9h0a1.9,1.9,0,0,1,1.9,1.9V80A1.89,1.89,0,0,1,250.37,81.91Z"/><path class="cls-2" d="M244.26,76.83h0a1.88,1.88,0,0,1-1.89-1.89V57.42a1.89,1.89,0,0,1,1.89-1.89h0a1.89,1.89,0,0,1,1.89,1.89V74.94A1.88,1.88,0,0,1,244.26,76.83Z"/><path class="cls-2" d="M244.26,88.73h0a1.88,1.88,0,0,1-1.89-1.89V80a1.89,1.89,0,0,1,1.89-1.89h0A1.89,1.89,0,0,1,246.15,80v6.87A1.88,1.88,0,0,1,244.26,88.73Z"/><path class="cls-3" d="M103.65,61.57a1.89,1.89,0,0,0-1.89,1.89v34.4a1.9,1.9,0,0,0,3.79,0V63.46A1.89,1.89,0,0,0,103.65,61.57Z"/><path class="cls-3" d="M109.77,64.26h0a1.9,1.9,0,0,0-1.9,1.89V83.33a1.9,1.9,0,0,0,1.9,1.89h0a1.89,1.89,0,0,0,1.89-1.89V66.15A1.89,1.89,0,0,0,109.77,64.26Z"/><path class="cls-3" d="M85.31,61.38a1.89,1.89,0,0,0-1.89,1.89v17a1.64,1.64,0,0,0,1.64,1.64h.51a1.64,1.64,0,0,0,1.63-1.64v-17A1.88,1.88,0,0,0,85.31,61.38Z"/><path class="cls-3" d="M164.79,41a1.89,1.89,0,0,0-1.9,1.89V72.4a1.9,1.9,0,0,0,3.79,0V42.88A1.89,1.89,0,0,0,164.79,41Z"/><path class="cls-3" d="M164.79,30.64h0a1.89,1.89,0,0,0-1.9,1.89v4.4a1.9,1.9,0,0,0,1.9,1.9h0a1.9,1.9,0,0,0,1.89-1.9v-4.4A1.89,1.89,0,0,0,164.79,30.64Z"/><path class="cls-3" d="M164.79,75.25a1.9,1.9,0,0,0-1.9,1.9v38.59a1.9,1.9,0,0,0,3.79,0V77.15A1.9,1.9,0,0,0,164.79,75.25Z"/><path class="cls-3" d="M170.9,50.55A1.89,1.89,0,0,0,169,52.44V97a1.89,1.89,0,1,0,3.78,0V52.44A1.89,1.89,0,0,0,170.9,50.55Z"/><path class="cls-3" d="M158.67,36.42a1.89,1.89,0,0,0-1.89,1.89V57.52a1.9,1.9,0,0,0,3.79,0V38.31A1.89,1.89,0,0,0,158.67,36.42Z"/><path class="cls-3" d="M158.67,60.83a1.89,1.89,0,0,0-1.89,1.89v59.72a1.9,1.9,0,1,0,3.79,0V62.72A1.9,1.9,0,0,0,158.67,60.83Z"/><path class="cls-3" d="M91.43,61a1.9,1.9,0,0,0-1.9,1.9V88a1.64,1.64,0,0,0,1.64,1.64h.51A1.63,1.63,0,0,0,93.32,88v-25A1.9,1.9,0,0,0,91.43,61Z"/><path class="cls-3" d="M91.43,51.82a1.9,1.9,0,0,0-1.9,1.89V58a1.65,1.65,0,0,0,1.64,1.64h.51A1.64,1.64,0,0,0,93.32,58V53.71A1.89,1.89,0,0,0,91.43,51.82Z"/><path class="cls-3" d="M146.45,18.25a1.9,1.9,0,0,0-1.9,1.89v93.6a1.9,1.9,0,1,0,3.79,0V20.14A1.89,1.89,0,0,0,146.45,18.25Z"/><path class="cls-3" d="M146.45,117.36a1.9,1.9,0,0,0-1.9,1.89v10.11a1.9,1.9,0,1,0,3.79,0V119.25A1.89,1.89,0,0,0,146.45,117.36Z"/><path class="cls-3" d="M128.11,25.86a1.9,1.9,0,0,0-1.9,1.89v94a1.9,1.9,0,0,0,3.79,0v-94A1.89,1.89,0,0,0,128.11,25.86Z"/><path class="cls-3" d="M134.22,38.3a1.88,1.88,0,0,0-1.89,1.89V85.67a1.89,1.89,0,0,0,3.78,0V40.19A1.89,1.89,0,0,0,134.22,38.3Z"/><path class="cls-3" d="M134.22,88.52a1.89,1.89,0,0,0-1.89,1.9V110.7a1.89,1.89,0,0,0,3.78,0V90.42A1.9,1.9,0,0,0,134.22,88.52Z"/><path class="cls-3" d="M140.33,52.84a1.89,1.89,0,0,0-1.89,1.89v65.92a1.9,1.9,0,1,0,3.79,0V54.73A1.9,1.9,0,0,0,140.33,52.84Z"/><path class="cls-3" d="M140.33,51.19a1.89,1.89,0,0,0,1.9-1.89V36.07a1.9,1.9,0,0,0-3.79,0V49.3A1.89,1.89,0,0,0,140.33,51.19Z"/><path class="cls-3" d="M140.33,32.53a1.9,1.9,0,0,0,1.9-1.89V26.52a1.9,1.9,0,0,0-3.79,0v4.12A1.89,1.89,0,0,0,140.33,32.53Z"/><path class="cls-3" d="M122,46a1.89,1.89,0,0,0-1.89,1.89v53.78a1.9,1.9,0,0,0,3.79,0V47.85A1.89,1.89,0,0,0,122,46Z"/><path class="cls-3" d="M152.56,40.61a1.89,1.89,0,0,0-1.89,1.89V107a1.89,1.89,0,1,0,3.78,0V42.5A1.89,1.89,0,0,0,152.56,40.61Z"/><path class="cls-3" d="M115.88,57.6A1.89,1.89,0,0,0,114,59.49V90a1.89,1.89,0,1,0,3.78,0V59.49A1.89,1.89,0,0,0,115.88,57.6Z"/><path class="cls-3" d="M79.2,66.88h0a1.88,1.88,0,0,0-1.89,1.89V70H1.57a1,1,0,0,0,0,1.94H77.31v2.55a1.89,1.89,0,0,0,1.89,1.9h0a1.9,1.9,0,0,0,1.89-1.9V68.77A1.89,1.89,0,0,0,79.2,66.88Z"/><path class="cls-3" d="M97.54,43.3h0a1.89,1.89,0,0,0-1.89,1.9v33a1.64,1.64,0,0,0,1.63,1.64h.51a1.64,1.64,0,0,0,1.64-1.64v-33A1.9,1.9,0,0,0,97.54,43.3Z"/><path class="cls-3" d="M97.54,81.89a1.88,1.88,0,0,0-1.89,1.89v16.93a1.64,1.64,0,0,0,1.63,1.64h.51a1.64,1.64,0,0,0,1.64-1.64V83.78A1.89,1.89,0,0,0,97.54,81.89Z"/><path class="cls-3" d="M225.92,31.74a1.89,1.89,0,0,0-1.89,1.9v83.82a1.89,1.89,0,0,0,3.78,0V33.64A1.9,1.9,0,0,0,225.92,31.74Z"/><path class="cls-3" d="M195.35,68a1.9,1.9,0,0,0-1.89,1.9v41.78a1.9,1.9,0,0,0,3.79,0V69.9A1.9,1.9,0,0,0,195.35,68Z"/><path class="cls-3" d="M232,44.67a1.89,1.89,0,0,0-1.89,1.89V85.72a1.9,1.9,0,0,0,3.79,0V46.56A1.9,1.9,0,0,0,232,44.67Z"/><path class="cls-3" d="M232,89.18a1.89,1.89,0,0,0-1.89,1.89v12a1.9,1.9,0,1,0,3.79,0v-12A1.9,1.9,0,0,0,232,89.18Z"/><path class="cls-3" d="M219.81,55.87a1.9,1.9,0,0,0-1.9,1.89v6.56a1.9,1.9,0,1,0,3.79,0V57.76A1.89,1.89,0,0,0,219.81,55.87Z"/><path class="cls-3" d="M219.81,68.72h0a1.9,1.9,0,0,0-1.9,1.9v56.54a1.9,1.9,0,0,0,1.9,1.9h0a1.9,1.9,0,0,0,1.89-1.9V70.62A1.9,1.9,0,0,0,219.81,68.72Z"/><path class="cls-3" d="M213.69,67.34a1.89,1.89,0,0,0-1.89,1.89v43.11a1.9,1.9,0,1,0,3.79,0V69.23A1.89,1.89,0,0,0,213.69,67.34Z"/><path class="cls-3" d="M238.15,68a1.9,1.9,0,0,0-1.9,1.9v35.43a1.9,1.9,0,0,0,3.79,0V69.9A1.9,1.9,0,0,0,238.15,68Z"/><path class="cls-3" d="M201.47,64.06a1.89,1.89,0,0,0-1.9,1.89V90.78a1.9,1.9,0,0,0,3.79,0V66A1.89,1.89,0,0,0,201.47,64.06Z"/><path class="cls-3" d="M201.47,93.78h0a1.9,1.9,0,0,0-1.9,1.89v26.21a1.9,1.9,0,0,0,1.9,1.9h0a1.9,1.9,0,0,0,1.89-1.9V95.67A1.89,1.89,0,0,0,201.47,93.78Z"/><path class="cls-3" d="M183.13,60.3a1.89,1.89,0,0,0-1.9,1.89v25.1a1.9,1.9,0,0,0,3.79,0V62.19A1.89,1.89,0,0,0,183.13,60.3Z"/><path class="cls-3" d="M177,52a1.89,1.89,0,0,0-1.89,1.89V95.63a1.9,1.9,0,0,0,3.79,0V53.85A1.89,1.89,0,0,0,177,52Z"/><path class="cls-3" d="M189.24,73.58h0a1.89,1.89,0,0,0-1.89,1.9V106.1a1.89,1.89,0,0,0,1.89,1.89h0a1.89,1.89,0,0,0,1.89-1.89V75.48A1.9,1.9,0,0,0,189.24,73.58Z"/><path class="cls-3" d="M207.58,73.9a1.88,1.88,0,0,0-1.89,1.89v30a1.89,1.89,0,1,0,3.78,0v-30A1.89,1.89,0,0,0,207.58,73.9Z"/><path class="cls-3" d="M250.37,60.84a1.9,1.9,0,0,0-1.89,1.9V79.2a1.9,1.9,0,1,0,3.79,0V62.74A1.9,1.9,0,0,0,250.37,60.84Z"/><path class="cls-3" d="M244.26,57.72a1.89,1.89,0,0,0-1.89,1.89V74.7a1.89,1.89,0,1,0,3.78,0V59.61A1.89,1.89,0,0,0,244.26,57.72Z"/><path class="cls-3" d="M244.26,77.7a1.89,1.89,0,0,0-1.89,1.89v5.66a1.89,1.89,0,0,0,3.78,0V79.59A1.89,1.89,0,0,0,244.26,77.7Z"/><path class="cls-3" d="M334,70H258.3V68.11a1.9,1.9,0,0,0-3.79,0v5.72a1.9,1.9,0,0,0,3.79,0V71.94H334A1,1,0,0,0,334,70Z"/></svg>