<svg height="464pt" viewBox="0 0 464 464" width="464pt" xmlns="http://www.w3.org/2000/svg"><path d="m0 64h464v240h-464zm0 0" fill="#5aaae7"/><path d="m464 64v240h-464c209.953125-26.503906 369.542969-101.734375 464-240zm0 0" fill="#3d9ae2"/><path d="m320 432c8.824219.027344 15.972656 7.175781 16 16-.066406 8.808594-7.191406 15.933594-16 16h-176c-8.824219-.027344-15.972656-7.175781-16-16 .066406-8.808594 7.191406-15.933594 16-16zm0 0" fill="#787680"/><path d="m296 432h-128l8-64h112zm0 0" fill="#898890"/><path d="m464 304v32c-.050781 17.652344-14.347656 31.949219-32 32h-400c-17.652344-.050781-31.9492188-14.347656-32-32v-32zm0 0" fill="#c6c5ca"/><path d="m464 32v32h-464v-32c.0507812-17.652344 14.347656-31.9492188 32-32h400c17.671875 0 32 14.328125 32 32zm0 0" fill="#ff5023"/><path d="m290 384h-116l2-16h112zm0 0" fill="#787680"/><path d="m312 264h-160l80-160zm0 0" fill="#ffd422"/><path d="m224 160h16v48h-16zm0 0" fill="#ed1c24"/><path d="m224 224h16v16h-16zm0 0" fill="#ed1c24"/><path d="m408 328h16v16h-16zm0 0" fill="#898890"/><g fill="#cd2a00"><path d="m40 24h16v16h-16zm0 0"/><path d="m72 24h16v16h-16zm0 0"/><path d="m104 24h16v16h-16zm0 0"/></g></svg>