<svg xmlns="http://www.w3.org/2000/svg" xmlns:xlink="http://www.w3.org/1999/xlink" viewBox="0 0 3346.32 3723.04"><defs><style>.cls-1{fill:none;}.cls-2{isolation:isolate;}.cls-3{fill:url(#linear-gradient);}.cls-4{fill:#bdd0fb;}.cls-5{clip-path:url(#clip-path);}.cls-6{fill:#fcfdfe;}.cls-7{clip-path:url(#clip-path-2);}.cls-8{fill:#91b3fa;}.cls-9{fill:url(#linear-gradient-2);}.cls-10{fill:url(#linear-gradient-3);}.cls-11,.cls-65,.cls-66{fill:#fff;}.cls-12,.cls-13{opacity:0.3;}.cls-12,.cls-13,.cls-16{mix-blend-mode:multiply;}.cls-13{fill:url(#linear-gradient-4);}.cls-14{clip-path:url(#clip-path-3);}.cls-15{fill:url(#linear-gradient-5);}.cls-16{opacity:0.4;fill:url(#linear-gradient-6);}.cls-17{fill:url(#linear-gradient-7);}.cls-18{fill:url(#linear-gradient-8);}.cls-19{fill:url(#linear-gradient-9);}.cls-20{fill:#fcb048;}.cls-21{fill:url(#linear-gradient-10);}.cls-22{fill:url(#linear-gradient-11);}.cls-23{fill:url(#linear-gradient-12);}.cls-24{fill:url(#linear-gradient-13);}.cls-25{fill:url(#linear-gradient-14);}.cls-26{fill:url(#linear-gradient-15);}.cls-27{fill:url(#linear-gradient-16);}.cls-28{fill:url(#linear-gradient-17);}.cls-29{fill:url(#linear-gradient-18);}.cls-30{fill:url(#linear-gradient-19);}.cls-31{fill:url(#linear-gradient-20);}.cls-32{fill:url(#linear-gradient-21);}.cls-33{fill:url(#linear-gradient-22);}.cls-34{fill:url(#linear-gradient-23);}.cls-35{fill:url(#linear-gradient-24);}.cls-36{fill:url(#linear-gradient-25);}.cls-37{fill:url(#linear-gradient-26);}.cls-38{fill:url(#linear-gradient-27);}.cls-39{fill:url(#linear-gradient-28);}.cls-40{fill:url(#linear-gradient-29);}.cls-41{fill:url(#linear-gradient-30);}.cls-42{fill:url(#linear-gradient-31);}.cls-43{fill:url(#linear-gradient-32);}.cls-44{fill:url(#linear-gradient-33);}.cls-45{fill:url(#linear-gradient-34);}.cls-46{fill:url(#linear-gradient-35);}.cls-47{fill:url(#linear-gradient-36);}.cls-48{fill:url(#linear-gradient-37);}.cls-49{fill:url(#linear-gradient-38);}.cls-50{fill:url(#linear-gradient-39);}.cls-51{fill:url(#linear-gradient-40);}.cls-52{fill:url(#linear-gradient-41);}.cls-53{fill:url(#linear-gradient-42);}.cls-54{fill:url(#linear-gradient-43);}.cls-55{fill:url(#linear-gradient-44);}.cls-56{fill:url(#linear-gradient-45);}.cls-57{fill:url(#linear-gradient-46);}.cls-58{fill:url(#linear-gradient-47);}.cls-59{fill:url(#linear-gradient-48);}.cls-60{fill:url(#linear-gradient-49);}.cls-61{fill:url(#linear-gradient-50);}.cls-62{fill:url(#linear-gradient-51);}.cls-63{fill:url(#linear-gradient-52);}.cls-64{fill:url(#linear-gradient-53);}.cls-65{opacity:0.6;}.cls-66{opacity:0.72;}</style><linearGradient id="linear-gradient" x1="3954.3" y1="4655.71" x2="981.47" y2="963.65" gradientUnits="userSpaceOnUse"><stop offset="0" stop-color="#dae3fe"/><stop offset="1" stop-color="#e9effd"/></linearGradient><clipPath id="clip-path" transform="translate(-196.51 53.4)"><path class="cls-1" d="M1520.7,2776.12c20.11,189.46,32.77,383.08,52,574,104.2,31,227.53,64.93,278.54-60.46,70.92-174.34,400.3-177.69,549.63-149.9,184.82,34.4,591.22,71.63,561.81-203.23-24.49-228.83-130.3-360.12,137.83-444.77S3503.43,2241.62,3439,1992.4c-67.76-262.25,232.88-534.64,35.66-734.68-343.65-348.54-789.62,278-843.09,661.41s-242.78,258-501.52,281c-353.23,31.37-135.46,397.37-288.71,519.24C1721.24,2814.89,1650.29,2777.81,1520.7,2776.12Z"/></clipPath><clipPath id="clip-path-2" transform="translate(-196.51 53.4)"><path class="cls-1" d="M2511.13,3126.31q-209.12-30.76-417.71-71.11c-2.26,2-48-301,96-459.92,284.64-307.87,92.91-584.19,38.22-747.91-87.52-230.88-42.66-511.49,211.63-458.93,247.73,45.26,285.31-464.76,242.56-857.67-36.5-191.24,143.94-423.27,324-476.29,183.82-58.75,367.25,61.5,423.47,442.68,85.1,441.35-237,707.5-356.26,928.78-117.35,217.22,155.65,393-64.09,585.43-184.83,171-417.77,294-332.56,508.77C2763.92,2732.52,2743,2906.16,2511.13,3126.31Z"/></clipPath><linearGradient id="linear-gradient-2" x1="1098.59" y1="3665.86" x2="2854.35" y2="309.46" gradientUnits="userSpaceOnUse"><stop offset="0" stop-color="#444b8c"/><stop offset="1" stop-color="#26264f"/></linearGradient><linearGradient id="linear-gradient-3" x1="23.67" y1="5860.62" x2="1779.43" y2="2504.22" gradientUnits="userSpaceOnUse"><stop offset="0" stop-color="#aa80f9"/><stop offset="1" stop-color="#6165d7"/></linearGradient><linearGradient id="linear-gradient-4" x1="827.45" y1="2128.19" x2="2674.26" y2="2128.19" xlink:href="#linear-gradient-3"/><clipPath id="clip-path-3" transform="translate(-196.51 53.4)"><path class="cls-1" d="M1834.74,510C738.23,510,614.16,1446.67,614.16,1446.67H299.67v85.11L917.89,2382l755.4-987H1375.76l421-493.55s483.88,86.46,650.89,142.55c215.83,79.57,385.56,260.15,385.56,260.15S2664.69,510,1834.74,510Z"/></clipPath><linearGradient id="linear-gradient-5" x1="335.43" y1="1350.43" x2="2810.08" y2="1350.43" gradientUnits="userSpaceOnUse"><stop offset="0" stop-color="#3fa9f5"/><stop offset="1" stop-color="#4042e2"/></linearGradient><linearGradient id="linear-gradient-6" x1="2003" y1="1443.7" x2="2441.31" y2="842.99" gradientUnits="userSpaceOnUse"><stop offset="0" stop-color="#fcb148"/><stop offset="0.05" stop-color="#fdba46"/><stop offset="0.14" stop-color="#ffc244"/><stop offset="0.32" stop-color="#ffc444"/><stop offset="0.48" stop-color="#fdb946"/><stop offset="0.78" stop-color="#f99c4d"/><stop offset="0.87" stop-color="#f8924f"/><stop offset="1" stop-color="#f8924f"/></linearGradient><linearGradient id="linear-gradient-7" x1="451.01" y1="3415.33" x2="1436.67" y2="3415.33" xlink:href="#linear-gradient-6"/><linearGradient id="linear-gradient-8" x1="948.37" y1="3304.3" x2="1000.33" y2="3739.3" gradientUnits="userSpaceOnUse"><stop offset="0" stop-color="#ffdb44"/><stop offset="1" stop-color="#feef06"/></linearGradient><linearGradient id="linear-gradient-9" x1="946.11" y1="3284.9" x2="962.07" y2="3418.5" xlink:href="#linear-gradient-8"/><linearGradient id="linear-gradient-10" x1="708.14" y1="723.35" x2="724.04" y2="856.47" gradientTransform="translate(1669.25 4127.84) rotate(180)" gradientUnits="userSpaceOnUse"><stop offset="0" stop-color="#f36f56"/><stop offset="0.31" stop-color="#f99c4c"/><stop offset="0.55" stop-color="#fdb946"/><stop offset="0.68" stop-color="#ffc444"/><stop offset="0.8" stop-color="#ffc244"/><stop offset="0.87" stop-color="#feba46"/><stop offset="0.92" stop-color="#fcad49"/><stop offset="0.96" stop-color="#f99a4d"/><stop offset="1" stop-color="#f68252"/><stop offset="1" stop-color="#f57e53"/></linearGradient><linearGradient id="linear-gradient-11" x1="331.92" y1="3315.53" x2="1317.58" y2="3315.53" xlink:href="#linear-gradient-6"/><linearGradient id="linear-gradient-12" x1="829.28" y1="3204.5" x2="881.24" y2="3639.5" xlink:href="#linear-gradient-8"/><linearGradient id="linear-gradient-13" x1="827.02" y1="3185.1" x2="842.98" y2="3318.69" xlink:href="#linear-gradient-8"/><linearGradient id="linear-gradient-14" x1="827.23" y1="823.15" x2="843.13" y2="956.28" xlink:href="#linear-gradient-10"/><linearGradient id="linear-gradient-15" x1="434.68" y1="3216.01" x2="1420.34" y2="3216.01" xlink:href="#linear-gradient-6"/><linearGradient id="linear-gradient-16" x1="932.04" y1="3104.98" x2="984" y2="3539.99" xlink:href="#linear-gradient-8"/><linearGradient id="linear-gradient-17" x1="929.78" y1="3085.58" x2="945.74" y2="3219.18" xlink:href="#linear-gradient-8"/><linearGradient id="linear-gradient-18" x1="724.47" y1="922.66" x2="740.37" y2="1055.79" xlink:href="#linear-gradient-10"/><linearGradient id="linear-gradient-19" x1="497.04" y1="3116.21" x2="1482.69" y2="3116.21" xlink:href="#linear-gradient-6"/><linearGradient id="linear-gradient-20" x1="797.89" y1="3058.58" x2="849.85" y2="3493.59" xlink:href="#linear-gradient-8"/><linearGradient id="linear-gradient-21" x1="992.13" y1="2985.78" x2="1008.09" y2="3119.38" xlink:href="#linear-gradient-8"/><linearGradient id="linear-gradient-22" x1="662.11" y1="1022.47" x2="678.02" y2="1155.59" xlink:href="#linear-gradient-10"/><linearGradient id="linear-gradient-23" x1="451.01" y1="3008.53" x2="1436.67" y2="3008.53" xlink:href="#linear-gradient-6"/><linearGradient id="linear-gradient-24" x1="948.37" y1="2897.5" x2="1000.33" y2="3332.51" xlink:href="#linear-gradient-8"/><linearGradient id="linear-gradient-25" x1="946.11" y1="2878.1" x2="962.07" y2="3011.7" xlink:href="#linear-gradient-8"/><linearGradient id="linear-gradient-26" x1="708.14" y1="1130.15" x2="724.04" y2="1263.27" xlink:href="#linear-gradient-10"/><linearGradient id="linear-gradient-27" x1="331.92" y1="2908.73" x2="1317.58" y2="2908.73" xlink:href="#linear-gradient-6"/><linearGradient id="linear-gradient-28" x1="632.77" y1="2851.1" x2="684.74" y2="3286.11" xlink:href="#linear-gradient-8"/><linearGradient id="linear-gradient-29" x1="827.02" y1="2778.3" x2="842.98" y2="2911.9" xlink:href="#linear-gradient-8"/><linearGradient id="linear-gradient-30" x1="827.23" y1="1229.95" x2="843.13" y2="1363.07" xlink:href="#linear-gradient-10"/><linearGradient id="linear-gradient-31" x1="434.68" y1="2809.22" x2="1420.34" y2="2809.22" xlink:href="#linear-gradient-6"/><linearGradient id="linear-gradient-32" x1="735.53" y1="2751.59" x2="787.49" y2="3186.59" xlink:href="#linear-gradient-8"/><linearGradient id="linear-gradient-33" x1="929.78" y1="2678.79" x2="945.74" y2="2812.38" xlink:href="#linear-gradient-8"/><linearGradient id="linear-gradient-34" x1="724.47" y1="1329.46" x2="740.37" y2="1462.58" xlink:href="#linear-gradient-10"/><linearGradient id="linear-gradient-35" x1="381.23" y1="2709.41" x2="1366.89" y2="2709.41" xlink:href="#linear-gradient-6"/><linearGradient id="linear-gradient-36" x1="682.08" y1="2651.79" x2="734.05" y2="3086.79" xlink:href="#linear-gradient-8"/><linearGradient id="linear-gradient-37" x1="876.33" y1="2578.98" x2="892.29" y2="2712.58" xlink:href="#linear-gradient-8"/><linearGradient id="linear-gradient-38" x1="777.92" y1="1429.27" x2="793.82" y2="1562.39" xlink:href="#linear-gradient-10"/><linearGradient id="linear-gradient-39" x1="1862.75" y1="2411.01" x2="2848.41" y2="2411.01" gradientTransform="matrix(0.58, 0.81, -0.81, 0.58, 2214.38, -230.34)" xlink:href="#linear-gradient-6"/><linearGradient id="linear-gradient-40" x1="2360.11" y1="2300" x2="2412.07" y2="2734.95" gradientTransform="matrix(0.58, 0.81, -0.81, 0.58, 2214.38, -230.34)" xlink:href="#linear-gradient-8"/><linearGradient id="linear-gradient-41" x1="2357.85" y1="2280.61" x2="2373.81" y2="2414.18" gradientTransform="matrix(0.58, 0.81, -0.81, 0.58, 2214.38, -230.34)" xlink:href="#linear-gradient-8"/><linearGradient id="linear-gradient-42" x1="-703.04" y1="1727.21" x2="-687.14" y2="1860.31" gradientTransform="matrix(-0.58, -0.81, 0.81, -0.58, -181.2, 3522.62)" xlink:href="#linear-gradient-10"/><linearGradient id="linear-gradient-43" x1="-7544.96" y1="3240.88" x2="-7206.72" y2="2370.14" gradientTransform="matrix(-1, 0, 0, 1, -4336.39, 0)" gradientUnits="userSpaceOnUse"><stop offset="0" stop-color="#febbba"/><stop offset="1" stop-color="#ff928e"/></linearGradient><linearGradient id="linear-gradient-44" x1="-7550.1" y1="6041.68" x2="-6432.18" y2="-7024.02" xlink:href="#linear-gradient-43"/><linearGradient id="linear-gradient-45" x1="-7509.91" y1="1863.38" x2="-7366.54" y2="1863.38" xlink:href="#linear-gradient-43"/><linearGradient id="linear-gradient-46" x1="-7026.69" y1="3265.58" x2="-6685.64" y2="2742.32" gradientTransform="matrix(-1, 0, 0, 1, -4101.23, 0)" gradientUnits="userSpaceOnUse"><stop offset="0" stop-color="#4f52ff"/><stop offset="1" stop-color="#4042e2"/></linearGradient><linearGradient id="linear-gradient-47" x1="-7333.98" y1="3424.93" x2="-6955.56" y2="2770.86" xlink:href="#linear-gradient-46"/><linearGradient id="linear-gradient-48" x1="4246.73" y1="1808.26" x2="3888.95" y2="2292.75" gradientTransform="translate(-890.08)" xlink:href="#linear-gradient-46"/><linearGradient id="linear-gradient-49" x1="-7353.34" y1="1543.49" x2="-7251.51" y2="1543.49" gradientTransform="matrix(-1, 0, 0, 1, -4532.9, 53.4)" xlink:href="#linear-gradient-43"/><linearGradient id="linear-gradient-50" x1="-6755.91" y1="1601.54" x2="-7636.58" y2="2106.06" xlink:href="#linear-gradient-43"/><linearGradient id="linear-gradient-51" x1="-6681.61" y1="1762.25" x2="-7503.54" y2="2233.11" xlink:href="#linear-gradient-43"/><linearGradient id="linear-gradient-52" x1="-7183.74" y1="1543.45" x2="-7381.61" y2="1254.11" xlink:href="#linear-gradient-43"/><linearGradient id="linear-gradient-53" x1="-7053.38" y1="1336.72" x2="-7333.7" y2="1701.14" gradientTransform="matrix(-1, 0, 0, 1, -4101.23, 0)" gradientUnits="userSpaceOnUse"><stop offset="0" stop-color="#09005d"/><stop offset="1" stop-color="#1a0f91"/></linearGradient></defs><g class="cls-2"><g id="Illustration"><path class="cls-3" d="M3136.45,3199.7c-68.28,71.89-132.89,118.24-183.94,154.87-600.05,430.54-1310.07,305-1461,274.39-222.83-45.25-653.56-132.74-965-498.95C55.44,2576,128.8,1703.09,494.25,1126.89c66.84-105.4,419.94-690.38,1137.61-784.19,434.32-56.77,940.6,57.73,1307.24,364.9C3708.7,1352.38,3653.91,2654.93,3136.45,3199.7Z" transform="translate(-196.51 53.4)"/><path class="cls-4" d="M1792.1,3322.62c-26.16-9.16-75-52.15-83.1-68.6-54-109.51-168.34-308-134.27-432.46,5.82-21.26,106.25-20.91,123.91-37.82,64.09-15.32,87.27-16.66,141-61.15,158.75-131.36-64.56-488.22,290.17-522.09,259.84-24.81,447.93,102.64,501.68-281.23S3131,909.39,3474.7,1257.73c197.26,199.91-103.48,472.45-35.66,734.69,64.44,249.19-70.39,414.64-338.55,499.34s-162.18,215.79-137.85,444.8c29.23,275.1-376.4,237-562.17,203.46C2250.88,3113,1851.73,3145.12,1792.1,3322.62Z" transform="translate(-196.51 53.4)"/><g class="cls-5"><path class="cls-6" d="M1642.9,3049.26l-1.37-5.51c442.54-110.73,839.22-354,1147.16-703.62,293-332.63,501.78-754.43,603.76-1219.8l5.54,1.21c-102.18,466.31-311.4,889-605,1222.34C2484.25,2694.33,2086.57,2938.24,1642.9,3049.26Z" transform="translate(-196.51 53.4)"/><path class="cls-6" d="M2988,3049.41c-214.84-124.53-600.58-208.2-859.77-186.51l-.48-5.66c260.24-21.8,647.4,62.24,863.1,187.26Z" transform="translate(-196.51 53.4)"/><path class="cls-6" d="M1815.26,3004l-2.84-4.91c117-67.9,195.09-192.32,232.24-369.79,27.23-130.12,32.21-285.21,14.78-460.95l5.65-.56c17.48,176.32,12.48,332-14.88,462.67C2012.72,2809.61,1933.68,2935.28,1815.26,3004Z" transform="translate(-196.51 53.4)"/><path class="cls-6" d="M2832.81,2294.92l-3.09-4.75c213.79-139.28,482-131.93,669.4-101.25l-.92,5.61C3311.84,2164,3045.09,2156.64,2832.81,2294.92Z" transform="translate(-196.51 53.4)"/><path class="cls-6" d="M3155.59,1808.09l-5.45-1.57c34.18-118.59,66.42-367.33-101.72-700.78l5.06-2.55c56.81,112.65,97,231.83,116.21,344.66C3191.81,1577.71,3187.06,1698.91,3155.59,1808.09Z" transform="translate(-196.51 53.4)"/></g><g class="cls-7"><path class="cls-8" d="M2511.13,3126.31q-209.12-30.76-417.71-71.11c-2.26,2-48-301,96-459.92,284.64-307.87,92.91-584.19,38.22-747.91-86.65-230.71-41.07-480.53,193.74-484.23C2681.8,1354,2729,922.89,2681.82,530.77c-36.5-191.24,143.94-423.27,324-476.29,183.82-58.75,367.25,61.5,423.47,442.68,85.1,441.35-237,707.5-356.26,928.78-117.35,217.22,155.65,393-64.09,585.43-184.83,171-417.77,294-332.56,508.77C2763.92,2732.52,2743,2906.16,2511.13,3126.31Z" transform="translate(-196.51 53.4)"/><path class="cls-6" d="M2324.69,3144.3l-5.67-.09c0-2.69,133.21-640.27,362.92-1260.69,31.72-100.48,66.19-201.81,99.52-299.81C2870.71,1321.32,2963,1050,3006.82,779.84c49-302,31.53-573.95-53.37-831.46l5.39-1.78C3044,205,3061.56,477.85,3012.43,780.74c-43.91,270.63-136.27,542.19-225.6,804.8-33.32,98-67.78,199.27-99.53,299.82C2455.8,2510.63,2325,3140.59,2324.69,3144.3Z" transform="translate(-196.51 53.4)"/><path class="cls-6" d="M2948.15,1076.62l-4.22-3.79c155.41-172.67,342.93-418.07,443.67-549.9,81.11-106.16,81.53-106,84.89-105.47l-.43,2.8,1.15,2.53c-4.1,2.82-38.09,47.29-81.1,103.58C3291.32,658.27,3103.71,903.78,2948.15,1076.62Z" transform="translate(-196.51 53.4)"/><path class="cls-6" d="M2995.12,839.78C2963,641.87,2881.47,511.69,2818.77,437.34c-69.25-82.11-133.05-117.92-139.57-118.71a2.18,2.18,0,0,0,1.35-.41l-3.16-4.71c1.42-1,3.09-.73,6.86.92,17.22,7.48,81.53,47.71,149,131.55,85,105.6,142.88,241.46,167.48,392.89Z" transform="translate(-196.51 53.4)"/><path class="cls-6" d="M2550.89,2289.41l-5.64-.67c21.92-184.14-21-382.19-127.53-588.68-55.57-107.69-126.43-213.19-210.62-313.57-6.11-7.28-8.25-9.85-8.93-11l4.91-2.84c.49.84,4,5,8.37,10.22,84.46,100.71,155.56,206.56,211.31,314.62C2529.84,1905,2573,2104.13,2550.89,2289.41Z" transform="translate(-196.51 53.4)"/><path class="cls-6" d="M2613.71,2095.55l-4.82-3c167.18-270.09,519.55-288.78,522.6-287.89l2.11,2.65-1.94,2.79-.9-2.65-.24,2.77h-.05C3124.9,1810.23,2778.2,1829.8,2613.71,2095.55Zm516.13-290.81.91,2.68Z" transform="translate(-196.51 53.4)"/><path class="cls-6" d="M2348,3040.31l-5.68-.21c2.95-80.17-25.71-216.82-179-412.58-8.31-10.62-8.31-10.62-8.08-12.2l5.62.8-2.81-.4,2.59-1.07c.44.81,3.55,4.77,7.15,9.37C2322.1,2821.13,2351,2959.19,2348,3040.31Z" transform="translate(-196.51 53.4)"/><path class="cls-6" d="M2383.37,2889.3l-5.45-1.58c17.67-61,87.22-180.46,354.47-295.51,3.7-1.59,6.07-2.61,6.92-3l2.59,5c-.89.45-3.38,1.53-7.26,3.2C2469.53,2711.55,2400.76,2829.28,2383.37,2889.3Z" transform="translate(-196.51 53.4)"/></g><path class="cls-9" d="M3082.39,2086.41c0,609.57-494,1126.3-1124.17,1155.11-654.52,29.92-1203.95-474.19-1203.95-1127s549.43-1170.19,1204-1156.06C2588.43,972,3082.39,1476.85,3082.39,2086.41Z" transform="translate(-196.51 53.4)"/><path class="cls-10" d="M3155.57,2086.41c0,609.57-494,1126.3-1124.17,1155.11-654.52,29.92-1203.95-474.19-1203.95-1127s549.43-1170.19,1204-1156.06C2661.61,972,3155.57,1476.85,3155.57,2086.41Z" transform="translate(-196.51 53.4)"/><path class="cls-8" d="M3086,2087.25c0,574.35-465.94,1060.32-1059.23,1086.25C1412,3200.37,897,2726.27,897,2113.67s515-1099.12,1129.76-1087.09C2620.07,1038.19,3086,1512.91,3086,2087.25Z" transform="translate(-196.51 53.4)"/><path class="cls-11" d="M1787.63,2142.29q71.58-92.88,71.58-277.86,0-176.92-72.78-272.25t-208.71-95.3q-277.46,0-277.46,367.55,0,180.16,72.38,275.45t205.08,95.31Q1716.05,2235.19,1787.63,2142.29Zm-208.3-73.59q-40.23,0-58.3-50.26T1502.93,1866q0-102.12,18.1-151.6t58.3-49.46q77.22,0,77.21,201.06Q1656.54,2068.71,1579.33,2068.7Z" transform="translate(-196.51 53.4)"/><path class="cls-11" d="M2610,2061.87q-72.8-95.31-208.7-95.31-277.47,0-277.47,367.55,0,179.35,72.38,274.65t205.09,95.3q138.31,0,209.91-92.89t71.58-277.06Q2682.77,2157.18,2610,2061.87Zm-207.09,476.52q-40.23,0-58.31-50.27t-18.1-152.4q0-102.13,18.1-151.61t58.31-49.46q77.21,0,77.2,201.07Q2480.09,2538.39,2402.89,2538.39Z" transform="translate(-196.51 53.4)"/><path class="cls-11" d="M2391.14,1526a25.94,25.94,0,0,0-22-13H2249.84a51.86,51.86,0,0,0-45,26.87L1588.35,2651.42a26,26,0,0,0,22.36,38.52h134.52a25.75,25.75,0,0,0,22.37-13.35l623.86-1124.91A26.08,26.08,0,0,0,2391.14,1526Z" transform="translate(-196.51 53.4)"/><g class="cls-12"><path class="cls-13" d="M1524.13,1609.92c-38.71-126.15-36.93-317.75,151.8-600.84C1189.05,1149.34,827.45,1590.86,827.45,2119c0,652.82,549.43,1156.92,1204,1127,241.34-11,462.3-93.41,642.86-224.12-5.6-174.1-43.48-364.68-150-540.46C2231.39,1998.1,1645.57,2005.71,1524.13,1609.92Z" transform="translate(-196.51 53.4)"/></g><g class="cls-14"><path class="cls-15" d="M2810.08,1469.54v3.55c-32.71-42.54-91.32-101.63-126.42-135.85-.65-1.52-1.75-3-2.4-4.54a790.54,790.54,0,0,0-80.49-141.47c-34.26-48.46-77.8-96.16-128.55-140.08-6.08-5.7-13.11-10.72-19.6-16.11-3.32-2.62-6.67-5.34-10-8l-4.92-4c-1.73-1.34-3.51-2.54-5.24-3.83q-10.44-7.54-20.94-15.22l-5.24-3.82-5.51-3.56q-5.47-3.61-10.94-7.17c-14.39-9.92-29.91-18.51-45.05-27.59-7.71-4.4-15.8-8.45-23.65-12.63-3.88-2.1-7.85-4.23-11.83-6.28s-8.17-3.87-12.19-5.78A789.73,789.73,0,0,0,2088.86,871l-27.3-4.28c-9.11-1.2-18.36-2-27.43-3l-13.74-1.47-13.79-.71-13.78-.8c-4.58-.22-9.12-.67-13.74-.58-9.16,0-18.32-.13-27.53-.18-2.24,0-4.67-.13-6.78,0l-6.12.32-12.24.62-12.16.58c-1.07,0-1.82,0-3.22.13l-12.48.89-16.68,1.11-12.48.89-2.1.14-.75,0s-4.35,0,2.94.13l-27,3.79c-4.43.66-8.92,1.06-13.36,2l-13.23,2.54-13.22,2.49-6.59,1.24c-2.2.4-4.35,1-6.5,1.52-8.65,2.09-17.29,4.13-25.89,6.27-4.35.89-8.55,2.31-12.76,3.52L1738.34,892l-12.62,3.6-12.34,4.32c-8.22,2.94-16.45,5.52-24.44,8.63s-15.93,6.41-23.83,9.66c-62.86,26.61-119.37,61-167.46,100.3l-9.06,7.21-8.6,7.7c-5.7,5.07-11.59,9.92-17,15.13-.23.18-.42.44-.65.62-10.56,10.41-21.26,20.2-30.75,31-2.53,2.63-5,5.3-7.43,8l-3.74,3.91-3.46,4.19c-4.63,5.43-9.21,10.9-13.79,16.28-1.12,1.34-2.33,2.63-3.46,4l-3.13,4.18c-2.15,2.81-4.25,5.61-6.35,8.32-4.11,5.61-8.6,10.77-12.29,16.56-31.22,44.5-55,89-71.18,131.45a577.54,577.54,0,0,0-31.55,117.21c-.61,4.41-1.21,8.72-1.82,13s-1.4,8.36-1.59,12.5c-.7,8.28-1.4,16.15-2.1,23.67-.47,7.66-.47,15-.8,21.9-.14,3.47-.37,6.85-.42,10.1.14,3.34.23,6.58.28,9.7.09,6.27.19,12.19.28,17.71a22.24,22.24,0,0,0,.33,3.43c.14,1,.28,2,.42,3,.19,2,.47,1.69.65,3.47.14,1.52.33,2.23.47,2.23h307.66l-186.94,197.35L957,2164.89,335.43,1515H662.25c.47,0,1-5.34,1.5-9.52,1.26-9,2.62-17.85,4.11-28.57.84-5.34,1.59-10.33,2.48-16.07.46-2.8.89-5.47,1.35-8.41s.84-6,1.45-8.54c2.29-10.77,4.67-22.12,7.2-34.22,1.35-6,2.66-12.15,4.07-18.47s3.27-12.73,5-19.31c3.55-13.13,7-26.92,11.31-41.12q6.87-21.16,14.26-44c2.38-7.65,5.51-15.17,8.41-23s6-15.53,9.07-23.54a1103.09,1103.09,0,0,1,106.32-201.89c46.13-69.47,104.87-138.66,174.6-202.83,8.46-8.23,17.81-15.75,26.83-23.63,4.58-3.87,9.11-7.79,13.7-11.7l7-5.88,7.1-5.6c9.58-7.44,19.26-15,28.89-22.48l7.29-5.6,7.57-5.34c5.09-3.61,10.14-7.17,15.23-10.73,20-14.55,41.41-27.68,62.72-41.21,10.75-6.58,21.87-12.72,33-19.09,5.47-3.11,11-6.23,16.59-9.43l17.11-8.81a1141.47,1141.47,0,0,1,295.74-105c13-2.45,26.17-4.94,39.26-7.39s26.4-3.92,39.58-5.83l19.82-2.67,20-1.87,19.91-1.82c6.64-.58,13.23-1.3,19.91-1.52,13.28-.58,26.6-2.09,39.92-2.67,3.27-.13,6.63-1.33,10-1.33h10l19.87,1.07,19.86.62c6.63,0,13.27.84,19.86,1.16l39.49,2.26c9,.14,3.09.23,5.38.27l1,.14,2.11.22,4.11.53,8.32,1,16.54,2,8.32,1,4.12.49,5.09.66,20.94,2.94,20.93,3,10.38,1.56c3.41.53,6.45,1.24,9.72,1.86,12.76,2.58,25.52,5.21,38.28,7.75,6.35,1.2,12.62,2.93,18.88,4.49l18.83,4.76,18.7,4.76,18.46,5.57c12.24,3.78,24.53,7.34,36.54,11.43,12,4.27,23.93,8.55,35.85,12.82,94.55,35.78,180.82,83.52,255,139.1,4.68,3.43,9.3,6.9,13.93,10.33s9,7.16,13.41,10.81c8.88,7.21,17.81,14.15,26.36,21.54,16.87,15.09,33.7,29.55,49.07,45.21,3.93,3.83,7.76,7.7,11.69,11.48l5.75,5.7,5.51,5.92q11,11.88,21.73,23.58l5.38,5.88,5.14,6c3.32,4.05,6.73,8.05,10.05,12.06,6.63,8,13.6,15.71,19.58,24a974.21,974.21,0,0,1,86.32,131.23c11.59,21.13,21.92,42.18,31,63a895.52,895.52,0,0,1,57.67,177.65c1.27,6.76,2.62,13.39,3.88,19.93s2.67,12.86,3.46,19.23c1.78,12.68,3.55,24.83,5.19,36.53,1.4,11.75,2.15,23,3.18,33.77.42,5.34,1,10.55,1.3,15.71s1.31,10.06,1.55,15C2808.45,1451.65,2810.08,1461,2810.08,1469.54Z" transform="translate(-196.51 53.4)"/><path class="cls-16" d="M2810.08,1469.54v3.55c-32.71-42.54-91.32-101.63-126.42-135.85-.65-1.52-1.75-3-2.4-4.54a790.54,790.54,0,0,0-80.49-141.47c-34.26-48.46-77.8-96.16-128.55-140.08-6.08-5.7-13.11-10.72-19.6-16.11-3.32-2.62-6.67-5.34-10-8l-4.92-4c-1.73-1.34-3.51-2.54-5.24-3.83q-10.44-7.54-20.94-15.22l-5.24-3.82-5.51-3.56q-5.47-3.61-10.94-7.17c-14.39-9.92-29.91-18.51-45.05-27.59-7.71-4.4-15.8-8.45-23.65-12.63-3.88-2.1-7.85-4.23-11.83-6.28s-8.17-3.87-12.19-5.78A789.73,789.73,0,0,0,2088.86,871l-27.3-4.28c-9.11-1.2-18.36-2-27.43-3l-13.74-1.47-13.79-.71-13.78-.8c-4.58-.22-9.12-.67-13.74-.58-9.16,0-18.32-.13-27.53-.18-2.24,0-4.67-.13-6.78,0l-6.12.32-12.24.62-12.16.58c-1.07,0-1.82,0-3.22.13l-12.48.89-16.68,1.11-12.48.89-2.1.14-.75,0s-4.35,0,2.94.13l-27,3.79c-4.43.66-8.92,1.06-13.36,2l-13.23,2.54-13.22,2.49-6.59,1.24c-2.2.4-4.35,1-6.5,1.52-8.65,2.09-17.29,4.13-25.89,6.27-4.35.89-8.55,2.31-12.76,3.52L1738.34,892l-12.62,3.6-12.34,4.32c-8.22,2.94-16.45,5.52-24.44,8.63s-15.93,6.41-23.83,9.66c-62.86,26.61-119.37,61-167.46,100.3l-9.06,7.21-8.6,7.7c-5.7,5.07-11.59,9.92-17,15.13-.23.18-.42.44-.65.62,138.1-162.82,361.83-268.6,614.29-268.6,258.69,0,487.18,111,624.3,280.62,11.59,21.13,21.92,42.18,31,63a895.52,895.52,0,0,1,57.67,177.65c1.27,6.76,2.62,13.39,3.88,19.93s2.67,12.86,3.46,19.23c1.78,12.68,3.55,24.83,5.19,36.53,1.4,11.75,2.15,23,3.18,33.77.42,5.34,1,10.55,1.3,15.71s1.31,10.06,1.55,15C2808.45,1451.65,2810.08,1461,2810.08,1469.54Z" transform="translate(-196.51 53.4)"/></g><path class="cls-17" d="M524.25,3340v95c0,30.71,191.8,55.59,428.39,55.59S1381,3465.75,1381,3435v-95Z" transform="translate(-196.51 53.4)"/><path class="cls-18" d="M1381,3340c0,30.71-191.79,55.6-428.38,55.6s-428.39-24.89-428.39-55.6,191.8-55.59,428.39-55.59S1381,3309.32,1381,3340Z" transform="translate(-196.51 53.4)"/><path class="cls-19" d="M952.63,3399.45c-209.52,0-428.63-20-428.63-58.61,0-2.12.76-5.85,2.88-5.85s1.21,2.92,1.21,5c0,24.48,174.35,51.75,424.54,51.75s424.55-27.27,424.55-51.75c0-2.12.36-4.11,2.48-4.11s1.61,2.83,1.61,4.95C1381.27,3379.47,1162.16,3399.45,952.63,3399.45Z" transform="translate(-196.51 53.4)"/><path class="cls-20" d="M912.16,3343.12c4.2-2.91,8.67-5.77,13.46-8.61a84.46,84.46,0,0,1,18.4-7.67,175.33,175.33,0,0,1,28.24-5.58,355.32,355.32,0,0,1,42.3-2.29q24.84-.12,46.63,1.58a316.18,316.18,0,0,1,38.34,5.08c11,2.25,20,5,26.91,8.35s11,7.12,12.31,11.4l48.23.49a46.6,46.6,0,0,1,9.25.86c2.7.55,4,1.24,4,2.08l0,4-62-.59q-3.26,7.29-16.62,13.34t-34,10.49l-22.59-3.14a25.72,25.72,0,0,1-5-1.18c-1.3-.47-1.93-1-1.93-1.55q0-1.14,5.24-2.61t11.82-3.64a118.69,118.69,0,0,0,12.94-5.12c4.21-2,7-4.32,8.49-7.05l-146.36-1.45a137.94,137.94,0,0,1-12.93,8.34,84,84,0,0,1-19,7.37,197.41,197.41,0,0,1-29.46,5.32,416.79,416.79,0,0,1-44.41,2.18c-13.41.06-26.47-.45-39.26-1.53a269.21,269.21,0,0,1-34.08-4.85c-9.93-2.16-18.06-4.83-24.45-8s-9.9-6.83-10.64-11l-39.71-.41a51.74,51.74,0,0,1-9.38-.82c-2.74-.53-4.14-1.24-4.14-2.12l0-4,54.29.52c2.41-4.19,7.32-7.84,14.85-10.94a170.56,170.56,0,0,1,27.55-8.29l18.18,2.5c5.53.78,8.27,1.68,8.27,2.73,0,.56-1.11,1.26-3.4,2.09s-5,1.83-8.15,3a74.84,74.84,0,0,0-9,4.08,19.14,19.14,0,0,0-6.62,5.29Zm-133.95,5.42c1.09,2.6,3.52,4.84,7.21,6.73a57.68,57.68,0,0,0,13.8,4.66,142.33,142.33,0,0,0,18.58,2.67q10.38.86,21.68.8a226.06,226.06,0,0,0,23-1.13,134,134,0,0,0,17.22-2.92,80.75,80.75,0,0,0,12.94-4.27,72.61,72.61,0,0,0,9.89-5.29Zm318.63-3.56c-1.09-2.63-3.75-4.95-7.88-6.94a71.43,71.43,0,0,0-15.87-5,174.55,174.55,0,0,0-22.49-3q-12.8-1-28.27-.91a216.57,216.57,0,0,0-23.69,1.22,122.85,122.85,0,0,0-17.21,3.13,62.77,62.77,0,0,0-12.36,4.57,87.18,87.18,0,0,0-9.49,5.59Z" transform="translate(-196.51 53.4)"/><path class="cls-21" d="M952.69,3290.45c-191,0-389.89,16.81-421.7,49.35a37.57,37.57,0,0,1,3.48,3.66c26.81-22.6,191-45.34,418.22-45.34,233,0,399.88,23.93,420.09,47.08a39.47,39.47,0,0,1,3.21-3.63C1349.71,3307.88,1147.1,3290.45,952.69,3290.45Z" transform="translate(-196.51 53.4)"/><path class="cls-22" d="M405.17,3240.22v95c0,30.7,191.79,55.59,428.38,55.59s428.38-24.89,428.38-55.59v-95Z" transform="translate(-196.51 53.4)"/><path class="cls-23" d="M1261.93,3240.22c0,30.7-191.79,55.59-428.38,55.59s-428.38-24.89-428.38-55.59,191.79-55.59,428.38-55.59S1261.93,3209.52,1261.93,3240.22Z" transform="translate(-196.51 53.4)"/><path class="cls-24" d="M833.55,3299.65c-209.53,0-428.63-20-428.63-58.62,0-2.12.75-5.84,2.87-5.84s1.21,2.91,1.21,5c0,24.48,174.36,51.76,424.55,51.76s424.54-27.28,424.54-51.76c0-2.12.37-4.1,2.49-4.1s1.6,2.82,1.6,4.94C1262.18,3279.66,1043.08,3299.65,833.55,3299.65Z" transform="translate(-196.51 53.4)"/><path class="cls-20" d="M793.07,3243.32c4.2-2.91,8.67-5.78,13.46-8.61a84.46,84.46,0,0,1,18.4-7.67,175.22,175.22,0,0,1,28.24-5.59,357.72,357.72,0,0,1,42.3-2.28q24.84-.12,46.63,1.58a316.06,316.06,0,0,1,38.34,5.07q16.5,3.39,26.92,8.35t12.3,11.41l48.24.49a47.31,47.31,0,0,1,9.24.85c2.7.55,4,1.24,4,2.09l0,4-62-.6q-3.27,7.3-16.63,13.35t-34,10.49l-22.59-3.14a26.16,26.16,0,0,1-5-1.18c-1.31-.47-1.94-1-1.94-1.55,0-.77,1.74-1.64,5.24-2.61s7.43-2.2,11.82-3.65A119.58,119.58,0,0,0,969,3259c4.2-2,7-4.32,8.49-7.05l-146.37-1.46a136.64,136.64,0,0,1-12.93,8.34,84.45,84.45,0,0,1-19,7.38,198.71,198.71,0,0,1-29.46,5.32,417.07,417.07,0,0,1-44.4,2.17c-13.42.07-26.48-.44-39.27-1.52A267.55,267.55,0,0,1,652,3267.3q-14.88-3.24-24.45-8c-6.34-3.18-9.9-6.83-10.64-11l-39.71-.41a51.68,51.68,0,0,1-9.38-.83c-2.74-.53-4.13-1.23-4.14-2.11l0-4,54.3.51c2.4-4.18,7.32-7.83,14.84-10.93a169.87,169.87,0,0,1,27.55-8.29l18.18,2.5c5.53.77,8.27,1.68,8.27,2.72,0,.57-1.11,1.26-3.4,2.1s-5,1.83-8.15,3a76.42,76.42,0,0,0-9,4.08,19.35,19.35,0,0,0-6.62,5.3Zm-134,5.41c1.09,2.61,3.52,4.85,7.21,6.73a56.81,56.81,0,0,0,13.8,4.66,140.47,140.47,0,0,0,18.59,2.68q10.37.85,21.67.8a228.4,228.4,0,0,0,23-1.14,133.8,133.8,0,0,0,17.22-2.91,79.72,79.72,0,0,0,12.94-4.28,71.51,71.51,0,0,0,9.89-5.28Zm318.63-3.55c-1.09-2.64-3.75-4.95-7.88-6.94a71.22,71.22,0,0,0-15.87-5,174.69,174.69,0,0,0-22.49-3q-12.79-1-28.27-.92a219.13,219.13,0,0,0-23.69,1.23,121.68,121.68,0,0,0-17.21,3.13,62.38,62.38,0,0,0-12.36,4.57,87.65,87.65,0,0,0-9.48,5.58Z" transform="translate(-196.51 53.4)"/><path class="cls-25" d="M833.61,3190.65c-191,0-389.89,16.8-421.71,49.34a37.51,37.51,0,0,1,3.48,3.66c26.82-22.59,191-45.33,418.23-45.33,233,0,399.87,23.93,420.08,47.07a40.83,40.83,0,0,1,3.21-3.63C1230.62,3208.08,1028,3190.65,833.61,3190.65Z" transform="translate(-196.51 53.4)"/><path class="cls-26" d="M507.92,3140.71v95c0,30.7,191.8,55.59,428.39,55.59s428.38-24.89,428.38-55.59v-95Z" transform="translate(-196.51 53.4)"/><path class="cls-27" d="M1364.69,3140.71c0,30.7-191.8,55.59-428.38,55.59s-428.39-24.89-428.39-55.59,191.8-55.59,428.39-55.59S1364.69,3110,1364.69,3140.71Z" transform="translate(-196.51 53.4)"/><path class="cls-28" d="M936.3,3200.13c-209.53,0-428.63-20-428.63-58.61,0-2.12.76-5.84,2.88-5.84s1.21,2.91,1.21,5c0,24.48,174.35,51.75,424.54,51.75s424.55-27.27,424.55-51.75c0-2.12.36-4.11,2.48-4.11s1.61,2.83,1.61,5C1364.94,3180.15,1145.83,3200.13,936.3,3200.13Z" transform="translate(-196.51 53.4)"/><path class="cls-20" d="M895.83,3143.81c4.2-2.91,8.67-5.78,13.46-8.61a84.93,84.93,0,0,1,18.4-7.68,176.43,176.43,0,0,1,28.24-5.58,357.72,357.72,0,0,1,42.3-2.28q24.84-.13,46.62,1.57a318.1,318.1,0,0,1,38.35,5.08c11,2.25,20,5,26.91,8.35s11,7.12,12.31,11.41l48.23.48a48.14,48.14,0,0,1,9.25.86c2.7.55,4,1.24,4,2.09l0,4-62-.6q-3.26,7.29-16.62,13.35t-34,10.49l-22.58-3.14a26.47,26.47,0,0,1-5-1.18c-1.3-.48-1.93-1-1.93-1.56,0-.76,1.74-1.63,5.23-2.61s7.44-2.19,11.83-3.64a118.69,118.69,0,0,0,12.94-5.12c4.21-2,7-4.31,8.49-7.05L933.91,3151A139.26,139.26,0,0,1,921,3159.3a84.55,84.55,0,0,1-19,7.38,199.61,199.61,0,0,1-29.45,5.32,417.13,417.13,0,0,1-44.41,2.17c-13.41.07-26.47-.44-39.26-1.52a267,267,0,0,1-34.08-4.86c-9.93-2.16-18.06-4.83-24.45-8s-9.9-6.84-10.64-11l-39.71-.4a51.68,51.68,0,0,1-9.38-.83c-2.74-.53-4.14-1.23-4.14-2.11l0-4,54.29.51c2.4-4.18,7.32-7.83,14.85-10.93a169.56,169.56,0,0,1,27.55-8.29l18.18,2.49c5.52.78,8.26,1.69,8.27,2.73,0,.56-1.12,1.26-3.4,2.09s-5,1.84-8.15,3a74.84,74.84,0,0,0-9,4.08,19.16,19.16,0,0,0-6.62,5.3Zm-134,5.41c1.09,2.6,3.52,4.85,7.21,6.73a57.68,57.68,0,0,0,13.8,4.66,140.55,140.55,0,0,0,18.58,2.68q10.38.86,21.68.8a228.72,228.72,0,0,0,23-1.14,135.38,135.38,0,0,0,17.21-2.91,80.51,80.51,0,0,0,13-4.28,72.6,72.6,0,0,0,9.89-5.28Zm318.63-3.55c-1.09-2.64-3.75-5-7.89-6.94a71.12,71.12,0,0,0-15.86-5,176.33,176.33,0,0,0-22.49-3q-12.79-1-28.27-.91a216.31,216.31,0,0,0-23.69,1.23,121.52,121.52,0,0,0-17.21,3.12,62.12,62.12,0,0,0-12.36,4.58,88.79,88.79,0,0,0-9.49,5.58Z" transform="translate(-196.51 53.4)"/><path class="cls-29" d="M936.36,3091.13c-191,0-389.89,16.81-421.7,49.35a38.74,38.74,0,0,1,3.48,3.66c26.81-22.59,191-45.34,418.22-45.34,233,0,399.88,23.93,420.09,47.08a40.72,40.72,0,0,1,3.2-3.63C1333.38,3108.56,1130.76,3091.13,936.36,3091.13Z" transform="translate(-196.51 53.4)"/><path class="cls-30" d="M570.28,3040.91v95c0,30.71,191.79,55.59,428.38,55.59S1427,3166.63,1427,3135.92v-95Z" transform="translate(-196.51 53.4)"/><ellipse class="cls-31" cx="802.15" cy="3094.31" rx="428.38" ry="55.59"/><path class="cls-32" d="M998.66,3100.33c-209.53,0-428.63-20-428.63-58.61,0-2.12.75-5.85,2.88-5.85s1.2,2.92,1.2,5c0,24.48,174.36,51.75,424.55,51.75s424.55-27.27,424.55-51.75c0-2.12.36-4.11,2.48-4.11s1.61,2.83,1.61,4.95C1427.3,3080.35,1208.19,3100.33,998.66,3100.33Z" transform="translate(-196.51 53.4)"/><path class="cls-20" d="M958.18,3044q6.3-4.36,13.46-8.61a84.56,84.56,0,0,1,18.41-7.67,175.11,175.11,0,0,1,28.24-5.58,359.43,359.43,0,0,1,42.29-2.29q24.84-.12,46.63,1.58a315.91,315.91,0,0,1,38.34,5.08q16.52,3.38,26.92,8.35t12.3,11.4l48.24.49a46.6,46.6,0,0,1,9.25.86c2.69.55,4,1.24,4,2.08l0,4-62-.59q-3.27,7.29-16.63,13.35t-34,10.49l-22.58-3.15a25.54,25.54,0,0,1-5-1.18c-1.3-.47-1.93-1-1.94-1.55,0-.76,1.74-1.63,5.24-2.61s7.44-2.2,11.83-3.64a118.69,118.69,0,0,0,12.94-5.12c4.21-2,7-4.32,8.49-7l-146.37-1.45a137.73,137.73,0,0,1-12.92,8.34,84.11,84.11,0,0,1-19,7.37,197.25,197.25,0,0,1-29.45,5.32,414.29,414.29,0,0,1-44.41,2.18c-13.42.06-26.48-.45-39.27-1.53a269.47,269.47,0,0,1-34.08-4.85q-14.88-3.24-24.44-8t-10.65-11l-39.71-.41a51.9,51.9,0,0,1-9.38-.82c-2.74-.53-4.13-1.24-4.14-2.12v-4l54.29.52c2.4-4.19,7.32-7.84,14.84-10.94a170.87,170.87,0,0,1,27.55-8.29l18.19,2.5c5.52.78,8.26,1.68,8.27,2.73,0,.56-1.12,1.26-3.4,2.09s-5,1.83-8.16,3a74.84,74.84,0,0,0-9,4.08,19.19,19.19,0,0,0-6.61,5.29Zm-133.95,5.42c1.09,2.6,3.52,4.84,7.21,6.73a57.83,57.83,0,0,0,13.8,4.66,142.49,142.49,0,0,0,18.59,2.67q10.36.86,21.67.8a226.12,226.12,0,0,0,23-1.13,133.51,133.51,0,0,0,17.21-2.92,80.88,80.88,0,0,0,12.95-4.27,73.21,73.21,0,0,0,9.89-5.29Zm318.63-3.55c-1.09-2.64-3.74-5-7.88-6.95a71.33,71.33,0,0,0-15.86-5,174.72,174.72,0,0,0-22.5-3q-12.8-1-28.27-.91a216.51,216.51,0,0,0-23.68,1.22,123,123,0,0,0-17.22,3.13,63,63,0,0,0-12.36,4.57,86.08,86.08,0,0,0-9.48,5.59Z" transform="translate(-196.51 53.4)"/><path class="cls-33" d="M998.72,2991.33c-191,0-389.89,16.81-421.7,49.35a37.46,37.46,0,0,1,3.47,3.66c26.82-22.59,191-45.34,418.23-45.34,233,0,399.87,23.93,420.09,47.08a37.93,37.93,0,0,1,3.2-3.63C1395.74,3008.76,1193.12,2991.33,998.72,2991.33Z" transform="translate(-196.51 53.4)"/><path class="cls-34" d="M524.25,2933.23v95c0,30.7,191.8,55.59,428.39,55.59S1381,3059,1381,3028.25v-95Z" transform="translate(-196.51 53.4)"/><path class="cls-35" d="M1381,2933.23c0,30.7-191.79,55.59-428.38,55.59s-428.39-24.89-428.39-55.59,191.8-55.59,428.39-55.59S1381,2902.53,1381,2933.23Z" transform="translate(-196.51 53.4)"/><path class="cls-36" d="M952.63,2992.65c-209.52,0-428.63-20-428.63-58.61,0-2.12.76-5.85,2.88-5.85s1.21,2.92,1.21,5c0,24.48,174.35,51.75,424.54,51.75s424.55-27.27,424.55-51.75c0-2.12.36-4.11,2.48-4.11s1.61,2.83,1.61,5C1381.27,2972.67,1162.16,2992.65,952.63,2992.65Z" transform="translate(-196.51 53.4)"/><path class="cls-20" d="M912.16,2936.33c4.2-2.91,8.67-5.78,13.46-8.62A85.46,85.46,0,0,1,944,2920a176.43,176.43,0,0,1,28.24-5.58,359.61,359.61,0,0,1,42.3-2.29q24.84-.12,46.63,1.58a318.19,318.19,0,0,1,38.34,5.08c11,2.25,20,5,26.91,8.35s11,7.12,12.31,11.4l48.23.49a47.36,47.36,0,0,1,9.25.86c2.7.55,4,1.24,4,2.08l0,4-62-.6q-3.26,7.29-16.62,13.35t-34,10.49l-22.59-3.14a27.28,27.28,0,0,1-5-1.18c-1.3-.48-1.93-1-1.93-1.56q0-1.14,5.24-2.61t11.82-3.64a118.69,118.69,0,0,0,12.94-5.12c4.21-2,7-4.31,8.49-7.05l-146.36-1.45a137.94,137.94,0,0,1-12.93,8.34,84.45,84.45,0,0,1-19,7.38,200,200,0,0,1-29.46,5.32,417.13,417.13,0,0,1-44.41,2.17c-13.41.07-26.47-.44-39.26-1.52a269.09,269.09,0,0,1-34.08-4.86c-9.93-2.16-18.06-4.83-24.45-8s-9.9-6.84-10.64-11l-39.71-.4a52.59,52.59,0,0,1-9.38-.83c-2.74-.53-4.14-1.23-4.14-2.11l0-4,54.29.52c2.41-4.18,7.32-7.83,14.85-10.94a169.63,169.63,0,0,1,27.55-8.28l18.18,2.49c5.53.78,8.27,1.69,8.27,2.73,0,.56-1.11,1.26-3.4,2.09s-5,1.83-8.15,3a74.84,74.84,0,0,0-9,4.08,19.16,19.16,0,0,0-6.62,5.3Zm-133.95,5.41c1.09,2.6,3.52,4.84,7.21,6.73a57.68,57.68,0,0,0,13.8,4.66,140.55,140.55,0,0,0,18.58,2.68q10.38.84,21.68.8a228.72,228.72,0,0,0,23-1.14,134,134,0,0,0,17.22-2.92,80.75,80.75,0,0,0,12.94-4.27,72.61,72.61,0,0,0,9.89-5.29Zm318.63-3.55c-1.09-2.64-3.75-5-7.88-6.94a70.87,70.87,0,0,0-15.87-5,176.33,176.33,0,0,0-22.49-3q-12.8-1-28.27-.91a213.84,213.84,0,0,0-23.69,1.23,121.52,121.52,0,0,0-17.21,3.12,62.77,62.77,0,0,0-12.36,4.57,88.82,88.82,0,0,0-9.49,5.59Z" transform="translate(-196.51 53.4)"/><path class="cls-37" d="M952.69,2883.65c-191,0-389.89,16.81-421.7,49.35a38.74,38.74,0,0,1,3.48,3.66c26.81-22.59,191-45.34,418.22-45.34,233,0,399.88,23.93,420.09,47.08a40.83,40.83,0,0,1,3.21-3.63C1349.71,2901.08,1147.1,2883.65,952.69,2883.65Z" transform="translate(-196.51 53.4)"/><path class="cls-38" d="M405.17,2833.42v95c0,30.7,191.79,55.59,428.38,55.59s428.38-24.89,428.38-55.59v-95Z" transform="translate(-196.51 53.4)"/><ellipse class="cls-39" cx="637.04" cy="2886.83" rx="428.38" ry="55.59"/><path class="cls-40" d="M833.55,2892.85c-209.53,0-428.63-20-428.63-58.61,0-2.12.75-5.85,2.87-5.85s1.21,2.91,1.21,5c0,24.48,174.36,51.76,424.55,51.76s424.54-27.28,424.54-51.76c0-2.12.37-4.1,2.49-4.1s1.6,2.83,1.6,4.95C1262.18,2872.87,1043.08,2892.85,833.55,2892.85Z" transform="translate(-196.51 53.4)"/><path class="cls-20" d="M793.07,2836.52c4.2-2.91,8.67-5.78,13.46-8.61a84.46,84.46,0,0,1,18.4-7.67,176.32,176.32,0,0,1,28.24-5.59,357.72,357.72,0,0,1,42.3-2.28q24.84-.12,46.63,1.58a315.91,315.91,0,0,1,38.34,5.08q16.5,3.38,26.92,8.35t12.3,11.4l48.24.49a47.31,47.31,0,0,1,9.24.85c2.7.55,4,1.25,4,2.09l0,4-62-.6q-3.27,7.3-16.63,13.35t-34,10.49l-22.59-3.14a26.16,26.16,0,0,1-5-1.18c-1.31-.47-1.94-1-1.94-1.55,0-.76,1.74-1.63,5.24-2.61s7.43-2.2,11.82-3.64a121.74,121.74,0,0,0,12.95-5.12c4.2-2,7-4.32,8.49-7l-146.37-1.45a138.65,138.65,0,0,1-12.93,8.34,84,84,0,0,1-19,7.37,197.41,197.41,0,0,1-29.46,5.32,414.43,414.43,0,0,1-44.4,2.17c-13.42.07-26.48-.44-39.27-1.52a269.47,269.47,0,0,1-34.08-4.85q-14.88-3.24-24.45-8c-6.34-3.18-9.9-6.83-10.64-11l-39.71-.41a51.74,51.74,0,0,1-9.38-.82c-2.74-.53-4.13-1.24-4.14-2.12l0-4,54.3.52c2.4-4.19,7.32-7.84,14.84-10.94a169.87,169.87,0,0,1,27.55-8.29l18.18,2.5c5.53.77,8.27,1.68,8.27,2.73,0,.56-1.11,1.25-3.4,2.09s-5,1.83-8.15,3a73.32,73.32,0,0,0-9,4.08,19.33,19.33,0,0,0-6.62,5.29Zm-134,5.41c1.09,2.61,3.52,4.85,7.21,6.74a57.68,57.68,0,0,0,13.8,4.66,142.24,142.24,0,0,0,18.59,2.67q10.37.86,21.67.8a222.64,222.64,0,0,0,23-1.14,132.09,132.09,0,0,0,17.22-2.91,79.72,79.72,0,0,0,12.94-4.28,71.51,71.51,0,0,0,9.89-5.28Zm318.63-3.55c-1.09-2.64-3.75-5-7.88-6.94a71.26,71.26,0,0,0-15.87-5,174.55,174.55,0,0,0-22.49-3q-12.79-1-28.27-.92a219.13,219.13,0,0,0-23.69,1.23,123.12,123.12,0,0,0-17.21,3.13,63,63,0,0,0-12.36,4.57,87.65,87.65,0,0,0-9.48,5.58Z" transform="translate(-196.51 53.4)"/><path class="cls-41" d="M833.61,2783.85c-191,0-389.89,16.81-421.71,49.34a38.68,38.68,0,0,1,3.48,3.66c26.82-22.59,191-45.33,418.23-45.33,233,0,399.87,23.93,420.08,47.08a39.47,39.47,0,0,1,3.21-3.63C1230.62,2801.28,1028,2783.85,833.61,2783.85Z" transform="translate(-196.51 53.4)"/><path class="cls-42" d="M507.92,2733.91v95c0,30.7,191.8,55.59,428.39,55.59s428.38-24.89,428.38-55.59v-95Z" transform="translate(-196.51 53.4)"/><ellipse class="cls-43" cx="739.8" cy="2787.32" rx="428.38" ry="55.59"/><path class="cls-44" d="M936.3,2793.34c-209.53,0-428.63-20-428.63-58.62,0-2.12.76-5.84,2.88-5.84s1.21,2.91,1.21,5c0,24.48,174.35,51.76,424.54,51.76s424.55-27.28,424.55-51.76c0-2.12.36-4.1,2.48-4.1s1.61,2.82,1.61,4.94C1364.94,2773.36,1145.83,2793.34,936.3,2793.34Z" transform="translate(-196.51 53.4)"/><path class="cls-20" d="M895.83,2737c4.2-2.91,8.67-5.78,13.46-8.61a84.46,84.46,0,0,1,18.4-7.67,175.22,175.22,0,0,1,28.24-5.59,357.72,357.72,0,0,1,42.3-2.28q24.84-.12,46.62,1.58a318.25,318.25,0,0,1,38.35,5.07c11,2.26,20,5,26.91,8.35s11,7.13,12.31,11.41l48.23.49a47.41,47.41,0,0,1,9.25.85c2.7.55,4,1.25,4,2.09l0,4-62-.6q-3.26,7.3-16.62,13.35t-34,10.49l-22.58-3.14a26.47,26.47,0,0,1-5-1.18c-1.3-.47-1.93-1-1.93-1.55,0-.77,1.74-1.64,5.23-2.61s7.44-2.2,11.83-3.65a118.62,118.62,0,0,0,12.94-5.11c4.21-2,7-4.32,8.49-7.05l-146.36-1.45A141.35,141.35,0,0,1,921,2752.5a83.61,83.61,0,0,1-19,7.38,198.3,198.3,0,0,1-29.45,5.32,414.49,414.49,0,0,1-44.41,2.17c-13.41.07-26.47-.44-39.26-1.52a267,267,0,0,1-34.08-4.86c-9.93-2.16-18.06-4.82-24.45-8s-9.9-6.83-10.64-11l-39.71-.41a51.68,51.68,0,0,1-9.38-.83c-2.74-.53-4.14-1.23-4.14-2.11l0-4,54.29.51c2.4-4.18,7.32-7.83,14.85-10.93a169.56,169.56,0,0,1,27.55-8.29l18.18,2.5c5.52.77,8.26,1.68,8.27,2.72,0,.57-1.12,1.26-3.4,2.1s-5,1.83-8.15,3a74.77,74.77,0,0,0-9,4.07,19.27,19.27,0,0,0-6.62,5.3Zm-134,5.41c1.09,2.61,3.52,4.85,7.21,6.74a57.26,57.26,0,0,0,13.8,4.65,140.55,140.55,0,0,0,18.58,2.68q10.38.86,21.68.8a222.94,222.94,0,0,0,23-1.14,131.91,131.91,0,0,0,17.21-2.91,79.53,79.53,0,0,0,13-4.28,71.51,71.51,0,0,0,9.89-5.28Zm318.63-3.55c-1.09-2.64-3.75-4.95-7.89-6.94a71.16,71.16,0,0,0-15.86-5,174.55,174.55,0,0,0-22.49-3q-12.79-1-28.27-.92a218.84,218.84,0,0,0-23.69,1.23,121.41,121.41,0,0,0-17.21,3.13,62.14,62.14,0,0,0-12.36,4.57,88.79,88.79,0,0,0-9.49,5.58Z" transform="translate(-196.51 53.4)"/><path class="cls-45" d="M936.36,2684.34c-191,0-389.89,16.8-421.7,49.34a38.74,38.74,0,0,1,3.48,3.66c26.81-22.59,191-45.33,418.22-45.33,233,0,399.88,23.93,420.09,47.07a39.24,39.24,0,0,1,3.2-3.62C1333.38,2701.77,1130.76,2684.34,936.36,2684.34Z" transform="translate(-196.51 53.4)"/><path class="cls-46" d="M454.48,2634.11v95c0,30.7,191.79,55.59,428.38,55.59s428.38-24.89,428.38-55.59v-95Z" transform="translate(-196.51 53.4)"/><ellipse class="cls-47" cx="686.35" cy="2687.51" rx="428.38" ry="55.59"/><path class="cls-48" d="M882.86,2693.53c-209.53,0-428.63-20-428.63-58.61,0-2.12.75-5.85,2.87-5.85s1.21,2.92,1.21,5c0,24.48,174.36,51.75,424.55,51.75s424.54-27.27,424.54-51.75c0-2.12.36-4.11,2.48-4.11s1.61,2.83,1.61,4.95C1311.49,2673.55,1092.39,2693.53,882.86,2693.53Z" transform="translate(-196.51 53.4)"/><path class="cls-20" d="M842.38,2637.21c4.2-2.91,8.67-5.78,13.46-8.62a85.46,85.46,0,0,1,18.4-7.67,176.43,176.43,0,0,1,28.24-5.58,357.72,357.72,0,0,1,42.3-2.28q24.84-.14,46.63,1.57a318.19,318.19,0,0,1,38.34,5.08q16.5,3.38,26.92,8.35t12.3,11.4l48.23.49a47.36,47.36,0,0,1,9.25.86c2.7.55,4,1.24,4,2.09l0,4-62-.6q-3.26,7.29-16.62,13.35t-34,10.49L995.25,2667a26.16,26.16,0,0,1-5-1.18c-1.31-.48-1.94-1-1.94-1.56,0-.76,1.74-1.63,5.24-2.61s7.43-2.19,11.82-3.64a118.69,118.69,0,0,0,12.94-5.12c4.21-2,7-4.31,8.49-7.05l-146.36-1.45a137.94,137.94,0,0,1-12.93,8.34,84.45,84.45,0,0,1-19,7.38,200,200,0,0,1-29.46,5.32,417.07,417.07,0,0,1-44.4,2.17c-13.42.07-26.48-.44-39.27-1.52a267.55,267.55,0,0,1-34.08-4.86c-9.93-2.16-18.06-4.83-24.45-8s-9.9-6.84-10.64-11l-39.71-.4a52.59,52.59,0,0,1-9.38-.83c-2.74-.53-4.13-1.23-4.14-2.11l0-4,54.29.52c2.41-4.18,7.32-7.83,14.85-10.93a169.56,169.56,0,0,1,27.55-8.29l18.18,2.49c5.53.78,8.27,1.69,8.27,2.73,0,.56-1.11,1.26-3.4,2.09s-5,1.83-8.15,3a74.84,74.84,0,0,0-9,4.08,19.16,19.16,0,0,0-6.62,5.3Zm-134,5.41c1.09,2.6,3.52,4.85,7.21,6.73a57.68,57.68,0,0,0,13.8,4.66,140.47,140.47,0,0,0,18.59,2.68q10.37.84,21.67.8a228.56,228.56,0,0,0,23-1.14,134,134,0,0,0,17.22-2.92,79.76,79.76,0,0,0,12.94-4.27,72.61,72.61,0,0,0,9.89-5.29Zm318.63-3.55c-1.09-2.64-3.75-5-7.88-6.94a70.71,70.71,0,0,0-15.87-5,176.33,176.33,0,0,0-22.49-3q-12.8-1-28.27-.91a214.11,214.11,0,0,0-23.69,1.23,121.52,121.52,0,0,0-17.21,3.12,63,63,0,0,0-12.36,4.57,88.82,88.82,0,0,0-9.49,5.59Z" transform="translate(-196.51 53.4)"/><path class="cls-49" d="M882.92,2584.53c-191,0-389.89,16.81-421.71,49.35a37.51,37.51,0,0,1,3.48,3.66c26.81-22.59,191-45.34,418.23-45.34,233,0,399.87,23.93,420.08,47.08a40.83,40.83,0,0,1,3.21-3.63C1279.93,2602,1077.32,2584.53,882.92,2584.53Z" transform="translate(-196.51 53.4)"/><path class="cls-50" d="M1433.09,2701.09l-77.42,55.08c-25,17.79,65.86,188.51,203,381.3s268.58,334.66,293.6,316.86l77.43-55.08Z" transform="translate(-196.51 53.4)"/><path class="cls-51" d="M1929.7,3399.25c-25,17.8-156.47-124.06-293.61-316.85s-228-363.51-203-381.31S1589.56,2825.16,1726.7,3018,1954.72,3381.46,1929.7,3399.25Z" transform="translate(-196.51 53.4)"/><path class="cls-52" d="M1633,3084.62c-121.45-170.74-232.14-360.89-200.68-383.26,1.72-1.23,5.2-2.77,6.43-1.05s-1.68,2.68-3.4,3.91c-20,14.19,58.88,172.08,203.9,376s268.3,330.15,288.25,316c1.73-1.23,3.56-2.09,4.79-.36s-1.38,2.95-3.1,4.18C1897.7,3422.32,1754.42,3255.36,1633,3084.62Z" transform="translate(-196.51 53.4)"/><path class="cls-20" d="M1655.41,3019c4.8,1.74,9.73,3.72,14.82,6a85.32,85.32,0,0,1,16.92,10.55,175.51,175.51,0,0,1,20.91,19.78,355.35,355.35,0,0,1,26.38,33.14q14.5,20.16,25.74,38.91a316.52,316.52,0,0,1,18.09,34.19q6.81,15.41,8.8,26.77t-2.16,16.64l27.56,39.59a47.41,47.41,0,0,1,4.66,8c1.11,2.51,1.3,4,.62,4.47l-3.23,2.32-35.45-50.88q-7.85,1.58-20.52-5.81T1730.3,3181l-10.53-20.22a26,26,0,0,1-1.93-4.75c-.37-1.34-.32-2.15.14-2.48.62-.44,2.34.47,5.16,2.76s6.1,4.78,9.83,7.52a119,119,0,0,0,11.67,7.58c4,2.29,7.59,3.22,10.67,2.83l-83.66-120.11a139.08,139.08,0,0,1-14.29-5.7,84.22,84.22,0,0,1-17-11.19,198.8,198.8,0,0,1-21.41-20.92,414.71,414.71,0,0,1-27.51-34.93q-11.75-16.34-21.52-32.88a270.18,270.18,0,0,1-15.8-30.58q-6-14-7.64-24.56t2.76-15l-22.68-32.6a51.48,51.48,0,0,1-4.77-8.12c-1.15-2.54-1.39-4.08-.67-4.6l3.22-2.32,31.05,44.55c4.8-.47,10.62,1.42,17.51,5.75a169.45,169.45,0,0,1,22.73,17.65l8.5,16.26c2.57,4.95,3.42,7.71,2.58,8.32-.46.33-1.68-.18-3.68-1.55s-4.4-3-7.16-4.91a74.89,74.89,0,0,0-8.57-5,19.23,19.23,0,0,0-8.15-2.32Zm-82.05-106c-1.5,2.39-1.91,5.68-1.31,9.78a57.72,57.72,0,0,0,4.2,13.94,140.67,140.67,0,0,0,8.6,16.7q5.31,8.94,11.91,18.12a225,225,0,0,0,14.26,18.1,133.82,133.82,0,0,0,12.35,12.34,80.88,80.88,0,0,0,11,8.07,71.4,71.4,0,0,0,10,5Zm187.58,257.59c1.52-2.42,1.86-5.93,1.08-10.45a71.15,71.15,0,0,0-5.11-15.83,176,176,0,0,0-10.58-20.08q-6.61-11-15.64-23.57a216.2,216.2,0,0,0-14.73-18.58,120.14,120.14,0,0,0-12.53-12.22,62.22,62.22,0,0,0-10.88-7.42,87.58,87.58,0,0,0-10-4.49Z" transform="translate(-196.51 53.4)"/><path class="cls-53" d="M1721.83,3021.49c-110.72-155.65-239.69-308-284.64-315a39,39,0,0,1-1,5c34,8.76,147.67,129.4,279.36,314.53,135.06,189.89,212.28,339.72,205.13,369.61a37.2,37.2,0,0,1,4.81.51C1937.75,3355.11,1834.51,3179.9,1721.83,3021.49Z" transform="translate(-196.51 53.4)"/><path class="cls-54" d="M2940.29,2447.1l119.81,30-29.95,224.64s44.93,44.93,59.9,104.83S3118.83,3118,3118.83,3118l28.43,17.18,3.46,14.35L3068,3260.69l13.72-88.51c2.18-14-1.6-42.55-.41-43.14-44.93-119.81-141-457.3-141-457.3Z" transform="translate(-196.51 53.4)"/><path class="cls-55" d="M2905.29,3151c1.29,0,2.57.08,3.87,0-5.79-72.22-32.25-390.09-58.72-509.23-30-134.78,44.92-404.35,44.92-404.35l134.79,134.78-74.88,254.59c51.31,77-8.37,527.73-7.09,527.54l-.08,1,19.54,26.86-2.38,14.57-119.35,70.43,47-76.26A85.74,85.74,0,0,0,2905.29,3151Z" transform="translate(-196.51 53.4)"/><path class="cls-56" d="M3056.89,1639.67s262.42,295.77,0,447.41l-26.74-19.35s130.28-124.76,0-277.49Z" transform="translate(-196.51 53.4)"/><path class="cls-57" d="M2838.05,3278.26h38.09a22.93,22.93,0,0,0,18.2-8.92c11.87-15.43,36.47-45.54,48.24-46.32,15.83-1.06,13.81,55.24,13.81,55.24h8.87l11.25-70a41.41,41.41,0,0,0-21.73-43.28h0s-3.62,26.77-23.25,38.61-79.88,54.25-79.88,54.25a54.55,54.55,0,0,0-15.48.41C2824.15,3260.46,2825.83,3278.26,2838.05,3278.26Z" transform="translate(-196.51 53.4)"/><path class="cls-58" d="M3065.05,3273.92l35.11-14.77a23,23,0,0,0,13.32-15.29c5-18.82,16-56.11,26.5-61.4,14.19-7.11,34.15,45.57,34.15,45.57l8.19-3.44-16.77-68.85a41.41,41.41,0,0,0-36.81-31.47h0s7,26.08-6.46,44.61-52.59,81-52.59,81a54.64,54.64,0,0,0-14.11,6.39C3045.35,3262.9,3053.8,3278.65,3065.05,3273.92Z" transform="translate(-196.51 53.4)"/><path class="cls-59" d="M2861,2010.05s4.4,33.72-2.05,126.42-37.3,310.34-31,518.58c0,0,87.69,25.53,240,13.44,0,0,64.3-325.12,48.63-448.72S3016,2007.5,3016,2007.5Z" transform="translate(-196.51 53.4)"/><polygon class="cls-60" points="2729.33 1567.05 2718.61 1693.08 2820.44 1693.08 2795.12 1500.71 2729.33 1567.05"/><path class="cls-11" d="M3047.11,1622.25c-35.14-1.94-113.72-5.53-169.38-2.49a64.66,64.66,0,0,0-59.85,51.35l-13.57,65.06a156.74,156.74,0,0,0,2.2,73.2L2861,2009.54s48.5,29.15,155-2c0,0,93.5-223,55.23-365.63A26.51,26.51,0,0,0,3047.11,1622.25Z" transform="translate(-196.51 53.4)"/><path class="cls-61" d="M2820.54,1659.44c-15,39.51-28.54,80.94-43.1,119.74-7.4,19.42-14.9,38.46-22.93,55.94-4.06,8.71-8.53,16.71-12.62,24a106.5,106.5,0,0,1-11.12,15.91c-.47.4,1.11.72,1.64.74.31,0-10.14,1.72-13.35,2.25l-12.54-.07c-18-.93-38.31-4.09-58.72-8.06-41.17-7.67-84-18.45-127.93-26.61l-.33-.06a15.49,15.49,0,0,0-13.06,26.85c17.72,15.6,36.5,28.42,56,40.89,9.81,6,19.79,11.88,29.93,17.52,10.34,5.27,20.71,10.59,31.49,15.5,21.69,9.45,44.09,18.16,69.91,23.75,6.78,1.14,13.48,2.33,20.46,3.26,7.82.27,14.93,1,23.48.47,4.54-.45,9.11-1,13.66-1.67a59.53,59.53,0,0,0,7.14-1.28c3.12-.94,6.24-2,9.3-3.14,6.41-2.3,10.56-5.08,15.76-8,4.33-2.85,8.27-5.83,12.09-8.89,14.11-12,22.88-24,30.6-35.4a279.57,279.57,0,0,0,19.28-34.15,465.74,465.74,0,0,0,26.55-67.07c14.11-44.88,23.67-89,27.71-135.83a40.79,40.79,0,0,0-78.75-18Z" transform="translate(-196.51 53.4)"/><path class="cls-62" d="M2533.14,1862c-5.16-12.25-9.61-34.24-20.66-42.14-20.95-15-52.15-25.12-78.14-20-5.18,1-15.44,6.73-6,12.44a56.88,56.88,0,0,0,14.75,5.89,6.84,6.84,0,0,1,4.36,9.68c-3.23,6.39-6.09,16.18-1.7,26.89,7.5,18.27,85.65,36.57,88,10.33A6.4,6.4,0,0,0,2533.14,1862Z" transform="translate(-196.51 53.4)"/><path class="cls-63" d="M2882.72,1368.1c-3.63,2.15-32.28,103.19-8.28,145.55s97.32-5.09,117.18-66.34S2979.57,1311,2882.72,1368.1Z" transform="translate(-196.51 53.4)"/><path class="cls-64" d="M3072.72,1447.31c16.44,80.56,70.92,58.51,109.51,94.35,62.54,58.09,152-1.79,239,53.26,62.79,39.74,93,141.41,62.91,223.5-41.74,113.69-184.36,160.45-258.27,125.82-70.64-33.09-60.58-132.21-155.62-170.52-40.35-16.26-60.27-5.7-84.44-29.8-42.3-42.2-30.88-124.08-26.49-155.62,9.55-68.45,32.49-80.84,21.53-110.93-21.34-58.51-120.85-46.44-129.14-87.74-7.55-37.62,64.57-108.92,132.45-97.68C3089.16,1309.33,3065.39,1411.41,3072.72,1447.31Z" transform="translate(-196.51 53.4)"/><path class="cls-65" d="M3452.77,1799.17a2.75,2.75,0,0,0,2.67-2.11c13.45-55.82,7.35-101.59-18.14-136.06-42.29-57.2-124.48-62.86-125.31-62.91a2.8,2.8,0,0,0-2.91,2.58,2.75,2.75,0,0,0,2.58,2.91c.8,0,80.51,5.58,121.24,60.72,24.46,33.09,30.24,77.33,17.19,131.47a2.76,2.76,0,0,0,2,3.32A3,3,0,0,0,3452.77,1799.17Z" transform="translate(-196.51 53.4)"/><path class="cls-66" d="M3183.57,1850.26a1.45,1.45,0,0,0,.35,0,1.38,1.38,0,0,0,1-1.68c-13.1-50.25-36.08-85.15-68.3-103.73-23.44-13.52-45.39-14.78-64.75-15.89-18.67-1.07-34.79-2-47.77-13.54-26.83-23.86-25.28-81.22,4.61-170.49a1.37,1.37,0,0,0-.86-1.74,1.39,1.39,0,0,0-1.75.87c-30.27,90.41-31.56,148.75-3.83,173.41,13.69,12.18,30.26,13.13,49.44,14.23s40.66,2.34,63.54,15.53c31.56,18.2,54.1,52.53,67,102A1.39,1.39,0,0,0,3183.57,1850.26Z" transform="translate(-196.51 53.4)"/><path class="cls-66" d="M3033.82,1427.31a1.39,1.39,0,0,0,.44-.07,1.36,1.36,0,0,0,.86-1.74c-10.41-31-40.4-26.37-72.19-21.49-20.11,3.1-40.91,6.28-58.55,1.06-13.16-3.9-21-10-23.24-18-3.86-13.66,9.66-28.9,9.8-29.06a1.37,1.37,0,0,0-2-1.83c-.6.66-14.67,16.5-10.41,31.64,2.54,9,11,15.68,25.11,19.86,18.24,5.41,39.34,2.17,59.75-1,31.9-4.9,59.49-9.14,69.16,19.65A1.38,1.38,0,0,0,3033.82,1427.31Z" transform="translate(-196.51 53.4)"/></g></g></svg>