<svg xmlns="http://www.w3.org/2000/svg" xmlns:xlink="http://www.w3.org/1999/xlink" viewBox="0 0 3710 3710"><defs><style>.cls-1,.cls-4{fill:#fff;}.cls-2{fill:url(#linear-gradient);}.cls-3{fill:#bdd0fb;}.cls-4{opacity:0.5;}.cls-5{fill:#91b3fa;}.cls-6{fill:url(#linear-gradient-2);}.cls-7{fill:url(#linear-gradient-3);}.cls-8{fill:#4d4d4d;}.cls-10,.cls-9{fill:#c6c6c6;}.cls-9{stroke:#666;stroke-miterlimit:10;stroke-width:3px;}.cls-11{fill:#e8f2fa;}.cls-12{fill:#6b98f6;}.cls-13{fill:#1e3865;}.cls-14{fill:#d1e0ff;}.cls-15{fill:url(#linear-gradient-4);}.cls-16{fill:url(#linear-gradient-5);}.cls-17{fill:url(#linear-gradient-6);}.cls-18{fill:url(#linear-gradient-7);}.cls-19{fill:url(#linear-gradient-8);}.cls-20{fill:url(#linear-gradient-9);}.cls-21{fill:url(#linear-gradient-10);}.cls-22{fill:url(#linear-gradient-11);}.cls-23{fill:url(#linear-gradient-12);}.cls-24{fill:url(#linear-gradient-13);}.cls-25{fill:url(#linear-gradient-14);}.cls-26{fill:url(#linear-gradient-15);}.cls-27{fill:url(#linear-gradient-16);}.cls-28{fill:url(#linear-gradient-17);}.cls-29{fill:url(#linear-gradient-18);}.cls-30{fill:url(#linear-gradient-19);}.cls-31{fill:url(#linear-gradient-20);}.cls-32{fill:url(#linear-gradient-21);}.cls-33{fill:url(#linear-gradient-22);}.cls-34{fill:url(#linear-gradient-23);}.cls-35{fill:url(#linear-gradient-24);}.cls-36{fill:url(#linear-gradient-25);}</style><linearGradient id="linear-gradient" x1="3959.43" y1="4197.52" x2="1460.07" y2="1536.91" gradientUnits="userSpaceOnUse"><stop offset="0" stop-color="#dae3fe"/><stop offset="1" stop-color="#e9effd"/></linearGradient><linearGradient id="linear-gradient-2" x1="2834.06" y1="1031.37" x2="908.43" y2="3639" gradientUnits="userSpaceOnUse"><stop offset="0" stop-color="#fff"/><stop offset="1" stop-color="#f9f9f9"/></linearGradient><linearGradient id="linear-gradient-3" x1="2034.56" y1="1436.93" x2="1873.61" y2="3391.31" gradientUnits="userSpaceOnUse"><stop offset="0" stop-color="#09005d"/><stop offset="1" stop-color="#1a0f91"/></linearGradient><linearGradient id="linear-gradient-4" x1="1980.16" y1="2203.57" x2="1658.28" y2="3749.75" gradientUnits="userSpaceOnUse"><stop offset="0" stop-color="#4f52ff"/><stop offset="1" stop-color="#4042e2"/></linearGradient><linearGradient id="linear-gradient-5" x1="2013.55" y1="2210.52" x2="1691.67" y2="3756.69" xlink:href="#linear-gradient-4"/><linearGradient id="linear-gradient-6" x1="3103.68" y1="2437.47" x2="2781.8" y2="3983.64" xlink:href="#linear-gradient-4"/><linearGradient id="linear-gradient-7" x1="3137.07" y1="2444.42" x2="2815.19" y2="3990.58" xlink:href="#linear-gradient-4"/><linearGradient id="linear-gradient-8" x1="2390.72" y1="3661.86" x2="2766.26" y2="2987.41" xlink:href="#linear-gradient-4"/><linearGradient id="linear-gradient-9" x1="2467.02" y1="3704.35" x2="2842.57" y2="3029.9" xlink:href="#linear-gradient-4"/><linearGradient id="linear-gradient-10" x1="2308.26" y1="3615.95" x2="2683.81" y2="2941.5" xlink:href="#linear-gradient-4"/><linearGradient id="linear-gradient-11" x1="2547.9" y1="3500.58" x2="2436.77" y2="3052.23" gradientUnits="userSpaceOnUse"><stop offset="0" stop-color="#febbba"/><stop offset="1" stop-color="#ff928e"/></linearGradient><linearGradient id="linear-gradient-12" x1="2442.67" y1="3213.7" x2="2408.62" y2="3735.83" xlink:href="#linear-gradient-4"/><linearGradient id="linear-gradient-13" x1="2315.4" y1="3066.39" x2="3032" y2="2698.51" xlink:href="#linear-gradient-11"/><linearGradient id="linear-gradient-14" x1="2200.33" y1="2823.8" x2="2747.64" y2="2823.8" xlink:href="#linear-gradient-3"/><linearGradient id="linear-gradient-15" x1="2114.07" y1="3192.27" x2="2080.02" y2="3714.4" xlink:href="#linear-gradient-4"/><linearGradient id="linear-gradient-16" x1="2441.33" y1="2002.87" x2="2912.17" y2="2417.72" xlink:href="#linear-gradient-3"/><linearGradient id="linear-gradient-17" x1="2454.27" y1="2498.86" x2="2872.11" y2="2498.86" xlink:href="#linear-gradient-4"/><linearGradient id="linear-gradient-18" x1="2577.91" y1="2408.15" x2="2553.48" y2="2251.35" xlink:href="#linear-gradient-11"/><linearGradient id="linear-gradient-19" x1="457.96" y1="4179.04" x2="673.81" y2="4325.66" gradientTransform="translate(-715.82 -601.6) rotate(-41.9)" xlink:href="#linear-gradient-11"/><linearGradient id="linear-gradient-20" x1="2402.66" y1="2030.67" x2="2882.72" y2="2453.64" xlink:href="#linear-gradient-3"/><linearGradient id="linear-gradient-21" x1="470.9" y1="4159.99" x2="686.75" y2="4306.61" gradientTransform="translate(-715.82 -601.6) rotate(-41.9)" xlink:href="#linear-gradient-11"/><linearGradient id="linear-gradient-22" x1="2718.2" y1="2679.64" x2="3177.12" y2="2679.64" xlink:href="#linear-gradient-11"/><linearGradient id="linear-gradient-23" x1="2632.19" y1="2820.83" x2="2343.3" y2="2900.01" gradientTransform="translate(-41.47 -55.03) rotate(-2.83)" xlink:href="#linear-gradient-3"/><linearGradient id="linear-gradient-24" x1="2335.91" y1="2445.75" x2="2130.92" y2="2662.41" xlink:href="#linear-gradient-3"/><linearGradient id="linear-gradient-25" x1="2324.2" y1="2828.58" x2="2002.33" y2="4374.75" xlink:href="#linear-gradient-4"/></defs><g id="Background"><rect class="cls-1" width="3710" height="3710"/></g><g id="Illustration"><path class="cls-2" d="M3209,3130.1c-92.26,95.1-174.82,151-238,193.21-616.46,411.62-1321.13,293-1539,252.43-351.51-65.42-648.22-111.57-903.16-341.9C-50.48,2710.48-22.3,1618.71,420.35,942.4,472.83,862.21,914.81,207.06,1621,114.75c17.27-2.26,30.16-3.55,41.45-4.74,109.24-11.57,786.23-72.62,1338.25,389.86,79,66.2,206.18,185.61,324.1,367.74C3756,1533.52,3757.35,2564.88,3209,3130.1Z"/><path class="cls-3" d="M1279.63,109.7a28.7,28.7,0,0,1,45.37,6c24.21,42.37,82.5,137.61,222.9,350.53,239.81,363.69,50.36,556.66-18.26,702.94s110,391.51,110,391.51-546.33-386.82-656.55-733.55C890.15,534.61,1185.05,205.53,1279.63,109.7Z"/><path class="cls-4" d="M1267.94,267.68s-1.2,4.95-3.21,14.39-4.8,23.17-7.7,40.81c-1.42,8.83-3.15,18.58-4.61,29.26s-3.3,22.19-4.74,34.56-3.22,25.52-4.54,39.43q-1,10.42-2.07,21.39-.83,11-1.69,22.44t-1.73,23.41q-.6,12-1.21,24.34t-1.22,25.19q-.32,12.79-.64,26c-.18,8.79-.5,17.7-.58,26.72s0,18.15.07,27.38,0,18.57.3,28,.69,18.92,1,28.51.62,19.26,1.15,29,1.31,19.52,2,29.37,1.3,19.78,2.12,29.73q1.54,14.91,3.11,29.95t3.13,30.19q2.08,15.09,4.18,30.25t4.23,30.37l.53,3.8.17,1.16.17.94.34,1.88,1.34,7.51,2.7,15a994,994,0,0,0,30.63,119.14,1101.55,1101.55,0,0,0,43,110.82c15.76,35.18,33.1,68.19,50.52,98.87s35.22,58.9,52.41,84.41,34,48.19,49.32,67.92,29.29,36.45,41,50,21.42,23.85,28.08,30.84l7.71,7.91,2.74,2.72a7.34,7.34,0,0,0,10.55-10.21l-.14-.15s-.83-.9-2.46-2.63l-7.2-8c-6.28-7-15.28-17.62-26.51-31.27s-24.5-30.55-39.1-50.4-30.43-42.69-47-68-33.62-53.44-50.34-83.83-33-63.17-48.37-97.67a1098.23,1098.23,0,0,1-41.59-108.68,968.6,968.6,0,0,1-30-116l-2.72-15-1.36-7.51-.34-1.87-.17-.94-.11-.73-.55-3.75q-2.22-15-4.42-29.94t-4.39-29.83q-1.68-14.94-3.35-29.79t-3.32-29.56q-1.23-14.76-2.43-29.35t-2.42-29c-.68-9.61-1-19.17-1.59-28.65s-1-18.87-1.48-28.18-.48-18.55-.74-27.68-.52-18.17-.78-27.1-.07-17.75-.12-26.46,0-17.29,0-25.75q.27-12.69.55-25t.57-24.15q.56-11.83,1.1-23.24t1.1-22.29q.75-10.89,1.48-21.26c.76-13.85,1.88-26.94,3-39.26s2.22-23.82,3.32-34.46,2.36-20.37,3.41-29.19c2.27-17.6,4.24-31.4,5.72-40.78s2.42-14.32,2.42-14.32a4.17,4.17,0,0,0-8.15-1.76Z"/><path class="cls-5" d="M1853.58,2537.64c-16.38,26.89,33-446-203.2-988.54-111.29-255.67-296.38-546.88-235.64-743.35,50.56-163.52,462.7-343.57,599.54-399.37,17.1-7,34.6,9.08,29.06,26.7-27.28,86.86-78.74,283.49-36.64,421.73,55.48,182.2-28.8,374.38-143.46,485S1691.85,1522.93,1762,1774.36,1900.12,2461.22,1853.58,2537.64Z"/><path class="cls-3" d="M1884.55,583.09s-3.68,2.46-10.29,7.34-16.21,12.16-28,22-25.73,22.17-41,37.07-32.08,32.28-49,52.44a708.12,708.12,0,0,0-51,68.09,595.5,595.5,0,0,0-46,83.28,526.06,526.06,0,0,0-32.54,96.58,482.41,482.41,0,0,0-12.31,104.64l.08,13.27,0,6.64.42,6.62c.62,8.81,1.12,17.65,2,26.41q2.79,25.9,5.53,51.55,3,25.62,5.9,50.78,3.22,25.07,6.34,49.46c2.1,16.24,4.42,32.17,6.55,47.78s4.63,30.84,6.84,45.68c4.6,29.66,9.22,57.66,13.65,83.48q3.43,19.33,6.56,37,3.38,17.58,6.39,33.3c4.14,20.88,7.87,39.06,11.09,54s5.91,26.64,7.8,34.62l3,12.23a2.86,2.86,0,0,0,5.59-1.23v-.07l-2.45-12.25c-1.51-8-3.72-19.79-6.53-34.77s-5.94-33.23-9.45-54.17-7.16-44.62-11.29-70.42c-4-25.83-8.08-53.84-12.15-83.51s-8.14-61-12.18-93.39-7.84-65.94-11.67-100c-1.79-17.07-3.6-34.29-5.41-51.56-.81-8.54-1.22-17.1-1.92-25.66l-.45-6.42-.08-6.44-.15-12.88a468,468,0,0,1,11.3-101.76,513.42,513.42,0,0,1,31.13-94.41,615.77,615.77,0,0,1,43.77-82.35,698.46,698.46,0,0,1,49-68c16.47-20.1,32.41-37.88,47.18-53s28.24-27.77,39.61-37.86,20.55-17.72,26.92-22.78,9.85-7.59,9.85-7.59a2.3,2.3,0,0,0-2.62-3.78Z"/><path class="cls-3" d="M1976.19,2338.78c-10.37,17.88-18.51-223.4-108.31-384.16s-221.39-448.73-186.77-692.06,172.67-350.09,448.75-321.72c230.07,23.65,364.58,24,428.19-.09,15.75-6,32.8,5.35,33.86,22.16,5.6,89.49-.75,307.1-179.61,404.2-228.15,123.86-583.65,148-590.1,317.84s45.73,230,78.61,287.94S2044.82,2220.45,1976.19,2338.78Z"/><path class="cls-4" d="M2186.94,1173.25s-3.65-.72-10.43-1.8-16.78-2.52-29.55-3.79-28.31-2.52-46.2-3.15-38.12-.38-60.16,1a486.2,486.2,0,0,0-70.82,9.57c-12.47,2.57-25.08,6.19-37.89,10.2-12.67,4.4-25.63,9.09-38.18,15.41-6.4,2.88-12.47,6.59-18.74,10-3.06,1.85-6,3.83-9.1,5.76l-4.56,2.92-4.38,3.22c-12,8.28-22.75,18.43-33,29.26-9.58,10.46-19.19,22.18-28,33.88a424,424,0,0,0-24.45,37.19,385.77,385.77,0,0,0-19.71,40,378.56,378.56,0,0,0-14.27,41.84,367.51,367.51,0,0,0-12.3,84.73,492.37,492.37,0,0,0,4.3,79.61,658.15,658.15,0,0,0,13.36,69.91c5.29,21.38,11,40.7,16.59,57.66,2.74,8.5,5.38,16.42,8,23.68s4.9,14,7.2,19.94c4.45,12,8.25,21.31,10.83,27.65l3.94,9.74a2.55,2.55,0,0,0,4.77-1.81l0,0-3.51-9.85c-1.15-3.22-2.56-7.18-4.23-11.84l-5.44-16.09c-2.11-6-4.26-12.71-6.56-20s-4.75-15.23-7.21-23.73c-5-17-10.05-36.3-14.7-57.54-9.5-42.32-17.24-92.86-14.59-146.75a377.53,377.53,0,0,1,12.64-81.66,364.43,364.43,0,0,1,14-40.08,372.8,372.8,0,0,1,19.17-38.23,404.15,404.15,0,0,1,23.76-35.64c8.76-11.41,17.55-22.06,27.43-32.72,9.47-9.93,19.43-19.54,30.63-27.3l4.09-3,4.27-2.76c2.86-1.82,5.66-3.71,8.54-5.46,5.92-3.23,11.61-6.77,17.69-9.53,11.84-6.09,24.15-10.79,36.26-15.17,12.25-4,24.36-7.7,36.42-10.36a481.61,481.61,0,0,1,68.79-11.18c21.58-2,41.48-2.6,59.13-2.81s33.07.35,45.74,1.06,22.62,1.59,29.39,2.23,10.33,1.15,10.33,1.15a2.66,2.66,0,0,0,.88-5.24Z"/><rect class="cls-6" x="355.14" y="1434" width="3032.22" height="1802.38" rx="12"/><path class="cls-7" d="M3395,3357.53H369a67.89,67.89,0,0,1-67.7-67.7h0a67.9,67.9,0,0,1,67.7-67.7H3395a67.9,67.9,0,0,1,67.7,67.7h0A67.89,67.89,0,0,1,3395,3357.53Z"/><path class="cls-8" d="M3387.36,1281.28V1434H355.14V1281.28a57,57,0,0,1,57-57H3330.32A57,57,0,0,1,3387.36,1281.28Z"/><path class="cls-1" d="M447.89,1329.12a26.56,26.56,0,1,1,26.56,26.55A26.56,26.56,0,0,1,447.89,1329.12Z"/><path class="cls-1" d="M552.53,1329.12a26.56,26.56,0,1,1,26.55,26.55A26.56,26.56,0,0,1,552.53,1329.12Z"/><path class="cls-1" d="M659.8,1329.12a26.56,26.56,0,1,1,26.56,26.55A26.56,26.56,0,0,1,659.8,1329.12Z"/><rect class="cls-9" x="1541.54" y="1437.15" width="475.28" height="2.29" transform="translate(-327.48 2330.57) rotate(-61.91)"/><rect class="cls-10" x="2583.58" y="1179.3" width="2.29" height="370.1" transform="translate(-238.41 2120.77) rotate(-42.83)"/><path class="cls-11" d="M2866.89,1579.29a100.7,100.7,0,0,1-18.78,73.73,96,96,0,0,1-64.19,38.4L1659.08,1846c-57.41,7.89-110.5-30.15-118-84.52-3.73-27.18,4.6-53.51,21.08-74a107.93,107.93,0,0,1,69.73-39.17l1124.84-154.56C2809.86,1486.42,2859.42,1524.93,2866.89,1579.29Z"/><path class="cls-12" d="M2866.89,1579.29a100.7,100.7,0,0,1-18.78,73.73,96,96,0,0,1-64.19,38.4l-203.55,28-27.16-197.71,203.55-28C2809.86,1486.42,2859.42,1524.93,2866.89,1579.29Z"/><path class="cls-1" d="M2743,1632.93a50.86,50.86,0,0,1-42.57-86.75h0a50.86,50.86,0,1,1,42.57,86.75Zm-36.72-80.76a42.48,42.48,0,1,0,60.07.7,42.53,42.53,0,0,0-60.07-.7Z"/><rect class="cls-1" x="2673.58" y="1604.72" width="8.38" height="69.4" transform="translate(1978.86 -1421.57) rotate(45.66)"/><path class="cls-1" d="M2635.7,1680.53h0a7.48,7.48,0,0,1,.12-10.58l29.23-28.56a7.48,7.48,0,0,1,10.58.12h0a7.48,7.48,0,0,1-.12,10.58l-29.24,28.56A7.47,7.47,0,0,1,2635.7,1680.53Z"/><path class="cls-13" d="M2136.53,1741.93l-40.55,9.43a70.7,70.7,0,0,0-45.93,34.8L2030,1822.65c-10.43,19-38.9,14.38-42.82-6.92L1956.49,1649a23,23,0,0,1,32.78-24.84l152.18,74.63C2160.89,1708.36,2157.62,1737,2136.53,1741.93Z"/><rect class="cls-13" x="2078.74" y="1725" width="24.54" height="141.95" rx="5.86" transform="translate(-660.25 1627.44) rotate(-37.15)"/><rect class="cls-14" x="1757.38" y="1917.78" width="378.4" height="378.4" rx="11.56"/><path class="cls-12" d="M1805.73,2217l73.53-132.56a24.18,24.18,0,0,1,40.65-2.57l42.41,57.84a24.18,24.18,0,0,0,37.35,2h0a24.19,24.19,0,0,1,38.15,3.18l45.76,70.66a24.18,24.18,0,0,1-20.3,37.33h-236.4A24.18,24.18,0,0,1,1805.73,2217Z"/><path class="cls-12" d="M1950.84,2022.52a28.93,28.93,0,1,1,28.92,28.92A28.92,28.92,0,0,1,1950.84,2022.52Z"/><path class="cls-14" d="M2595.69,2306.38l-327,44.6a24.17,24.17,0,0,1-27.23-20.69l-44.61-327a24.19,24.19,0,0,1,20.7-27.23l327-44.6a24.18,24.18,0,0,1,27.23,20.69l44.61,327A24.2,24.2,0,0,1,2595.69,2306.38Z"/><path class="cls-12" d="M2281.93,2269.3,2336.87,2128a24.18,24.18,0,0,1,39.93-8l49.84,51.59a24.19,24.19,0,0,0,37.28-3h0a24.18,24.18,0,0,1,38.23-2l54.89,63.83a24.18,24.18,0,0,1-15.06,39.73L2307.74,2302A24.18,24.18,0,0,1,2281.93,2269.3Z"/><path class="cls-12" d="M2399.42,2057A28.92,28.92,0,1,1,2432,2081.7,28.92,28.92,0,0,1,2399.42,2057Z"/><rect class="cls-14" x="698.17" y="1912.62" width="788.75" height="457.19" rx="13.66"/><path class="cls-13" d="M1000.67,2069.88v181.37a14.25,14.25,0,0,0,22.08,11.91l137.84-90.69a14.25,14.25,0,0,0,0-23.81L1022.75,2058A14.25,14.25,0,0,0,1000.67,2069.88Z"/><rect class="cls-14" x="697.7" y="2464.41" width="408.06" height="609.14"/><path class="cls-11" d="M3262.34,1550.7h-141a10.81,10.81,0,0,1-10.77-10.77h0a10.81,10.81,0,0,1,10.77-10.78h141a10.81,10.81,0,0,1,10.78,10.78h0A10.81,10.81,0,0,1,3262.34,1550.7Z"/><path class="cls-11" d="M3262.34,1592.8h-141a10.81,10.81,0,0,1-10.77-10.78h0a10.81,10.81,0,0,1,10.77-10.77h141a10.81,10.81,0,0,1,10.78,10.77h0A10.81,10.81,0,0,1,3262.34,1592.8Z"/><path class="cls-11" d="M3262.34,1636h-141a10.81,10.81,0,0,1-10.77-10.77h0a10.81,10.81,0,0,1,10.77-10.78h141a10.81,10.81,0,0,1,10.78,10.78h0A10.81,10.81,0,0,1,3262.34,1636Z"/><path class="cls-11" d="M2710.24,2532.66H2374.6a14.33,14.33,0,0,1-14.29-14.28h0a14.33,14.33,0,0,1,14.29-14.29h335.64a14.33,14.33,0,0,1,14.29,14.29h0A14.33,14.33,0,0,1,2710.24,2532.66Z"/><path class="cls-11" d="M1069.55,1552H733.91a14.33,14.33,0,0,1-14.29-14.29h0a14.33,14.33,0,0,1,14.29-14.29h335.64a14.33,14.33,0,0,1,14.29,14.29h0A14.33,14.33,0,0,1,1069.55,1552Z"/><path class="cls-11" d="M2710.24,2674.4H2374.6a14.33,14.33,0,0,1-14.29-14.29h0a14.33,14.33,0,0,1,14.29-14.28h335.64a14.33,14.33,0,0,1,14.29,14.28h0A14.33,14.33,0,0,1,2710.24,2674.4Z"/><path class="cls-11" d="M2710.24,2603.53H2308.81a14.33,14.33,0,0,1-14.29-14.29h0a14.33,14.33,0,0,1,14.29-14.28h401.43a14.33,14.33,0,0,1,14.29,14.28h0A14.33,14.33,0,0,1,2710.24,2603.53Z"/><rect class="cls-11" x="769.66" y="1613.29" width="211.14" height="28.57" rx="5.2"/><path class="cls-11" d="M706.94,1627.58a14.29,14.29,0,1,1,14.29,14.29A14.29,14.29,0,0,1,706.94,1627.58Z"/><rect class="cls-11" x="769.66" y="1670.15" width="248" height="28.57" rx="5.63"/><path class="cls-11" d="M706.94,1684.44a14.29,14.29,0,1,1,14.29,14.29A14.29,14.29,0,0,1,706.94,1684.44Z"/><rect class="cls-11" x="769.66" y="1731.87" width="211.14" height="28.57" rx="5.2"/><path class="cls-11" d="M706.94,1746.16a14.29,14.29,0,1,1,14.29,14.29A14.29,14.29,0,0,1,706.94,1746.16Z"/><circle class="cls-14" cx="1540.23" cy="2772.44" r="312.92" transform="translate(-1509.29 1901.14) rotate(-45)"/><path class="cls-1" d="M1539.37,2701.54c7.82,9.33,67.24,44.77,0,101.47-3.2,6.13,5.77,22,12,20,96.77-66.35,6-149-4-140.88S1530.28,2690.67,1539.37,2701.54Z"/><path class="cls-1" d="M1579.67,2863c1.46,12.37,9.9,24,20.72,20.53,10.66-3.43,148.63-121.53-6.89-253.07a9.39,9.39,0,0,0-13.27,1.16c-5,6-8.33,11.09-7.52,17.71C1709.2,2769.71,1578.22,2850.63,1579.67,2863Z"/><path class="cls-1" d="M1620.89,2924.49c-1.76,8.78,4.85,26.76,19.29,22.11,226.18-207.88-10.88-393-20.45-386.21s-9.92,20.56-6.69,26.1C1825.35,2752,1622.65,2915.69,1620.89,2924.49Z"/><path class="cls-1" d="M1485.1,2596.6a4.53,4.53,0,0,0-5.1,1.1l-78.28,80.12a4.74,4.74,0,0,1-3.17,1.45l-65.08,3.26a12.66,12.66,0,0,0-12,11.79l-8.15,117.46a12.68,12.68,0,0,0,11.25,13.49l74.3,8.25a4.85,4.85,0,0,1,2.82,1.32l78.64,75.14a4.21,4.21,0,0,0,4.86.95,4.51,4.51,0,0,0,2.54-4.45V2601.09A4.52,4.52,0,0,0,1485.1,2596.6Z"/><path class="cls-15" d="M1652.53,3479.61a12.06,12.06,0,0,1-5.18-1.17c-6.66-3.13-9.74-11.56-6.87-18.83l275.38-698.75c2.87-7.26,10.59-10.62,17.25-7.5s9.74,11.56,6.88,18.83L1664.6,3470.94A13.16,13.16,0,0,1,1652.53,3479.61Z"/><path class="cls-16" d="M1962.77,3479.61a13.14,13.14,0,0,1-12.07-8.67l-275.39-698.75c-2.86-7.27.21-15.7,6.87-18.83s14.39.23,17.26,7.5l275.38,698.75c2.87,7.27-.21,15.7-6.87,18.83A12.06,12.06,0,0,1,1962.77,3479.61Z"/><path class="cls-17" d="M2824.74,3479.61a12.06,12.06,0,0,1-5.18-1.17c-6.66-3.13-9.74-11.56-6.87-18.83l275.39-698.75c2.86-7.26,10.58-10.62,17.25-7.5s9.74,11.56,6.87,18.83l-275.39,698.75A13.15,13.15,0,0,1,2824.74,3479.61Z"/><path class="cls-18" d="M3135,3479.61a13.14,13.14,0,0,1-12.07-8.67l-275.39-698.75c-2.86-7.27.21-15.7,6.88-18.83s14.38.23,17.25,7.5L3147,3459.61c2.87,7.27-.21,15.7-6.87,18.83A12.06,12.06,0,0,1,3135,3479.61Z"/><rect class="cls-19" x="2640.07" y="3008.75" width="32.56" height="352.12"/><path class="cls-20" d="M2798.94,3367.66H2513.76v-1.53a19.67,19.67,0,0,1,19.66-19.67h244.32A21.2,21.2,0,0,1,2798.94,3367.66Z"/><rect class="cls-21" x="2482.7" y="2929.86" width="358.56" height="101.69" rx="35.02"/><path class="cls-22" d="M2416,2774s-48.38,7.5-102.78,43.87a27.1,27.1,0,0,0-12,25.91c6.51,51.6,33.29,218.6,121.61,381.71a41.11,41.11,0,0,1,3.94,28.17l-15.35,71.4L2383,3351.71h73.29l48.8-132.05-20.87-6.6a39.48,39.48,0,0,1-27.57-37l-2.45-141.66c2.09-63.11-38.7-106.66-38.7-106.66l117.05-5.69Z"/><path class="cls-23" d="M2354.36,3364.6c-6.67,8.73,71.84,20.26,111.51,1.15,0,0,55-95.67,55-144.92,0,0-4.36-10-36.65-7.77,0,0-18.46,113.28-38,126s-54.54,1.28-54.54,1.28S2364.21,3351.71,2354.36,3364.6Z"/><path class="cls-24" d="M2517.72,2929.86c-.62-1.08-126-15.08-126-15.08s4.1,38.12-8.72,90.61-196.93,279.88-196.93,279.88l19.3,61.19c-59.69,20.8-118.4,24.12-176.17,10.6l119.63-71.79s112-381.56,180.55-449.63l125.7-43.48Z"/><path class="cls-25" d="M2798.94,2707.84s72.24,107.46,78.17,156.47-19.79,68.94-95.59,72.22-278.18,3.24-278.18,3.24l-172.72-147.61s125.87-44.92,158.6-57.62S2798.94,2707.84,2798.94,2707.84Z"/><path class="cls-26" d="M2198.05,3325.85s20.79,20.13,6.75,42.53c0,0-164.64,29.18-209.34,15.94,0,0,9.28-21.18,59.62-45.29l-3.72,2.85a6,6,0,0,0,4,10.78C2088.5,3350.77,2157.14,3344.7,2198.05,3325.85Z"/><path class="cls-27" d="M2593.83,2079.05a36.63,36.63,0,0,1,7.63,3.24c12.51,7.21,27.85,7.08,40.72.51,15.11-7.71,34.78-12.36,55.59-2.81,11.19,5.13,17.8,12.35,21.42,20.29,8.86,19.44,30.28,29.72,50.71,23.51,26.82-8.13,58.09-7.33,81.42,24,21.11,28.35,19.67,51.59,10.89,69-8.26,16.42-5.65,36.44,7.17,49.62,5.84,6,11,14.51,14.56,26.49,12.09,40.77-49.4,75.71-74.83,88.2a42.93,42.93,0,0,1-21.16,4.36L2619,2376.83a4.65,4.65,0,0,1-3.51-1.88l-109.44-147.43a4.66,4.66,0,0,1-.71-4.15l35.66-115.7C2547.91,2085.35,2571.5,2072.23,2593.83,2079.05Z"/><path class="cls-28" d="M2603.55,2693.62s-84.13-80.11-125.54-133.17A112.62,112.62,0,0,1,2459,2459.13c18.91-63.7,52.51-129.68,55.57-140,4.7-15.74,99-15.08,99-15.08s185.63,120.47,258.56,324.55l-81.91,25.5s-48.46-81.31-96.35-133c0,0,82.86,109.46,85.78,154.28Z"/><path class="cls-29" d="M2503.11,2231.22c1,3.27,25.61,84.9,27.53,86.59s54,4.49,78.51-12.26l-41.58-87Z"/><path class="cls-30" d="M2433.53,2116.09s-20.55,43.65-.15,111.65,57,75,80.83,59.08,55-44.67,60.62-105.51S2461.68,2060.94,2433.53,2116.09Z"/><path class="cls-31" d="M2529.5,2175.92s-37.8-92.34-100.55-37.52l-5.44,23.29s-57.55-18.36-36.82-70.38,89.31-93.19,150.34-57.14,82.83,84.54,78,132.34-40.23,30.27-40.23,30.27-5.8-35.43-22.47-42.22-17.15,19.88-17.15,19.88Z"/><path class="cls-32" d="M2543.44,2177.47s-19.71-47.35,10-48.11,16.18,45.56,9.74,62.41Z"/><path class="cls-33" d="M2432.16,2699.56,2494,2640l85.51,36.13s85.12,13.18,133.83,0l48.72-13.19,110.08-34.27,17.29,48.86a29.41,29.41,0,0,1-10.75,33.8c-9.52,6.77-20.68,14.21-27.8,17.32-14.5,6.34-357.37-4.39-357.37-4.39Z"/><path class="cls-34" d="M2666.08,2727.65l-.83,0-358.56-.39a16.05,16.05,0,1,1,0-32.1l358.56.39a16.05,16.05,0,0,1,.79,32.08Z"/><path class="cls-35" d="M1984.36,2402.1H2283a56.92,56.92,0,0,1,51.48,32.63l138.05,292.73H2101.4a34.58,34.58,0,0,1-32.17-21.88l-107-270.87A23.84,23.84,0,0,1,1984.36,2402.1Z"/><path class="cls-1" d="M2194.73,2552.19c6.48,20.1,1.7,39.63-10.67,43.61s-27.64-9.09-34.11-29.2-1.69-39.63,10.67-43.61S2188.26,2532.08,2194.73,2552.19Z"/><path class="cls-36" d="M3167.21,2740.75a12.53,12.53,0,0,0-3.36-11.46,17,17,0,0,0-12.32-5.05h-1615a19.21,19.21,0,0,0-15.49,7.37,14.15,14.15,0,0,0-1.2,15.29l17.5,32.9c4,7.53,12.69,12.36,22.25,12.36H3140.45c8.89,0,16.53-5.48,18.22-13.06Z"/></g></svg>