<svg xmlns="http://www.w3.org/2000/svg" xmlns:xlink="http://www.w3.org/1999/xlink" viewBox="0 0 3511.25 3538.69"><defs><style>.cls-1{isolation:isolate;}.cls-2{fill:#f4f7fa;}.cls-3{fill:url(#linear-gradient);}.cls-4{fill:url(#linear-gradient-2);}.cls-5{fill:url(#linear-gradient-3);}.cls-6{fill:#d8dee8;}.cls-12,.cls-7,.cls-8{fill:#fff;}.cls-8{opacity:0.48;}.cls-12,.cls-14,.cls-8{mix-blend-mode:soft-light;}.cls-9{fill:url(#linear-gradient-4);}.cls-10,.cls-23,.cls-31{opacity:0.3;}.cls-10,.cls-23,.cls-25,.cls-31{mix-blend-mode:multiply;}.cls-10{fill:url(#linear-gradient-5);}.cls-11{fill:url(#linear-gradient-6);}.cls-12{opacity:0.74;}.cls-13{fill:url(#linear-gradient-7);}.cls-14{opacity:0.5;}.cls-15{fill:url(#New_Gradient_Swatch_1);}.cls-16{fill:url(#New_Gradient_Swatch_1-2);}.cls-17{fill:url(#New_Gradient_Swatch_1-3);}.cls-18{fill:url(#linear-gradient-8);}.cls-19{fill:url(#linear-gradient-9);}.cls-20{fill:url(#linear-gradient-10);}.cls-21{fill:url(#linear-gradient-11);}.cls-22{fill:url(#linear-gradient-12);}.cls-23{fill:url(#linear-gradient-13);}.cls-24{fill:url(#linear-gradient-14);}.cls-25{opacity:0.4;fill:url(#linear-gradient-15);}.cls-26{fill:url(#linear-gradient-16);}.cls-27{fill:url(#linear-gradient-17);}.cls-28{fill:url(#linear-gradient-18);}.cls-29{fill:url(#linear-gradient-19);}.cls-30{fill:url(#linear-gradient-20);}.cls-31{fill:url(#linear-gradient-21);}.cls-32{fill:url(#New_Gradient_Swatch_1-4);}.cls-33{fill:url(#linear-gradient-22);}.cls-34{fill:url(#linear-gradient-23);}.cls-35{fill:url(#New_Gradient_Swatch_1-5);}.cls-36{fill:url(#linear-gradient-24);}.cls-37{fill:url(#linear-gradient-25);}.cls-38{fill:url(#linear-gradient-26);}.cls-39{fill:url(#linear-gradient-27);}.cls-40{fill:url(#linear-gradient-28);}.cls-41{fill:url(#linear-gradient-29);}.cls-42{fill:url(#linear-gradient-30);}.cls-43{fill:url(#linear-gradient-31);}.cls-44{fill:url(#linear-gradient-32);}.cls-45{fill:url(#linear-gradient-33);}.cls-46{fill:url(#linear-gradient-34);}.cls-47{fill:url(#linear-gradient-35);}.cls-48{fill:url(#linear-gradient-36);}.cls-49{fill:url(#linear-gradient-37);}</style><linearGradient id="linear-gradient" x1="1654.85" y1="3473.13" x2="1416.98" y2="3573.03" gradientUnits="userSpaceOnUse"><stop offset="0" stop-color="#09005d"/><stop offset="1" stop-color="#1a0f91"/></linearGradient><linearGradient id="linear-gradient-2" x1="1267.81" y1="2415.64" x2="1021.18" y2="2519.23" gradientUnits="userSpaceOnUse"><stop offset="0" stop-color="#4f52ff"/><stop offset="1" stop-color="#4042e2"/></linearGradient><linearGradient id="linear-gradient-3" x1="224.73" y1="2475.35" x2="2472.31" y2="2475.35" xlink:href="#linear-gradient-2"/><linearGradient id="linear-gradient-4" x1="224.73" y1="3368.1" x2="3610.62" y2="3368.1" xlink:href="#linear-gradient-2"/><linearGradient id="linear-gradient-5" x1="457.4" y1="3254.45" x2="2938.22" y2="3254.45" gradientUnits="userSpaceOnUse"><stop offset="0" stop-color="#40447e"/><stop offset="1" stop-color="#3c3b6b"/></linearGradient><linearGradient id="linear-gradient-6" x1="2279.2" y1="536.42" x2="271.48" y2="4551.85" xlink:href="#linear-gradient-2"/><linearGradient id="linear-gradient-7" x1="1410.86" y1="411.02" x2="1759.71" y2="1806.41" xlink:href="#linear-gradient-2"/><linearGradient id="New_Gradient_Swatch_1" x1="1603.38" y1="553.8" x2="874.54" y2="1797.77" gradientUnits="userSpaceOnUse"><stop offset="0" stop-color="#2b3582"/><stop offset="1" stop-color="#150e42"/></linearGradient><linearGradient id="New_Gradient_Swatch_1-2" x1="1595.66" y1="899.02" x2="866.82" y2="2142.98" xlink:href="#New_Gradient_Swatch_1"/><linearGradient id="New_Gradient_Swatch_1-3" x1="1603.38" y1="1236.86" x2="874.54" y2="2480.82" xlink:href="#New_Gradient_Swatch_1"/><linearGradient id="linear-gradient-8" x1="2147.87" y1="853.61" x2="1655.46" y2="1011.64" gradientUnits="userSpaceOnUse"><stop offset="0" stop-color="#fcb148"/><stop offset="0.05" stop-color="#fdba46"/><stop offset="0.14" stop-color="#ffc244"/><stop offset="0.32" stop-color="#ffc444"/><stop offset="0.48" stop-color="#fdb946"/><stop offset="0.78" stop-color="#f99c4d"/><stop offset="0.87" stop-color="#f8924f"/><stop offset="1" stop-color="#f8924f"/></linearGradient><linearGradient id="linear-gradient-9" x1="2546.21" y1="363.46" x2="2106.61" y2="1333.3" gradientUnits="userSpaceOnUse"><stop offset="0" stop-color="#ffdb44"/><stop offset="1" stop-color="#feef06"/></linearGradient><linearGradient id="linear-gradient-10" x1="2465.34" y1="1387.5" x2="2380.52" y2="924.13" xlink:href="#linear-gradient-8"/><linearGradient id="linear-gradient-11" x1="2285.5" y1="637.48" x2="2635.06" y2="1379.53" xlink:href="#linear-gradient-8"/><linearGradient id="linear-gradient-12" x1="2271.58" y1="477.8" x2="2447.35" y2="1136.56" xlink:href="#linear-gradient-9"/><linearGradient id="linear-gradient-13" x1="2182.67" y1="685.5" x2="2531.52" y2="1426.05" xlink:href="#linear-gradient-8"/><linearGradient id="linear-gradient-14" x1="1843.03" y1="924.65" x2="2424.86" y2="127.25" xlink:href="#linear-gradient-2"/><linearGradient id="linear-gradient-15" x1="2312.67" y1="532.64" x2="2523.07" y2="244.29" gradientUnits="userSpaceOnUse"><stop offset="0" stop-color="#311944"/><stop offset="1" stop-color="#893976"/></linearGradient><linearGradient id="linear-gradient-16" x1="1854.69" y1="1623.09" x2="1505.58" y2="1735.13" xlink:href="#linear-gradient-8"/><linearGradient id="linear-gradient-17" x1="2137.1" y1="1275.59" x2="1825.44" y2="1963.18" xlink:href="#linear-gradient-9"/><linearGradient id="linear-gradient-18" x1="2079.77" y1="2001.61" x2="2019.63" y2="1673.08" xlink:href="#linear-gradient-8"/><linearGradient id="linear-gradient-19" x1="1952.27" y1="1469.86" x2="2200.1" y2="1995.95" xlink:href="#linear-gradient-8"/><linearGradient id="linear-gradient-20" x1="1942.4" y1="1356.65" x2="2067.01" y2="1823.69" xlink:href="#linear-gradient-9"/><linearGradient id="linear-gradient-21" x1="1879.36" y1="1503.9" x2="2126.69" y2="2028.94" xlink:href="#linear-gradient-8"/><linearGradient id="New_Gradient_Swatch_1-4" x1="9830.72" y1="3085.14" x2="9159.18" y2="3815.59" gradientTransform="matrix(-1, 0.01, 0.01, 1, 12543.61, -63.47)" xlink:href="#New_Gradient_Swatch_1"/><linearGradient id="linear-gradient-22" x1="9612.75" y1="3139.38" x2="9672.4" y2="3139.38" gradientTransform="matrix(-1, 0.01, 0.01, 1, 12543.61, -63.47)" gradientUnits="userSpaceOnUse"><stop offset="0" stop-color="#f9b776"/><stop offset="1" stop-color="#f47960"/></linearGradient><linearGradient id="linear-gradient-23" x1="2064.25" y1="3486.1" x2="3235.06" y2="2471.4" xlink:href="#New_Gradient_Swatch_1"/><linearGradient id="New_Gradient_Swatch_1-5" x1="9680.08" y1="2946.61" x2="9008.51" y2="3677.09" gradientTransform="matrix(-1, 0.01, 0.01, 1, 12543.61, -63.47)" xlink:href="#New_Gradient_Swatch_1"/><linearGradient id="linear-gradient-24" x1="9397.77" y1="3136.31" x2="9449.27" y2="3136.31" xlink:href="#linear-gradient-22"/><linearGradient id="linear-gradient-25" x1="2102.03" y1="3529.69" x2="3272.84" y2="2514.98" xlink:href="#New_Gradient_Swatch_1"/><linearGradient id="linear-gradient-26" x1="3023.46" y1="1655.83" x2="2670.35" y2="3015.3" xlink:href="#linear-gradient-2"/><linearGradient id="linear-gradient-27" x1="9858.28" y1="1583.15" x2="10163.04" y2="1583.15" xlink:href="#linear-gradient-22"/><linearGradient id="linear-gradient-28" x1="351.58" y1="1531.14" x2="556.08" y2="1996.42" gradientTransform="translate(2096.89 36.7) rotate(-0.54)" xlink:href="#linear-gradient-22"/><linearGradient id="linear-gradient-29" x1="10161.58" y1="1377.12" x2="10246.91" y2="1245.93" xlink:href="#linear-gradient-22"/><linearGradient id="linear-gradient-30" x1="3296.86" y1="1726.84" x2="2943.75" y2="3086.32" xlink:href="#linear-gradient-2"/><linearGradient id="linear-gradient-31" x1="9191.41" y1="2014.79" x2="9577.07" y2="2014.79" xlink:href="#linear-gradient-22"/><linearGradient id="linear-gradient-32" x1="9487.56" y1="1602.5" x2="9640.04" y2="1602.5" xlink:href="#linear-gradient-22"/><linearGradient id="linear-gradient-33" x1="9393.05" y1="1793.59" x2="9605.86" y2="2680.29" gradientTransform="matrix(-1, 0, 0, 1, 12275.32, 0)" xlink:href="#New_Gradient_Swatch_1"/><linearGradient id="linear-gradient-34" x1="9247.23" y1="2028.17" x2="9367.8" y2="2028.17" gradientTransform="matrix(-1, 0, 0, 1, 12275.32, 0)" xlink:href="#linear-gradient-22"/><linearGradient id="linear-gradient-35" x1="1974.54" y1="2258.99" x2="1776.01" y2="2521.63" gradientTransform="matrix(-0.69, -0.73, -0.73, 0.69, 5962.79, 1318.79)" xlink:href="#linear-gradient-22"/><linearGradient id="linear-gradient-36" x1="1827.56" y1="2322.43" x2="2059.29" y2="2322.43" gradientTransform="matrix(-0.69, -0.73, -0.73, 0.69, 5962.79, 1318.79)" xlink:href="#New_Gradient_Swatch_1"/><linearGradient id="linear-gradient-37" x1="1686.55" y1="2469.9" x2="1845.77" y2="2306.55" gradientTransform="matrix(-0.69, -0.73, -0.73, 0.69, 5962.79, 1318.79)" xlink:href="#linear-gradient-22"/></defs><g class="cls-1"><g id="Illustration"><path class="cls-2" d="M3528.24,1576.5c-68.6-449-123.68-759.36-371.41-929.41C2739,360.26,2272.31,825.9,1680.4,513.45,1389,359.61,1378,181.25,1131.21,157.58,694.53,115.69,336.92,636.83,305.93,681.52,117.62,953.06,54.72,1284.17,131.06,1599.84c49.58,205,83.08,417.23,73.88,627.92-16,366.67-6.79,708.93,349.06,927.6,317.73,195.26,717.6,367.46,1099.08,397.62,259.25,20.5,550-12.67,799.85-80.17C3726.32,3128.83,3622.56,2193.91,3528.24,1576.5Z" transform="translate(-99.38 -85.66)"/><path class="cls-3" d="M3610.62,3342.71,224.73,3313V3401c0,23.9,14.77,44.22,34.77,47.84l957.43,173.4a130.58,130.58,0,0,0,34.35,1.62l2322.55-197.7c20.73-1.76,36.79-22.15,36.79-46.7Z" transform="translate(-99.38 -85.66)"/><path class="cls-4" d="M2381.9,3200,259.74,3361.06c-38,2.88-68.85-27.75-68.85-68.42V1663.11c0-40.68,30.88-73.65,68.85-73.65H2381.9c31.28,0,56.58,29.81,56.58,66.57V3129.1C2438.48,3165.87,2413.18,3197.59,2381.9,3200Z" transform="translate(-99.38 -85.66)"/><path class="cls-5" d="M2415.73,3200,293.58,3361.06c-38,2.88-68.85-27.75-68.85-68.42V1663.11c0-40.68,30.87-73.65,68.85-73.65H2415.73c31.29,0,56.58,29.81,56.58,66.57V3129.1C2472.31,3165.87,2447,3197.59,2415.73,3200Z" transform="translate(-99.38 -85.66)"/><path class="cls-6" d="M2349.62,3096.12,373.06,3236c-30.91,2.19-56-22.95-56-56.16V1753.23c0-33.21,25.11-60.24,56-60.37l1976.56-8.79c25.81-.11,46.69,24.31,46.69,54.55V3038.05C2396.31,3068.29,2375.43,3094.29,2349.62,3096.12Z" transform="translate(-99.38 -85.66)"/><path class="cls-7" d="M1429.6,1634c0,15.14-10.92,27.45-24.41,27.5s-24.46-12.23-24.46-27.4,11-27.49,24.46-27.5S1429.6,1618.89,1429.6,1634Z" transform="translate(-99.38 -85.66)"/><path class="cls-8" d="M1904.43,2753.05c-163.6-94.55-292.23,25.25-416.38-93-75.26-71.67-38.31-125.11-130.92-232.2-102.57-118.61-169.36-78.74-272.44-185.5-130.35-135-65.15-240-177.43-336.91-136.21-117.57-283.1-8.75-412.75-121.51-55.93-48.63-86.61-119.33-102.63-194.52H265c-22.23,0-40.28,19.35-40.28,43.23V3321.84c0,23.87,18.05,41.85,40.28,40.15l2162.83-164.9c10.61-.81,20-7.46,26.06-17.11-158.32-6.2-255.59-63.21-317.77-122.15C2014.5,2942.54,2035.6,2828.85,1904.43,2753.05Z" transform="translate(-99.38 -85.66)"/><path class="cls-9" d="M2500.32,3192.66,224.73,3362.22l992.2,179.69a130.16,130.16,0,0,0,34.35,1.63l2359.34-200.83L2536.51,3193.82A170.49,170.49,0,0,0,2500.32,3192.66Z" transform="translate(-99.38 -85.66)"/><polygon class="cls-10" points="457.39 3280.83 2351.89 3137.56 2938.22 3218.19 1060.05 3371.33 457.39 3280.83"/><path class="cls-11" d="M2522,1007.21,669.47,946.33c-62.13-2-112.7,47-112.7,109.47V2861.39c0,62.5,50.57,111,112.7,108.35L2522,2890.64c53.58-2.29,96.85-50.92,96.85-108.63V1114.88C2618.88,1057.17,2575.61,1009,2522,1007.21Z" transform="translate(-99.38 -85.66)"/><path class="cls-12" d="M669.47,2933.76c-42.26,1.75-76.61-31.27-76.61-73.76V1056.83c0-42.49,34.35-75.85,76.61-74.51L2522,1040.7c36.5,1.15,66,34,66,73.3V2783.2c0,39.33-29.51,72.44-66,73.94Z" transform="translate(-99.38 -85.66)"/><path class="cls-13" d="M2522,1007.21,669.47,946.33c-62.13-2-112.7,47-112.7,109.47V1137l2062.11,52.86v-75C2618.88,1057.17,2575.61,1009,2522,1007.21Z" transform="translate(-99.38 -85.66)"/><path class="cls-7" d="M757.14,1050.66a35.44,35.44,0,0,1-36.53,35.75A38,38,0,0,1,684,1048.53a35.44,35.44,0,0,1,36.64-35.75A38,38,0,0,1,757.14,1050.66Z" transform="translate(-99.38 -85.66)"/><path class="cls-7" d="M884.69,1054.36A35.2,35.2,0,0,1,848.5,1090c-20-.56-36.29-17.43-36.29-37.69a35.19,35.19,0,0,1,36.29-35.59C868.5,1017.28,884.69,1034.16,884.69,1054.36Z" transform="translate(-99.38 -85.66)"/><path class="cls-7" d="M1011,1058c0,20.11-16,36-35.85,35.42s-35.94-17.34-35.94-37.5,16.1-36,35.94-35.42S1011,1037.92,1011,1058Z" transform="translate(-99.38 -85.66)"/><g class="cls-14"><path class="cls-7" d="M1801.92,1701.33C1585.55,1386.48,1211,1486.66,974.1,1138.78c-42.73-62.74-71.72-126.57-91.6-185.45l-213-7c-62.13-2-112.7,47-112.7,109.47V2861.39c0,62.5,50.57,111,112.7,108.35l1784.71-76.2c-40.89-59-397-277.38-489-612.72C1881.08,1974.15,1932.47,1891.29,1801.92,1701.33Z" transform="translate(-99.38 -85.66)"/></g><polygon class="cls-7" points="2418.82 1586.59 595.57 1584.41 595.57 1524.82 2418.82 1532.21 2418.82 1586.59"/><polygon class="cls-7" points="2418.82 1459.8 595.57 1444.3 595.57 1291.55 2418.82 1320.4 2418.82 1459.8"/><path class="cls-7" d="M977.09,1994.42l-241.84,1.42v-231l241.84.29Zm-213.63-30.23,177.35-.86V1796.38l-177.35-.07Z" transform="translate(-99.38 -85.66)"/><polygon class="cls-7" points="2378.89 1741.08 978.48 1741.89 978.48 1679.55 2378.89 1681.02 2378.89 1741.08"/><polygon class="cls-7" points="2378.89 1837.85 978.48 1842.34 978.48 1783.46 2378.89 1781.12 2378.89 1837.85"/><path class="cls-7" d="M977.09,2334.93l-241.84,4v-231l241.84-2.26Zm-213.63-28,177.35-2.75v-167l-177.35,1.83Z" transform="translate(-99.38 -85.66)"/><polygon class="cls-7" points="2378.89 2068.07 978.48 2081.34 978.48 2018.99 2378.89 2008.02 2378.89 2068.07"/><polygon class="cls-7" points="2378.89 2164.84 978.48 2181.79 978.48 2122.91 2378.89 2108.11 2378.89 2164.84"/><path class="cls-7" d="M977.09,2675.44,735.25,2682v-231l241.84-4.81Zm-213.63-22.25,177.35-4.67V2478.09l-177.35,3.72Z" transform="translate(-99.38 -85.66)"/><polygon class="cls-7" points="2378.89 2395.07 978.48 2420.79 978.48 2358.44 2378.89 2335.01 2378.89 2395.07"/><polygon class="cls-7" points="2378.89 2491.83 978.48 2521.24 978.48 2462.35 2378.89 2435.11 2378.89 2491.83"/><path class="cls-15" d="M784,1828.85h0a21.92,21.92,0,0,1,30.22,8.23l28.15,50.46a7,7,0,0,0,12.56-.54l69.83-155.46c3.48-7.75,15-5.13,14.9,3.37-.71,47.55-13.33,137.94-89.31,213.6,0,0-41.87-16.28-75.58-90.32A23,23,0,0,1,784,1828.85Z" transform="translate(-99.38 -85.66)"/><path class="cls-16" d="M776.27,2174.07h0a21.91,21.91,0,0,1,30.22,8.22l28.15,50.47a7,7,0,0,0,12.56-.55L917,2076.76c3.48-7.76,15-5.14,14.9,3.36-.71,47.55-13.33,137.94-89.31,213.6,0,0-41.87-16.27-75.59-90.32A23,23,0,0,1,776.27,2174.07Z" transform="translate(-99.38 -85.66)"/><path class="cls-17" d="M784,2511.91h0a21.91,21.91,0,0,1,30.22,8.22l28.15,50.46a7,7,0,0,0,12.56-.54l69.83-155.46c3.48-7.75,15-5.13,14.9,3.37-.71,47.55-13.33,137.94-89.31,213.6,0,0-41.87-16.28-75.58-90.32A23,23,0,0,1,784,2511.91Z" transform="translate(-99.38 -85.66)"/><path class="cls-18" d="M2714.74,835.75c0,228.43-178.62,408.13-406.92,401.12-237.59-7.29-437.42-212.49-437.42-458S2070.23,355,2307.82,379.75C2536.12,403.53,2714.74,607.31,2714.74,835.75Z" transform="translate(-99.38 -85.66)"/><path class="cls-19" d="M2776.44,816.05c0,228.44-178.63,408.14-406.93,401.12-237.59-7.29-437.42-212.49-437.42-458s199.83-423.81,437.42-399.07C2597.81,383.83,2776.44,587.61,2776.44,816.05Z" transform="translate(-99.38 -85.66)"/><path class="cls-20" d="M2758.52,814.84c0,218.38-170.91,389.87-389,382.81-226.56-7.33-416.78-203.16-416.78-437.13S2143,356.37,2369.51,379.58C2587.61,401.92,2758.52,596.46,2758.52,814.84Z" transform="translate(-99.38 -85.66)"/><path class="cls-21" d="M2745.68,814c0,211.17-165.37,376.81-376.17,369.73-218.69-7.34-402.08-196.48-402.08-422.2s183.39-390.13,402.08-368C2580.31,414.87,2745.68,602.8,2745.68,814Z" transform="translate(-99.38 -85.66)"/><path class="cls-22" d="M2367.35,465.36h0c11.22,1.07,20.3,11.17,20.3,22.56V526.8A571.77,571.77,0,0,1,2455,538.49q24.88,5.85,49.43,13.92a22.72,22.72,0,0,1,15.48,23.33l-4.77,48.76a18.28,18.28,0,0,1-26.1,15.16,280.49,280.49,0,0,0-33.15-12.35,300.64,300.64,0,0,0-62.54-11.69l-5.73-.47V726.5c58.52,16.37,101.49,38.39,129.26,66.1q41.46,41.34,41.41,103.17,0,66.91-45.79,107.27c-30.74,27.08-73.82,42.31-129.54,45.61v42.91a19.52,19.52,0,0,1-20.32,19.83h-.36a21.58,21.58,0,0,1-20.38-21.52v-42.33l-9-.41a595.74,595.74,0,0,1-75-8,488.73,488.73,0,0,1-51.86-11.93c-10.21-3-17.21-12.67-16.27-23.11l5.62-62.67c1.21-13.55,14.82-21.43,27.7-16.35a408.35,408.35,0,0,0,45.61,15,399.32,399.32,0,0,0,72.93,12.18l.36-123.86c-56.17-13.89-98.23-34.48-125.85-61.75s-41.69-62.45-41.69-105.08q0-66.18,45.19-102.07c29.94-23.78,72.5-35.6,127.4-35.58V484.13C2347,472.69,2356.11,464.3,2367.35,465.36ZM2347,614q-26,1.89-40.58,14.31t-14.56,33.42q0,19.88,13.47,33.22T2347,716.21Zm36,224.28V951.86q28.31.06,43.44-13.5t15.12-38.23q0-22.53-14.05-37.39T2383,838.28Z" transform="translate(-99.38 -85.66)"/><path class="cls-23" d="M2301.44,865.69c12.71-125.53,128.07-178.67,113-294.13-9.28-71.17-63.22-131.15-123.39-178-182.51,19.14-323.64,170.26-323.64,367.92,0,225.72,183.39,414.86,402.08,422.2a379.2,379.2,0,0,0,62.14-3C2344.8,1094.25,2290.52,973.53,2301.44,865.69Z" transform="translate(-99.38 -85.66)"/><path class="cls-24" d="M2695.17,553.27v1.78c-15.6-21.31-43.55-50.91-60.29-68-.31-.76-.84-1.51-1.15-2.27a401.87,401.87,0,0,0-38.39-70.86A391.15,391.15,0,0,0,2534,343.7c-2.9-2.85-6.25-5.37-9.34-8.07-1.59-1.31-3.18-2.67-4.79-4l-2.35-2c-.82-.67-1.67-1.27-2.5-1.92q-5-3.78-10-7.62l-2.5-1.92-2.63-1.78q-2.61-1.81-5.22-3.59c-6.86-5-14.26-9.27-21.48-13.82-3.68-2.21-7.54-4.24-11.28-6.33-1.85-1.05-3.75-2.12-5.64-3.14l-5.82-2.9a363.9,363.9,0,0,0-99.3-33.15l-13-2.14c-4.34-.6-8.76-1-13.08-1.49l-6.55-.73-6.58-.36-6.57-.4c-2.19-.11-4.35-.34-6.56-.29-4.37,0-8.74-.07-13.13-.09-1.07,0-2.23-.07-3.23,0l-2.92.16-5.84.31-5.79.29c-.52,0-.87,0-1.54.06l-5.95.45-8,.56-5.95.44-1,.07-.36,0s-2.07,0,1.4.07l-12.86,1.89c-2.11.34-4.25.54-6.37,1l-6.31,1.27-6.31,1.25-3.14.62c-1,.2-2.07.51-3.1.76-4.12,1-8.25,2.07-12.35,3.14-2.07.45-4.08,1.16-6.08,1.76l-6,1.9-6,1.8-5.88,2.16c-3.93,1.47-7.85,2.77-11.66,4.33s-7.6,3.21-11.37,4.83a326.61,326.61,0,0,0-79.86,50.24l-4.33,3.62-4.1,3.85c-2.72,2.54-5.52,5-8.11,7.58-.11.09-.2.22-.31.31-5,5.22-10.14,10.12-14.67,15.52-1.2,1.31-2.38,2.65-3.54,4l-1.79,2-1.65,2.09c-2.2,2.72-4.39,5.46-6.57,8.16-.54.67-1.12,1.31-1.65,2l-1.49,2.09c-1,1.41-2,2.81-3,4.17-2,2.81-4.1,5.39-5.86,8.29-14.89,22.29-26.23,44.58-33.94,65.84a300.89,300.89,0,0,0-15,58.71c-.29,2.21-.58,4.37-.87,6.51s-.67,4.19-.76,6.27q-.49,6.21-1,11.85c-.22,3.84-.22,7.52-.38,11-.06,1.74-.18,3.43-.2,5.06s.11,3.3.14,4.86c0,3.14.08,6.11.13,8.87a12.21,12.21,0,0,0,.15,1.72c.07.51.14,1,.2,1.51.09,1,.23.85.32,1.74s.15,1.12.22,1.12h146.73l-89.16,98.85L1811.39,901.56,1514.94,576h155.87c.23,0,.47-2.68.72-4.77.6-4.53,1.25-8.94,2-14.31.4-2.68.76-5.18,1.18-8.05.22-1.4.42-2.74.65-4.21s.4-3,.69-4.28c1.09-5.4,2.23-11.08,3.43-17.14.65-3,1.27-6.09,1.94-9.25s1.56-6.38,2.41-9.68c1.69-6.57,3.34-13.48,5.39-20.59s4.46-14.4,6.8-22c1.14-3.84,2.63-7.61,4-11.51l4.33-11.79A562.76,562.76,0,0,1,1755,337.31a554.92,554.92,0,0,1,83.28-101.6c4-4.12,8.49-7.89,12.79-11.84,2.19-1.93,4.35-3.9,6.53-5.86l3.32-2.94,3.39-2.81c4.57-3.72,9.18-7.49,13.78-11.25l3.47-2.81,3.61-2.68c2.43-1.8,4.84-3.59,7.27-5.37,9.52-7.29,19.75-13.86,29.91-20.64,5.13-3.3,10.43-6.37,15.72-9.56,2.6-1.56,5.26-3.12,7.91-4.73l8.16-4.41a527.87,527.87,0,0,1,141-52.58c6.21-1.23,12.48-2.48,18.72-3.7s12.59-2,18.88-2.92l9.45-1.34,9.52-.94,9.49-.91c3.17-.29,6.31-.65,9.5-.76,6.33-.29,12.68-1,19-1.33,1.56-.07,3.17-.67,4.75-.67h4.77l9.47.53,9.48.31c3.16,0,6.33.43,9.47.58l18.83,1.14c4.28.07,1.47.11,2.57.13l.49.07,1,.11,2,.27,4,.49,7.89,1,4,.49,2,.25,2.43.33,10,1.47,10,1.52,4.95.78c1.62.27,3.07.62,4.63.93,6.09,1.3,12.17,2.61,18.26,3.88,3,.6,6,1.47,9,2.25l9,2.39,8.91,2.38,8.81,2.79c5.84,1.89,11.7,3.68,17.43,5.73s11.41,4.28,17.09,6.42a489.68,489.68,0,0,1,121.61,69.67c2.23,1.72,4.44,3.46,6.65,5.18s4.28,3.58,6.39,5.41c4.24,3.61,8.5,7.09,12.58,10.79,8,7.56,16.07,14.8,23.4,22.65,1.87,1.91,3.7,3.85,5.57,5.75l2.74,2.85,2.63,3q5.25,6,10.37,11.82l2.56,2.94,2.45,3c1.59,2,3.21,4,4.8,6,3.16,4,6.48,7.87,9.33,12a490.57,490.57,0,0,1,41.17,65.73c5.53,10.59,10.46,21.13,14.8,31.54a464.83,464.83,0,0,1,27.51,89c.6,3.39,1.25,6.71,1.85,10s1.27,6.45,1.65,9.63c.84,6.36,1.69,12.44,2.47,18.3s1,11.55,1.52,16.92c.2,2.68.47,5.28.62,7.87s.63,5,.74,7.49C2694.39,544.31,2695.17,549,2695.17,553.27Z" transform="translate(-99.38 -85.66)"/><path class="cls-25" d="M2695.17,553.27v1.78c-15.6-21.31-43.55-50.91-60.29-68-.31-.76-.84-1.51-1.15-2.27a401.87,401.87,0,0,0-38.39-70.86A391.15,391.15,0,0,0,2534,343.7c-2.9-2.85-6.25-5.37-9.34-8.07-1.59-1.31-3.18-2.67-4.79-4l-2.35-2c-.82-.67-1.67-1.27-2.5-1.92q-5-3.78-10-7.62l-2.5-1.92-2.63-1.78q-2.61-1.81-5.22-3.59c-6.86-5-14.26-9.27-21.48-13.82-3.68-2.21-7.54-4.24-11.28-6.33-1.85-1.05-3.75-2.12-5.64-3.14l-5.82-2.9a363.9,363.9,0,0,0-99.3-33.15l-13-2.14c-4.34-.6-8.76-1-13.08-1.49l-6.55-.73-6.58-.36-6.57-.4c-2.19-.11-4.35-.34-6.56-.29-4.37,0-8.74-.07-13.13-.09-1.07,0-2.23-.07-3.23,0l-2.92.16-5.84.31-5.79.29c-.52,0-.87,0-1.54.06l-5.95.45-8,.56-5.95.44-1,.07-.36,0s-2.07,0,1.4.07l-12.86,1.89c-2.11.34-4.25.54-6.37,1l-6.31,1.27-6.31,1.25-3.14.62c-1,.2-2.07.51-3.1.76-4.12,1-8.25,2.07-12.35,3.14-2.07.45-4.08,1.16-6.08,1.76l-6,1.9-6,1.8-5.88,2.16c-3.93,1.47-7.85,2.77-11.66,4.33s-7.6,3.21-11.37,4.83a326.61,326.61,0,0,0-79.86,50.24l-4.33,3.62-4.1,3.85c-2.72,2.54-5.52,5-8.11,7.58-.11.09-.2.22-.31.31,65.86-81.56,172.56-134.54,293-134.54,123.37,0,232.35,55.61,297.74,140.56,5.53,10.59,10.46,21.13,14.8,31.54a464.83,464.83,0,0,1,27.51,89c.6,3.39,1.25,6.71,1.85,10s1.27,6.45,1.65,9.63c.84,6.36,1.69,12.44,2.47,18.3s1,11.55,1.52,16.92c.2,2.68.47,5.28.62,7.87s.63,5,.74,7.49C2694.39,544.31,2695.17,549,2695.17,553.27Z" transform="translate(-99.38 -85.66)"/><path class="cls-26" d="M2256.59,1610.42c0,162-126.64,289.36-288.5,284.39-168.45-5.17-310.12-150.65-310.12-324.74s141.67-300.48,310.12-282.94C2130,1304,2256.59,1448.47,2256.59,1610.42Z" transform="translate(-99.38 -85.66)"/><path class="cls-27" d="M2300.33,1596.46c0,162-126.64,289.36-288.5,284.39-168.45-5.18-310.12-150.66-310.12-324.75s141.67-300.47,310.12-282.93C2173.69,1290,2300.33,1434.5,2300.33,1596.46Z" transform="translate(-99.38 -85.66)"/><path class="cls-28" d="M2287.63,1595.6c0,154.83-121.18,276.41-275.8,271.41-160.63-5.2-295.49-144-295.49-309.92S1851.2,1270.55,2011.83,1287C2166.45,1302.85,2287.63,1440.78,2287.63,1595.6Z" transform="translate(-99.38 -85.66)"/><path class="cls-29" d="M2278.53,1595c0,149.71-117.25,267.15-266.7,262.13-155-5.21-285.07-139.3-285.07-299.33s130-276.59,285.07-260.89C2161.28,1312,2278.53,1445.27,2278.53,1595Z" transform="translate(-99.38 -85.66)"/><path class="cls-30" d="M2010.3,1347.83h0a16.31,16.31,0,0,1,14.39,16v27.57a403.77,403.77,0,0,1,47.77,8.29q17.64,4.14,35,9.86a16.12,16.12,0,0,1,11,16.54l-3.39,34.57a13,13,0,0,1-18.49,10.75,199.83,199.83,0,0,0-23.51-8.76,213.64,213.64,0,0,0-44.34-8.28l-4.06-.34v79q62.22,17.4,91.64,46.86t29.36,73.15q0,47.44-32.47,76c-21.79,19.2-52.33,30-91.84,32.34v30.42a13.84,13.84,0,0,1-14.4,14.06h-.26a15.3,15.3,0,0,1-14.45-15.26v-30l-6.41-.29a419.94,419.94,0,0,1-53.21-5.67,346.45,346.45,0,0,1-36.76-8.46,15.85,15.85,0,0,1-11.54-16.38l4-44.43c.87-9.61,10.51-15.2,19.65-11.6a288.83,288.83,0,0,0,32.34,10.62A283.83,283.83,0,0,0,1992,1693l.25-87.82c-39.82-9.85-69.64-24.45-89.22-43.78s-29.56-44.28-29.56-74.5q0-46.92,32-72.36,31.85-25.29,90.33-25.23v-28.18A13,13,0,0,1,2010.3,1347.83Zm-14.44,105.38q-18.46,1.33-28.78,10.14t-10.32,23.7q0,14.09,9.55,23.55t29.55,15.07Zm25.52,159v80.53q20.07,0,30.8-9.58t10.72-27.1q0-16-10-26.51T2021.38,1612.22Z" transform="translate(-99.38 -85.66)"/><path class="cls-31" d="M1963.57,1631.65c9-89,90.8-126.67,80.12-208.53-6.57-50.46-44.82-93-87.48-126.18-129.39,13.57-229.45,120.71-229.45,260.85,0,160,130,294.12,285.07,299.33a269,269,0,0,0,44.05-2.15C1994.31,1793.7,1955.82,1708.11,1963.57,1631.65Z" transform="translate(-99.38 -85.66)"/><path class="cls-32" d="M2955,3167.44s7.33,39.31,11.11,78.25a26.85,26.85,0,0,1-25.41,29.34c-51.88,2.66-162.87,7.92-202.72,6.52a8.73,8.73,0,0,1-7.8-11.89,19.54,19.54,0,0,1,9.9-10.64l182.58-86Z" transform="translate(-99.38 -85.66)"/><path class="cls-33" d="M2960.46,3144.26l-5.13,47.14s-32,15.26-54.09-1.37l12.81-52.61Z" transform="translate(-99.38 -85.66)"/><path class="cls-34" d="M2947.82,2258.89c2.53,12.27,18.81,613.61-42.91,883.74a9.16,9.16,0,0,0,5.47,10.59c9.9,3.94,29.28,9.59,52.46,10.14a15.75,15.75,0,0,0,15.52-11.45c17.78-62.71,102.85-376.86,111.48-676.27,9.65-334.56-.11-11.39-.11-11.39l-9.5-206.65Z" transform="translate(-99.38 -85.66)"/><path class="cls-35" d="M3166.14,3186s11.26,19.77,22.49,72.49a16.4,16.4,0,0,1-14.23,19.76c-17.13,1.85-43.49,4.26-64.62,4.32a16.33,16.33,0,0,1-16.35-18.07c2.16-19.3,9.15-51,31.44-75.87Z" transform="translate(-99.38 -85.66)"/><path class="cls-36" d="M3175.29,3125.3l-12.38,71.35s-12.82,9.72-38.42,3L3130,3123Z" transform="translate(-99.38 -85.66)"/><path class="cls-37" d="M3202.45,2274.92c55.61,316.82-3.92,784.39-24.63,876a14.26,14.26,0,0,1-11.41,10.94c-9.61,1.68-25.46,3.14-41.14-1.25a13.06,13.06,0,0,1-9.5-11.94c-3.6-73.86-2.72-527.53-53.42-706.34a40.75,40.75,0,0,0-15.92-22.32l-95.74-66.69-8.33-109.2Z" transform="translate(-99.38 -85.66)"/><path class="cls-38" d="M2861.68,1676.85c157.54-4.11,331.82,38.21,331.82,38.21,49.59,273.61,13.85,590.09,13.85,590.09-121.69,33.16-259.79-17.08-259.79-17.08-21.36-114.36-119-435.84-119-435.84-77.08-8.82-140.71-30.43-193.22-59.29,39.4-46.56,57.62-105.5,65.44-140.32C2756.62,1669.41,2813.08,1678.12,2861.68,1676.85Z" transform="translate(-99.38 -85.66)"/><path class="cls-39" d="M2394,1449.2c15.3-18.85,35-10.19,35-10.19,24.12,97.73,146.46,176,271.74,213.61-7.82,34.82-26,93.76-65.44,140.32C2426.89,1678.36,2394,1449.2,2394,1449.2Z" transform="translate(-99.38 -85.66)"/><path class="cls-40" d="M2397.83,1453.92c-1.57,5.16,17.26,12.82,28.1-8.34.29-10.1,6-53.4-.09-61.56-32.54-43.48-95.34-97.78-95.34-97.78-10.43,10.48-1.66,20.6-1.66,20.6l30.51,31.18c-6.21,11.48-13.82,21.19-17.3,35a42.35,42.35,0,0,0,4.51,31.12c5.4,9.5,12.75,21.85,19.68,31.5C2379.37,1454,2397.83,1453.92,2397.83,1453.92Z" transform="translate(-99.38 -85.66)"/><path class="cls-41" d="M2372.76,1358.32l27.75,23.07,8.87,23.15L2385.09,1432s-8.69-46-14.92-56S2367.08,1361.29,2372.76,1358.32Z" transform="translate(-99.38 -85.66)"/><path class="cls-42" d="M3134.52,1868.21l59-153.15s148.14,98.6,173.55,225.16c-27.79,2.31-78.32,10-127.62,35.51C3228,1916,3134.52,1868.21,3134.52,1868.21Z" transform="translate(-99.38 -85.66)"/><path class="cls-43" d="M3007.27,2013s166.14,91.81,221.14,11.54c11.41-16.67,14-33.15,11-48.82,49.3-25.48,99.83-33.2,127.62-35.51,7.66,38.16,4.19,78.85-17.87,120.15-96,179.59-363.39-6.41-363.39-6.41Z" transform="translate(-99.38 -85.66)"/><path class="cls-44" d="M3020.06,1547.4l51.52,144.52a5.21,5.21,0,0,1-2.32,6.31c-13.59,7.69-62.62,30-122.32-7a24.62,24.62,0,0,1-11.5-17.47L2918,1548.38Z" transform="translate(-99.38 -85.66)"/><path class="cls-45" d="M3041.23,2158.11l-90.51-316.05a9.19,9.19,0,0,0-7.79-6.64c-16.4-1.91-63.91-7.29-118.77-11.93-66.08-5.59-142.82-10.11-188.67-6.26a9.25,9.25,0,0,0-7.56,13.31c26.07,52.75,133.34,267.35,187.05,337.65a9.26,9.26,0,0,0,7.46,3.66l210-1.95A9.25,9.25,0,0,0,3041.23,2158.11Z" transform="translate(-99.38 -85.66)"/><path class="cls-46" d="M3019.36,2081.75s12.61-51.84,7.52-70.23-14.94-42-47.78-36.78-71.58,19.09-71.58,19.09,1.95,24,26.92,16.22L2919,2022s2.21,19.18,23.29,8.93l-14.39,15.89s9,15.75,24.56,5.65S2975.37,2088,3019.36,2081.75Z" transform="translate(-99.38 -85.66)"/><path class="cls-7" d="M2830.19,1917.84a26.57,26.57,0,1,1-26.56-26.56A26.56,26.56,0,0,1,2830.19,1917.84Z" transform="translate(-99.38 -85.66)"/><path class="cls-7" d="M2940.48,1935.36l-18.42-62.51a21.43,21.43,0,0,0-16.11-15c-57.75-12-215.82-14.61-217.41-14.63l.1-7.06c6.52.1,160.35,2.59,218.76,14.78a28.47,28.47,0,0,1,21.43,19.95l18.43,62.51Z" transform="translate(-99.38 -85.66)"/><path class="cls-47" d="M2939.5,1400.21c-1.8,1.79-75.86,156.08-75.86,156.08l83.94,43,90.67-135.17S2969.59,1370.16,2939.5,1400.21Z" transform="translate(-99.38 -85.66)"/><path class="cls-48" d="M3001.11,1467.85a15,15,0,0,1-1,12.47l-41.87,74a13.65,13.65,0,0,1-2.29,3c-5,4.92-22,19.24-35.22-.25-11.23-16.61-21.78-31.71-33.07-37.94-6.6-3.64-14.71-.73-18.06,6.31-6.9,14.5-20.26,44.07-28.65,72.1a14.39,14.39,0,0,0,7.75,17.34c17,7.3,50.59,20.52,80.4,24.88a13,13,0,0,0,12.66-5.71c12.82-18.64,49-70.73,61.3-83.76,11.47-12.12,32.62-7.55,42.15-4.64a12.82,12.82,0,0,0,10.7-1.49c9.67-6.18,26.54-21.57,11.1-47.63a14.75,14.75,0,0,1,4.15-19.31c10.79-7.53,22.51-21.68,11.35-44.58-11.3-23.19-31.48-25.27-45.22-23.49a13.77,13.77,0,0,1-14.59-8.6,9,9,0,0,0-6.91-5.77,13.76,13.76,0,0,1-10.52-16.19c2.43-13.13.6-30.17-19.14-41.69-36.22-21.12-68,13.3-76,42.36s32.43,49.59,57.9,53C2986.73,1434.86,2997,1456.53,3001.11,1467.85Z" transform="translate(-99.38 -85.66)"/><path class="cls-49" d="M2987.34,1577.54s16.11-50,36.72-48.15,36.84,23.62,11.29,48.11C3003.57,1608,2987.34,1577.54,2987.34,1577.54Z" transform="translate(-99.38 -85.66)"/></g></g></svg>