<svg xmlns="http://www.w3.org/2000/svg" xmlns:xlink="http://www.w3.org/1999/xlink" viewBox="0 0 3733.2 3234.95"><defs><style>.cls-1{fill:#91b3fa;}.cls-2{fill:#7d97f4;}.cls-3{isolation:isolate;}.cls-4{fill:url(#linear-gradient);}.cls-5{clip-path:url(#clip-path);}.cls-10,.cls-11,.cls-13,.cls-50,.cls-6{fill:#fff;}.cls-6{opacity:0.7;mix-blend-mode:soft-light;}.cls-7{clip-path:url(#clip-path-2);}.cls-8{fill:url(#linear-gradient-2);}.cls-9{fill:url(#linear-gradient-3);}.cls-10,.cls-12{opacity:0.6;}.cls-11{opacity:0.78;}.cls-14{fill:url(#New_Gradient_Swatch_1);}.cls-15{fill:url(#New_Gradient_Swatch_1-2);}.cls-16{fill:url(#New_Gradient_Swatch_1-3);}.cls-17{fill:url(#New_Gradient_Swatch_1-4);}.cls-18{fill:url(#linear-gradient-4);}.cls-19{fill:url(#linear-gradient-5);}.cls-20{fill:url(#linear-gradient-6);}.cls-21{fill:url(#linear-gradient-7);}.cls-22{fill:url(#linear-gradient-8);}.cls-23{fill:url(#linear-gradient-9);}.cls-24{fill:url(#linear-gradient-10);}.cls-25{fill:url(#linear-gradient-11);}.cls-26{fill:url(#linear-gradient-12);}.cls-27{fill:url(#linear-gradient-13);}.cls-28{fill:url(#linear-gradient-14);}.cls-29{fill:url(#linear-gradient-15);}.cls-30{fill:url(#linear-gradient-16);}.cls-31{fill:url(#linear-gradient-17);}.cls-32{fill:url(#linear-gradient-18);}.cls-33{fill:url(#linear-gradient-19);}.cls-34{fill:url(#linear-gradient-20);}.cls-35{fill:url(#linear-gradient-21);}.cls-36{fill:url(#linear-gradient-22);}.cls-37{fill:url(#linear-gradient-23);}.cls-38{fill:url(#linear-gradient-24);}.cls-39{fill:url(#linear-gradient-25);}.cls-40{fill:url(#linear-gradient-26);}.cls-41{fill:url(#linear-gradient-27);}.cls-42{fill:url(#linear-gradient-28);}.cls-43{fill:url(#linear-gradient-29);}.cls-44{fill:url(#linear-gradient-30);}.cls-45{fill:url(#linear-gradient-31);}.cls-46{fill:url(#linear-gradient-32);}.cls-47{fill:url(#linear-gradient-33);}.cls-48{fill:url(#linear-gradient-34);}.cls-49{fill:url(#linear-gradient-35);}.cls-50{opacity:0.72;}</style><linearGradient id="linear-gradient" x1="3548.31" y1="3433.03" x2="1246.4" y2="1418.86" gradientUnits="userSpaceOnUse"><stop offset="0" stop-color="#dae3fe"/><stop offset="1" stop-color="#e9effd"/></linearGradient><clipPath id="clip-path" transform="translate(-40.88 -176.72)"><path class="cls-1" d="M2088.66,2258.27c-58.92-132.57,35.16-331.71,135.43-443.2,117.07-130.18,195.6-88.64,278.77-197C2657.72,1416.43,2449,1189.74,2589,974c114.48-176.39,297.41-91.82,415.3-292.93,85.06-145.12,30.7-258.9,146.37-360.81,9.89-8.71,117.87-101.13,232.79-69.25,116,32.18,171.22,172.17,183.88,266,23.4,173.37-95.12,214.73-142.8,430.42-64.9,293.67,116.36,390.84,23.88,597.19-76.38,170.4-217.6,143.45-298.52,334.06-75.15,177,19.31,264.58-42.65,378.82C2964.72,2520.23,2208.84,2528.68,2088.66,2258.27Z"/></clipPath><clipPath id="clip-path-2" transform="translate(-40.88 -176.72)"><path class="cls-2" d="M2347.81,2605.06c-19.24-102.28,79.33-225.76,167.75-287,103.23-71.53,151.19-29.57,227.15-91.45,141.41-115.21,33.15-307.94,166.55-435.44,109-104.23,222.79-15,338.3-135.9,83.36-87.25,64.2-175.66,161.78-227.7,8.34-4.45,99-51.14,174-9.9,75.66,41.63,91.08,148.48,84.43,216-12.3,124.9-101.87,134.19-170.78,276.9-93.82,194.29,16.67,292.06-82,420.84-81.46,106.34-175.6,64.2-263.58,183.9-81.69,111.16-30.21,187.89-92.34,257.41C2916.12,2932.65,2387,2813.69,2347.81,2605.06Z"/></clipPath><linearGradient id="linear-gradient-2" x1="1680.23" y1="3159.22" x2="1531.65" y2="-1238.76" gradientUnits="userSpaceOnUse"><stop offset="0" stop-color="#2b3582"/><stop offset="1" stop-color="#150e42"/></linearGradient><linearGradient id="linear-gradient-3" x1="2864.34" y1="334.86" x2="-62.96" y2="4242.91" gradientUnits="userSpaceOnUse"><stop offset="0" stop-color="#53d8ff"/><stop offset="1" stop-color="#3840f7"/></linearGradient><linearGradient id="New_Gradient_Swatch_1" x1="1400.04" y1="1660.78" x2="811.79" y2="2664.8" xlink:href="#linear-gradient-2"/><linearGradient id="New_Gradient_Swatch_1-2" x1="1507.74" y1="1723.88" x2="919.48" y2="2727.89" xlink:href="#linear-gradient-2"/><linearGradient id="New_Gradient_Swatch_1-3" x1="1598.29" y1="1971.38" x2="824.27" y2="3050.59" xlink:href="#linear-gradient-2"/><linearGradient id="New_Gradient_Swatch_1-4" x1="1723.12" y1="1850.07" x2="1134.87" y2="2854.09" xlink:href="#linear-gradient-2"/><linearGradient id="linear-gradient-4" x1="1913.04" y1="91.76" x2="1169.99" y2="1069.24" xlink:href="#linear-gradient-2"/><linearGradient id="linear-gradient-5" x1="1994.55" y1="153.72" x2="1251.49" y2="1131.2" xlink:href="#linear-gradient-2"/><linearGradient id="linear-gradient-6" x1="1900.91" y1="213.51" x2="1387.85" y2="1155.61" xlink:href="#linear-gradient-3"/><linearGradient id="linear-gradient-7" x1="10339.18" y1="3232.34" x2="9759.47" y2="3862.9" gradientTransform="matrix(-1, 0.01, 0.01, 1, 12543.61, -63.47)" xlink:href="#linear-gradient-2"/><linearGradient id="linear-gradient-8" x1="10151.02" y1="3279.16" x2="10202.51" y2="3279.16" gradientTransform="matrix(-1, 0.01, 0.01, 1, 12543.61, -63.47)" gradientUnits="userSpaceOnUse"><stop offset="0" stop-color="#f9b776"/><stop offset="1" stop-color="#f47960"/></linearGradient><linearGradient id="linear-gradient-9" x1="1649.9" y1="3587.39" x2="2660.61" y2="2711.44" xlink:href="#linear-gradient-2"/><linearGradient id="linear-gradient-10" x1="10209.13" y1="3112.76" x2="9629.4" y2="3743.35" gradientTransform="matrix(-1, 0.01, 0.01, 1, 12543.61, -63.47)" xlink:href="#linear-gradient-2"/><linearGradient id="linear-gradient-11" x1="9965.43" y1="3276.52" x2="10009.89" y2="3276.52" xlink:href="#linear-gradient-8"/><linearGradient id="linear-gradient-12" x1="1682.51" y1="3625.02" x2="2693.22" y2="2749.07" xlink:href="#linear-gradient-2"/><linearGradient id="linear-gradient-13" x1="2477.94" y1="2007.4" x2="2173.11" y2="3180.97" gradientUnits="userSpaceOnUse"><stop offset="0" stop-color="#4f52ff"/><stop offset="1" stop-color="#4042e2"/></linearGradient><linearGradient id="linear-gradient-14" x1="10362.97" y1="1935.74" x2="10626.05" y2="1935.74" xlink:href="#linear-gradient-8"/><linearGradient id="linear-gradient-15" x1="-120.72" y1="1890.72" x2="55.82" y2="2292.37" gradientTransform="translate(2096.89 36.7) rotate(-0.54)" xlink:href="#linear-gradient-8"/><linearGradient id="linear-gradient-16" x1="10624.79" y1="1757.89" x2="10698.45" y2="1644.63" xlink:href="#linear-gradient-8"/><linearGradient id="linear-gradient-17" x1="2713.95" y1="2068.71" x2="2409.13" y2="3242.28" xlink:href="#linear-gradient-13"/><linearGradient id="linear-gradient-18" x1="9787.29" y1="2308.36" x2="10120.21" y2="2308.36" xlink:href="#linear-gradient-8"/><linearGradient id="linear-gradient-19" x1="10042.94" y1="1952.45" x2="10174.57" y2="1952.45" xlink:href="#linear-gradient-8"/><linearGradient id="linear-gradient-20" x1="9919.27" y1="2126.32" x2="10102.97" y2="2891.77" gradientTransform="matrix(-1, 0, 0, 1, 12275.32, 0)" xlink:href="#linear-gradient-2"/><linearGradient id="linear-gradient-21" x1="9793.39" y1="2328.82" x2="9897.47" y2="2328.82" gradientTransform="matrix(-1, 0, 0, 1, 12275.32, 0)" xlink:href="#linear-gradient-8"/><linearGradient id="linear-gradient-22" x1="2064.42" y1="2912.58" x2="1893.03" y2="3139.3" gradientTransform="matrix(-0.69, -0.73, -0.73, 0.69, 5962.79, 1318.79)" xlink:href="#linear-gradient-8"/><linearGradient id="linear-gradient-23" x1="1937.54" y1="2967.34" x2="2137.57" y2="2967.34" gradientTransform="matrix(-0.69, -0.73, -0.73, 0.69, 5962.79, 1318.79)" xlink:href="#linear-gradient-2"/><linearGradient id="linear-gradient-24" x1="1815.81" y1="3094.65" x2="1953.25" y2="2953.64" gradientTransform="matrix(-0.69, -0.73, -0.73, 0.69, 5962.79, 1318.79)" xlink:href="#linear-gradient-8"/><linearGradient id="linear-gradient-25" x1="-9527.55" y1="3372.25" x2="-9221.25" y2="2583.72" gradientTransform="translate(9828.62)" gradientUnits="userSpaceOnUse"><stop offset="0" stop-color="#febbba"/><stop offset="1" stop-color="#ff928e"/></linearGradient><linearGradient id="linear-gradient-26" x1="-9532.21" y1="5908.61" x2="-8519.83" y2="-5923.5" xlink:href="#linear-gradient-25"/><linearGradient id="linear-gradient-27" x1="-9495.82" y1="2124.8" x2="-9365.98" y2="2124.8" xlink:href="#linear-gradient-25"/><linearGradient id="linear-gradient-28" x1="-9036.01" y1="3394.62" x2="-8727.16" y2="2920.76" gradientTransform="translate(9593.46)" xlink:href="#linear-gradient-13"/><linearGradient id="linear-gradient-29" x1="-9314.3" y1="3538.92" x2="-8971.6" y2="2946.6" gradientTransform="translate(9593.46)" xlink:href="#linear-gradient-13"/><linearGradient id="linear-gradient-30" x1="6215.35" y1="2074.89" x2="5891.34" y2="2513.64" gradientTransform="matrix(-1, 0, 0, 1, 6382.31, 0)" xlink:href="#linear-gradient-13"/><linearGradient id="linear-gradient-31" x1="-9354.02" y1="1835.12" x2="-9261.81" y2="1835.12" gradientTransform="translate(9787.74 -176.72)" xlink:href="#linear-gradient-25"/><linearGradient id="linear-gradient-32" x1="-8813" y1="1887.69" x2="-9610.52" y2="2344.57" xlink:href="#linear-gradient-25"/><linearGradient id="linear-gradient-33" x1="-8745.72" y1="2033.22" x2="-9490.05" y2="2459.63" xlink:href="#linear-gradient-25"/><linearGradient id="linear-gradient-34" x1="-9200.44" y1="1835.08" x2="-9379.63" y2="1573.05" xlink:href="#linear-gradient-25"/><linearGradient id="linear-gradient-35" x1="-9060.19" y1="1647.87" x2="-9314.04" y2="1977.88" gradientTransform="translate(9593.46)" gradientUnits="userSpaceOnUse"><stop offset="0" stop-color="#09005d"/><stop offset="1" stop-color="#1a0f91"/></linearGradient></defs><g class="cls-3"><g id="Illustration"><path class="cls-4" d="M3157.1,2387c-297.5,700.49-1090,1092.91-1777.2,987.05-111.82-17.22-418.4-68.53-689.83-310.59-522.52-466-634.26-1388.69-212.76-2038.94C784.09,551.24,1334,283,1856.57,296.38c112.55,2.89,543.91,20.71,923,333.3,55.69,45.91,178.5,155,289.18,328.1C3328.65,1364.21,3351,1930.47,3157.1,2387Z" transform="translate(-40.88 -176.72)"/><path class="cls-1" d="M2088.66,2258.27c-58.92-132.57,35.16-331.71,135.43-443.2,117.07-130.18,195.6-88.64,278.77-197C2657.72,1416.43,2449,1189.74,2589,974c114.48-176.39,297.41-91.82,415.3-292.93,85.06-145.12,30.7-258.9,146.37-360.81,9.89-8.71,117.87-101.13,232.79-69.25,116,32.18,171.22,172.17,183.88,266,23.4,173.37-95.12,214.73-142.8,430.42-64.9,293.67,116.36,390.84,23.88,597.19-76.38,170.4-217.6,143.45-298.52,334.06-75.15,177,19.31,264.58-42.65,378.82C2964.72,2520.23,2208.84,2528.68,2088.66,2258.27Z" transform="translate(-40.88 -176.72)"/><g class="cls-5"><path class="cls-6" d="M2171.76,2465c126.51,0,247.66-26.1,360.21-77.63,108.42-49.63,220.54-101,280.57-212.62,45.58-84.79,33.43-152,18.05-237.12-14.76-81.67-33.13-183.31,0-331.59,18.92-84.66,42.46-190,127.79-282.23,49.59-53.6,94.25-74,133.65-92,40.77-18.6,76-34.66,100.21-83.49,39.06-78.66,27.5-150.86,14.12-234.47-8.16-51-16.6-103.71-15.15-164.86,4.07-172,105.32-346.21,300.92-517.89a2.14,2.14,0,0,0-2.83-3.22c-196.54,172.5-298.27,347.8-302.38,521-1.46,61.54,7,114.46,15.21,165.64,13.26,82.88,24.72,154.45-13.73,231.88-23.57,47.47-56.48,62.49-98.14,81.5-39.78,18.15-84.86,38.72-135,93-86.12,93.08-109.8,199-128.84,284.19-33.33,149.14-14.87,251.25,0,333.3,15.23,84.28,27.27,150.86-17.61,234.33-59.34,110.39-170.79,161.41-278.57,210.76-113.79,52.09-236.33,78-364.53,77.22h0a2.14,2.14,0,0,0,0,4.28C2167.67,2465,2169.72,2465,2171.76,2465Z" transform="translate(-40.88 -176.72)"/><path class="cls-6" d="M2919.44,1370.94a2,2,0,0,0,.64-.1,2.14,2.14,0,0,0,1.4-2.69c-75.82-241.86-71.76-421.92-55-530.38,18.15-117.34,54.57-178.23,54.93-178.83a2.14,2.14,0,1,0-3.66-2.23c-.37.61-37.23,62.23-55.5,180.4-16.84,108.91-20.94,289.67,55.14,532.33A2.14,2.14,0,0,0,2919.44,1370.94Z" transform="translate(-40.88 -176.72)"/><path class="cls-6" d="M2810.79,1730.16a1.77,1.77,0,0,0,.32,0c134.13-19.9,252.53-62.58,351.92-126.84a719,719,0,0,0,200.9-194.06c91.57-131.69,111.52-254.4,111.71-255.62a2.15,2.15,0,1,0-4.24-.66c-.19,1.22-20,123.1-111.1,254a714.65,714.65,0,0,1-199.72,192.82c-98.84,63.89-216.63,106.33-350.1,126.13a2.14,2.14,0,0,0,.31,4.26Z" transform="translate(-40.88 -176.72)"/><path class="cls-6" d="M2650.52,2335.14a2.17,2.17,0,0,0,1.46-.57,2.14,2.14,0,0,0,.11-3c-197.35-212.83-246.05-414.8-252.15-546.75-6.6-142.86,33.87-236.52,34.28-237.45a2.15,2.15,0,0,0-3.93-1.73c-.41.94-41.28,95.53-34.63,239.38,6.14,132.67,55.06,335.68,253.29,549.46A2.11,2.11,0,0,0,2650.52,2335.14Z" transform="translate(-40.88 -176.72)"/><path class="cls-6" d="M3195.57,722a2.1,2.1,0,0,0,.61-.09c224.15-66.43,332.56-210.53,384-319.72C3636,284,3638.77,179.94,3638.79,178.91a2.15,2.15,0,1,0-4.29-.09c0,1-2.82,104.26-58.24,221.75C3525.15,508.9,3417.51,651.89,3195,717.84a2.15,2.15,0,0,0,.61,4.2Z" transform="translate(-40.88 -176.72)"/></g><path class="cls-2" d="M2347.81,2605.06c-19.24-102.28,79.33-225.76,167.75-287,103.23-71.53,151.19-29.57,227.15-91.45,141.41-115.21,33.15-307.94,166.55-435.44,109-104.23,222.79-15,338.3-135.9,83.36-87.25,64.2-175.66,161.78-227.7,8.34-4.45,99-51.14,174-9.9,75.66,41.63,91.08,148.48,84.43,216-12.3,124.9-101.87,134.19-170.78,276.9-93.82,194.29,16.67,292.06-82,420.84-81.46,106.34-175.6,64.2-263.58,183.9-81.69,111.16-30.21,187.89-92.34,257.41C2916.12,2932.65,2387,2813.69,2347.81,2605.06Z" transform="translate(-40.88 -176.72)"/><g class="cls-7"><path class="cls-6" d="M2516.55,2780.83A609.93,609.93,0,0,0,2636.08,2769c84-16.77,170.84-34.1,231.32-102.28,46-51.82,48.6-100.86,51.92-162.93,3.19-59.4,7.15-133.32,54.72-231.25,27.16-55.91,60.95-125.47,135.63-175.68,43.36-29.16,77.84-36,108.27-42,31.64-6.27,59-11.69,84.09-41.94,40.38-48.61,44.25-101,48.72-161.69,2.72-36.92,5.54-75.09,16.64-117.49,31.21-119.2,130.56-224,295.32-311.45a2.15,2.15,0,0,0-2-3.79c-165.85,88-265.93,193.75-297.45,314.16-11.2,42.77-14,81.14-16.76,118.25-4.42,59.95-8.24,111.72-47.75,159.27-24.16,29.08-49.52,34.11-81.63,40.48-30.81,6.11-65.74,13-109.83,42.67-75.63,50.85-109.71,121-137.08,177.36-48,98.72-51.94,173.12-55.15,232.9-3.28,61.24-5.87,109.61-50.84,160.31-59.53,67.11-145.66,84.3-228.95,100.92-87.95,17.56-177.78,15.44-267-6.3a2.15,2.15,0,0,0-1,4.17A629.77,629.77,0,0,0,2516.55,2780.83Z" transform="translate(-40.88 -176.72)"/><path class="cls-6" d="M3074.7,2123.49h.15a2.15,2.15,0,0,0,2-2.29C3052,1774.68,3192.35,1628,3193.77,1626.54a2.14,2.14,0,0,0-3.05-3c-.36.37-36.36,37.38-68.68,117-29.77,73.31-62.52,198.92-49.48,381A2.15,2.15,0,0,0,3074.7,2123.49Z" transform="translate(-40.88 -176.72)"/><path class="cls-6" d="M3002.73,2359.06c183.79,0,304.74-71.73,376-135.61,85.77-76.9,120-159.39,120.36-160.22a2.14,2.14,0,0,0-4-1.62c-.33.82-34.29,82.54-119.41,158.78-78.5,70.32-217.89,150.24-436,131.65a2.14,2.14,0,1,0-.37,4.27Q2972.2,2359.11,3002.73,2359.06Z" transform="translate(-40.88 -176.72)"/><path class="cls-6" d="M2727.71,2752.18a2.15,2.15,0,0,0,1.86-3.2c-102.53-181-103.17-329.9-85.65-422.92,19-100.69,62.6-159.27,63-159.85a2.15,2.15,0,1,0-3.43-2.59c-.44.59-44.68,60-63.82,161.64-17.65,93.73-17,243.69,86.13,425.84A2.14,2.14,0,0,0,2727.71,2752.18Z" transform="translate(-40.88 -176.72)"/><path class="cls-6" d="M3374.65,1716.1h.12c167.68-9.37,267.3-92.17,321.35-160,58.54-73.47,77.7-145.74,77.89-146.46a2.14,2.14,0,1,0-4.15-1.07c-.19.71-19.17,72.23-77.21,145-53.49,67.08-152.11,149-318.12,158.25a2.14,2.14,0,0,0,.12,4.28Z" transform="translate(-40.88 -176.72)"/></g><path class="cls-8" d="M634.92,842.2c0-104.91,85.05-190,190-190H2440.35a167.36,167.36,0,0,1,167.14,158.85l119.25,2342.13a123.41,123.41,0,0,1-121,129.67L754.19,3316.54a117.15,117.15,0,0,1-119.27-117.13Z" transform="translate(-40.88 -176.72)"/><path class="cls-9" d="M767.26,688.29a55.19,55.19,0,0,1,62.59-55c220.61,29.92,979.22,122.44,1606.42,74.3a51,51,0,0,1,54.95,48.12l125,2352.57a58.73,58.73,0,0,1-55.17,61.75c-263.79,15.61-1350.17,76-1737.66,35.37a46.52,46.52,0,0,1-41.63-46Z" transform="translate(-40.88 -176.72)"/><path class="cls-10" d="M793.25,747.24a53.1,53.1,0,0,1,60.23-53c212.3,28.79,942.34,117.83,1545.93,71.5a49.09,49.09,0,0,1,52.88,46.31l120.33,2264a56.5,56.5,0,0,1-53.09,59.42c-253.86,15-1299.33,73.1-1672.23,34a44.76,44.76,0,0,1-40.06-44.3Z" transform="translate(-40.88 -176.72)"/><path class="cls-11" d="M989.78,921.79l22.55,485.38a30.85,30.85,0,0,0,29.94,29.43c89.89,2.54,370,9.37,528.16,1.12a34.46,34.46,0,0,0,32.64-33.31c3-91,9.61-356-11.13-466.71A38.9,38.9,0,0,0,1555,906.06L1023.7,887.48A32.81,32.81,0,0,0,989.78,921.79Z" transform="translate(-40.88 -176.72)"/><g class="cls-12"><path class="cls-13" d="M2320.85,964c9.43,0,16.93-7.33,16.67-16.28s-8.19-16.42-17.62-16.59l-586.19-10.45c-9.43-.16-14.59,7-11.45,15.87l4,11.28c3.13,8.89,13.41,16.17,22.84,16.17Z" transform="translate(-40.88 -176.72)"/></g><g class="cls-12"><path class="cls-13" d="M1733.71,1011.21c-9.43-.17-14.59,7-11.45,15.87l4,11.27c3.13,8.9,13.41,16.18,22.84,16.18h571.78c9.43,0,16.93-7.33,16.67-16.29s-8.19-16.42-17.62-16.58Z" transform="translate(-40.88 -176.72)"/></g><g class="cls-12"><path class="cls-13" d="M1733.71,1103c-9.43-.17-14.59,7-11.45,15.87l4,11.27c3.13,8.9,13.41,16.18,22.84,16.18h571.78c9.43,0,16.93-7.33,16.67-16.29s-8.19-16.42-17.62-16.58Z" transform="translate(-40.88 -176.72)"/></g><g class="cls-12"><path class="cls-13" d="M1733.71,1207.49c-9.43-.17-14.59,7-11.45,15.87l4,11.28c3.13,8.89,13.41,16.17,22.84,16.17h571.78c9.43,0,16.93-7.33,16.67-16.28s-8.19-16.42-17.62-16.59Z" transform="translate(-40.88 -176.72)"/></g><g class="cls-12"><path class="cls-13" d="M1733.71,1310.57c-9.43-.17-14.59,7-11.45,15.87l4,11.28c3.13,8.89,13.41,16.17,22.84,16.17h571.78c9.43,0,16.93-7.33,16.67-16.28s-8.19-16.42-17.62-16.59Z" transform="translate(-40.88 -176.72)"/></g><g class="cls-12"><path class="cls-13" d="M2377.44,1589c9.43,0,16.67-7.33,16.08-16.29s-8.8-16.34-18.23-16.41l-1368.52-10.79c-9.43-.07-12.34,5.9-6.47,13.28l13.38,16.79c5.87,7.38,18.39,13.42,27.83,13.42Z" transform="translate(-40.88 -176.72)"/></g><g class="cls-12"><path class="cls-13" d="M1006.77,1636c-9.43-.08-12.34,5.9-6.47,13.28l13.38,16.79c5.87,7.38,18.39,13.41,27.83,13.41H2377.44c9.43,0,16.67-7.32,16.08-16.28s-8.8-16.34-18.23-16.42Z" transform="translate(-40.88 -176.72)"/></g><path class="cls-10" d="M1002.39,1787.13c32.82-2.52,94.28-3.68,128.11-4.16a30.66,30.66,0,0,1,30.27,23.45c6.53,27.07,15.53,74.07,14.4,123.87A27.23,27.23,0,0,1,1147.7,1957l-124.85-1.35a30,30,0,0,1-29.52-27.19l-11-117.44A21.84,21.84,0,0,1,1002.39,1787.13Z" transform="translate(-40.88 -176.72)"/><g class="cls-12"><path class="cls-13" d="M1231.48,1835.28c-9.42-.39-16,6.92-14.58,16.24l3.55,23.65c1.4,9.33,10.26,17,19.69,17h306.77a16.93,16.93,0,0,0,16.93-17.15l-.11-8.68a18.35,18.35,0,0,0-17.34-17.86Z" transform="translate(-40.88 -176.72)"/></g><path class="cls-10" d="M1682.52,1787.13c32.82-2.52,94.28-3.68,128.11-4.16a30.66,30.66,0,0,1,30.27,23.45c6.53,27.07,15.54,74.07,14.4,123.87a27.22,27.22,0,0,1-27.47,26.66L1703,1955.6a30,30,0,0,1-29.53-27.19l-11-117.44A21.85,21.85,0,0,1,1682.52,1787.13Z" transform="translate(-40.88 -176.72)"/><g class="cls-12"><path class="cls-13" d="M1911.62,1835.28c-9.43-.39-16,6.92-14.59,16.24l3.55,23.65c1.4,9.33,10.27,17,19.7,17H2227A16.94,16.94,0,0,0,2244,1875l-.11-8.68a18.36,18.36,0,0,0-17.35-17.86Z" transform="translate(-40.88 -176.72)"/></g><path class="cls-13" d="M1178.54,2253.1h-.32L1063,2252c-16.46-.16-30-11.49-31.6-26.34L1021.29,2129a21,21,0,0,1,5-15.8,25.31,25.31,0,0,1,17.63-8.7h0c9.71-.66,23.37-1.82,37.84-3.05,30.47-2.6,68.39-5.83,89.73-6.09,15.48-.08,28.61,9.08,32.26,22.56,6,22.19,5.47,64.19,4.33,108.93C1207.67,2241.39,1194.47,2253.1,1178.54,2253.1Zm-134.06-139.77a16.33,16.33,0,0,0-11.45,5.57,12.2,12.2,0,0,0-2.94,9.18l10.13,96.65c1.09,10.39,10.93,18.3,22.89,18.42l115.2,1.11h.23c11.16,0,20.41-7.87,20.66-17.63,1.12-44.07,1.66-85.36-4-106.4-2.55-9.43-12.36-16-23.61-16-21,.27-58.76,3.48-89.08,6.06-14.51,1.24-28.22,2.4-38,3.07Z" transform="translate(-40.88 -176.72)"/><path class="cls-10" d="M1056.88,2123.31c24.2-1.65,76.8-7,101.74-7.31,10.58-.13,19.85,6.26,22.32,15.42,4.82,17.81,4.18,53.29,3.35,86-.25,9.81-9.26,17.64-20.26,17.54l-92.06-.89c-11.32-.11-20.72-7.83-21.78-17.88L1042.1,2139C1041.26,2131,1047.91,2123.92,1056.88,2123.31Z" transform="translate(-40.88 -176.72)"/><g class="cls-12"><path class="cls-13" d="M1279.72,2188.92a28.61,28.61,0,0,0,27.91,21.31l1065.89-9.09a21.63,21.63,0,0,0-.09-43.26L1307.51,2153A28.61,28.61,0,0,0,1279.72,2188.92Z" transform="translate(-40.88 -176.72)"/></g><path class="cls-14" d="M1061.78,2138.47h0a17.68,17.68,0,0,1,24.39,6.63l22.72,40.73a5.68,5.68,0,0,0,10.14-.44l56.36-125.47c2.81-6.25,12.13-4.14,12,2.72-.58,38.38-10.76,111.33-72.08,172.4,0,0-33.8-13.14-61-72.9A18.54,18.54,0,0,1,1061.78,2138.47Z" transform="translate(-40.88 -176.72)"/><path class="cls-13" d="M1178.54,2500h-.32L1063,2498.9c-16.46-.16-30-11.48-31.6-26.34l-10.13-96.66a21,21,0,0,1,5-15.79,25.31,25.31,0,0,1,17.63-8.7h0c9.71-.66,23.37-1.83,37.84-3.06,30.47-2.59,68.39-5.82,89.73-6.09h.46c15.15,0,28.19,9.22,31.8,22.57,6,22.18,5.47,64.18,4.33,108.93C1207.67,2488.29,1194.47,2500,1178.54,2500Zm-134.06-139.77a16.36,16.36,0,0,0-11.45,5.56,12.22,12.22,0,0,0-2.94,9.18l10.13,96.66c1.09,10.38,10.93,18.3,22.89,18.42l115.2,1.1h.23c11.16,0,20.41-7.86,20.66-17.63,1.12-44.06,1.66-85.35-4-106.4-2.55-9.42-12.5-16.2-23.61-16-21,.26-58.76,3.47-89.08,6.06-14.51,1.23-28.22,2.4-38,3.07Z" transform="translate(-40.88 -176.72)"/><path class="cls-10" d="M1056.88,2370.21c24.2-1.65,76.8-7,101.74-7.3,10.58-.13,19.85,6.25,22.32,15.42,4.82,17.8,4.18,53.29,3.35,86-.25,9.81-9.26,17.64-20.26,17.53L1072,2481c-11.32-.11-20.72-7.83-21.78-17.89l-8.09-77.24C1041.26,2377.9,1047.91,2370.83,1056.88,2370.21Z" transform="translate(-40.88 -176.72)"/><g class="cls-12"><path class="cls-13" d="M1279.72,2435.83a28.63,28.63,0,0,0,27.91,21.31l1065.89-9.09a21.63,21.63,0,0,0-.09-43.26l-1065.92-4.86A28.6,28.6,0,0,0,1279.72,2435.83Z" transform="translate(-40.88 -176.72)"/></g><path class="cls-15" d="M1061.78,2385.37h0a17.68,17.68,0,0,1,24.39,6.64l22.72,40.73a5.68,5.68,0,0,0,10.14-.44l56.36-125.47c2.81-6.26,12.13-4.14,12,2.72-.58,38.38-10.76,111.33-72.08,172.39,0,0-33.8-13.13-61-72.89A18.55,18.55,0,0,1,1061.78,2385.37Z" transform="translate(-40.88 -176.72)"/><path class="cls-13" d="M1178.54,2746.91h-.32l-115.2-1.1c-16.46-.16-30-11.48-31.6-26.34l-10.13-96.66a21.06,21.06,0,0,1,5-15.8,25.31,25.31,0,0,1,17.63-8.7h0c9.71-.66,23.37-1.82,37.84-3,30.47-2.6,68.39-5.83,89.73-6.09h.46c15.15,0,28.19,9.23,31.8,22.57,6,22.19,5.47,64.19,4.33,108.93C1207.67,2735.2,1194.47,2746.91,1178.54,2746.91Zm-134.06-139.77a16.33,16.33,0,0,0-11.45,5.57,12.2,12.2,0,0,0-2.94,9.18l10.13,96.66c1.09,10.38,10.93,18.3,22.89,18.41l115.2,1.11h.23c11.16,0,20.41-7.87,20.66-17.63,1.12-44.07,1.66-85.36-4-106.4-2.55-9.43-12.5-16.24-23.61-16-21,.27-58.76,3.48-89.08,6.06-14.51,1.24-28.22,2.4-38,3.07Z" transform="translate(-40.88 -176.72)"/><path class="cls-10" d="M1056.88,2617.12c24.2-1.65,76.8-7,101.74-7.31,10.58-.13,19.85,6.26,22.32,15.42,4.82,17.81,4.18,53.29,3.35,86-.25,9.81-9.26,17.64-20.26,17.54l-92.06-.89c-11.32-.11-20.72-7.83-21.78-17.88l-8.09-77.24C1041.26,2624.81,1047.91,2617.73,1056.88,2617.12Z" transform="translate(-40.88 -176.72)"/><g class="cls-12"><path class="cls-13" d="M1279.72,2682.73a28.61,28.61,0,0,0,27.91,21.31L2373.52,2695a21.63,21.63,0,0,0-.09-43.26l-1065.92-4.86A28.61,28.61,0,0,0,1279.72,2682.73Z" transform="translate(-40.88 -176.72)"/></g><path class="cls-16" d="M1061.78,2632.28h0a17.68,17.68,0,0,1,24.39,6.63l22.72,40.73a5.68,5.68,0,0,0,10.14-.43l56.36-125.48c2.81-6.25,12.13-4.14,12,2.72-.58,38.38-10.76,111.33-72.08,172.4,0,0-33.8-13.14-61-72.9A18.54,18.54,0,0,1,1061.78,2632.28Z" transform="translate(-40.88 -176.72)"/><path class="cls-13" d="M1178.54,2993.82h-.32l-115.2-1.11c-16.46-.15-30-11.48-31.6-26.33l-10.13-96.66a21,21,0,0,1,5-15.8,25.31,25.31,0,0,1,17.63-8.7h0c9.71-.66,23.37-1.83,37.84-3.06,30.47-2.59,68.39-5.82,89.73-6.09h.46c15.15,0,28.19,9.22,31.8,22.57,6,22.18,5.47,64.18,4.33,108.93C1207.67,2982.1,1194.47,2993.82,1178.54,2993.82Zm-134.06-139.77a16.36,16.36,0,0,0-11.45,5.56,12.22,12.22,0,0,0-2.94,9.18l10.13,96.66c1.09,10.39,10.93,18.3,22.89,18.41l115.2,1.11h.23c11.16,0,20.41-7.86,20.66-17.63,1.12-44.06,1.66-85.35-4-106.4-2.55-9.42-12.5-16.27-23.61-16-21,.26-58.76,3.47-89.08,6.06-14.51,1.23-28.22,2.4-38,3.07Z" transform="translate(-40.88 -176.72)"/><path class="cls-10" d="M1056.88,2864c24.2-1.65,76.8-7,101.74-7.3,10.58-.13,19.85,6.25,22.32,15.42,4.82,17.8,4.18,53.29,3.35,86-.25,9.81-9.26,17.64-20.26,17.53l-92.06-.88c-11.32-.11-20.72-7.83-21.78-17.89l-8.09-77.24C1041.26,2871.71,1047.91,2864.64,1056.88,2864Z" transform="translate(-40.88 -176.72)"/><g class="cls-12"><path class="cls-13" d="M1279.72,2929.64h0a28.63,28.63,0,0,0,27.91,21.31l1065.89-9.09a21.63,21.63,0,0,0-.09-43.26l-1065.92-4.86A28.6,28.6,0,0,0,1279.72,2929.64Z" transform="translate(-40.88 -176.72)"/></g><path class="cls-17" d="M1061.78,2879.18h0a17.68,17.68,0,0,1,24.39,6.64l22.72,40.73a5.68,5.68,0,0,0,10.14-.44l56.36-125.47c2.81-6.26,12.13-4.14,12,2.72-.58,38.38-10.76,111.33-72.08,172.39,0,0-33.8-13.13-61-72.89A18.55,18.55,0,0,1,1061.78,2879.18Z" transform="translate(-40.88 -176.72)"/><path class="cls-18" d="M1732.81,332.9c-58.35-40.6-109.09-39.79-144.81-29.25a71.24,71.24,0,0,0-50.6,74.9l15.4,168.13,183.3,16.26S1847.25,412.51,1732.81,332.9ZM1652.2,468.54a45.71,45.71,0,1,1,45.71-45.71A45.7,45.7,0,0,1,1652.2,468.54Z" transform="translate(-40.88 -176.72)"/><path class="cls-19" d="M1302.64,655.33V570.8A51.58,51.58,0,0,1,1356,519.25l582.8,20a50.17,50.17,0,0,1,48.36,47.13l4.87,81.22Z" transform="translate(-40.88 -176.72)"/><path class="cls-20" d="M1065.17,676.68A54.92,54.92,0,0,1,1120,624.39l1019.12,0a75.32,75.32,0,0,1,74.23,62.47l.86,5a64.68,64.68,0,0,1-63.74,75.72H1104.93a42.06,42.06,0,0,1-42-44.08Z" transform="translate(-40.88 -176.72)"/><path class="cls-21" d="M2418.83,3312.31s6.33,33.93,9.59,67.55a23.18,23.18,0,0,1-21.93,25.33c-44.79,2.29-140.6,6.83-175,5.63a7.55,7.55,0,0,1-6.74-10.27,16.9,16.9,0,0,1,8.55-9.18l157.62-74.27Z" transform="translate(-40.88 -176.72)"/><path class="cls-22" d="M2423.56,3292.29l-4.44,40.7s-27.61,13.18-46.68-1.18l11-45.41Z" transform="translate(-40.88 -176.72)"/><path class="cls-23" d="M2412.64,2528c2.19,10.59,16.24,529.7-37,762.89a7.89,7.89,0,0,0,4.72,9.14,137.4,137.4,0,0,0,45.29,8.76,13.61,13.61,0,0,0,13.4-9.89c15.35-54.14,88.78-325.33,96.23-583.79,8.33-288.81-.09-9.83-.09-9.83l-8.2-178.4Z" transform="translate(-40.88 -176.72)"/><path class="cls-24" d="M2601.11,3328.3s9.72,17.07,19.41,62.58a14.14,14.14,0,0,1-12.28,17c-14.79,1.6-37.54,3.69-55.79,3.74a14.11,14.11,0,0,1-14.11-15.6c1.86-16.66,7.9-44,27.14-65.49Z" transform="translate(-40.88 -176.72)"/><path class="cls-25" d="M2609,3275.93l-10.69,61.59s-11.06,8.4-33.17,2.6l4.75-66.2Z" transform="translate(-40.88 -176.72)"/><path class="cls-26" d="M2632.45,2541.83c48,273.5-3.38,677.14-21.26,756.21a12.31,12.31,0,0,1-9.84,9.44c-8.31,1.46-22,2.71-35.52-1.08a11.3,11.3,0,0,1-8.21-10.31c-3.1-63.76-2.34-455.39-46.11-609.75a35.17,35.17,0,0,0-13.74-19.26l-82.65-57.57-7.19-94.27Z" transform="translate(-40.88 -176.72)"/><path class="cls-27" d="M2338.28,2025.55c136-3.54,286.45,33,286.45,33,42.8,236.19,11.95,509.4,11.95,509.4-105,28.62-224.26-14.75-224.26-14.75C2394,2454.47,2309.66,2177,2309.66,2177c-66.54-7.61-121.47-26.27-166.8-51.19,34-40.19,49.74-91.07,56.49-121.12C2247.59,2019.12,2296.33,2026.64,2338.28,2025.55Z" transform="translate(-40.88 -176.72)"/><path class="cls-28" d="M1934.58,1829c13.21-16.27,30.19-8.8,30.19-8.8,20.82,84.37,126.44,151.92,234.58,184.41-6.75,30-22.48,80.93-56.49,121.12C1963,2026.85,1934.58,1829,1934.58,1829Z" transform="translate(-40.88 -176.72)"/><path class="cls-29" d="M1937.86,1833.1c-1.36,4.46,14.9,11.07,24.26-7.2.25-8.71,5.19-46.09-.08-53.14-28.09-37.53-82.3-84.41-82.3-84.41-9,9.05-1.43,17.79-1.43,17.79l26.34,26.92c-5.36,9.9-11.94,18.29-14.94,30.24a36.51,36.51,0,0,0,3.9,26.86,319.62,319.62,0,0,0,17,27.2C1921.92,1833.13,1937.86,1833.1,1937.86,1833.1Z" transform="translate(-40.88 -176.72)"/><path class="cls-30" d="M1916.22,1750.57l24,19.92,7.65,20-21,23.71s-7.51-39.73-12.88-48.3S1911.31,1753.14,1916.22,1750.57Z" transform="translate(-40.88 -176.72)"/><path class="cls-31" d="M2573.81,2190.75l50.92-132.21s127.88,85.11,149.82,194.37c-24,2-67.62,8.65-110.17,30.65C2654.49,2232,2573.81,2190.75,2573.81,2190.75Z" transform="translate(-40.88 -176.72)"/><path class="cls-32" d="M2464,2315.74s143.42,79.26,190.9,10c9.86-14.39,12.11-28.62,9.52-42.14,42.55-22,86.18-28.66,110.17-30.65,6.61,32.93,3.62,68.06-15.44,103.71-82.84,155-313.69-5.53-313.69-5.53Z" transform="translate(-40.88 -176.72)"/><path class="cls-33" d="M2475,1913.81l44.47,124.75a4.51,4.51,0,0,1-2,5.45c-11.74,6.63-54.06,25.89-105.6-6.09a21.28,21.28,0,0,1-9.92-15.08l-15.05-108.19Z" transform="translate(-40.88 -176.72)"/><path class="cls-34" d="M2493.28,2441l-78.13-272.84a8,8,0,0,0-6.73-5.72c-14.15-1.66-55.17-6.29-102.53-10.3-57-4.82-123.29-8.73-162.87-5.41a8,8,0,0,0-6.53,11.49C2159,2203.76,2251.6,2389,2298,2449.7a8,8,0,0,0,6.44,3.16l181.27-1.68A8,8,0,0,0,2493.28,2441Z" transform="translate(-40.88 -176.72)"/><path class="cls-35" d="M2474.4,2375.08s10.88-44.75,6.49-60.63-12.89-36.29-41.24-31.75-61.8,16.48-61.8,16.48,1.69,20.68,23.24,14l-13.36,10.34s1.91,16.56,20.11,7.71L2395.41,2345s7.82,13.6,21.21,4.88S2436.43,2380.47,2474.4,2375.08Z" transform="translate(-40.88 -176.72)"/><path class="cls-13" d="M2311.1,2233.59a22.94,22.94,0,1,1-22.93-22.94A22.93,22.93,0,0,1,2311.1,2233.59Z" transform="translate(-40.88 -176.72)"/><path class="cls-13" d="M2406.31,2248.71l-15.91-54a18.51,18.51,0,0,0-13.9-13c-49.85-10.4-186.31-12.61-187.68-12.63l.09-6.09c5.62.08,138.41,2.24,188.84,12.76a24.58,24.58,0,0,1,18.5,17.22l15.91,54Z" transform="translate(-40.88 -176.72)"/><path class="cls-36" d="M2405.46,1786.74c-1.55,1.55-65.48,134.73-65.48,134.73l72.46,37.11,78.27-116.68S2431.43,1760.79,2405.46,1786.74Z" transform="translate(-40.88 -176.72)"/><path class="cls-37" d="M2458.65,1845.13a13,13,0,0,1-.87,10.77l-36.14,63.91a11.88,11.88,0,0,1-2,2.62c-4.3,4.24-19,16.6-30.4-.22-9.7-14.34-18.8-27.38-28.55-32.75-5.7-3.14-12.7-.63-15.59,5.45-6,12.51-17.49,38-24.74,62.24a12.43,12.43,0,0,0,6.7,15c14.67,6.31,43.67,17.71,69.4,21.48a11.27,11.27,0,0,0,10.93-4.93c11.07-16.09,42.27-61.05,52.92-72.31,9.9-10.45,28.16-6.51,36.39-4a11,11,0,0,0,9.23-1.29c8.35-5.33,22.91-18.62,9.59-41.11a12.72,12.72,0,0,1,3.57-16.67c9.33-6.5,19.44-18.71,9.8-38.48-9.75-20-27.17-21.82-39-20.28a11.9,11.9,0,0,1-12.6-7.43,7.75,7.75,0,0,0-6-5,11.87,11.87,0,0,1-9.08-14c2.09-11.32.52-26-16.53-36-31.26-18.24-58.65,11.48-65.61,36.56s28,42.81,50,45.77C2446.23,1816.65,2455.08,1835.35,2458.65,1845.13Z" transform="translate(-40.88 -176.72)"/><path class="cls-38" d="M2446.76,1939.82s13.9-43.15,31.7-41.57,31.8,20.4,9.74,41.54C2460.77,1966.09,2446.76,1939.82,2446.76,1939.82Z" transform="translate(-40.88 -176.72)"/><path class="cls-39" d="M544,2653.41l-108.49,27.13L462.64,2884s-40.68,40.68-54.25,94.93-26.06,282-26.06,282l-25.75,15.57-3.13,13,74.9,100.7L415.93,3310c-2-12.72,1.44-38.53.37-39.07C457,3162.47,544,2856.84,544,2856.84Z" transform="translate(-40.88 -176.72)"/><path class="cls-40" d="M575.71,3290.87c-1.17,0-2.32.08-3.5,0,5.24-65.4,29.2-353.26,53.17-461.15,27.13-122.06-40.68-366.17-40.68-366.17l-122.06,122,67.81,230.56c-46.47,69.7,7.58,477.9,6.42,477.72l.07.91-17.69,24.33,2.15,13.19,108.09,63.78L587,3327A77.68,77.68,0,0,1,575.71,3290.87Z" transform="translate(-40.88 -176.72)"/><path class="cls-41" d="M438.43,1922.22s-237.65,267.84,0,405.17l24.21-17.53s-118-113,0-251.29Z" transform="translate(-40.88 -176.72)"/><path class="cls-42" d="M636.61,3406.1h-34.5a20.79,20.79,0,0,1-16.48-8.08c-10.75-14-33-41.24-43.69-41.95-14.34-1-12.5,50-12.5,50h-8l-10.18-63.35a37.49,37.49,0,0,1,19.68-39.2h0s3.27,24.24,21.05,35,72.33,49.13,72.33,49.13a49.48,49.48,0,0,1,14,.37C649.19,3390,647.67,3406.1,636.61,3406.1Z" transform="translate(-40.88 -176.72)"/><path class="cls-43" d="M431,3402.17l-31.79-13.38A20.75,20.75,0,0,1,387.18,3375c-4.5-17-14.46-50.82-24-55.6-12.85-6.45-30.93,41.26-30.93,41.26l-7.41-3.12L340,3295.15a37.49,37.49,0,0,1,33.34-28.5h0s-6.38,23.61,5.85,40.39,47.62,73.34,47.62,73.34a49.18,49.18,0,0,1,12.78,5.78C448.88,3392.19,441.23,3406.45,431,3402.17Z" transform="translate(-40.88 -176.72)"/><path class="cls-44" d="M615.78,2257.63s-4,30.53,1.86,114.48,33.78,281,28.09,469.62c0,0-79.41,23.12-217.38,12.17,0,0-58.22-294.43-44-406.36s91.13-192.23,91.13-192.23Z" transform="translate(-40.88 -176.72)"/><polygon class="cls-45" points="516.23 1631.38 525.93 1745.5 433.72 1745.5 456.65 1571.3 516.23 1631.38"/><path class="cls-13" d="M447.28,1906.44c31.83-1.76,103-5,153.39-2.26a58.56,58.56,0,0,1,54.2,46.51l12.29,58.91a142,142,0,0,1-2,66.3l-49.38,181.26s-43.92,26.4-140.34-1.85c0,0-84.68-201.93-50-331.1A24,24,0,0,1,447.28,1906.44Z" transform="translate(-40.88 -176.72)"/><path class="cls-46" d="M652.46,1940.12c13.58,35.78,25.85,73.3,39,108.43,6.7,17.59,13.49,34.83,20.77,50.66,3.67,7.89,7.72,15.13,11.42,21.7a97.16,97.16,0,0,0,10.07,14.4c.43.37-1,.66-1.48.68-.29,0,9.18,1.55,12.09,2l11.35-.07c16.27-.84,34.7-3.7,53.18-7.3,37.28-6.95,76.05-16.71,115.85-24.09l.3-.06a14,14,0,0,1,11.83,24.32c-16,14.13-33.06,25.73-50.71,37-8.88,5.43-17.91,10.75-27.1,15.86-9.37,4.78-18.76,9.59-28.52,14-19.64,8.56-39.93,16.44-63.3,21.51-6.15,1-12.21,2.1-18.53,2.95-7.09.24-13.53.87-21.27.42-4.11-.4-8.24-.91-12.36-1.51a54.69,54.69,0,0,1-6.48-1.16c-2.82-.85-5.64-1.8-8.42-2.84-5.8-2.08-9.56-4.6-14.27-7.23-3.92-2.58-7.49-5.28-10.95-8.05-12.78-10.88-20.71-21.68-27.71-32.06a253.09,253.09,0,0,1-17.46-30.92,421.47,421.47,0,0,1-24-60.74c-12.78-40.64-21.44-80.58-25.09-123A36.93,36.93,0,0,1,652,1938.81Z" transform="translate(-40.88 -176.72)"/><path class="cls-47" d="M912.73,2123.58c4.67-11.09,8.69-31,18.71-38.16,19-13.56,47.22-22.75,70.76-18.15,4.69.91,14,6.1,5.46,11.27a51.45,51.45,0,0,1-13.36,5.33,6.2,6.2,0,0,0-3.95,8.76c2.93,5.79,5.52,14.66,1.54,24.36-6.79,16.55-77.56,33.12-79.64,9.36A5.85,5.85,0,0,1,912.73,2123.58Z" transform="translate(-40.88 -176.72)"/><path class="cls-48" d="M596.15,1676.29c3.29,1.94,29.23,93.44,7.49,131.8s-88.12-4.6-106.11-60.08S508.44,1624.56,596.15,1676.29Z" transform="translate(-40.88 -176.72)"/><path class="cls-49" d="M424.09,1748c-14.89,73-64.23,53-99.17,85.45-56.64,52.61-137.66-1.62-216.43,48.23-56.86,36-84.25,128.06-57,202.4,37.8,103,167,145.3,233.89,113.94,64-30,54.86-119.73,140.93-154.42,36.54-14.73,54.58-5.16,76.46-27,38.31-38.21,28-112.36,24-140.93-8.64-62-29.43-73.21-19.49-100.45,19.32-53,109.43-42,116.94-79.46,6.84-34.06-58.48-98.63-119.94-88.46C409.2,1623.07,430.72,1715.51,424.09,1748Z" transform="translate(-40.88 -176.72)"/><path class="cls-10" d="M79.92,2066.65a2.49,2.49,0,0,1-2.42-1.9c-12.17-50.55-6.65-92,16.43-123.22,38.3-51.8,112.73-56.93,113.48-57a2.52,2.52,0,0,1,2.63,2.33,2.49,2.49,0,0,1-2.33,2.64c-.73,0-72.91,5-109.8,55-22.14,30-27.38,70-15.56,119.06a2.5,2.5,0,0,1-1.84,3A2.44,2.44,0,0,1,79.92,2066.65Z" transform="translate(-40.88 -176.72)"/><path class="cls-50" d="M323.71,2112.92a1.73,1.73,0,0,1-.32,0,1.26,1.26,0,0,1-.89-1.53c11.86-45.5,32.67-77.1,61.85-93.93,21.23-12.25,41.1-13.39,58.64-14.39,16.91-1,31.51-1.82,43.26-12.27,24.29-21.6,22.89-73.54-4.18-154.38a1.24,1.24,0,1,1,2.36-.79c27.42,81.87,28.58,134.7,3.47,157-12.4,11-27.4,11.9-44.77,12.89s-36.82,2.12-57.54,14.07c-28.57,16.48-49,47.57-60.68,92.41A1.24,1.24,0,0,1,323.71,2112.92Z" transform="translate(-40.88 -176.72)"/><path class="cls-50" d="M459.32,1729.91a1.12,1.12,0,0,1-.4-.07,1.25,1.25,0,0,1-.79-1.58c9.43-28,36.6-23.88,65.38-19.45,18.21,2.8,37,5.68,53,1,11.92-3.54,19-9,21.05-16.28,3.49-12.38-8.75-26.18-8.87-26.32a1.24,1.24,0,1,1,1.84-1.66c.55.6,13.29,14.94,9.43,28.65-2.3,8.14-10,14.2-22.74,18-16.52,4.89-35.62,2-54.11-.88-28.89-4.44-53.87-8.28-62.63,17.79A1.25,1.25,0,0,1,459.32,1729.91Z" transform="translate(-40.88 -176.72)"/></g></g></svg>