<svg id="Illustration" xmlns="http://www.w3.org/2000/svg" xmlns:xlink="http://www.w3.org/1999/xlink" viewBox="0 0 3710 3710"><defs><style>.cls-1{fill:none;}.cls-2{fill:#91b3fa;}.cls-3{fill:#fff;}.cls-4{fill:url(#linear-gradient);}.cls-5{clip-path:url(#clip-path);}.cls-6{fill:url(#linear-gradient-2);}.cls-7{fill:url(#linear-gradient-3);}.cls-8{fill:url(#linear-gradient-4);}.cls-9{fill:url(#linear-gradient-5);}.cls-10{fill:url(#linear-gradient-6);}.cls-11{fill:url(#linear-gradient-7);}.cls-12{fill:url(#linear-gradient-8);}.cls-13{fill:url(#linear-gradient-9);}.cls-14{fill:url(#linear-gradient-10);}.cls-15{fill:url(#linear-gradient-11);}.cls-16{clip-path:url(#clip-path-2);}.cls-17{fill:url(#linear-gradient-12);}.cls-18{fill:#e8e7e7;}</style><linearGradient id="linear-gradient" x1="4037" y1="4463.56" x2="1185.64" y2="922.34" gradientUnits="userSpaceOnUse"><stop offset="0" stop-color="#dae3fe"/><stop offset="1" stop-color="#e9effd"/></linearGradient><clipPath id="clip-path"><rect class="cls-1" x="453.49" y="1229.17" width="3137.77" height="2297.86" transform="translate(4044.76 4756.2) rotate(180)"/></clipPath><linearGradient id="linear-gradient-2" x1="593.23" y1="3495.74" x2="1834.99" y2="2396.11" gradientTransform="matrix(-1, 0, 0, 1, 3735.38, 0)" gradientUnits="userSpaceOnUse"><stop offset="0" stop-color="#4f52ff"/><stop offset="1" stop-color="#4042e2"/></linearGradient><linearGradient id="linear-gradient-3" x1="1719.34" y1="2678.75" x2="2180.04" y2="2678.75" gradientTransform="matrix(-1, 0, 0, 1, 3735.38, 0)" gradientUnits="userSpaceOnUse"><stop offset="0" stop-color="#febbba"/><stop offset="1" stop-color="#ff928e"/></linearGradient><linearGradient id="linear-gradient-4" x1="1417.76" y1="1468.07" x2="1864.38" y2="1009.85" gradientTransform="matrix(-0.96, 0.27, 0.27, 0.96, 3514.29, 393.24)" xlink:href="#linear-gradient-3"/><linearGradient id="linear-gradient-5" x1="-1437.08" y1="1906.16" x2="-2002.56" y2="2654.24" gradientTransform="matrix(-0.8, -0.6, -0.6, 0.8, 2052.37, -865.04)" xlink:href="#linear-gradient-3"/><linearGradient id="linear-gradient-6" x1="-1868.95" y1="2084.26" x2="-1193.48" y2="2084.26" gradientTransform="matrix(-0.8, -0.6, -0.6, 0.8, 2052.37, -865.04)" gradientUnits="userSpaceOnUse"><stop offset="0" stop-color="#09005d"/><stop offset="1" stop-color="#1a0f91"/></linearGradient><linearGradient id="linear-gradient-7" x1="-2265.28" y1="2498.59" x2="-1811.73" y2="2033.25" gradientTransform="matrix(-0.8, -0.6, -0.6, 0.8, 2052.37, -865.04)" xlink:href="#linear-gradient-3"/><linearGradient id="linear-gradient-8" x1="198.07" y1="3180.88" x2="1507.25" y2="2021.56" xlink:href="#linear-gradient-2"/><linearGradient id="linear-gradient-9" x1="872.61" y1="-303.62" x2="777.97" y2="1999.26" gradientTransform="matrix(-1, 0, 0, 1, 3735.38, 0)" xlink:href="#linear-gradient-6"/><linearGradient id="linear-gradient-10" x1="1305.39" y1="-728.22" x2="1608.35" y2="-728.22" gradientTransform="matrix(-0.07, -1, -1, 0.07, 1881.26, 4752.75)" xlink:href="#linear-gradient-3"/><linearGradient id="linear-gradient-11" x1="578.79" y1="5201.65" x2="3298.56" y2="1985.48" gradientTransform="matrix(-1, 0, 0, 1, 3735.38, 0)" xlink:href="#linear-gradient-6"/><clipPath id="clip-path-2"><path class="cls-2" d="M163.65,1424.6c34.31-7.73,70.46-1.81,102.42,9.74s59.89,28.83,79.45,43.17c5.9,4.32,11.05,8.36,15.38,11.92l1.08-1.17c-1.38-2.55-2.8-5.26-4.27-8.16-10.26-20.22-22-48.84-28.21-81s-6.71-67.73,4.36-99.92,33.44-60.71,71.69-77.91c28.32,30.93,39.9,62.66,41.86,94s-5.56,62.52-16.23,91.25-24.28,54.89-35.25,74.26c-5.49,9.67-10.33,17.58-13.76,23.08l-.07.11,86.73,80.46c2.42,2.25,4.8,4.55,7.2,6.82-.23-1.37-.78-4.78-1.4-9.86-.84-6.75-1.74-16.38-2.1-28-.74-23.24.88-54.56,9.55-85.81s24.36-62.24,50-83.67,60.92-33.15,107.34-25.58c15.77,44.3,13.85,79.14,1.92,107.65s-33.89,50.86-58.25,69-50.91,32.16-71.59,41.92c-10.34,4.86-19.18,8.62-25.42,11.17-5.06,2.05-8.4,3.27-9.51,3.67a999.45,999.45,0,0,1,119.83,136.34c.24-42.8,10.2-250,181.5-237.11,63.74,164.25-143.38,233.48-176.9,243.5a1012.57,1012.57,0,0,1,95,162.24c-.31-3.6-.63-7.84-.89-12.71-.24-5.37-.41-11.47-.43-18.18,0-26.76,2.9-63.19,13.84-100.31s29.86-74.68,59.25-102.13,68.7-44.63,118.3-40.79c12.52,48.13,7.31,87.44-7.69,121s-39.71,61.62-66.44,85.6-55.12,43.8-77.09,58.08c-5.48,3.57-10.57,6.76-15.13,9.54s-8.48,5.2-11.78,7.14c-2.79,1.63-5,2.92-6.79,3.89a1003,1003,0,0,1,77,257.49l45.33,288.85h200L938.13,3311.9H679.8l-77.55-857.65H814l-9.8-62.48c-1.53.09-3.33.2-5.44.3-3.36.17-7.4.33-12,.46s-9.84.39-15.43.49c-22.51.46-51.62.77-80.12-2.15-28.72-2.87-56.68-9.2-80.74-25.13s-44.57-42.12-60.24-86.42c31.15-35.22,68.45-46.88,103.44-43.21s67.32,22.66,91.66,46c24.48,23.54,41.09,51.29,50.8,72.68q1.93,4.29,3.55,8.19l-28.33-180.55c-1.84.58-4.54,1.42-8,2.42-6.87,2-16.73,4.67-28.6,7.48-23.78,5.59-55.46,11.75-88.35,13.35s-67.12-1.37-97.77-15.32-58-39.18-78.11-83c31.8-36.3,69-50.56,105.45-50.87s72.12,13.42,102,31.93,54.32,42,70.77,60.6c8.25,9.32,14.58,17.44,18.85,23.27,1,1.37,1.89,2.6,2.67,3.69l-1.43-9.13a987.06,987.06,0,0,0-30-131.51c-1.5-.08-3.22-.18-5.21-.31l-12.4-.93c-4.83-.27-10.21-.62-16-1.08l-38.91-2.85c-14-1.21-28.74-2.32-43.22-4.37a305,305,0,0,1-42.95-8.17c-6.88-2.09-13.79-4.08-20.37-7-3.31-1.4-6.64-2.75-9.87-4.4s-6.41-3.49-9.6-5.27c-25.35-15-48-39.67-69.76-82.26,28.86-38.16,68.79-52.25,107.24-49.15a112.77,112.77,0,0,1,14.32,1.94c4.72.93,9.46,1.94,14.08,3.32a162.77,162.77,0,0,1,26.85,10.65c17.31,8.43,32.79,20.16,46.24,32.63a228.21,228.21,0,0,1,32.31,38.8,1004.57,1004.57,0,0,0-86.13-169.38c-1.53.89-3.44,2.06-5.64,3.44a239,239,0,0,0-23,16.85c-9,7.34-18.91,16.23-30.75,25.75A431.1,431.1,0,0,1,526,1861.93c-28.93,17.92-61.29,32.49-95.94,35.73s-71.85-5-111.62-33.12c10.8-47.48,37.09-78.49,69.7-96.94s71.36-24.42,107.49-23.27a324.38,324.38,0,0,1,51.61,6c16.38,3,32.11,7.23,44.79,12.26a134.6,134.6,0,0,1,26,13.4,995,995,0,0,0-122.67-152.57c-1.36,1.36-3.49,3.46-6.35,6.19-2.59,2.47-5.76,5.41-9.43,8.73s-7.82,7.12-12.4,11.09c-18.36,16-43.15,36.23-70.76,53.33s-58.23,31.12-91.22,34.25-68.86-4.78-108.84-31.78c8.31-47.54,33.47-79.06,65.39-97.77s70.43-24.46,106-22.73,68.45,11,91.77,19.8c5.84,2.23,11.11,4.4,15.72,6.4s8.58,3.94,11.82,5.54c1,.5,2,1,2.84,1.42q-13.47-13.52-27.46-26.53L376.91,1512l-.33.47s-.5-.72-1.41-2.08l-4-3.74c-1.17.7-2.52,1.51-4,2.39-6.06,3.53-14.78,8.45-25.41,13.91-21.28,10.91-50.06,24.06-81.1,32.78s-64.44,13-96.55,5.57-63.19-26.86-90.49-66.11C97.08,1453.5,129.37,1432.3,163.65,1424.6Z"/></clipPath><linearGradient id="linear-gradient-12" x1="632.44" y1="2940.86" x2="1080.88" y2="2940.86" gradientTransform="matrix(1, 0, 0, 1, 0, 0)" xlink:href="#linear-gradient-2"/></defs><rect id="background" class="cls-3" width="3710" height="3710"/><path class="cls-4" d="M3252.57,3067c-65.49,68.95-127.46,113.42-176.42,148.55-575.54,413-1256.55,292.57-1401.28,263.18-213.73-43.41-626.86-127.32-925.54-478.57-451.88-531.4-381.52-1368.62-31-1921.28,64.12-101.09,402.79-662.17,1091.13-752.14,416.58-54.46,902.18,55.37,1253.83,350C3801.44,1295.19,3748.89,2544.52,3252.57,3067Z"/><g class="cls-5"><path class="cls-6" d="M3340,3677.2s-68.91,36.77-241.92-43.2-686.63.77-686.63.77,165.67-500.65-173-908.71c0,0-272.77,510.55-464.46,586.75l-85.86,3.94V2952.52s72.81-449.63,533.39-785.39l143.4-129.25s504.25-101.67,847.15,499.85S3340,3677.2,3340,3677.2Z"/><path class="cls-7" d="M1659.16,2255.48c-4.8-25.28-6.6-84.4,54.38-156.46,81.59-96.42,186.26-47.26,186.26-47.26,58.1,32.53,95.17,111.23,114.77,165.49,7.38,20.43-14.37,39.2-33.54,29l-47.36-25.28c-14.86,43.14-159.67,89.65-159.67,89.65l-.81-.3c-1.4,93.79.87,367.35,67.4,557.62,26.06,74.54,79.06,213-96,450.36l-96.43-3.94S1432.13,2947.53,1659.16,2255.48Z"/><path class="cls-8" d="M2149.33,1699.46l268.53,379.16a63.46,63.46,0,0,1-5.57,80.11c-36.18,38.62-97.19,93-163,105.46a51.17,51.17,0,0,1-52.54-22.13L2054,2022.85S2026.64,1678.5,2149.33,1699.46Z"/><path class="cls-9" d="M1971,1453c-4.47,6-149.74,477-149.74,477L2092,2007.24l204-426S2045.94,1353.17,1971,1453Z"/><path class="cls-10" d="M2188.56,1651.18l-86.16,223.14a51.34,51.34,0,0,1-7.71,13.44c-14.47,18.15-56.53,60.91-103.12,15.15-35.29-34.67-68.55-66.53-100.24-82.46-27.93-14-61.75,1.26-70.65,31.22-13.35,44.91-34.36,122-45.33,195.51a50.72,50.72,0,0,0,39.72,57.16c55.1,11.53,151.27,28.36,235.53,26.38a50.28,50.28,0,0,0,43.73-28.2c31.18-63,109.49-219.48,139-261.16,27.09-38.32,88.27-38.1,119.45-35.16a50.44,50.44,0,0,0,39.37-13.44c24.87-23.34,58.2-70.41,10.74-128.87a51.16,51.16,0,0,1,3.05-68.11c26.26-27.26,48-70.79,6.53-125.46-43.94-57.93-103.35-54.79-143.39-43.29-19.53,5.6-39.45-3-52.28-18.71a25.85,25.85,0,0,0-16.54-9.31c-24.46-3.94-43.27-22.77-44-47.54-1-36.61-16.84-79.17-77.26-99.92-118.06-40.55-195.71,72.39-205.57,158.06s120.65,122.36,198.12,118.82c53.68-2.45,93.28,46.78,112.53,77.24A50.8,50.8,0,0,1,2188.56,1651.18Z"/><path class="cls-11" d="M2199.74,1925.74s23.58-148.54,85.82-154,121.13,47.23,57,129.13C2262.85,2002.7,2199.74,1925.74,2199.74,1925.74Z"/><path class="cls-12" d="M2873.44,2092.94s541.27,345.22,659.77,746S3386.5,3318.61,3134,3354.11l-19-306s176.89,0,64.05-167.29S2763,2602,2763,2602,1994.66,1877.05,2873.44,2092.94Z"/><path class="cls-13" d="M3115,3055c3.1,0,76.2-.54,100.85-46.9,16.82-31.64,6.39-75.8-31-131.26-112.8-167.23-407-276.87-419.44-281.46a7,7,0,0,0-4.82,13.09c3,1.11,302.44,112.69,412.71,276.17,34.28,50.83,44.47,90.16,30.29,116.89-20.69,39-87.89,39.53-88.57,39.53a7,7,0,0,0,0,13.94Z"/><path class="cls-14" d="M3134,3354.11s79.07-130.69-25.07-286.85L2409.9,3183s-334.61-56.62-350.61-55.47c-12.61.91-150.77,84.55-208.88,120-12.41,7.58-8.05,26.59,6.43,28,7.35.72,17.53,5.3,27.37.33,51.15-25.83,17.85,6.29,17.85,6.29h0a27.1,27.1,0,0,0,34.91,24,73.41,73.41,0,0,0,32.17-20.35c19.73-21,63.34-34.62,89.23-41.19a46,46,0,0,1,35.9,5.73c45.78,29,186.12,105.37,324.42,55Z"/><path class="cls-15" d="M491.9,3364.49c-1.27-12.85.45-26.15,4.69-36.24s10.55-15.95,17.21-15.95H2770.07c8.76,0,16.91,8.77,21.63,23.28s5.35,32.74,1.68,48.37l-24.45,104c-5.6,23.82-17.73,39.07-31.08,39.07H529.28c-12.41,0-23.09-17.31-25.45-41.27Z"/></g><g id="plant"><path class="cls-2" d="M163.65,1424.6c34.31-7.73,70.46-1.81,102.42,9.74s59.89,28.83,79.45,43.17c5.9,4.32,11.05,8.36,15.38,11.92l1.08-1.17c-1.38-2.55-2.8-5.26-4.27-8.16-10.26-20.22-22-48.84-28.21-81s-6.71-67.73,4.36-99.92,33.44-60.71,71.69-77.91c28.32,30.93,39.9,62.66,41.86,94s-5.56,62.52-16.23,91.25-24.28,54.89-35.25,74.26c-5.49,9.67-10.33,17.58-13.76,23.08l-.07.11,86.73,80.46c2.42,2.25,4.8,4.55,7.2,6.82-.23-1.37-.78-4.78-1.4-9.86-.84-6.75-1.74-16.38-2.1-28-.74-23.24.88-54.56,9.55-85.81s24.36-62.24,50-83.67,60.92-33.15,107.34-25.58c15.77,44.3,13.85,79.14,1.92,107.65s-33.89,50.86-58.25,69-50.91,32.16-71.59,41.92c-10.34,4.86-19.18,8.62-25.42,11.17-5.06,2.05-8.4,3.27-9.51,3.67a999.45,999.45,0,0,1,119.83,136.34c.24-42.8,10.2-250,181.5-237.11,63.74,164.25-143.38,233.48-176.9,243.5a1012.57,1012.57,0,0,1,95,162.24c-.31-3.6-.63-7.84-.89-12.71-.24-5.37-.41-11.47-.43-18.18,0-26.76,2.9-63.19,13.84-100.31s29.86-74.68,59.25-102.13,68.7-44.63,118.3-40.79c12.52,48.13,7.31,87.44-7.69,121s-39.71,61.62-66.44,85.6-55.12,43.8-77.09,58.08c-5.48,3.57-10.57,6.76-15.13,9.54s-8.48,5.2-11.78,7.14c-2.79,1.63-5,2.92-6.79,3.89a1003,1003,0,0,1,77,257.49l45.33,288.85h200L938.13,3311.9H679.8l-77.55-857.65H814l-9.8-62.48c-1.53.09-3.33.2-5.44.3-3.36.17-7.4.33-12,.46s-9.84.39-15.43.49c-22.51.46-51.62.77-80.12-2.15-28.72-2.87-56.68-9.2-80.74-25.13s-44.57-42.12-60.24-86.42c31.15-35.22,68.45-46.88,103.44-43.21s67.32,22.66,91.66,46c24.48,23.54,41.09,51.29,50.8,72.68q1.93,4.29,3.55,8.19l-28.33-180.55c-1.84.58-4.54,1.42-8,2.42-6.87,2-16.73,4.67-28.6,7.48-23.78,5.59-55.46,11.75-88.35,13.35s-67.12-1.37-97.77-15.32-58-39.18-78.11-83c31.8-36.3,69-50.56,105.45-50.87s72.12,13.42,102,31.93,54.32,42,70.77,60.6c8.25,9.32,14.58,17.44,18.85,23.27,1,1.37,1.89,2.6,2.67,3.69l-1.43-9.13a987.06,987.06,0,0,0-30-131.51c-1.5-.08-3.22-.18-5.21-.31l-12.4-.93c-4.83-.27-10.21-.62-16-1.08l-38.91-2.85c-14-1.21-28.74-2.32-43.22-4.37a305,305,0,0,1-42.95-8.17c-6.88-2.09-13.79-4.08-20.37-7-3.31-1.4-6.64-2.75-9.87-4.4s-6.41-3.49-9.6-5.27c-25.35-15-48-39.67-69.76-82.26,28.86-38.16,68.79-52.25,107.24-49.15a112.77,112.77,0,0,1,14.32,1.94c4.72.93,9.46,1.94,14.08,3.32a162.77,162.77,0,0,1,26.85,10.65c17.31,8.43,32.79,20.16,46.24,32.63a228.21,228.21,0,0,1,32.31,38.8,1004.57,1004.57,0,0,0-86.13-169.38c-1.53.89-3.44,2.06-5.64,3.44a239,239,0,0,0-23,16.85c-9,7.34-18.91,16.23-30.75,25.75A431.1,431.1,0,0,1,526,1861.93c-28.93,17.92-61.29,32.49-95.94,35.73s-71.85-5-111.62-33.12c10.8-47.48,37.09-78.49,69.7-96.94s71.36-24.42,107.49-23.27a324.38,324.38,0,0,1,51.61,6c16.38,3,32.11,7.23,44.79,12.26a134.6,134.6,0,0,1,26,13.4,995,995,0,0,0-122.67-152.57c-1.36,1.36-3.49,3.46-6.35,6.19-2.59,2.47-5.76,5.41-9.43,8.73s-7.82,7.12-12.4,11.09c-18.36,16-43.15,36.23-70.76,53.33s-58.23,31.12-91.22,34.25-68.86-4.78-108.84-31.78c8.31-47.54,33.47-79.06,65.39-97.77s70.43-24.46,106-22.73,68.45,11,91.77,19.8c5.84,2.23,11.11,4.4,15.72,6.4s8.58,3.94,11.82,5.54c1,.5,2,1,2.84,1.42q-13.47-13.52-27.46-26.53L376.91,1512l-.33.47s-.5-.72-1.41-2.08l-4-3.74c-1.17.7-2.52,1.51-4,2.39-6.06,3.53-14.78,8.45-25.41,13.91-21.28,10.91-50.06,24.06-81.1,32.78s-64.44,13-96.55,5.57-63.19-26.86-90.49-66.11C97.08,1453.5,129.37,1432.3,163.65,1424.6Z"/><g class="cls-16"><path class="cls-17" d="M657.42,3172.22c26.49-46.07,65.09-85.59,83-135.63,20.24-56.55,11.49-119.23,23-178.18a263.43,263.43,0,0,1,70.06-133.1c26-26.5,58-47.93,77.3-79.67,13.28-21.88,19.58-47.24,30.84-70.22,26.09-53.23,80.36-91.62,139.25-98.5q-19.07,415.38-58.16,829.51c-2.82,29.89-7.34,63-30.4,82.21-24.42,20.37-60.07,17.36-91.57,13Q817.19,3390,734,3375.83C629.6,3358.07,608.76,3256.84,657.42,3172.22Z"/></g><path class="cls-2" d="M970.11,1977.39c-3,3.47-6.25,6.7-9.45,10-6.32,6.64-13.3,12.58-20.19,18.59a478.2,478.2,0,0,1-44.19,32.5c-30.15,20.05-61,37.71-84.54,51.26-5.84,3.4-11.28,6.46-16.16,9.14s-9,5.13-12.44,7.07c-7,3.87-11.11,6-11.11,6s-.32-4.51-.41-12.59c0-4,0-9,.16-14.72s.76-12.1,1.47-19.22,1.87-14.76,3.29-23,3.41-16.87,5.8-25.9a308.26,308.26,0,0,1,21.2-56.43c9.67-18.91,21.5-38,36.3-54.73a224.52,224.52,0,0,1,23.79-23.69c4.26-3.65,8.77-7,13.29-10.27a150.8,150.8,0,0,1,14.06-9.12c38.55-22.54,85.3-30.14,132.54-11.28-5.4,50.54-21.68,86.73-44.56,115.83C976,1970.32,973.16,1974,970.11,1977.39Z"/><path class="cls-2" d="M875.71,2139.63c30.11-19.79,69.45-26.47,113.09-8.53,5,46.88-1.57,79.28-15.72,104.4-1.82,3.08-3.63,6.18-5.62,9.11s-4.13,5.72-6.31,8.48a155.69,155.69,0,0,1-14.22,15.51A252.35,252.35,0,0,1,913.37,2295c-23.68,16-49.35,29.84-69.28,40.55-5,2.68-9.58,5.1-13.75,7.23s-7.68,4.06-10.7,5.59c-6,3.07-9.62,4.73-9.62,4.73s-1-3.73-2.37-10.44c-.67-3.36-1.44-7.48-2.16-12.25s-1.23-10.11-1.71-16.08c-1.83-23.69-.41-56.56,10.46-89.53C825.08,2192.08,845.41,2159.37,875.71,2139.63Z"/></g><g id="clock"><circle class="cls-18" cx="2892.7" cy="755.24" r="619.44" transform="translate(313.22 2266.65) rotate(-45)"/><circle class="cls-3" cx="2892.7" cy="755.24" r="559.27"/><rect class="cls-18" x="2878.32" y="238.31" width="28.76" height="95.5"/><rect class="cls-18" x="2878.32" y="1176.67" width="28.76" height="95.5"/><rect class="cls-18" x="3347.5" y="707.49" width="28.76" height="95.5" transform="translate(4117.11 -2606.64) rotate(90)"/><rect class="cls-18" x="2409.14" y="707.49" width="28.76" height="95.5" transform="translate(3178.76 -1668.28) rotate(90)"/><path class="cls-18" d="M3129.18,755.24l-207.85-16.85-9.44,5.55a22.45,22.45,0,0,0-7.9-7.89l15.67-26.62-27-332.58-27,332.58,15.66,26.62a22.27,22.27,0,1,0,30.49,30.48l9.44,5.56Z"/></g></svg>