<svg id="Illustration" xmlns="http://www.w3.org/2000/svg" xmlns:xlink="http://www.w3.org/1999/xlink" viewBox="0 0 3330.02 3606.54"><defs><style>.cls-1{fill:url(#linear-gradient);}.cls-2{fill:#bdd0fb;}.cls-3{fill:#91b3fa;}.cls-24,.cls-4{fill:#fff;}.cls-4{opacity:0.47;}.cls-5{fill:url(#linear-gradient-2);}.cls-6{fill:url(#linear-gradient-3);}.cls-7{fill:url(#linear-gradient-4);}.cls-8{fill:url(#linear-gradient-5);}.cls-9{fill:url(#New_Gradient_Swatch_1);}.cls-10{fill:url(#linear-gradient-6);}.cls-11{fill:url(#linear-gradient-7);}.cls-12{fill:url(#New_Gradient_Swatch_1-2);}.cls-13{fill:url(#linear-gradient-8);}.cls-14{fill:url(#linear-gradient-9);}.cls-15{fill:url(#linear-gradient-10);}.cls-16{fill:url(#linear-gradient-11);}.cls-17{fill:url(#linear-gradient-12);}.cls-18{fill:url(#linear-gradient-13);}.cls-19{fill:url(#linear-gradient-14);}.cls-20{fill:url(#linear-gradient-15);}.cls-21{fill:url(#linear-gradient-16);}.cls-22{fill:url(#linear-gradient-17);}.cls-23{fill:url(#linear-gradient-18);}.cls-25{fill:url(#linear-gradient-19);}.cls-26{fill:url(#linear-gradient-20);}.cls-27{fill:url(#linear-gradient-21);}</style><linearGradient id="linear-gradient" x1="3673.48" y1="4186.2" x2="1087.54" y2="974.62" gradientUnits="userSpaceOnUse"><stop offset="0" stop-color="#dae3fe"/><stop offset="1" stop-color="#e9effd"/></linearGradient><linearGradient id="linear-gradient-2" x1="6506.37" y1="-2410.45" x2="-166.8" y2="3277.5" gradientUnits="userSpaceOnUse"><stop offset="0" stop-color="#4d90fc"/><stop offset="1" stop-color="#1e3791"/></linearGradient><linearGradient id="linear-gradient-3" x1="7479.66" y1="-1268.57" x2="806.49" y2="4419.39" xlink:href="#linear-gradient-2"/><linearGradient id="linear-gradient-4" x1="276.68" y1="3003.8" x2="6069.72" y2="-3130.78" gradientUnits="userSpaceOnUse"><stop offset="0" stop-color="#3b86ff"/><stop offset="1" stop-color="#79a1e2"/></linearGradient><linearGradient id="linear-gradient-5" x1="1080.52" y1="3944.25" x2="6873.58" y2="-2190.35" xlink:href="#linear-gradient-4"/><linearGradient id="New_Gradient_Swatch_1" x1="7360.52" y1="3410.53" x2="6487.13" y2="4360.54" gradientTransform="translate(-6266.74 -63.47) rotate(0.54)" gradientUnits="userSpaceOnUse"><stop offset="0" stop-color="#2b3582"/><stop offset="1" stop-color="#150e42"/></linearGradient><linearGradient id="linear-gradient-6" x1="7077.03" y1="3481.08" x2="7154.61" y2="3481.08" gradientTransform="translate(-6266.74 -63.47) rotate(0.54)" gradientUnits="userSpaceOnUse"><stop offset="0" stop-color="#f9b776"/><stop offset="1" stop-color="#f47960"/></linearGradient><linearGradient id="linear-gradient-7" x1="4333.76" y1="3899.55" x2="5856.5" y2="2579.84" gradientTransform="matrix(-1, 0, 0, 1, 6276.87, 0)" xlink:href="#New_Gradient_Swatch_1"/><linearGradient id="New_Gradient_Swatch_1-2" x1="7164.59" y1="3230.37" x2="6291.16" y2="4180.42" xlink:href="#New_Gradient_Swatch_1"/><linearGradient id="linear-gradient-8" x1="6797.43" y1="3477.09" x2="6864.41" y2="3477.09" xlink:href="#linear-gradient-6"/><linearGradient id="linear-gradient-9" x1="4382.89" y1="3956.24" x2="5905.63" y2="2636.53" gradientTransform="matrix(-1, 0, 0, 1, 6276.87, 0)" xlink:href="#New_Gradient_Swatch_1"/><linearGradient id="linear-gradient-10" x1="5581.29" y1="1519.13" x2="5122.04" y2="3287.24" gradientTransform="matrix(-1, 0, 0, 1, 6276.87, 0)" gradientUnits="userSpaceOnUse"><stop offset="0" stop-color="#4f52ff"/><stop offset="1" stop-color="#4042e2"/></linearGradient><linearGradient id="linear-gradient-11" x1="7396.36" y1="1457.07" x2="7792.73" y2="1457.07" xlink:href="#linear-gradient-6"/><linearGradient id="linear-gradient-12" x1="2742.3" y1="1389.71" x2="3008.26" y2="1994.83" gradientTransform="matrix(-1, -0.01, -0.01, 1, 4179.99, 36.7)" xlink:href="#linear-gradient-6"/><linearGradient id="linear-gradient-13" x1="7790.83" y1="1189.11" x2="7901.81" y2="1018.48" xlink:href="#linear-gradient-6"/><linearGradient id="linear-gradient-14" x1="5936.87" y1="1611.49" x2="5477.62" y2="3379.6" xlink:href="#linear-gradient-10"/><linearGradient id="linear-gradient-15" x1="6529.04" y1="2018.45" x2="7030.63" y2="2018.45" xlink:href="#linear-gradient-6"/><linearGradient id="linear-gradient-16" x1="6914.21" y1="1482.24" x2="7112.52" y2="1482.24" xlink:href="#linear-gradient-6"/><linearGradient id="linear-gradient-17" x1="6877.66" y1="1698.3" x2="7154.43" y2="2851.53" gradientTransform="translate(-5998.45)" xlink:href="#New_Gradient_Swatch_1"/><linearGradient id="linear-gradient-18" x1="6688.01" y1="2003.39" x2="6844.82" y2="2003.39" gradientTransform="translate(-5998.45)" xlink:href="#linear-gradient-6"/><linearGradient id="linear-gradient-19" x1="382.43" y1="268.97" x2="124.23" y2="610.55" gradientTransform="translate(314.08 1318.79) rotate(-46.73)" xlink:href="#linear-gradient-6"/><linearGradient id="linear-gradient-20" x1="191.28" y1="351.47" x2="492.66" y2="351.47" gradientTransform="translate(314.08 1318.79) rotate(-46.73)" xlink:href="#New_Gradient_Swatch_1"/><linearGradient id="linear-gradient-21" x1="7.88" y1="543.28" x2="214.96" y2="330.82" gradientTransform="translate(314.08 1318.79) rotate(-46.73)" xlink:href="#linear-gradient-6"/></defs><path class="cls-1" d="M2962.07,2919.67c-59.4,62.53-115.6,102.85-160,134.72-522,374.51-1139.58,265.34-1270.84,238.68-193.83-39.37-568.5-115.47-839.38-434-409.82-481.94-346-1241.22-28.12-1742.43,58.14-91.68,365.29-600.53,989.55-682.14,377.81-49.38,818.2,50.22,1137.12,317.42C3459.85,1312.76,3412.19,2445.8,2962.07,2919.67Z" transform="translate(-243.9 -48.96)"/><path class="cls-2" d="M2613.06,3086.28a20.79,20.79,0,0,1-13.92-8.21c-48.83-65.81-403.91-580.84,68.66-1051.63,448.61-446.91,652-538.68,679-801.26,3.15-30.67,44.61-38,58.25-10.38C3507,1421.4,3665.81,1903.51,3140.24,2220,2560.47,2569,2608,2951.65,2636,3060.39a20.82,20.82,0,0,1-23,25.89Z" transform="translate(-243.9 -48.96)"/><path class="cls-3" d="M2685,3096.07a30,30,0,0,1-25.68-25.13c-13.84-89.56-47.83-424.22,198.72-513,271.41-97.7,490.53,155.08,690-42.77,10.49-10.41,28.15-1.34,25.64,13.23-17.77,103.35-96.85,342.73-448.75,390.89-376.65,51.56-419,94.77-411.43,148.37,2.34,16.52-12,30.62-28.54,28.37Z" transform="translate(-243.9 -48.96)"/><path class="cls-4" d="M3333.69,1492.9a386.28,386.28,0,0,1-18,55.9,567.12,567.12,0,0,1-24.43,53.1c-17.82,34.7-39.2,67.53-62.61,98.81-47.14,62.4-104.17,117.21-167,163.69-31.36,23.11-64.87,44.35-98,63.53a892.06,892.06,0,0,0-93,62.32c-59.51,45.33-113.46,97.94-161.1,155.61-94.92,115.45-162.28,254.76-184.46,403.1-11.31,74-11.45,149.75-1.26,224.37s31.37,147.86,59.45,218.4a7.34,7.34,0,0,1-13.45,5.88c-32.84-69.71-57.37-143.81-70.95-220.33a764.57,764.57,0,0,1-6.61-232.85c9.44-77.61,31.33-153.64,62.86-225.21s73.4-138.48,122.2-199.49,105.38-115.75,167.26-163.51a933.73,933.73,0,0,1,97.26-65.66c33.13-19,64.58-38.32,95-60.31,60.8-43.42,117-93.56,165.32-150.77a789.2,789.2,0,0,0,66.87-90.35c19.84-31.7,38.39-65.15,51.74-99.74l.17-.45a6.71,6.71,0,0,1,12.78,4Z" transform="translate(-243.9 -48.96)"/><path class="cls-4" d="M2669.32,3035.33c1.16-3.24.8-6.26.69-9.35l-.29-9.23-.21-18.46q0-18.43.82-36.88c1.1-24.57,3.19-49.11,6.48-73.53,6.7-48.76,17.75-97.38,37.43-143.18,19.47-45.47,48.94-88.94,91.72-117.33a202.19,202.19,0,0,1,70.27-28.91c24.89-5.24,50.47-6,75.49-3.83,98,11.37,194.15,30.17,290.5,45.44,48,7.15,96.67,13.54,143.79,7.1a214.22,214.22,0,0,0,34.45-7.87,182,182,0,0,0,32.17-14.37c20.49-11.7,38.51-27.7,54.61-45.45l.05-.05a6,6,0,0,1,8.94,7.93c-16.32,18.79-35,36.15-56.75,49.23a195.1,195.1,0,0,1-34.39,16.25,229.43,229.43,0,0,1-36.82,9.26c-50.19,7.35-99.94,1.1-148.48-5.56-48.69-6.93-96.76-15.95-145-23.76s-96.75-15.39-144.64-21c-23.64-2.29-47.55-1.73-70.6,2.92a186,186,0,0,0-64.9,26c-39.81,25.35-68.69,65.69-88.31,109.35-19.84,43.88-31.63,91.4-39.1,139.33-3.69,24-6.2,48.23-7.73,72.52q-1.12,18.21-1.48,36.48l-.13,18.24.12,9.12c.08,3-.06,6.11,1.43,9a5.55,5.55,0,1,1-10.16.71Z" transform="translate(-243.9 -48.96)"/><path class="cls-5" d="M2101,90.15c-164.56-1.29-330.55,24.8-477.41,85.74-341.87,141.84-632,517.16-518.46,900.53,36.89,124.54,17.51,261.93,141.58,316.06,67.12,29.28,249.93,46.71,319.43,23.63,184.74-61.33,306.17-229.2,205.7-415.36-32.18-59.61-73.82-114.07-101.61-175.85s-40.44-135.12-12.12-196.66c55.61-120.8,240.32-159.2,360.1-155.58,141.39,4.28,269.49,74.21,345.57,194.17,94.83,149.51,118.85,331.36,105,504.91-14.85,185.7-93.15,327.51-210.49,470-101,122.65-212.28,240.38-279.43,384.39-61.64,132.22-81.79,278.71-84.57,423.36-.54,28-140,292.23-139.36,372.94.08,11.41,158.12,49.18,169.53,49.31l290.07,3.24a23.13,23.13,0,0,0,23.42-22.81c4.41-392.69,125.2-767.07,431-1030.81,111.26-96,231.08-174.11,317.59-295.23,123.3-172.64,184.13-342.54,166.58-555.61-16-194.59-80.11-389.29-206.95-540.28C2809.72,267.94,2610.18,166.6,2402.8,122.87A1531,1531,0,0,0,2101,90.15Z" transform="translate(-243.9 -48.96)"/><path class="cls-6" d="M2404.42,3315.16c0,180.58-100.09,340.34-280.67,340.34-39,0-171.68.36-206.36-12.17-125.89-45.48-126.34-142.19-126.34-283.76,0-180.57,61-358.17,241.55-358.17S2404.42,3134.59,2404.42,3315.16Z" transform="translate(-243.9 -48.96)"/><path class="cls-7" d="M1944.59,49C1780,47.71,1614,73.8,1467.17,134.74c-341.86,141.84-632,517.17-518.45,900.53,36.88,124.54,122.16,281.31,246.23,335.43,67.12,29.28,145.27,27.34,214.78,4.26,184.73-61.33,306.16-229.2,205.69-415.36-32.17-59.61-73.82-114.07-101.6-175.85s-40.45-135.12-12.12-196.66c55.6-120.8,240.31-159.2,360.1-155.57,141.38,4.27,269.49,74.2,345.57,194.16,94.82,149.51,118.84,331.36,105,504.91-14.85,185.7-93.15,327.51-210.49,470-101,122.65-212.28,240.38-279.43,384.39-61.64,132.22-81.78,278.71-84.57,423.36-.54,28,8.9,320.79,9.5,401.51a20.89,20.89,0,0,0,20.67,20.74l290.08,3.24A23.12,23.12,0,0,0,2081.5,2811c4.42-392.69,125.2-767.07,431-1030.81,111.26-96,231.07-174.11,317.58-295.23,123.31-172.64,184.14-342.54,166.58-555.61-16-194.59-80.11-389.29-207-540.27-136.33-162.28-335.87-263.62-543.25-307.35A1530.26,1530.26,0,0,0,1944.59,49Z" transform="translate(-243.9 -48.96)"/><circle class="cls-8" cx="1717.74" cy="3269.46" r="326.96"/><path class="cls-9" d="M784.63,3485.11s-9.53,51.13-14.45,101.77A34.92,34.92,0,0,0,803.23,3625c67.47,3.46,211.82,10.3,263.65,8.48a11.36,11.36,0,0,0,10.15-15.47,25.47,25.47,0,0,0-12.88-13.83L826.68,3492.33Z" transform="translate(-243.9 -48.96)"/><path class="cls-10" d="M777.51,3455l6.68,61.32s41.6,19.84,70.34-1.78l-16.65-68.43Z" transform="translate(-243.9 -48.96)"/><path class="cls-11" d="M794,2303.46c-3.29,16-24.46,798.05,55.81,1149.39a11.9,11.9,0,0,1-7.11,13.77c-12.88,5.12-38.09,12.46-68.23,13.19a20.51,20.51,0,0,1-20.19-14.9c-23.12-81.56-133.76-490.14-145-879.54-12.54-435.12.14-14.81.14-14.81l12.36-268.77Z" transform="translate(-243.9 -48.96)"/><path class="cls-12" d="M510,3509.21s-14.64,25.72-29.24,94.28a21.31,21.31,0,0,0,18.51,25.69c22.27,2.41,56.56,5.55,84.05,5.63a21.24,21.24,0,0,0,21.25-23.5c-2.8-25.1-11.89-66.33-40.89-98.68Z" transform="translate(-243.9 -48.96)"/><path class="cls-13" d="M498.11,3430.31l16.1,92.79s16.67,12.65,50,3.91L557,3427.27Z" transform="translate(-243.9 -48.96)"/><path class="cls-14" d="M462.78,2324.31c-72.32,412.05,5.11,1020.17,32,1139.31a18.56,18.56,0,0,0,14.83,14.22c12.51,2.19,33.12,4.08,53.51-1.63a17,17,0,0,0,12.36-15.53c4.68-96.06,3.54-686.1,69.48-918.65a52.92,52.92,0,0,1,20.71-29l124.51-86.74,10.84-142Z" transform="translate(-243.9 -48.96)"/><path class="cls-15" d="M906,1546.47c-204.9-5.34-431.57,49.7-431.57,49.7-64.49,355.85-18,767.46-18,767.46,158.25,43.12,337.86-22.21,337.86-22.21,27.8-148.74,154.83-566.85,154.83-566.85,100.25-11.47,183-39.57,251.3-77.12-51.24-60.55-74.94-137.21-85.11-182.49C1042.62,1536.79,969.19,1548.12,906,1546.47Z" transform="translate(-243.9 -48.96)"/><path class="cls-16" d="M1514.21,1250.39c-19.9-24.51-45.49-13.25-45.49-13.25C1437.35,1364.24,1278.23,1466,1115.3,1515c10.17,45.28,33.87,121.94,85.11,182.49C1471.47,1548.43,1514.21,1250.39,1514.21,1250.39Z" transform="translate(-243.9 -48.96)"/><path class="cls-17" d="M1509.26,1256.53c2,6.71-22.44,16.68-36.55-10.85-.37-13.13-7.82-69.44.13-80.06,42.32-56.55,124-127.18,124-127.18,13.56,13.64,2.16,26.8,2.16,26.8l-39.69,40.56c8.08,14.93,18,27.56,22.51,45.57a55.06,55.06,0,0,1-5.87,40.47c-7,12.36-16.58,28.42-25.6,41C1533.27,1256.58,1509.26,1256.53,1509.26,1256.53Z" transform="translate(-243.9 -48.96)"/><path class="cls-18" d="M1541.87,1132.19l-36.1,30-11.53,30.11,31.59,35.72s11.3-59.86,19.4-72.76S1549.26,1136.06,1541.87,1132.19Z" transform="translate(-243.9 -48.96)"/><path class="cls-19" d="M551.13,1795.36l-76.71-199.19S281.76,1724.4,248.7,1889c36.15,3,101.87,13,166,46.19C429.58,1857.47,551.13,1795.36,551.13,1795.36Z" transform="translate(-243.9 -48.96)"/><path class="cls-20" d="M716.63,1983.68s-216.08,119.4-287.6,15c-14.85-21.68-18.25-43.12-14.34-63.48-64.12-33.15-129.84-43.18-166-46.19-10,49.62-5.45,102.54,23.25,156.26,124.81,233.57,472.62-8.33,472.62-8.33Z" transform="translate(-243.9 -48.96)"/><path class="cls-21" d="M700,1378.12l-67,188a6.79,6.79,0,0,0,3,8.21c17.68,10,81.45,39,159.09-9.18a32,32,0,0,0,14.95-22.71l22.67-163Z" transform="translate(-243.9 -48.96)"/><path class="cls-22" d="M672.47,2172.39l117.71-411a12,12,0,0,1,10.13-8.64c21.33-2.48,83.13-9.47,154.47-15.5,86-7.27,185.75-13.16,245.39-8.15a12,12,0,0,1,9.83,17.3c-33.91,68.62-173.42,347.72-243.28,439.15a12.07,12.07,0,0,1-9.7,4.77l-273.1-2.54A12,12,0,0,1,672.47,2172.39Z" transform="translate(-243.9 -48.96)"/><path class="cls-23" d="M700.91,2073.08s-16.4-67.42-9.78-91.34,19.43-54.68,62.14-47.84,93.1,24.82,93.1,24.82-2.55,31.16-35,21.11l20.13,15.58s-2.88,24.94-30.3,11.62l18.73,20.65S808.14,2048.17,788,2035,758.12,2081.2,700.91,2073.08Z" transform="translate(-243.9 -48.96)"/><path class="cls-24" d="M946.94,1859.9a34.55,34.55,0,1,0,34.55-34.55A34.55,34.55,0,0,0,946.94,1859.9Z" transform="translate(-243.9 -48.96)"/><path class="cls-24" d="M803.49,1882.68l24-81.3a27.89,27.89,0,0,1,20.94-19.56c75.12-15.67,280.7-19,282.77-19l-.13-9.18c-8.48.13-208.54,3.37-284.51,19.22a37,37,0,0,0-27.88,26l-24,81.3Z" transform="translate(-243.9 -48.96)"/><path class="cls-25" d="M804.78,1186.67c2.33,2.34,98.65,203,98.65,203l-109.17,55.91-117.92-175.8S765.64,1147.59,804.78,1186.67Z" transform="translate(-243.9 -48.96)"/><path class="cls-26" d="M724.64,1274.65a19.48,19.48,0,0,0,1.31,16.22l54.45,96.29a18.14,18.14,0,0,0,3,3.95c6.48,6.4,28.66,25,45.8-.33,14.62-21.61,28.33-41.25,43-49.34,8.58-4.73,19.13-1,23.49,8.2,9,18.86,26.35,57.31,37.26,93.77,2.74,9.14-1.71,18.95-10.08,22.55-22.11,9.5-65.8,26.69-104.57,32.36a17,17,0,0,1-16.46-7.42c-16.68-24.24-63.69-92-79.74-109-14.91-15.75-42.42-9.81-54.81-6a16.65,16.65,0,0,1-13.91-1.94c-12.58-8-34.53-28-14.45-61.93a19.18,19.18,0,0,0-5.39-25.12c-14-9.8-29.28-28.19-14.76-58,14.69-30.16,40.94-32.87,58.81-30.55a17.92,17.92,0,0,0,19-11.19,11.67,11.67,0,0,1,9-7.51,17.88,17.88,0,0,0,13.68-21.06c-3.15-17.06-.78-39.23,24.9-54.21,47.11-27.47,88.37,17.29,98.86,55.09s-42.18,64.49-75.3,69C743.35,1231.75,730,1259.92,724.64,1274.65Z" transform="translate(-243.9 -48.96)"/><path class="cls-27" d="M742.55,1417.31s-20.94-65-47.75-62.62-47.91,30.72-14.69,62.57C721.44,1456.88,742.55,1417.31,742.55,1417.31Z" transform="translate(-243.9 -48.96)"/></svg>