<svg xmlns="http://www.w3.org/2000/svg" xmlns:xlink="http://www.w3.org/1999/xlink" viewBox="0 0 3618.49 3540.81"><defs><style>.cls-1{fill:none;}.cls-2{fill:url(#linear-gradient);}.cls-3{fill:#f0bab8;}.cls-4{isolation:isolate;}.cls-5{fill:#f4f7fa;}.cls-6{fill:#bdd0fb;}.cls-13,.cls-17,.cls-7{fill:#fff;}.cls-19,.cls-7{opacity:0.5;}.cls-8{fill:#91b3fa;}.cls-9{fill:#34475c;}.cls-10{fill:url(#linear-gradient-2);}.cls-11{fill:url(#linear-gradient-3);}.cls-12{fill:#d8dee8;}.cls-14{fill:url(#linear-gradient-4);}.cls-15{opacity:0.3;mix-blend-mode:multiply;fill:url(#linear-gradient-5);}.cls-16{fill:url(#linear-gradient-6);}.cls-17{opacity:0.74;}.cls-17,.cls-19{mix-blend-mode:soft-light;}.cls-18{fill:url(#linear-gradient-7);}.cls-20{fill:url(#New_Gradient_Swatch_1);}.cls-21{fill:url(#New_Gradient_Swatch_1-2);}.cls-22{fill:url(#New_Gradient_Swatch_1-3);}.cls-23{opacity:0.75;}.cls-24{fill:url(#linear-gradient-8);}.cls-25{clip-path:url(#clip-path);}.cls-26{fill:#1b2530;}.cls-27{clip-path:url(#clip-path-2);}.cls-28{fill:#121519;}.cls-29{clip-path:url(#clip-path-3);}.cls-30{fill:#14161b;}.cls-31{fill:#14171c;}.cls-32{fill:#15181d;}.cls-33{fill:#16191e;}.cls-34{fill:#13161a;}.cls-35{fill:#21252d;}.cls-36{fill:#1a242e;}.cls-37{clip-path:url(#clip-path-4);}.cls-38{fill:#1d2834;}.cls-39{fill:#1e2935;}.cls-40{fill:#1f2b37;}.cls-41{fill:#202c39;}.cls-42{fill:#1c2632;}.cls-43{fill:#314256;}.cls-44{fill:#190066;}.cls-45{fill:#232830;}.cls-46{fill:#eaaca9;}.cls-47{clip-path:url(#clip-path-5);}.cls-48{fill:url(#linear-gradient-10);}.cls-49{fill:url(#linear-gradient-11);}.cls-50{clip-path:url(#clip-path-6);}.cls-51{fill:#eaeaea;}.cls-52{fill:#c7d6e9;}</style><linearGradient id="linear-gradient" x1="2632.88" y1="2641.92" x2="3419.72" y2="2641.92" gradientUnits="userSpaceOnUse"><stop offset="0" stop-color="#4f52ff"/><stop offset="1" stop-color="#4042e2"/></linearGradient><linearGradient id="linear-gradient-2" x1="1218.03" y1="2330.76" x2="957.06" y2="2440.37" xlink:href="#linear-gradient"/><linearGradient id="linear-gradient-3" x1="114.32" y1="2393.94" x2="2492.53" y2="2393.94" xlink:href="#linear-gradient"/><linearGradient id="linear-gradient-4" x1="114.32" y1="3338.58" x2="3697" y2="3338.58" xlink:href="#linear-gradient"/><linearGradient id="linear-gradient-5" x1="387.15" y1="3240.05" x2="3012.15" y2="3240.05" gradientUnits="userSpaceOnUse"><stop offset="0" stop-color="#40447e"/><stop offset="1" stop-color="#3c3b6b"/></linearGradient><linearGradient id="linear-gradient-6" x1="1527.7" y1="1394.73" x2="117.1" y2="4215.91" gradientTransform="matrix(1.42, -0.03, 0.02, 1.06, -209.66, -166.08)" xlink:href="#linear-gradient"/><linearGradient id="linear-gradient-7" x1="917.61" y1="1306.62" x2="1162.71" y2="2287.01" gradientTransform="matrix(1.42, -0.03, 0.02, 1.06, -209.66, -166.08)" xlink:href="#linear-gradient"/><linearGradient id="New_Gradient_Swatch_1" x1="1052.88" y1="1406.94" x2="540.8" y2="2280.93" gradientTransform="matrix(1.42, -0.03, 0.02, 1.06, -209.66, -166.08)" gradientUnits="userSpaceOnUse"><stop offset="0" stop-color="#2b3582"/><stop offset="1" stop-color="#150e42"/></linearGradient><linearGradient id="New_Gradient_Swatch_1-2" x1="1047.45" y1="1649.48" x2="535.38" y2="2523.47" xlink:href="#New_Gradient_Swatch_1"/><linearGradient id="New_Gradient_Swatch_1-3" x1="1052.88" y1="1886.84" x2="540.8" y2="2760.83" xlink:href="#New_Gradient_Swatch_1"/><linearGradient id="linear-gradient-8" x1="1354.91" y1="1949.31" x2="1068.3" y2="2522.53" gradientTransform="matrix(1.04, -0.03, 0.03, 0.95, -120.18, 142.29)" xlink:href="#New_Gradient_Swatch_1"/><clipPath id="clip-path" transform="translate(-78.51 -68.9)"><path class="cls-1" d="M3469,2684.49l-5.66,33.78a33.15,33.15,0,0,0,.44-5.55l5.66-33.78A31.1,31.1,0,0,1,3469,2684.49Z"/></clipPath><clipPath id="clip-path-2" transform="translate(-78.51 -68.9)"><path class="cls-1" d="M2858.11,2662.8l5.67-33.77a32,32,0,0,0-.44,5.55l-5.67,33.77A33.15,33.15,0,0,1,2858.11,2662.8Z"/></clipPath><clipPath id="clip-path-3" transform="translate(-78.51 -68.9)"><path class="cls-1" d="M3469,2684.49l-5.66,33.78c-8.54,50.89-140.26,82.12-301.84,70.3-167.38-12.25-303.42-66.07-303.86-120.22l5.67-33.77c.44,54.14,136.48,108,303.86,120.21C3328.78,2766.62,3460.49,2735.38,3469,2684.49Z"/></clipPath><clipPath id="clip-path-4" transform="translate(-78.51 -68.9)"><path class="cls-1" d="M3473.33,3219.09l-5.67,33.78c-8.54,50.89-140.25,82.12-301.84,70.3C2998.45,3310.92,2862.41,3257.1,2862,3203l5.67-33.77c.43,54.14,136.48,108,303.85,120.21C3333.08,3301.22,3464.79,3270,3473.33,3219.09Z"/></clipPath><clipPath id="clip-path-5" transform="translate(-78.51 -68.9)"><path class="cls-2" d="M3359.35,2443.05H3081.76l-448.88,115.2s243.81,79.64,115.54,282C2748.42,2840.25,3658.53,2872.44,3359.35,2443.05Z"/></clipPath><linearGradient id="linear-gradient-10" x1="2575.73" y1="2507.61" x2="3233.72" y2="2507.61" xlink:href="#linear-gradient"/><linearGradient id="linear-gradient-11" x1="2658.38" y1="2870.2" x2="3331.92" y2="2870.2" xlink:href="#linear-gradient"/><clipPath id="clip-path-6" transform="translate(-78.51 -68.9)"><path class="cls-3" d="M3015.47,1760.61c0,56.54,5.07,102.37,50.21,102.37s113.25-45.83,113.25-102.37-36.59-102.36-81.73-102.36S3015.47,1704.08,3015.47,1760.61Z"/></clipPath></defs><g class="cls-4"><g id="Illustration"><path class="cls-5" d="M3528.24,1541.74c-68.6-449-123.68-759.36-371.41-929.41C2739,325.5,2272.31,791.13,1680.4,478.69,1389,324.85,1378,146.49,1131.21,122.81c-436.68-41.88-794.29,479.25-825.28,524C117.62,918.3,54.72,1249.41,131.06,1565.08c49.58,205,83.08,417.23,73.88,627.92-16,366.67-6.79,708.93,349.06,927.6,317.73,195.25,717.6,367.46,1099.08,397.62,259.25,20.5,550-12.67,799.85-80.17C3726.32,3094.07,3622.56,2159.14,3528.24,1541.74Z" transform="translate(-78.51 -68.9)"/><path class="cls-6" d="M2875.66,216.07a36.65,36.65,0,0,0-58-7.24c-43.53,44.54-146.18,143.4-388.12,361.2-413.25,372-241.36,671.34-203.69,874.1S1964,1892.27,1964,1892.27s799.29-301.94,1047-694.71C3220,866.24,2961.62,364.86,2875.66,216.07Z" transform="translate(-78.51 -68.9)"/><path class="cls-7" d="M2839.25,415s-.12,6.51-.67,18.8-1.53,30.16-3.62,52.89c-1.1,11.36-2.09,24-3.73,37.63s-3.07,28.47-5.27,44.21c-2,15.77-4.23,32.55-7.07,50.16l-4.34,27.08q-2.51,13.83-5.13,28.27T2804,703.46q-3.11,14.94-6.33,30.45t-6.6,31.5q-3.72,15.92-7.58,32.3c-2.6,10.91-5.08,22-7.87,33.19l-8.9,33.8c-3.11,11.36-6.05,22.91-9.39,34.46s-6.94,23.16-10.46,34.88-7,23.6-10.75,35.44q-5.91,17.7-11.89,35.65c-4,12-8,24-12.19,36l-13.48,36q-6.77,18.07-13.59,36.28-7.42,18-14.9,36t-15,36.15l-1.87,4.53-.59,1.37-.52,1.1-1,2.21-4.08,8.84-8.16,17.69a1267.79,1267.79,0,0,1-76.18,137.29,1407.37,1407.37,0,0,1-88.8,123c-30.79,38.38-62.83,73.56-94.21,105.85s-62.47,61.41-91.91,87.39-57.48,48.59-82.77,68-47.92,35.6-66.8,48.57-34.14,22.56-44.61,29l-12.06,7.28-4.27,2.49a9.37,9.37,0,0,1-9.75-16l.22-.14,3.89-2.46,11.46-7.54c10-6.68,24.55-16.85,42.82-30.09s40.09-29.85,64.51-49.66,51.32-42.94,80-68.88,58.72-55.18,89.15-87.33,61.06-67.41,91.18-105.07a1404,1404,0,0,0,86.34-120.84,1235.86,1235.86,0,0,0,74.42-133.6l8.2-17.67,4.09-8.84,1-2.21.52-1.1.37-.87,1.89-4.45q7.56-17.8,15.09-35.56l15-35.43,13.73-35.72q6.82-17.79,13.61-35.44l12.46-35.47,12.31-35c3.93-11.65,7.47-23.34,11.18-34.87s7.3-23,10.9-34.34,6.57-22.75,9.83-33.95,6.5-22.27,9.69-33.22,5.8-21.9,8.65-32.64,5.61-21.35,8.35-31.79q3.73-15.75,7.36-31t7.07-30L2789,670q3-14.24,5.82-27.88l5-26.74c3.52-17.34,6.35-33.88,9-49.43s4.91-30.14,7-43.64,3.64-25.92,5.18-37.15c2.86-22.46,4.87-40.14,6.07-52.2s1.62-18.48,1.62-18.48a5.32,5.32,0,0,1,10.62.46Z" transform="translate(-78.51 -68.9)"/><path class="cls-8" d="M1312.14,2758.6c11.58,38.48,102.82-561.44,569.14-1155.56,219.75-280,542.08-580.07,530.29-842.29-9.81-218.24-460.92-573.27-612-686.23-18.87-14.12-45.65.08-44.49,23.63,5.75,116,6,375.48-90.47,532.67-127.17,207.19-84.92,471.67,21.1,645.18s152.75,281.37-14.84,569.33S1279.25,2649.24,1312.14,2758.6Z" transform="translate(-78.51 -68.9)"/><path class="cls-6" d="M1903,334.53s3.76,4.23,10.35,12.37,16.11,20.25,27.44,36.21,24.63,35.66,38.76,59,29.23,50.19,43.68,80.55a902.89,902.89,0,0,1,41,100.5c12.31,36.56,23,76,30,117.65a671.83,671.83,0,0,1,9.1,129.76,615.28,615.28,0,0,1-18.48,133.21l-4.37,16.37-2.18,8.18-2.64,8c-3.61,10.69-7.07,21.45-10.92,32q-11.77,31.11-23.42,61.9l-23.63,60.81q-12,29.94-23.75,59.06c-7.81,19.38-15.81,38.31-23.46,56.91s-15.65,36.59-23.15,54.21c-15.23,35.15-30,68.25-43.74,98.71l-20,43.6q-9.84,20.64-18.61,39.07c-11.84,24.46-22.29,45.71-31.08,63.13s-15.88,31-20.78,40.26l-7.59,14.15a3.66,3.66,0,0,1-6.52-3.32l0-.08,7-14.34,19.25-40.85c8.24-17.62,18-39.13,29.11-63.86l36.62-83.35c13.21-30.62,27.31-63.9,41.87-99.23s29.68-72.7,45.11-111.43,30.9-78.92,46.6-119.77l23.28-61.94c3.74-10.29,7-20.72,10.63-31.07l2.62-7.79,2.17-7.93,4.34-15.86A597.8,597.8,0,0,0,2086.36,870a655,655,0,0,0-8.05-126.62,788.82,788.82,0,0,0-27.56-115.81,893.12,893.12,0,0,0-38.69-99.73c-13.87-30.13-27.84-57.22-41.2-80.67s-25.95-43.39-36.74-59.51-19.68-28.5-25.92-36.8-9.72-12.55-9.72-12.55a2.94,2.94,0,0,1,4.46-3.82Z" transform="translate(-78.51 -68.9)"/><path class="cls-6" d="M1297.89,2745.06c7.06,25.42,94.76-270,257.42-439.62s417.86-483,453.41-794.66S1908.13,1022.79,1558,969c-291.78-44.84-458-87.65-528.84-137.92-17.53-12.45-42.23-4-48.94,16.47-35.73,108.73-97.92,379.55,91.74,557,241.93,226.41,673.26,370.59,626.55,582.49S1568,2256.37,1508.76,2317.4,1251.21,2576.82,1297.89,2745.06Z" transform="translate(-78.51 -68.9)"/><path class="cls-7" d="M1412.72,1237.66s4.73.28,13.45,1.14,21.54,2.28,37.72,4.82,35.78,6,58.08,11,47.2,11.8,74,20.64a622,622,0,0,1,84.39,34.61c14.57,7.19,29,15.72,43.51,24.8,14.24,9.51,28.74,19.47,42.2,31.32,7,5.61,13.28,12.15,19.94,18.37,3.18,3.26,6.24,6.68,9.38,10l4.69,5.07,4.38,5.39c12.14,14.08,22.16,30.09,31.4,46.77,8.47,16,16.57,33.58,23.71,50.88a535.88,535.88,0,0,1,18.23,53.8,492.68,492.68,0,0,1,11.49,55.7,485.56,485.56,0,0,1,4.16,56.28c.06,37.36-3.9,74.12-12.08,108.61a630.43,630.43,0,0,1-30.94,96.95,840.44,840.44,0,0,1-39,82c-13.41,24.7-26.75,46.72-39.05,65.88-6.12,9.61-11.93,18.55-17.51,26.67s-10.55,15.67-15.32,22.3c-9.36,13.4-17,23.67-22.27,30.68l-8,10.76a3.26,3.26,0,0,1-5.31-3.77l0-.06,7.51-11c2.45-3.6,5.48-8,9-13.25s7.44-11.34,11.91-18.13,9.34-14.33,14.53-22.62,10.78-17.28,16.55-27c11.64-19.36,24.1-41.6,36.67-66.33,25.36-49.21,51.18-109.15,65.26-176.56a482.63,482.63,0,0,0,10.67-104.93,466.06,466.06,0,0,0-4.34-54,473.43,473.43,0,0,0-11.36-53.39,519.33,519.33,0,0,0-17.88-51.67c-7.15-16.91-14.58-32.89-23.35-49.23-8.5-15.32-17.71-30.39-29-43.59l-4.07-5.07-4.4-4.78c-2.94-3.17-5.8-6.4-8.78-9.5-6.28-5.89-12.17-12.09-18.78-17.45-12.67-11.33-26.36-21.11-39.91-30.42-13.84-8.9-27.62-17.34-41.65-24.51a612.13,612.13,0,0,0-81.37-36c-26-9.48-50.39-16.57-72.13-22.5s-41-10.21-56.83-13.41-28.45-5.32-37-6.71-13.13-1.91-13.13-1.91a3.38,3.38,0,0,1,.6-6.74Z" transform="translate(-78.51 -68.9)"/><path class="cls-9" d="M3697,3311.71,114.32,3280.22v93.18c0,25.28,15.62,46.79,36.79,50.62l1013.07,183.47a138.07,138.07,0,0,0,36.35,1.73L3658.07,3400c21.94-1.87,38.93-23.44,38.93-49.42Z" transform="translate(-78.51 -68.9)"/><path class="cls-10" d="M2396.86,3160.68,151.37,3331.12c-40.19,3.05-72.86-29.36-72.86-72.39V1534.49c0-43,32.67-77.93,72.86-77.93H2396.86c33.1,0,59.87,31.54,59.87,70.45V3085.69C2456.73,3124.59,2430,3158.16,2396.86,3160.68Z" transform="translate(-78.51 -68.9)"/><path class="cls-11" d="M2432.66,3160.68,187.17,3331.12c-40.18,3.05-72.85-29.36-72.85-72.39V1534.49c0-43,32.67-77.93,72.85-77.93H2432.66c33.11,0,59.87,31.54,59.87,70.45V3085.69C2492.53,3124.59,2465.77,3158.16,2432.66,3160.68Z" transform="translate(-78.51 -68.9)"/><path class="cls-12" d="M2362.71,3050.79,271.27,3198.84c-32.7,2.32-59.27-24.28-59.27-59.42V1629.85c0-35.13,26.57-63.73,59.27-63.88l2091.44-9.3c27.31-.12,49.4,25.73,49.4,57.73V2989.35C2412.11,3021.35,2390,3048.85,2362.71,3050.79Z" transform="translate(-78.51 -68.9)"/><path class="cls-13" d="M1389.22,1503.73c0,16-11.56,29-25.83,29.09s-25.88-12.93-25.88-29,11.59-29.08,25.88-29.09S1389.22,1487.7,1389.22,1503.73Z" transform="translate(-78.51 -68.9)"/><path class="cls-14" d="M2522.16,3153,114.32,3332.36l1049.86,190.13a138.07,138.07,0,0,0,36.35,1.73L3697,3311.71,2560.46,3154.16A180.42,180.42,0,0,0,2522.16,3153Z" transform="translate(-78.51 -68.9)"/><polygon class="cls-15" points="387.15 3267.97 2391.75 3116.37 3012.16 3201.68 1024.82 3363.73 387.15 3267.97"/><path class="cls-16" d="M2228.71,1617.94,384.44,1606c-61.85-.4-111.51,37-110.67,83.48L298.05,3033c.84,46.51,51.82,81.7,113.6,78.61L2254,3019.44c53.29-2.67,95.7-39.63,94.92-82.58l-22.42-1240.54C2325.76,1653.38,2282.06,1618.29,2228.71,1617.94Z" transform="translate(-78.51 -68.9)"/><path class="cls-17" d="M411.16,3084.84c-42,2.06-76.65-21.89-77.22-53.51L309.69,1689.56c-.57-31.61,33.16-57,75.23-56.82l1844.24,10.13c36.34.2,66.15,24.08,66.68,53.35l22.44,1242.08c.53,29.27-28.39,54.43-64.69,56.21Z" transform="translate(-78.51 -68.9)"/><path class="cls-18" d="M2228.71,1617.94,384.44,1606c-61.85-.4-111.51,37-110.67,83.48l1.09,60.41,2052.69,2.25-1-55.78C2325.76,1653.38,2282.06,1618.29,2228.71,1617.94Z" transform="translate(-78.51 -68.9)"/><g class="cls-19"><path class="cls-13" d="M1521.48,2147.4C1301.94,1917,930.6,1998.29,690.16,1743.69a525.68,525.68,0,0,1-93.65-136.35L384.44,1606c-61.85-.4-111.51,37-110.67,83.48L298.05,3033c.84,46.51,51.82,81.7,113.6,78.61l1774.92-88.81c-41.48-43.14-398.76-199.26-494.81-447.13C1603.92,2349,1653.94,2286.41,1521.48,2147.4Z" transform="translate(-78.51 -68.9)"/></g><path class="cls-13" d="M704.64,2380.33,464,2385.74l-3.11-171.92,240.66-4.14Zm-213-18.66,176.46-3.83-2.24-124.23-176.48,3.14Z" transform="translate(-78.51 -68.9)"/><path class="cls-13" d="M2173.84,2229l-1348.8,25A22.36,22.36,0,0,1,802.26,2232l0-1.65a22.37,22.37,0,0,1,22-22.76L2173,2184.25a22.37,22.37,0,0,1,22.75,22h0A22.37,22.37,0,0,1,2173.84,2229Z" transform="translate(-78.51 -68.9)"/><path class="cls-13" d="M2176.43,2301,825.18,2328.66a21.11,21.11,0,0,1-21.54-20.73l0-1.56a21.11,21.11,0,0,1,20.71-21.5l1351.27-26.11a21.11,21.11,0,0,1,21.52,20.73h0A21.12,21.12,0,0,1,2176.43,2301Z" transform="translate(-78.51 -68.9)"/><path class="cls-13" d="M709.22,2633.71l-240.6,7.3-3.1-171.92,240.62-6Zm-213-17,176.44-5.24-2.25-124.23L494,2491.8Z" transform="translate(-78.51 -68.9)"/><path class="cls-13" d="M2178.39,2472.44,829.75,2506.37a22.36,22.36,0,0,1-22.92-21.95l0-1.65A22.35,22.35,0,0,1,828.62,2460l1348.67-32.29a22.38,22.38,0,0,1,22.9,22h0A22.37,22.37,0,0,1,2178.39,2472.44Z" transform="translate(-78.51 -68.9)"/><path class="cls-13" d="M2181,2544.45,829.89,2581.1a21.11,21.11,0,0,1-21.69-20.73l0-1.56a21.12,21.12,0,0,1,20.57-21.49l1351.11-35.09a21.11,21.11,0,0,1,21.66,20.73h0A21.12,21.12,0,0,1,2181,2544.45Z" transform="translate(-78.51 -68.9)"/><path class="cls-13" d="M713.8,2887.09l-240.56,9.2-3.11-171.92,240.59-7.93Zm-212.87-12.72,176.41-6.66-2.29-126.82-176.43,6Z" transform="translate(-78.51 -68.9)"/><path class="cls-13" d="M2182.94,2715.9,834.46,2758.8a22.35,22.35,0,0,1-23.07-21.94l0-1.65A22.37,22.37,0,0,1,833,2712.45l1348.52-41.25a22.37,22.37,0,0,1,23,22h0A22.36,22.36,0,0,1,2182.94,2715.9Z" transform="translate(-78.51 -68.9)"/><path class="cls-13" d="M2185.51,2787.91,834.59,2833.54a21.11,21.11,0,0,1-21.83-20.72l0-1.56a21.12,21.12,0,0,1,20.43-21.49l1351-44.08a21.12,21.12,0,0,1,21.8,20.73h0A21.12,21.12,0,0,1,2185.51,2787.91Z" transform="translate(-78.51 -68.9)"/><path class="cls-20" d="M510.26,2260.6h0c10.46-4.82,24.08-2.3,30.18,5.58l28.7,37c2.87,3.71,10.2,3.34,12.49-.63L649,2185.66c3.36-5.84,14.89-4.09,14.88,2.24-.07,35.39-11.41,102.88-86,160.54,0,0-41.88-11.35-76.43-65.84C496.48,2274.72,500.26,2265.21,510.26,2260.6Z" transform="translate(-78.51 -68.9)"/><path class="cls-21" d="M507.22,2517.62h0c10.46-4.82,24.08-2.3,30.18,5.57l28.7,37c2.87,3.71,10.2,3.34,12.49-.63L646,2442.68c3.36-5.84,14.89-4.09,14.88,2.23-.07,35.4-11.41,102.89-86,160.55,0,0-41.88-11.36-76.43-65.85C493.44,2531.74,497.22,2522.23,507.22,2517.62Z" transform="translate(-78.51 -68.9)"/><path class="cls-22" d="M519.45,2768.87h0c10.46-4.82,24.08-2.3,30.18,5.58l28.69,37c2.88,3.71,10.21,3.34,12.5-.63l67.39-116.93c3.36-5.84,14.89-4.09,14.87,2.24-.06,35.39-11.4,102.88-86,160.54,0,0-41.88-11.35-76.43-65.84C505.67,2783,509.44,2773.48,519.45,2768.87Z" transform="translate(-78.51 -68.9)"/><path class="cls-13" d="M470.42,1680c0,16-11.55,29-25.82,29.1s-25.89-12.93-25.89-29,11.6-29.08,25.89-29.1S470.42,1664,470.42,1680Z" transform="translate(-78.51 -68.9)"/><path class="cls-13" d="M592.22,1679.49c0,16-11.56,29-25.83,29.09s-25.89-12.93-25.89-29,11.6-29.08,25.89-29.09S592.22,1663.46,592.22,1679.49Z" transform="translate(-78.51 -68.9)"/><path class="cls-13" d="M709.59,1679.49c0,16-11.55,29-25.83,29.09s-25.88-12.93-25.88-29,11.59-29.08,25.88-29.09S709.59,1663.46,709.59,1679.49Z" transform="translate(-78.51 -68.9)"/><g class="cls-23"><path class="cls-24" d="M2136.57,1884.92,527.06,1900.77c-37.61.37-67.23,28-66.13,61.68l2.39,73.22c1.1,33.69,32.5,60.63,70.11,60.18l1609.38-19.63c36.13-.44,64.53-27.54,63.45-60.53l-2.34-71.68C2202.84,1911,2172.7,1884.57,2136.57,1884.92Z" transform="translate(-78.51 -68.9)"/><path class="cls-13" d="M2111.62,2037.29l-1368.51,16A45.78,45.78,0,0,1,696.82,2009l-.75-23.14a45.77,45.77,0,0,1,45.27-47.27l1368.57-14.13a45.79,45.79,0,0,1,46.23,44.28l.69,21.24A45.78,45.78,0,0,1,2111.62,2037.29Z" transform="translate(-78.51 -68.9)"/><path class="cls-13" d="M616.07,1959c-15-16.52-41.83-19.28-60-6.15s-20.8,37.18-5.81,53.7c9.45,10.4,23.61,15.32,37.34,14.25a45.24,45.24,0,0,1,36.89,14.92l14,15.41a5.7,5.7,0,0,0,7.41.75,4.37,4.37,0,0,0,.72-6.63L635.39,2033a46.11,46.11,0,0,1-10.54-41.65C627.44,1980.4,624.64,1968.49,616.07,1959Zm-9.57,49.48c-15.64,11.3-38.77,9-51.66-5.25s-10.66-34.91,5-46.21,38.77-8.92,51.65,5.29S622.12,1997.22,606.5,2008.52Z" transform="translate(-78.51 -68.9)"/></g><g class="cls-4"><g class="cls-4"><g class="cls-25"><g class="cls-4"><path class="cls-26" d="M3469,2684.49l-5.66,33.78a33.15,33.15,0,0,0,.44-5.55l5.66-33.78a31.1,31.1,0,0,1-.44,5.55" transform="translate(-78.51 -68.9)"/></g></g></g><g class="cls-4"><g class="cls-27"><g class="cls-4"><path class="cls-28" d="M2863.34,2634.58l-5.67,33.77a33.15,33.15,0,0,1,.44-5.55l5.67-33.77a32,32,0,0,0-.44,5.55" transform="translate(-78.51 -68.9)"/></g></g></g><g class="cls-4"><g class="cls-29"><g class="cls-4"><path class="cls-30" d="M3469,2684.49l-5.66,33.78c-.12.68-.25,1.36-.41,2l5.66-33.77c.16-.68.3-1.36.41-2" transform="translate(-78.51 -68.9)"/><path class="cls-31" d="M3468.62,2686.53,3463,2720.3a35.77,35.77,0,0,1-4.05,9.95l5.67-33.78a35.8,35.8,0,0,0,4-9.94" transform="translate(-78.51 -68.9)"/><path class="cls-32" d="M3464.58,2696.47l-5.67,33.78c-4.53,7.72-12.12,14.87-22.35,21.36l5.67-33.78c10.23-6.48,17.81-13.64,22.35-21.36" transform="translate(-78.51 -68.9)"/><path class="cls-33" d="M3442.23,2717.83l-5.67,33.78a131.67,131.67,0,0,1-13,7.21l5.67-33.77a131.67,131.67,0,0,0,13-7.22" transform="translate(-78.51 -68.9)"/><path class="cls-32" d="M3429.2,2725.05l-5.67,33.77c-27.27,13.29-67,23.06-114.69,28.18l5.67-33.78c47.7-5.12,87.41-14.88,114.69-28.17" transform="translate(-78.51 -68.9)"/><path class="cls-31" d="M3314.51,2753.22l-5.67,33.78c-39.61,4.25-84.73,5.3-132.82,2.52l5.67-33.78c48.08,2.79,93.21,1.73,132.82-2.52" transform="translate(-78.51 -68.9)"/><path class="cls-30" d="M3181.69,2755.74l-5.67,33.78q-7.2-.42-14.49-.95a900.2,900.2,0,0,1-116.06-15.93l5.67-33.78a900.2,900.2,0,0,0,116.06,15.93q7.29.54,14.49.95" transform="translate(-78.51 -68.9)"/><path class="cls-34" d="M3051.14,2738.86l-5.67,33.78c-35.37-7.33-67.39-16.51-94.56-26.95l5.66-33.77c27.18,10.44,59.2,19.62,94.57,26.94" transform="translate(-78.51 -68.9)"/><path class="cls-28" d="M2956.57,2711.92l-5.66,33.77c-57.28-22-93-49.63-93.24-77.34l5.67-33.77c.22,27.7,36,55.33,93.23,77.34" transform="translate(-78.51 -68.9)"/></g></g></g><ellipse class="cls-35" cx="3166.41" cy="2656.76" rx="97.68" ry="303.99" transform="translate(179.46 5524.78) rotate(-85.28)"/><polygon class="cls-36" points="2789.12 3100.27 2783.46 3134.05 2779.16 2599.45 2784.83 2565.67 2789.12 3100.27"/><g class="cls-4"><g class="cls-37"><g class="cls-4"><path class="cls-38" d="M3473.33,3219.09l-5.67,33.78c-.11.68-.25,1.36-.41,2l5.67-33.77c.16-.68.3-1.36.41-2" transform="translate(-78.51 -68.9)"/><path class="cls-39" d="M3472.92,3221.13l-5.67,33.77a35.77,35.77,0,0,1-4.05,9.95l5.67-33.78a35.84,35.84,0,0,0,4.05-9.94" transform="translate(-78.51 -68.9)"/><path class="cls-40" d="M3468.87,3231.07l-5.67,33.78c-4.53,7.72-12.11,14.87-22.34,21.36l5.67-33.78c10.23-6.48,17.81-13.64,22.34-21.36" transform="translate(-78.51 -68.9)"/><path class="cls-41" d="M3446.53,3252.43l-5.67,33.78a134,134,0,0,1-13,7.21l5.67-33.77a134,134,0,0,0,13-7.22" transform="translate(-78.51 -68.9)"/><path class="cls-40" d="M3433.5,3259.65l-5.67,33.77c-27.28,13.29-67,23.06-114.69,28.18l5.67-33.78c47.7-5.12,87.41-14.88,114.69-28.17" transform="translate(-78.51 -68.9)"/><path class="cls-39" d="M3318.81,3287.82l-5.67,33.78c-39.61,4.25-84.74,5.3-132.82,2.52l5.67-33.78c48.08,2.79,93.2,1.74,132.82-2.52" transform="translate(-78.51 -68.9)"/><path class="cls-38" d="M3186,3290.34l-5.67,33.78q-7.2-.42-14.5-.95a900.28,900.28,0,0,1-116.05-15.93l5.67-33.78a899.8,899.8,0,0,0,116,15.93q7.29.54,14.5,1" transform="translate(-78.51 -68.9)"/><path class="cls-42" d="M3055.44,3273.46l-5.67,33.78c-35.38-7.33-67.4-16.5-94.57-26.95l5.67-33.77c27.17,10.44,59.19,19.62,94.57,26.94" transform="translate(-78.51 -68.9)"/><path class="cls-26" d="M2960.87,3246.52l-5.67,33.77c-57.27-22-93-49.63-93.23-77.34l5.67-33.77c.22,27.7,36,55.33,93.23,77.34" transform="translate(-78.51 -68.9)"/></g></g></g><path class="cls-43" d="M3469.47,2678.94l4.3,534.6c.43,54.14-134.9,88.1-302.28,75.85s-303.42-66.07-303.85-120.21l-4.3-534.6c.44,54.14,136.48,108,303.86,120.21S3469.91,2733.08,3469.47,2678.94Z" transform="translate(-78.51 -68.9)"/></g><path class="cls-44" d="M3035.3,1592.42s59.09-54.45,140.82,30.54c93.18,96.89,191.82,45.93,199.48,139.42s39.77,40.59,116.4,102.37,19.92,294.72-168.58,244.14-268.32-163.72-310.76-210C2975.48,1858.32,2895.72,1740.64,3035.3,1592.42Z" transform="translate(-78.51 -68.9)"/><path class="cls-45" d="M2539.44,2741.91s-13.74-156.15,93.44-183.66l115.54,18.38Z" transform="translate(-78.51 -68.9)"/><path class="cls-46" d="M2778.82,2600.37s-160.34-73.26-210.54,18-185.86,674.42-185.86,674.42l56.77,36.9L2689.67,2845S2907.4,2820.82,2778.82,2600.37Z" transform="translate(-78.51 -68.9)"/><path class="cls-3" d="M3006.13,1993.92l-129.26,174.64a159.71,159.71,0,0,1-83.54,58.29L2512,2309.22l0-.11-150.39,23.58a23.78,23.78,0,0,0-14.29,39l29.58,34.2a65.42,65.42,0,0,0,79.39,15.38l73-37.55,336.5-63.23a146.32,146.32,0,0,0,75.93-39.82l186.54-185.28Z" transform="translate(-78.51 -68.9)"/><path class="cls-2" d="M3359.35,2443.05H3081.76l-448.88,115.2s243.81,79.64,115.54,282C2748.42,2840.25,3658.53,2872.44,3359.35,2443.05Z" transform="translate(-78.51 -68.9)"/><g class="cls-47"><path class="cls-48" d="M3233.72,2412.92c-5.93,51.44-44.29,94.59-89.48,119.85s-97,35.59-147.78,45.58l-266.93,52.48c-48.11,9.46-106.71,15.46-137.85-22.41-25.06-30.49-18.53-78.16,5.32-109.61s60.85-49.87,97.51-64.48c168.47-67.11,359.73-75.34,533.34-22.95" transform="translate(-78.51 -68.9)"/><path class="cls-49" d="M2734.82,2751.52s346.78,83.24,597.1,0l-486.18,237.37L2658.38,2800Z" transform="translate(-78.51 -68.9)"/></g><path class="cls-13" d="M2895.7,2151.06a66.93,66.93,0,0,1-18.66-97.41l109.56-145.59v.08c65.58-81.78,263.45-60.64,318.09,33.11,78.6,134.87,117.31,596.12,117.31,596.12l-390.73-24.8a67.58,67.58,0,0,1-63.3-67.41l-.11-250.14Z" transform="translate(-78.51 -68.9)"/><path class="cls-3" d="M2699.8,2594.84s-137,52.81-129.35,156.68S2762.27,3383,2762.27,3383H2830L2775.74,2840S2837.64,2667.05,2699.8,2594.84Z" transform="translate(-78.51 -68.9)"/><path class="cls-44" d="M2454.69,3299.7s-42.6-1.45-63.2-45.41l-160.27-21.77a36.54,36.54,0,0,0-32.38,12.12h0a10.25,10.25,0,0,0,2.83,15.76l182.14,98.67a41.61,41.61,0,0,0,59.43-23.83Z" transform="translate(-78.51 -68.9)"/><path class="cls-44" d="M2829.46,3354.2s-34,25.67-77.69,4.46l-141.78,86a28.89,28.89,0,0,0-13.88,23.57h0a13.52,13.52,0,0,0,16,13.81l199.63-37.13a41.61,41.61,0,0,0,31.2-55.92Z" transform="translate(-78.51 -68.9)"/><path class="cls-46" d="M3141.44,1831.52l6.57,39.84a43.12,43.12,0,0,1-42.55,50.14h0a43.13,43.13,0,0,1-43.12-43.12v-55.76Z" transform="translate(-78.51 -68.9)"/><path class="cls-3" d="M3015.47,1760.61c0,56.54,5.07,102.37,50.21,102.37s113.25-45.83,113.25-102.37-36.59-102.36-81.73-102.36S3015.47,1704.08,3015.47,1760.61Z" transform="translate(-78.51 -68.9)"/><g class="cls-50"><path class="cls-46" d="M3010.42,1714.67c-6.32,17.07,1.66,37,15.24,49.1s31.66,17.85,49.48,21.59,36.11,5.86,53.16,12.25,33.22,17.92,40.08,34.78c18.76-24.72,16.24-61.64-1.62-87s-48.35-39.89-79.15-43.71a151,151,0,0,0-81,12.47" transform="translate(-78.51 -68.9)"/></g><path class="cls-44" d="M3018.17,1714.74s24.81,56.78,87.65,48.57,80.18,59.31,80.18,59.31,51.89-43.66,30.05-122.16S3030.7,1627.8,3018.17,1714.74Z" transform="translate(-78.51 -68.9)"/><path class="cls-13" d="M3171.32,1984.24l5.6,162.76a26.72,26.72,0,0,0,29.08,25.7l156.25-14a26.71,26.71,0,0,0,23.59-32.88c-12.46-51.67-44.35-156.87-107.26-212.42-100.66-88.88-114.37-4.51-107.36,69.3C3171.27,1983.23,3171.3,1983.73,3171.32,1984.24Z" transform="translate(-78.51 -68.9)"/><polygon class="cls-51" points="2741.45 2630.77 2632.39 2239.66 2216.33 2192.79 2336.18 2553.24 2741.45 2630.77"/><polygon class="cls-52" points="2741.45 2630.77 2997.71 2493.03 2694.21 2461.37 2741.45 2630.77"/><path class="cls-52" d="M2499.12,2480.68c14.22,22,43.54,39.75,65.5,39.75s28.22-17.79,14-39.75-43.54-39.74-65.49-39.74S2484.9,2458.73,2499.12,2480.68Z" transform="translate(-78.51 -68.9)"/><path class="cls-13" d="M3416.25,2477.55s45.74,153.29-11.88,122.81c-23.22-12.29-250.36-85.3-348.82-86.25l342.18-5.11Z" transform="translate(-78.51 -68.9)"/><path class="cls-3" d="M3213.4,2173.33l13.27,116.09a143.33,143.33,0,0,1-19.09,89.36L3073.48,2605l-.09-.05-84.18,107.53a21.32,21.32,0,0,0,14.52,34.34l40.34,4.32a58.68,58.68,0,0,0,61.47-38.51l24.91-69.33,182-247.46a131.24,131.24,0,0,0,25.41-72.6l5.95-157.44Z" transform="translate(-78.51 -68.9)"/><polygon class="cls-46" points="3265.26 2096.93 3134.88 2104.42 3139.1 2141.3 3262.41 2172.18 3265.26 2096.93"/></g></g></svg>