<svg id="Layer_1" data-name="Layer 1" xmlns="http://www.w3.org/2000/svg" viewBox="0 0 73 44"><defs><style>.cls-1{fill:#fff;}.cls-2{fill:#2fabf7;}.cls-3{fill:#228fe0;}.cls-4{fill:#0571c1;}</style></defs><rect class="cls-1" x="-0.5" width="73" height="44" rx="12"/><path class="cls-2" d="M11.42,16.93h2l-1-2.56Zm0,0"/><path class="cls-3" d="M36.36,14.74a1.83,1.83,0,0,0-.73-.09H33.8v1.46h1.83a1.83,1.83,0,0,0,.73-.09.72.72,0,0,0,.27-.64.51.51,0,0,0-.27-.64Zm0,0"/><path class="cls-4" d="M55.9,12v1.1L55.35,12H51.06v1.1L50.51,12H44.67a5.5,5.5,0,0,0-2.56.55V12H38v.55A2.61,2.61,0,0,0,36.26,12H21.56l-1,2.28-1-2.28H14.89v1.1L14.35,12H10.42L8.59,16.29,6.49,21h4.66l.55-1.46H13L13.52,21h5.3V20L19.28,21h2.65L22.38,20V21h12.7V18.67h.18c.18,0,.18,0,.18.27v2H42V20.4a5.39,5.39,0,0,0,2.46.55h2.74l.55-1.46h1.28L49.6,21h5.29V19.58L55.72,21H60V12ZM25,19.67H23.48v-5l-2.19,5H19.92l-2.19-5v5H14.62L14,18.3h-3.1l-.55,1.46H8.59l2.74-6.48h2.29l2.55,6.12V13.28h2.47l2,4.38,1.82-4.38H25Zm6.21-5H27.68v1.19h3.47v1.27H27.68v1.28h3.56v1.37H26.13V13.28h5.11Zm6.85,2.65a2.29,2.29,0,0,1,.27,1.18v1.28H36.81v-.82a2.22,2.22,0,0,0-.27-1.28c-.28-.27-.55-.27-1.1-.27H33.8v2.37H32.25V13.28h3.47a3.51,3.51,0,0,1,1.82.27A1.55,1.55,0,0,1,38.27,15a1.82,1.82,0,0,1-1.09,1.74,1.69,1.69,0,0,1,.91.55Zm2.74,2.37H39.28V13.19h1.55Zm18,0H56.63l-2.92-4.84v4.84H50.6l-.55-1.37H46.86l-.55,1.46H44.58a3.19,3.19,0,0,1-2.2-.73,3.24,3.24,0,0,1-.82-2.46A3.73,3.73,0,0,1,42.38,14a2.88,2.88,0,0,1,2.29-.73h1.46v1.37H44.67a1.7,1.7,0,0,0-1.19.36A2.19,2.19,0,0,0,43,16.47,2,2,0,0,0,43.48,18a1.47,1.47,0,0,0,1.1.36h.63l2.1-5H49.6l2.56,6.12V13.37h2.28l2.65,4.47V13.37h1.55v6.3Zm0,0"/><path class="cls-3" d="M47.41,16.93h2.1l-1-2.56Zm0,0"/><path class="cls-3" d="M31.88,30.08v-5.2l-2.37,2.55Zm0,0"/><path class="cls-2" d="M22.11,25.52V26.7h3.38V28H22.11v1.37h3.74l1.74-1.92-1.65-1.91Zm0,0"/><path class="cls-3" d="M35.35,25.52H33.43v1.64h2c.55,0,.92-.27.92-.82a.93.93,0,0,0-1-.82Zm0,0"/><path class="cls-4" d="M63.57,27.07V23H59.74a3,3,0,0,0-1.92.55V23h-4.2a2.89,2.89,0,0,0-1.83.55V23h-7.4v.55a3.51,3.51,0,0,0-2-.55H37.45v.55a3.43,3.43,0,0,0-2.1-.55H29.87l-1.28,1.37L27.41,23H19.19v9h8l1.28-1.37,1.19,1.37h4.93v-2.1h.64a5.44,5.44,0,0,0,2.1-.28V32h4.11V29.63h.18c.28,0,.28,0,.28.27V32H54.35a3.56,3.56,0,0,0,2.1-.55V32h3.92a4.08,4.08,0,0,0,2.2-.46A3.1,3.1,0,0,0,64,28.8a3.53,3.53,0,0,0-.46-1.73ZM35.26,28.53H33.43v2.19H30.51l-1.83-2.1-1.91,2.1h-6V24.24h6.12l1.82,2.1,1.92-2.1h4.84c1.19,0,2.56.36,2.56,2.1s-1.37,2.19-2.74,2.19Zm9.13-.37a2,2,0,0,1,.28,1.19v1.28H43.11v-.82a2.06,2.06,0,0,0-.27-1.28c-.18-.27-.55-.27-1.1-.27H40.1v2.37H38.55V24.15H42a3.69,3.69,0,0,1,1.82.27,1.61,1.61,0,0,1,.83,1.46,1.83,1.83,0,0,1-1.1,1.74,1.53,1.53,0,0,1,.82.54Zm6.3-2.64H47.13V26.7H50.6V28H47.13v1.28h3.56v1.37H45.58V24.15h5.11Zm3.84,5.11H51.61V29.26h2.92a.78.78,0,0,0,.64-.18.72.72,0,0,0,.18-.46.74.74,0,0,0-.18-.46.79.79,0,0,0-.55-.18c-1.46-.09-3.2,0-3.2-2,0-.91.55-1.92,2.2-1.92h3v1.56H53.8a1.38,1.38,0,0,0-.64.09c-.18.09-.18.27-.18.46s.18.36.36.45a1.2,1.2,0,0,0,.55.09h.82a2.37,2.37,0,0,1,1.74.55,1.92,1.92,0,0,1,.45,1.37c0,1.37-.82,2-2.37,2ZM62.38,30a2.62,2.62,0,0,1-1.91.64H57.54V29.26h2.93a.79.79,0,0,0,.64-.18.72.72,0,0,0,.18-.46.74.74,0,0,0-.18-.46.81.81,0,0,0-.55-.18c-1.46-.09-3.2,0-3.2-2a1.9,1.9,0,0,1,2.19-1.92h3v1.56H59.83a1.36,1.36,0,0,0-.64.09c-.19.09-.19.27-.19.46s.1.36.37.45a1.18,1.18,0,0,0,.55.09h.82a2.33,2.33,0,0,1,1.73.55.09.09,0,0,1,.1.09,2.13,2.13,0,0,1,.36,1.28A1.83,1.83,0,0,1,62.38,30Zm0,0"/><path class="cls-3" d="M42.75,25.7a1.8,1.8,0,0,0-.73-.09H40.19v1.46H42a1.8,1.8,0,0,0,.73-.09.72.72,0,0,0,.27-.64.51.51,0,0,0-.27-.64Zm0,0"/><path class="cls-3" d="M36.36,14.74a1.83,1.83,0,0,0-.73-.09H33.8v1.46h1.83a1.83,1.83,0,0,0,.73-.09.72.72,0,0,0,.27-.64.51.51,0,0,0-.27-.64Zm0,0"/><path class="cls-3" d="M47.41,16.93h2.1l-1-2.56Zm0,0"/><path class="cls-3" d="M31.88,30.08v-5.2l-2.37,2.55Zm0,0"/><path class="cls-3" d="M35.35,25.52H33.43v1.64h2c.55,0,.92-.27.92-.82a.93.93,0,0,0-1-.82Zm0,0"/><path class="cls-3" d="M42.75,25.7a1.8,1.8,0,0,0-.73-.09H40.19v1.46H42a1.8,1.8,0,0,0,.73-.09.72.72,0,0,0,.27-.64.51.51,0,0,0-.27-.64Zm0,0"/><path class="cls-2" d="M34.71,30.45l-1.28-1.37v1.55h-3l-1.83-2.1-2,2.1h-6V24.24h6.12l1.91,2.1.92-1.1L27.22,23h-8v9h8l1.37-1.37,1.19,1.37h4.93Zm0,0"/><path class="cls-2" d="M25.21,21,24,19.67h-.55v-.55l-1.37-1.37-.91,1.92H19.92l-2.19-5v5H14.62L14,18.3h-3.1l-.64,1.37H8.59l2.74-6.39h2.29l2.55,6.12V13.28h1.37L16.26,12H14.89v1.1L14.44,12h-4L8.59,16.29,6.49,21h4.75l.55-1.37h1.28L13.71,21h5.11v-1.1l.46,1.1h2.65l.45-1.1V21Zm0,0"/><path class="cls-2" d="M21,16.75l-1.46-1.46,1.1,2.37Zm0,0"/><path class="cls-3" d="M62.57,31.45A3.34,3.34,0,0,0,64,29l-1.28-1.28a2.72,2.72,0,0,1,.18.91A1.83,1.83,0,0,1,62.38,30a2.62,2.62,0,0,1-1.91.64H57.54V29.26h2.93a.79.79,0,0,0,.64-.18.72.72,0,0,0,.18-.46.74.74,0,0,0-.18-.46.81.81,0,0,0-.55-.18c-1.46-.09-3.2,0-3.2-2,0-.91.55-1.73,1.92-1.92l-1-1c-.18.09-.27.18-.36.18v-.55h-4.2a3,3,0,0,0-1.83.55v-.55H44.39v.55a3.59,3.59,0,0,0-2-.55H37.45v.55a3.5,3.5,0,0,0-2.1-.55H29.87l-1.28,1.37-1.18-1.37h-1l2.74,2.74L30.51,24h4.84c1.19,0,2.56.37,2.56,2.1s-1.28,2.2-2.65,2.2H33.43v1.37L34.8,31V29.63h.46a5.44,5.44,0,0,0,2.1-.28v2.47h4.11V29.44h.18c.28,0,.28,0,.28.28v2.1H54.35a3.63,3.63,0,0,0,2.1-.55v.55h3.92a3.62,3.62,0,0,0,2.2-.37ZM44.39,28.16a2,2,0,0,1,.28,1.19v1.28H43.11v-.82a2.06,2.06,0,0,0-.27-1.28c-.18-.27-.55-.27-1.1-.27H40.1v2.37H38.55V24.15H42a3.69,3.69,0,0,1,1.82.27,1.61,1.61,0,0,1,.83,1.46,1.83,1.83,0,0,1-1.1,1.74,1.53,1.53,0,0,1,.82.54Zm6.3-2.64H47.13V26.7H50.6V28H47.13v1.28h3.56v1.37H45.58V24.15h5.11Zm3.84,5.11H51.61V29.26h2.92a.78.78,0,0,0,.64-.18.72.72,0,0,0,.18-.46.74.74,0,0,0-.18-.46.79.79,0,0,0-.55-.18c-1.46-.09-3.2,0-3.2-2,0-.91.55-1.92,2.2-1.92h3v1.56H53.8a1.38,1.38,0,0,0-.64.09c-.18.09-.18.27-.18.46s.18.36.36.45a1.2,1.2,0,0,0,.55.09h.82a2.37,2.37,0,0,1,1.74.55,1.92,1.92,0,0,1,.45,1.37c0,1.37-.82,2-2.37,2Zm0,0"/><path class="cls-3" d="M58.91,26.16c0,.27.09.36.37.45a1.16,1.16,0,0,0,.55.09h.82a2.58,2.58,0,0,1,1.28.28l-1.37-1.37h-.82a1.36,1.36,0,0,0-.64.09.65.65,0,0,0-.19.46Zm0,0"/><path class="cls-3" d="M55.72,20.68l.18.27H56Zm0,0"/><path class="cls-3" d="M50.69,15.65l1.56,3.75V17.21Zm0,0"/><path class="cls-3" d="M21.56,12.09l-1,2.28-1-2.28h-4l1.28,1.28h1.83l1.55,3.38.55.55,1.64-4h2.56v6.48H23.39v-5l-1.56,3.65L24.48,21H35l.09-2.37h.18c.18,0,.18,0,.18.27v2H42V20.4a5.39,5.39,0,0,0,2.46.55h2.74l.55-1.46h1.28L49.6,21h5.29V20l-1.27-1.28v1H50.51l-.46-1.46H46.86l-.55,1.46H44.58a3.19,3.19,0,0,1-2.2-.73,3.24,3.24,0,0,1-.82-2.46A3.73,3.73,0,0,1,42.38,14a2.88,2.88,0,0,1,2.29-.73h1.46v1.37H44.67a1.7,1.7,0,0,0-1.19.36A2.19,2.19,0,0,0,43,16.47,2,2,0,0,0,43.48,18a1.47,1.47,0,0,0,1.1.36h.63l2.1-5h.92L47,12.09H44.58a5.5,5.5,0,0,0-2.56.55v-.55H38v.55a2.61,2.61,0,0,0-1.74-.55m3,1.19h1.55v6.48H39.28Zm-8,1.37H27.68v1.19h3.47v1.27H27.68v1.28h3.56v1.37H26.13V13.28h5.11Zm2.56,5H32.25V13.19h3.47a3.51,3.51,0,0,1,1.82.27,1.55,1.55,0,0,1,.73,1.46,1.83,1.83,0,0,1-1.09,1.74,1.18,1.18,0,0,1,.73.55,2.27,2.27,0,0,1,.27,1.18v1.28H36.63v-.82a2.21,2.21,0,0,0-.27-1.28c-.1-.18-.37-.18-.92-.18H33.8Zm0,0"/></svg>