<svg id="Layer_1" data-name="Layer 1" xmlns="http://www.w3.org/2000/svg" viewBox="0 0 73 44"><defs><style>.cls-1{fill:#fff;}.cls-2{fill:#0057a0;}</style></defs><rect class="cls-1" x="0.5" width="72" height="44" rx="12"/><path class="cls-2" d="M9,17.38,8.5,19.83h-2L8.66,9.16H11.3l2.14,10.67h-2L11,17.38Zm1-5.78-.71,4.21h1.42Z"/><path class="cls-2" d="M17,19.83H15.05V9.15H17.8l1.79,7.68,1.72-7.68H24V19.83H22V13.12l-1.67,6.71H18.83L17,13.14Z"/><path class="cls-2" d="M25.67,19.83V9.15h5.46v1.62H27.59v2.91h2.59V15.3H27.59v2.92h3.54v1.61Z"/><path class="cls-2" d="M35.48,9.16a3.24,3.24,0,0,1,2.36.74,2.4,2.4,0,0,1,.66,1.8v1.56a2.35,2.35,0,0,1-1,1.91l1.42,4.66H36.82l-1.17-4H34.37v4H32.45V9.16Zm1.15,2.57c0-.62-.37-.93-1.1-.93H34.37v3.42h1.16a1.17,1.17,0,0,0,.78-.27.87.87,0,0,0,.32-.66Z"/><path class="cls-2" d="M42.45,19.83H40.54V9.16h1.91Z"/><path class="cls-2" d="M47.2,20A3.27,3.27,0,0,1,45,19.23a2.3,2.3,0,0,1-.89-1.81V11.59A2.3,2.3,0,0,1,45,9.78,3.31,3.31,0,0,1,47.2,9a3.22,3.22,0,0,1,2.15.75,2.28,2.28,0,0,1,.88,1.8v1.22h-2V11.56a.81.81,0,0,0-.32-.66,1.19,1.19,0,0,0-.78-.27,1.16,1.16,0,0,0-.78.27.84.84,0,0,0-.32.66v5.85a.84.84,0,0,0,.32.65,1.16,1.16,0,0,0,.78.27,1.19,1.19,0,0,0,.78-.27.81.81,0,0,0,.32-.65V15.93h2v1.49a2.25,2.25,0,0,1-.89,1.81A3.28,3.28,0,0,1,47.2,20Z"/><path class="cls-2" d="M53.79,17.38l-.46,2.45h-2L53.49,9.16h2.64l2.13,10.67h-2l-.45-2.45Zm1-5.78-.71,4.21h1.42Z"/><path class="cls-2" d="M62,9.15l2.55,7.18V9.15H66.5V19.83H64.44L61.8,13v6.84H59.88V9.15Z"/><path class="cls-2" d="M11.5,34.83V24.15h5.79v1.62H13.53v2.91h2.75V30.3H13.53v2.92h3.76v1.61Z"/><path class="cls-2" d="M26.19,34.83H24l-1.56-3.4-1.57,3.4H18.69l2.65-5.36-2.65-5.31h2.25l1.5,3.29,1.5-3.29h2.25l-2.65,5.31Z"/><path class="cls-2" d="M31.08,24.16a3.54,3.54,0,0,1,2.37.74,2.26,2.26,0,0,1,.82,1.8v1.56a2.25,2.25,0,0,1-.93,1.8,3.48,3.48,0,0,1-2.26.75H29.91v4h-2V24.16Zm1.22,2.57a.82.82,0,0,0-.32-.67,1.3,1.3,0,0,0-.84-.26H29.91v3.42h1.23A1.26,1.26,0,0,0,32,29a.83.83,0,0,0,.34-.66Z"/><path class="cls-2" d="M39.1,24.16a3.56,3.56,0,0,1,2.5.74,2.35,2.35,0,0,1,.7,1.8v1.56a2.31,2.31,0,0,1-1.09,1.91l1.51,4.66h-2.2l-1.24-4H37.93v4h-2V24.16Zm1.22,2.57c0-.62-.39-.93-1.16-.93H37.93v3.42h1.23A1.28,1.28,0,0,0,40,29a.86.86,0,0,0,.34-.66Z"/><path class="cls-2" d="M44.46,34.83V24.15h5.79v1.62H46.49v2.91h2.75V30.3H46.49v2.92h3.76v1.61Z"/><path class="cls-2" d="M58.37,32.18a2.51,2.51,0,0,1-.73,1.9,2.64,2.64,0,0,1-1.4.76,4.66,4.66,0,0,1-1.13.12,3.77,3.77,0,0,1-2-.47,2.78,2.78,0,0,1-1-1,3.38,3.38,0,0,1-.45-1.51l1.94-.11a2,2,0,0,0,.62,1.35,1.18,1.18,0,0,0,.84.3A1.34,1.34,0,0,0,56.11,33a1.07,1.07,0,0,0,.21-.71,1.82,1.82,0,0,0-.77-1.32l-1.8-1.36a6.33,6.33,0,0,1-1.43-1.39,2.63,2.63,0,0,1-.46-1.5,2.44,2.44,0,0,1,1.24-2.21A3.69,3.69,0,0,1,55,24a4.26,4.26,0,0,1,1.86.38,2.55,2.55,0,0,1,1,.84,2.61,2.61,0,0,1,.45,1.23l-2,.29a1.74,1.74,0,0,0-.47-1,1.18,1.18,0,0,0-.81-.26,1,1,0,0,0-.85.39,1.25,1.25,0,0,0-.24.78,2.16,2.16,0,0,0,.8,1.5,6.45,6.45,0,0,0,.9.68c.48.31.79.53.94.65a5.81,5.81,0,0,1,1.16,1.18,4.31,4.31,0,0,1,.31.5A2.27,2.27,0,0,1,58.37,32.18Z"/><path class="cls-2" d="M66.5,32.18a2.59,2.59,0,0,1-.73,1.9,2.68,2.68,0,0,1-1.4.76,4.72,4.72,0,0,1-1.13.12,3.72,3.72,0,0,1-2-.47,2.73,2.73,0,0,1-1-1,3.66,3.66,0,0,1-.45-1.51l1.94-.11a2.14,2.14,0,0,0,.62,1.35,1.21,1.21,0,0,0,.84.3A1.36,1.36,0,0,0,64.24,33a1.07,1.07,0,0,0,.2-.71,1.81,1.81,0,0,0-.76-1.32l-1.81-1.36a6.55,6.55,0,0,1-1.43-1.39,2.69,2.69,0,0,1-.45-1.5,2.42,2.42,0,0,1,1.24-2.21A3.65,3.65,0,0,1,63.12,24,4.26,4.26,0,0,1,65,24.4a2.58,2.58,0,0,1,1,.84,2.71,2.71,0,0,1,.44,1.23l-1.94.29a1.69,1.69,0,0,0-.48-1,1.16,1.16,0,0,0-.81-.26,1,1,0,0,0-.85.39,1.31,1.31,0,0,0-.23.78,2.14,2.14,0,0,0,.79,1.5,6.65,6.65,0,0,0,.91.68c.47.31.78.53.93.65a5.88,5.88,0,0,1,1.17,1.18c.12.18.23.35.31.5A2.56,2.56,0,0,1,66.5,32.18Z"/></svg>