<svg id="Layer_1" data-name="Layer 1" xmlns="http://www.w3.org/2000/svg" viewBox="0 0 73 44"><defs><style>.cls-1{fill:#9a9a9a;}</style></defs><path class="cls-1" d="M71.59,0H1.41A1.83,1.83,0,0,0-.5,1.75v40.5A1.83,1.83,0,0,0,1.41,44H71.59a1.83,1.83,0,0,0,1.91-1.75V1.75A1.83,1.83,0,0,0,71.59,0ZM17.7,20.1l-.22-.45v0a1.12,1.12,0,0,1-1.16,1.07H12.9a1.16,1.16,0,0,1-1.07-.66l-.35-.78h-2l-.35.78a1.16,1.16,0,0,1-1.07.66H6.28a1.2,1.2,0,0,1-1-.48,1,1,0,0,1-.09-1l3-6.45a1.18,1.18,0,0,1,1.07-.64h2.5a1.16,1.16,0,0,1,1.06.64l.63,1.35v-.93a1.11,1.11,0,0,1,1.17-1.06h2.74a1.19,1.19,0,0,1,1.06.62L19.54,15l1-2.16a1.16,1.16,0,0,1,1.07-.65h2.8a1.23,1.23,0,0,1,.63.19,1.19,1.19,0,0,1,.62-.19h5.62a1.26,1.26,0,0,1,.58.16,1.22,1.22,0,0,1,.58-.16h3.87a5.28,5.28,0,0,1,2.61.45,1.59,1.59,0,0,1,.21.15,1.18,1.18,0,0,1,1-.6h1.71a1.12,1.12,0,0,1,1.13.9,4.86,4.86,0,0,1,3.15-.9h1.63a1.15,1.15,0,0,1,.69.21,1.2,1.2,0,0,1,.7-.21h2.51a1.17,1.17,0,0,1,1.07.64l.62,1.33v-.91a1.11,1.11,0,0,1,1.16-1.06H57.1a1.17,1.17,0,0,1,1,.51l.8,1.22v-.67a1.11,1.11,0,0,1,1.16-1.06h1.72a1.11,1.11,0,0,1,1.16,1.06v6.45a1.12,1.12,0,0,1-1.16,1.07H59.39a1.18,1.18,0,0,1-1-.52l-1-1.57v1a1.13,1.13,0,0,1-1.17,1.07H52.78a1.17,1.17,0,0,1-1.07-.66l-.35-.78H49.42l-.34.77a1.17,1.17,0,0,1-1.08.67H46a5.26,5.26,0,0,1-3-.86,1.11,1.11,0,0,1-1.11.86H40.16a1.14,1.14,0,0,1-.52-.13,1.14,1.14,0,0,1-.52.13h-1.7a1.11,1.11,0,0,1-1.16-1.06v-.95c0-.09,0-.22,0-.33h-1v1.28a1.12,1.12,0,0,1-1.16,1.07H32.44a1.13,1.13,0,0,1-.58-.17,1.19,1.19,0,0,1-.59.17H25.66a1.23,1.23,0,0,1-.63-.19,1.19,1.19,0,0,1-.62.19H22.69a1.12,1.12,0,0,1-1.17-1.07v0l-.22.45a1.16,1.16,0,0,1-1.06.64H18.76a1.18,1.18,0,0,1-1.06-.64ZM64.08,31.84H60.81a1.18,1.18,0,0,1-1.07-.65,4.54,4.54,0,0,1-2.53.65H53.94a1.35,1.35,0,0,1-.5-.11,1.41,1.41,0,0,1-.51.11h-5.6a1.28,1.28,0,0,1-.52-.12,1.2,1.2,0,0,1-.51.12H44.62a1.12,1.12,0,0,1-1.17-1.06v-.94a2,2,0,0,0,0-.35h-1v1.3a1.12,1.12,0,0,1-1.16,1.06H39.62a1.12,1.12,0,0,1-1.16-1.06V29.14a5.32,5.32,0,0,1-2.55.54H35v1.1a1.12,1.12,0,0,1-1.16,1.06H30.54a1.19,1.19,0,0,1-.86-.36l-1.22-1.25L27.18,31.5a1.21,1.21,0,0,1-.86.34H19.67a1.12,1.12,0,0,1-1.16-1.06V24.33a1.11,1.11,0,0,1,1.16-1.07h6.76a1.22,1.22,0,0,1,.86.35l1.22,1.25,1.27-1.26a1.2,1.2,0,0,1,.85-.34H36a5,5,0,0,1,2.6.59,1.15,1.15,0,0,1,1-.59H43.5a5.61,5.61,0,0,1,2.57.43,1.88,1.88,0,0,1,.23.16,1.15,1.15,0,0,1,1-.59h5.61a1.17,1.17,0,0,1,1,.55,4.17,4.17,0,0,1,2.21-.55h3.37a1.14,1.14,0,0,1,1.08.71A4,4,0,0,1,63,23.26h3.37a1.12,1.12,0,0,1,1.16,1.07V25.7a1,1,0,0,1-.53.89l0,0a2.68,2.68,0,0,1,.84,2.11c0,1.94-1.42,3.1-3.8,3.1Zm0,0"/><path class="cls-1" d="M38,16.68A1.82,1.82,0,0,0,39.19,15a1.49,1.49,0,0,0-.85-1.43,4.28,4.28,0,0,0-2-.31H32.44v6.45h1.68V17.33h1.8a1.81,1.81,0,0,1,1.23.27,1.84,1.84,0,0,1,.26,1.26v.81h1.7V18.41a1.79,1.79,0,0,0-.28-1.19,2,2,0,0,0-.84-.54Zm-1-.81a1.77,1.77,0,0,1-.83.13h-2V14.57h2.07a2,2,0,0,1,.8.11.61.61,0,0,1,.35.57.66.66,0,0,1-.35.62Zm0,0"/><rect class="cls-1" x="40.17" y="13.22" width="1.72" height="6.45"/><path class="cls-1" d="M60.05,13.22v4.5l-2.95-4.5H54.54v6.1l-2.85-6.1H49.18L46.8,18.3h-.75A1.7,1.7,0,0,1,44.88,18a2.06,2.06,0,0,1-.47-1.51A2,2,0,0,1,44.9,15a1.68,1.68,0,0,1,1.29-.38h1.59V13.22H46.16a3.62,3.62,0,0,0-2.55.75,3.29,3.29,0,0,0-.91,2.53A3.09,3.09,0,0,0,43.6,19a3.74,3.74,0,0,0,2.44.71h2l.63-1.43h3.49l.65,1.43H56.2V14.83l3.19,4.84h2.38V13.22ZM49.24,16.89l1.15-2.57,1.17,2.57Zm0,0"/><path class="cls-1" d="M46.2,15.67c-.4,0-.44,0-.49.08a1.56,1.56,0,0,0-.13.7,1.51,1.51,0,0,0,.13.75,1.83,1.83,0,0,0,.33,0l.73-1.56Zm0,0"/><path class="cls-1" d="M52.93,25.66V24.32H47.32v6.46h5.61V29.44H49V28.15h3.84V26.83H49V25.66Zm0,0"/><path class="cls-1" d="M36,24.33H30.63L28.5,26.44l-2.07-2.11H19.67v6.45h6.65l2.16-2.14,2.07,2.14h3.26V28.61h2.1c1.47,0,2.93-.37,2.93-2.16s-1.5-2.13-2.84-2.12ZM25.47,29.44H21.35V28.15H25V26.83H21.35V25.66h4.21l1.84,1.88Zm6.67.75-2.58-2.63L32.14,25ZM36,27.3H33.81V25.66H36c.61,0,1,.23,1,.79s-.4.85-1.05.85Zm0,0"/><path class="cls-1" d="M45.2,27.78a1.82,1.82,0,0,0,1.19-1.72,1.48,1.48,0,0,0-.86-1.43,4.48,4.48,0,0,0-2-.31H39.63v6.46h1.69V28.42h1.79c.61,0,1,0,1.23.29s.28.87.28,1.26v.81H46.3V29.5A1.72,1.72,0,0,0,46,28.32a1.75,1.75,0,0,0-.82-.54Zm-1-.8a1.79,1.79,0,0,1-.83.13h-2V25.66h2.07a1.85,1.85,0,0,1,.81.12.6.6,0,0,1,.34.58.7.7,0,0,1-.34.62Zm0,0"/><path class="cls-1" d="M59.35,27.37a2.91,2.91,0,0,0-1.92-.51l-.9,0a2.37,2.37,0,0,1-.66-.07.5.5,0,0,1-.36-.48.48.48,0,0,1,.25-.47,1.29,1.29,0,0,1,.67-.11h3.09V24.32H56.15c-1.77,0-2.4,1-2.4,1.92,0,2,2,2,3.53,2a.93.93,0,0,1,.6.14.53.53,0,0,1,.21.43.55.55,0,0,1-.2.42,1.07,1.07,0,0,1-.69.16H54v1.38h3.27c1.69,0,2.64-.64,2.64-2a1.7,1.7,0,0,0-.51-1.37Zm0,0"/><path class="cls-1" d="M21.61,13.22l-2,4.38-2.2-4.38H14.65v6.11l-2.86-6.11H9.29l-3,6.45H8.11l.65-1.44h3.5l.64,1.44h3.42V14.61l2.44,5.06h1.48l2.44-5.05v5.05h1.72V13.22ZM9.36,16.89l1.14-2.57,1.15,2.57Zm0,0"/><path class="cls-1" d="M31.27,14.56V13.22H25.66v6.45h5.61V18.34H27.34V17.05h3.84V15.73H27.34V14.56Zm0,0"/><path class="cls-1" d="M66.22,27.37a2.91,2.91,0,0,0-1.92-.51l-.91,0a2.34,2.34,0,0,1-.65-.07.5.5,0,0,1-.37-.48.49.49,0,0,1,.26-.47,1.25,1.25,0,0,1,.67-.11h3.08V24.32H63c-1.76,0-2.4,1-2.4,1.92,0,2,2,2,3.54,2a.93.93,0,0,1,.6.14.52.52,0,0,1,.2.43.57.57,0,0,1-.19.42,1.07,1.07,0,0,1-.69.16H60.81v1.38h3.28c1.69,0,2.64-.64,2.64-2a1.7,1.7,0,0,0-.51-1.37Zm0,0"/></svg>