<svg id="Layer_1" data-name="Layer 1" xmlns="http://www.w3.org/2000/svg" viewBox="0 0 73 44"><defs><style>.cls-1{fill:#0071bc;}.cls-2{fill:#fff;}</style></defs><rect class="cls-1" x="0.5" width="73" height="44" rx="3.8"/><path class="cls-2" d="M12.55,14,5.47,29.66h8.47L15,27.16h2.4l1.05,2.5h9.33V27.75l.83,1.91h4.82l.83-1.95v1.95H53.64L56,27.23l2.21,2.43,10,0-7.1-7.81L68.17,14h-9.8l-2.3,2.39L53.93,14H32.83L31,18l-1.85-4H20.71v1.84L19.77,14Zm1.63,2.22h4.13L23,26.84V16.22h4.52l3.63,7.62,3.34-7.62H39V27.46H36.26l0-8.8-4,8.8H29.79l-4-8.8v8.8H20.15l-1.07-2.52H13.31l-1.07,2.52h-3l5-11.24Zm27.32,0H52.64l3.41,3.68,3.51-3.68H63l-5.18,5.65L63,27.45H59.41L56,23.73l-3.53,3.72h-11Zm-25.31,1.9-1.9,4.49h3.8Zm28.06.43V20.6h6.08v2.29H44.25v2.24h6.82l3.17-3.3-3-3.28Zm0,0"/></svg>