<svg id="Layer_1" data-name="Layer 1" xmlns="http://www.w3.org/2000/svg" viewBox="0 0 73 44"><defs><style>.cls-1{fill:#9a9a9a;}</style></defs><path class="cls-1" d="M19.22,19.06a7.49,7.49,0,0,0-2.45.41l-.29,1.61a6.77,6.77,0,0,1,2.2-.33c.75,0,1.31.08,1.31.65a1.1,1.1,0,0,1-.07.47s-.6-.05-.87-.05c-1.75,0-3.59.69-3.59,2.77a1.85,1.85,0,0,0,2,2,2.67,2.67,0,0,0,2.07-.86l-.07.72H21.2l.8-5.14c0-2.19-2.06-2.26-2.78-2.26Zm-1,6a.71.71,0,0,1-.79-.71c0-.51.3-1.12,1.78-1.12a1.38,1.38,0,0,1,.44,0c0,.31-.21,1.79-1.43,1.79Zm0,0"/><path class="cls-1" d="M25.65,20.79c.28,0,1.38.08,1.38.08l.26-1.65a10.66,10.66,0,0,0-1.87-.14c-1.49,0-3,.55-3,2.43,0,2.14,2.53,1.92,2.53,2.83,0,.6-.71.65-1.25.65a6.71,6.71,0,0,1-1.8-.29l-.27,1.63a6.67,6.67,0,0,0,2.27.23c.45,0,3.06.11,3.06-2.37,0-2.32-2.41-1.86-2.41-2.79,0-.47.39-.61,1.11-.61Zm0,0"/><path class="cls-1" d="M29.9,21H31l.26-1.76h-1l.21-1.09h-2c-.05,0-1.2,6.14-1.2,6.88a1.44,1.44,0,0,0,1.62,1.58,5.53,5.53,0,0,0,1.51-.24l.26-1.59c-.14,0-.35.06-.53.06-.7,0-.78-.35-.73-.61Zm0,0"/><path class="cls-1" d="M38.38,10.81H34.77a21.53,21.53,0,0,0-1.35,1.87h6.43a17.51,17.51,0,0,0-1.47-1.87Zm0,0"/><path class="cls-1" d="M41,14.53H32.29c-.55,1-.92,1.69-1,1.87h10.5A17.35,17.35,0,0,0,41,14.53Zm0,0"/><path class="cls-1" d="M13,17.58,11,23l-.1-5.45H7.94L6.32,26.47H8.27L9.5,19.76l.18,6.71h1.4l2.6-6.71-1.16,6.71h2.07l1.6-8.89Zm0,0"/><path class="cls-1" d="M52,19.06a7.49,7.49,0,0,0-2.45.41l-.3,1.61a6.88,6.88,0,0,1,2.21-.33c.75,0,1.3.08,1.3.65a1.1,1.1,0,0,1-.07.47s-.59-.05-.87-.05c-1.75,0-3.58.69-3.58,2.77a1.84,1.84,0,0,0,1.95,2,2.7,2.7,0,0,0,2.08-.86l-.07.72H54l.79-5.14c0-2.19-2.06-2.26-2.77-2.26Zm-1,6a.71.71,0,0,1-.79-.71c0-.51.3-1.12,1.78-1.12a1.38,1.38,0,0,1,.44,0c0,.31-.21,1.79-1.43,1.79Zm0,0"/><path class="cls-1" d="M58.87,19.15c-.91,0-1.58,1.14-1.58,1.14l.18-1.05H55.59l-1.26,7.24H56.4c.59-3.09.7-5.6,2.1-5.14a6.87,6.87,0,0,1,.76-2.17s-.13,0-.39,0Zm0,0"/><path class="cls-1" d="M64.08,17.58l-.43,2.5a2.71,2.71,0,0,0-1.95-1c-1.86,0-3.4,2.07-3.4,4.43,0,1.53.82,3,2.5,3a2.6,2.6,0,0,0,1.89-.78l-.09.67h2l1.54-8.88Zm-2.56,7.18c-.73,0-1.07-.57-1.07-1.45,0-1.45.7-2.4,1.59-2.4.73,0,1.1.46,1.1,1.55s-.52,2.3-1.62,2.3Zm0,0"/><path class="cls-1" d="M71.59-.14H1.41A1.84,1.84,0,0,0-.5,1.62V42.38a1.84,1.84,0,0,0,1.91,1.76H71.59a1.84,1.84,0,0,0,1.91-1.76V1.62A1.84,1.84,0,0,0,71.59-.14ZM68.23,22c0,9.68-8.5,17.54-19,17.54A19.86,19.86,0,0,1,36.5,35a19.86,19.86,0,0,1-12.74,4.53c-10.48,0-19-7.86-19-17.54S13.22,4.53,23.64,4.46h.12A19.86,19.86,0,0,1,36.5,9,19.84,19.84,0,0,1,49.24,4.46c10.48,0,19,7.85,19,17.53Zm0,0"/><path class="cls-1" d="M34.55,33.09A17.5,17.5,0,0,0,36.49,35l0,0h0a18.07,18.07,0,0,0,1.93-1.88Zm0,0"/><path class="cls-1" d="M37.14,23.46a12.73,12.73,0,0,0,.26-1.7A2.59,2.59,0,0,0,34.52,19c-2,0-3.54,2-3.54,4.31,0,2.64,1.89,3.27,3.5,3.27a5.43,5.43,0,0,0,2.13-.31L37,24.5a6.73,6.73,0,0,1-2.15.46c-2.17,0-1.79-1.5-1.79-1.5Zm-2.61-2.75c1.14,0,.93,1.18.93,1.27H33.21a1.39,1.39,0,0,1,1.32-1.27Zm0,0"/><path class="cls-1" d="M46.62,19.28a3.84,3.84,0,0,1,1.86.53l.33-2a7.92,7.92,0,0,0-2.28-.45c-2.33,0-4.6,1.87-4.6,5.38,0,2.33,1.22,3.87,3.63,3.87a9.79,9.79,0,0,0,1.77-.26l.36-2a5.13,5.13,0,0,1-1.67.46,1.91,1.91,0,0,1-2-2.09c0-2.21,1.24-3.42,2.61-3.42Zm0,0"/><path class="cls-1" d="M32,29.4a16.07,16.07,0,0,0,1.12,1.88h6.74A18.48,18.48,0,0,0,41,29.4Zm0,0"/><path class="cls-1" d="M41.89,19.15c-.91,0-1.58,1.14-1.58,1.14l.18-1.05H38.61l-1.26,7.24h2.08c.58-3.09.69-5.6,2.1-5.14a6.67,6.67,0,0,1,.75-2.17,2.87,2.87,0,0,0-.39,0Zm0,0"/></svg>