<svg id="Layer_1" data-name="Layer 1" xmlns="http://www.w3.org/2000/svg" viewBox="0 0 73 44"><defs><style>.cls-1{fill:#fff;}.cls-2{fill:#ffb600;}.cls-3{fill:#ff5050;}</style></defs><rect class="cls-1" x="0.5" width="73" height="44" rx="12"/><path class="cls-2" d="M59.13,22A13.3,13.3,0,1,1,45.76,8.7,13.29,13.29,0,0,1,59.13,22Zm0,0"/><path class="cls-3" d="M28,8.7a13.3,13.3,0,0,0,.14,26.6A13.46,13.46,0,0,0,37,31.85a11.93,11.93,0,0,0,1.34-1.41H35.62a16.15,16.15,0,0,1-1-1.33h4.71a9.11,9.11,0,0,0,.78-1.41H33.86a8.12,8.12,0,0,1-.56-1.41h7.32a14,14,0,0,0,.7-4.22A18.2,18.2,0,0,0,41,19.26H32.88a10,10,0,0,1,.35-1.41h7.32A8.45,8.45,0,0,0,40,16.44h-6.2A15.35,15.35,0,0,1,34.57,15h4.71a6.66,6.66,0,0,0-1.05-1.4H35.62A12.11,12.11,0,0,1,37,12.29,13,13,0,0,0,28,8.84c0-.14,0-.14-.07-.14Zm0,0"/><path class="cls-1" d="M32.81,25.38l.21-1.2a3,3,0,0,1-.35.07c-.5,0-.57-.28-.5-.42l.43-2.46h.77L33.58,20h-.7l.14-.85H31.61s-.84,4.65-.84,5.21a1.05,1.05,0,0,0,1.12,1.2,2.16,2.16,0,0,0,.92-.21Zm0,0"/><path class="cls-1" d="M33.3,23.13a2.24,2.24,0,0,0,2.46,2.46,3.66,3.66,0,0,0,1.48-.21L37.52,24a4.2,4.2,0,0,1-1.47.35c-1.55,0-1.27-1.12-1.27-1.12h2.88A9.29,9.29,0,0,0,37.87,22a1.91,1.91,0,0,0-2-2c-1.47-.14-2.53,1.41-2.53,3.17Zm2.46-2c.78,0,.64.91.64,1H34.85c0-.07.14-1,.91-1Zm0,0"/><path class="cls-1" d="M44.7,25.38,45,23.83a3.44,3.44,0,0,1-1.19.35c-1,0-1.41-.77-1.41-1.62,0-1.69.84-2.6,1.83-2.6a2.39,2.39,0,0,1,1.27.42l.21-1.48a5,5,0,0,0-1.62-.35c-1.62,0-3.24,1.41-3.24,4.08,0,1.76.85,3,2.53,3a6.3,6.3,0,0,0,1.34-.21Zm0,0"/><path class="cls-1" d="M25.07,19.82a5,5,0,0,0-1.69.28l-.21,1.2A4,4,0,0,1,24.72,21c.49,0,.91.08.91.5s-.07.35-.07.35h-.63c-1.2,0-2.54.49-2.54,2.11,0,1.27.85,1.55,1.34,1.55a2.11,2.11,0,0,0,1.48-.63l-.07.56H26.4L27,21.58a1.67,1.67,0,0,0-1.9-1.76ZM25.35,23c0,.21-.14,1.33-1,1.33a.55.55,0,0,1-.56-.56c0-.35.21-.85,1.27-.85a1,1,0,0,0,.28.08Zm0,0"/><path class="cls-1" d="M28.3,25.52a1.81,1.81,0,0,0,2.12-1.83c0-1.76-1.69-1.41-1.69-2.11,0-.35.28-.49.77-.49.21,0,1,.07,1,.07l.21-1.27a5.46,5.46,0,0,0-1.34-.14c-1.06,0-2.11.42-2.11,1.83,0,1.62,1.76,1.48,1.76,2.11,0,.42-.49.49-.85.49A4.58,4.58,0,0,1,26.9,24l-.21,1.27c.07.14.42.28,1.61.28Zm0,0"/><path class="cls-1" d="M56.38,18.69l-.28,1.9a2,2,0,0,0-1.34-.7c-1.26,0-2.39,1.55-2.39,3.38,0,1.12.56,2.32,1.76,2.32A1.88,1.88,0,0,0,55.47,25l-.07.49h1.4l1.06-6.76Zm-.63,3.73c0,.78-.35,1.76-1.13,1.76-.49,0-.77-.42-.77-1.12,0-1.13.49-1.83,1.13-1.83s.77.35.77,1.19Zm0,0"/><path class="cls-1" d="M17.4,25.45l.84-5.07.14,5.07h1l1.83-5.07-.78,5.07H21.9L23,18.69H20.7l-1.4,4.15-.07-4.15h-2l-1.13,6.76Zm0,0"/><path class="cls-1" d="M39.21,25.45c.42-2.32.49-4.22,1.48-3.87A5.48,5.48,0,0,1,41.18,20H40.9c-.63,0-1.12.84-1.12.84l.14-.77H38.58l-.92,5.49h1.55Zm0,0"/><path class="cls-1" d="M47.94,19.82a5,5,0,0,0-1.69.28L46,21.3A4,4,0,0,1,47.59,21c.49,0,.91.08.91.5s-.07.35-.07.35H47.8c-1.2,0-2.54.49-2.54,2.11,0,1.27.85,1.55,1.34,1.55a2.11,2.11,0,0,0,1.48-.63l-.07.56h1.27l.56-3.87a1.64,1.64,0,0,0-1.9-1.76ZM48.29,23c0,.21-.14,1.33-1,1.33a.55.55,0,0,1-.56-.56c0-.35.21-.85,1.27-.85.21.08.21.08.28.08Zm0,0"/><path class="cls-1" d="M51,25.45c.43-2.32.5-4.22,1.48-3.87A5.48,5.48,0,0,1,53,20h-.28c-.63,0-1.12.84-1.12.84l.14-.77H50.4l-.91,5.49H51Zm0,0"/></svg>