<svg id="Layer_1" data-name="Layer 1" xmlns="http://www.w3.org/2000/svg" viewBox="0 0 73 44"><defs><style>.cls-1{fill:#fff;}.cls-2{fill:#32a6ce;}.cls-3{fill:#1a80ad;}.cls-4{fill:#21789e;}.cls-5{fill:#1a5b80;}.cls-6{fill:#06435e;}.cls-7{fill:#2273aa;}</style></defs><rect class="cls-1" width="73" height="44" rx="3.8"/><path class="cls-2" d="M54.72,16.67a16.5,16.5,0,0,0-3.58.58l-.29,2.23a13,13,0,0,1,3-.68c1.16,0,1.84.19,1.65,1.26-3.49,0-5.82.68-6.3,3-.68,3.87,3.59,4,5.23,2.23l-.19,1.06h3.1l1.36-6.3c.48-2.62-1.84-3.49-4-3.39Zm.2,6.49a1.7,1.7,0,0,1-1.65,1.17c-.68,0-1.26-.39-.87-1.17.39-.58,1.26-.58,1.94-.58h.77c-.1-.1-.19.29-.19.58Zm0,0"/><path class="cls-3" d="M50.85,19.48a13,13,0,0,1,3-.68c1.16,0,1.84.19,1.65,1.26-3.49,0-5.82.68-6.3,3-.68,3.87,3.59,4,5.23,2.23l-.19,1.06h3.1l1.36-6.3c.58-2.62-1.84-3.29-4-3.29m.2,6.39a1.7,1.7,0,0,1-1.65,1.17c-.68,0-1.26-.39-.87-1.17.39-.58,1.26-.58,1.94-.58h.77c-.1-.1-.19.29-.19.58Zm0,0"/><path class="cls-2" d="M61.32,13.76,58.8,26.36h3.1l2.62-12.6Zm0,0"/><path class="cls-3" d="M63.55,13.76,58.8,26.36h3.1l2.62-12.6h-1Zm0,0"/><path class="cls-2" d="M46.87,13.76H41.15l-2.52,12.6H42l.87-3.88h2.42a4.6,4.6,0,0,0,4.75-3.78c.49-2.81-1.55-4.94-3.2-4.94Zm-.09,4.36a2,2,0,0,1-1.94,1.46H43.29L44,16.67h1.65a1.1,1.1,0,0,1,1.17,1.45Zm0,0"/><path class="cls-3" d="M46.87,13.76H43l-4.45,12.6h3.39l.87-3.88h2.42A4.6,4.6,0,0,0,50,18.7c.59-2.81-1.45-4.94-3.1-4.94Zm-.09,4.36a2,2,0,0,1-1.94,1.46H43.29L44,16.67h1.65a1.1,1.1,0,0,1,1.17,1.45Zm0,0"/><path class="cls-4" d="M24.48,16.67a14.63,14.63,0,0,0-3.49.58l-.29,2.23a11.89,11.89,0,0,1,3-.68c1.17,0,1.85.19,1.65,1.26-3.39,0-5.72.68-6.2,3-.68,3.87,3.49,4,5.14,2.23l-.2,1.06h3.1l1.36-6.3c.49-2.62-1.94-3.49-4.07-3.39Zm.29,6.49c-.19.78-.87,1.07-1.65,1.17s-1.26-.39-.77-1.17c.38-.58,1.26-.58,1.84-.58H25c-.09-.1-.19.29-.19.58Zm0,0"/><path class="cls-5" d="M20.8,19.48a11.78,11.78,0,0,1,3-.68c1.16,0,1.84.19,1.65,1.26-3.39,0-5.72.68-6.21,3-.67,3.87,3.49,4,5.14,2.23l-.29,1.06h3.1l1.36-6.3c.58-2.62-1.84-3.29-4-3.29m.19,6.39c-.19.78-.87,1.07-1.65,1.17s-1.26-.39-.77-1.17c.38-.58,1.26-.58,1.84-.58H25c-.09-.1-.19.29-.19.58Zm0,0"/><path class="cls-4" d="M29.81,16.67h3.1l.49,5.43,3.1-5.43h3.2L32.33,30.24H28.84l2.23-4.07Zm0,0"/><polyline class="cls-5" points="32.91 16.86 33.4 22.19 36.5 16.67 39.7 16.67 32.33 30.24 28.84 30.24 31.07 26.27"/><path class="cls-4" d="M16.82,13.76H11L8.48,26.36h3.4l.87-3.88h2.42a4.6,4.6,0,0,0,4.75-3.78c.58-2.81-1.45-4.94-3.1-4.94Zm-.1,4.36a2,2,0,0,1-1.93,1.46H13.23l.68-2.91h1.65a1.09,1.09,0,0,1,1.16,1.45Zm0,0"/><path class="cls-5" d="M16.82,13.76H14.2L8.48,26.36h3.4l.87-3.88h2.42a4.6,4.6,0,0,0,4.75-3.78c.58-2.81-1.45-4.94-3.1-4.94Zm-.1,4.36a2,2,0,0,1-1.93,1.46H13.23l.68-2.91h1.65a1.09,1.09,0,0,1,1.16,1.45Zm0,0"/><path class="cls-6" d="M23.9,20.06c-2.62.2-4.36,1-4.75,2.91-.68,3.88,3.49,4,5.14,2.23l-.2,1.16h3.1L27.68,24Zm.87,3.1c-.19.78-.87,1.07-1.65,1.17s-1.26-.39-.77-1.17c.38-.58,1.26-.58,1.84-.58H25c-.09-.1-.19.29-.19.58Zm0,0"/><path class="cls-6" d="M33.59,22l-.19.29,2,1.94,4.27-7.56H36.5Zm0,0"/><path class="cls-6" d="M11.88,26.36l.87-3.88-4,3.88Zm0,0"/><path class="cls-7" d="M41.93,26.36l.87-4.07v.1l-4,4Zm0,0"/><path class="cls-7" d="M54.05,20.06c-2.62.2-4.37,1-4.75,2.91-.68,3.88,3.58,4,5.23,2.23l-.29,1.16h3.1L57.83,24Zm.87,3.1a1.7,1.7,0,0,1-1.65,1.17c-.68,0-1.26-.39-.87-1.17.39-.58,1.26-.58,1.94-.58h.77c-.1-.1-.19.29-.19.58Zm0,0"/><path class="cls-7" d="M61,20.64,58.8,26.36h3.1l.87-3.88Zm0,0"/></svg>