<svg id="Layer_1" data-name="Layer 1" xmlns="http://www.w3.org/2000/svg" viewBox="0 0 73 44"><defs><style>.cls-1{fill:#9a9a9a;}</style></defs><path class="cls-1" d="M15.88,17.94a2.64,2.64,0,0,0-1.33-.27h-.5a.76.76,0,0,0-.73.53L12.85,20a.44.44,0,0,0,.47.54h.37a3.43,3.43,0,0,0,1.94-.47,1.46,1.46,0,0,0,.69-1.32.88.88,0,0,0-.44-.84Zm0,0"/><path class="cls-1" d="M24.07,22.15l-1.13.11a6.31,6.31,0,0,0-1,.21l-.66.41a1,1,0,0,0-.22.68l.3.53a2,2,0,0,0,.87.15,2.19,2.19,0,0,0,.8-.16l.61-.28.23-.29c.1-.34.29-1.09.32-1.19Zm0,0"/><path class="cls-1" d="M72.09,0H1.91A1.83,1.83,0,0,0,0,1.75v40.5A1.83,1.83,0,0,0,1.91,44H72.09A1.83,1.83,0,0,0,74,42.25V1.75A1.83,1.83,0,0,0,72.09,0ZM17.67,21.34A7.72,7.72,0,0,1,13.3,22.4h-.44a.77.77,0,0,0-.74.54L11.6,25a.79.79,0,0,1-.74.54H9.33A.43.43,0,0,1,8.86,25L11,16.41a.79.79,0,0,1,.74-.53H15a10.74,10.74,0,0,1,1.81.13,3.93,3.93,0,0,1,1.33.45,2.21,2.21,0,0,1,.84.82,2.49,2.49,0,0,1,.29,1.27,3.2,3.2,0,0,1-1.56,2.79Zm9.51-1.09-.06.36L26,25.05a.79.79,0,0,1-.66.52H23.89a.42.42,0,0,1-.41-.52h0l.05-.23h0l-.58.35-.63.32-.74.24a4.74,4.74,0,0,1-1,.08A2.46,2.46,0,0,1,19,25.28,1.66,1.66,0,0,1,18.39,24a2.43,2.43,0,0,1,.43-1.47,3,3,0,0,1,1.32-1A8.16,8.16,0,0,1,22.09,21c.76-.1,1.39-.17,2.26-.22l.22-.13,0-.2a.65.65,0,0,0-.46-.63,4.16,4.16,0,0,0-1.4-.19,7.86,7.86,0,0,0-1.44.18,8.6,8.6,0,0,0-.91.25c-.12,0-.41.06-.3-.4l.19-.7a.85.85,0,0,1,.67-.66l.79-.13a12.89,12.89,0,0,1,1.85-.13,6.23,6.23,0,0,1,2.74.45,1.45,1.45,0,0,1,.88,1.39ZM29.65,29H28.06c-.33,0-.44-.24-.24-.53l1.36-2.18s.11-.12,0-.83c-.21-1.28-1.25-6.73-1.25-6.73a.43.43,0,0,1,.46-.54h1.37a.85.85,0,0,1,.84.55l.68,3.78h.25L34,18.71a1.38,1.38,0,0,1,1-.54h1.84c.54,0,0,.81,0,.81l-6.11,9.48a1.34,1.34,0,0,1-1,.53Zm15.87-7.61a7.81,7.81,0,0,1-4.38,1.06H40.7A.76.76,0,0,0,40,23l-.52,2.09a.8.8,0,0,1-.74.53H37.17a.42.42,0,0,1-.46-.53l2.16-8.61a.79.79,0,0,1,.73-.54h3.21a11.66,11.66,0,0,1,1.8.13,3.66,3.66,0,0,1,1.33.45,2.19,2.19,0,0,1,.85.83,2.57,2.57,0,0,1,.29,1.27,3.24,3.24,0,0,1-1.56,2.79ZM55,20.25l-.06.37-1.12,4.43a.76.76,0,0,1-.65.53H51.75a.42.42,0,0,1-.41-.53h0l0-.22h0l-.58.35-.63.32-.74.23a4.58,4.58,0,0,1-1,.09,2.5,2.5,0,0,1-1.61-.51A1.66,1.66,0,0,1,46.24,24a2.41,2.41,0,0,1,.44-1.47A3.07,3.07,0,0,1,48,21.53,7.41,7.41,0,0,1,49.94,21c.76-.1,1.39-.18,2.27-.23l.22-.12,0-.2a.65.65,0,0,0-.46-.64,4.09,4.09,0,0,0-1.39-.18,7,7,0,0,0-1.44.18,9.33,9.33,0,0,0-.91.24c-.13,0-.41.06-.3-.39l.18-.71a.84.84,0,0,1,.68-.65,7.11,7.11,0,0,1,.79-.13,12.7,12.7,0,0,1,1.85-.14,6.29,6.29,0,0,1,2.74.45,1.48,1.48,0,0,1,.88,1.39Zm4.91-3.73-2,8.53-.07.1a.78.78,0,0,1-.67.44H55.73l0,0a.41.41,0,0,1-.38-.5h0l.06-.25,1.92-8,.07-.28.07-.11A.78.78,0,0,1,58.1,16h1.38a.43.43,0,0,1,.46.53Zm5.21-.64"/><path class="cls-1" d="M51.92,22.16c-.09,0-.78.07-1.13.11a5.74,5.74,0,0,0-1,.21,1.55,1.55,0,0,0-.65.41,1,1,0,0,0-.22.68l.3.53a1.94,1.94,0,0,0,.87.15,2.27,2.27,0,0,0,.8-.16l.59-.28.25-.29c.09-.35.29-1.1.31-1.19Zm0,0"/><path class="cls-1" d="M43.72,18a2.62,2.62,0,0,0-1.33-.27h-.5a.77.77,0,0,0-.73.53l-.46,1.83a.43.43,0,0,0,.47.54h.38a3.42,3.42,0,0,0,1.93-.47,1.48,1.48,0,0,0,.69-1.32.91.91,0,0,0-.45-.84Zm0,0"/></svg>