<svg id="Layer_1" data-name="Layer 1" xmlns="http://www.w3.org/2000/svg" viewBox="0 0 73 44"><defs><style>.cls-1{fill:#fff;}.cls-2{fill:#32a6ce;}</style></defs><rect class="cls-1" width="73" height="44" rx="12"/><path class="cls-2" d="M55.68,17.68a17.54,17.54,0,0,0-3.79.61l-.3,2.35a13.51,13.51,0,0,1,3.17-.71c1.22,0,1.94.2,1.73,1.33-3.68,0-6.13.71-6.64,3.16-.72,4.09,3.78,4.19,5.52,2.36l-.21,1.12h3.28l1.43-6.64c.51-2.76-1.95-3.68-4.19-3.58Zm.2,6.85c-.2.81-.92,1.12-1.74,1.22s-1.33-.41-.92-1.22c.41-.62,1.33-.62,2.05-.62h.81c-.1-.1-.2.31-.2.62Zm0,0"/><path class="cls-2" d="M62.63,14.61,60,27.9h3.27L66,14.61Zm0,0"/><path class="cls-2" d="M47.4,14.61h-6L38.71,27.9h3.58l.92-4.09h2.55a4.86,4.86,0,0,0,5-4c.51-3-1.64-5.21-3.37-5.21Zm-.11,4.6a2.07,2.07,0,0,1-2,1.53H43.62l.71-3.06h1.74a1.15,1.15,0,0,1,1.22,1.53Zm0,0"/><path class="cls-2" d="M23.79,17.68a15.38,15.38,0,0,0-3.68.61l-.31,2.35A12.35,12.35,0,0,1,23,19.93c1.22,0,1.94.2,1.74,1.33-3.58,0-6,.71-6.55,3.16-.71,4.09,3.68,4.19,5.42,2.36l-.2,1.12h3.27l1.43-6.64c.51-2.76-2-3.68-4.29-3.58Zm.3,6.85c-.2.81-.92,1.12-1.74,1.22s-1.32-.41-.81-1.22c.41-.62,1.33-.62,1.94-.62h.82c-.11-.1-.21.31-.21.62Zm0,0"/><path class="cls-2" d="M29.41,17.68h3.27l.51,5.72,3.27-5.72h3.37L32.06,32H28.38l2.36-4.3Zm0,0"/><path class="cls-2" d="M15.71,14.61H9.58L6.92,27.9H10.5l.92-4.09H14a4.85,4.85,0,0,0,5-4c.61-3-1.53-5.21-3.27-5.21Zm-.1,4.6a2.09,2.09,0,0,1-2,1.53H11.93l.71-3.06h1.74a1.16,1.16,0,0,1,1.23,1.53Zm0,0"/></svg>