<svg id="Layer_1" data-name="Layer 1" xmlns="http://www.w3.org/2000/svg" viewBox="0 0 73 44"><defs><style>.cls-1{fill:#fff;}.cls-2{fill:#6974e5;}.cls-3{fill:#6a74e5;}.cls-4{fill:#6671e4;}.cls-5{fill:#707ae6;}.cls-6{fill:#6f79e5;}.cls-7{fill:#fafafd;}.cls-8{fill:#f8f8fd;}</style></defs><rect class="cls-1" x="0.5" width="73" height="44" rx="3.8"/><path class="cls-2" d="M40.31,24.56V17.63c0-2.18,1.38-3.14,3.33-2a1.31,1.31,0,0,0,1.47,0c9.61-3.71,10.09,16.62.35,13.54-1.13-.38-1.25,0-1.18.89,0,.39,0,.79,0,1.18a2.87,2.87,0,0,1-3.49,2.39c-.7-.28-.46-.88-.46-1.36C40.3,29.71,40.31,27.14,40.31,24.56Zm4-2.29c.16,1.34-.61,3.28,1.21,3.72,4.15.94,4.22-7.95.16-7.32C43.7,19,44.39,20.89,44.28,22.27Z"/><path class="cls-2" d="M63.59,22.93a2.13,2.13,0,0,1-1.29.82,30.75,30.75,0,0,1-3.72,0c-.42,0-1-.21-1.16.42s.2.88.54,1.21c1.15,1.12,2.59.68,3.95.69.82,0,2-.74,2.2.76a2,2,0,0,1-1.73,2.41c-3.46.88-6.57-.07-8.09-2.57S53,19.4,55,17.15a5.59,5.59,0,0,1,6.33-1.63,5.05,5.05,0,0,1,3,6.21A4.05,4.05,0,0,1,63.59,22.93Zm-4.7-1.53c1,0,2.15-.47,2.29-1.08.21-.94-.59-1.85-1.81-1.87a1.86,1.86,0,0,0-2.07,1.88C57.21,21.12,58,21.42,58.89,21.4Z"/><path class="cls-2" d="M8.29,25.22a.35.35,0,0,1,.14-.06c1.32-.16,2.63,1.05,4,1,.61,0,1.27,0,1.48-.72s-.42-1-1-1.29c-.78-.36-1.6-.62-2.39-1-3.57-1.21-3.27-6.48.25-7.56a8.48,8.48,0,0,1,5.45,0c1.83.54,1,2.17.86,3.19-.09.86-.75.46-1.27.25-.85-.34-3.18-1.16-3.61.16-.48,1.51,1.49,1.44,2.46,1.86,2.42,1.05,3.44,2.29,3.31,4.37,0,2.91-3.71,4.57-6.56,4.13-.9-.14-2.45-.16-3.06-1C8.09,28.13,7.75,25.65,8.29,25.22Z"/><path class="cls-3" d="M18.82,19.92c0-2-.45-4.62.35-6.45a2.88,2.88,0,0,1,2.38-1.83c2.07.1.2,4.15,2.66,3.74,1.39-.23,1.5.59,1.45,1.65s.14,2-1.34,1.79-1.65.79-1.58,2a26,26,0,0,1,0,2.65,5.47,5.47,0,0,0,0,1.28c.18,1,.83,1.22,1.73,1.28.72,0,1.24.1,1.11,1s.51,1.73-.66,2.24a4.33,4.33,0,0,1-6.13-3.82C18.77,23.62,18.82,21.77,18.82,19.92Z"/><path class="cls-4" d="M27,22.2c0-1.85-.44-3.94.25-5.71a2,2,0,0,1,.58-.87,1.7,1.7,0,0,1,1.69-.14,3.77,3.77,0,0,1,1.34,1.14c-.14-.23.11-.51.35-.64.7-.41,2-.92,2.56,0,.37.63.06,1.55.09,2.23,0,1-.79.65-1.3.73a1.86,1.86,0,0,0-1.79,2.15c.07,2.24-.08,4.5.05,6.73.11,1.8-1.05,1.4-2.06,1.46s-1.89,0-1.79-1.53C27.13,25.9,27,24.05,27,22.2Z"/><path class="cls-5" d="M35.19,15.82a1,1,0,0,1,.51-.43c.73-.28,1.63,0,2.38,0s.71.63.71,1.15c0,3.82,0,7.65,0,11.47,0,1.55-1,1.3-1.83,1.24s-2.09.54-2.06-1.22c.07-3.21.08-6.43.09-9.65C35,17.69,34.78,16.5,35.19,15.82Z"/><path class="cls-6" d="M38.9,11.78a1.86,1.86,0,0,1-.75,1.73,3.84,3.84,0,0,1-2.82.53c-.75-.38-.46-.71-.49-1.46-.05-1,1.62-1.81,2.45-1.94A1.27,1.27,0,0,1,38.9,11.78Z"/><path class="cls-7" d="M44.28,22.27c.11-1.38-.58-3.28,1.37-3.6a2.25,2.25,0,0,1,2.58,1.65c1,2.08.27,6.28-2.74,5.67C43.67,25.55,44.44,23.61,44.28,22.27Z"/><path class="cls-8" d="M58.89,21.31c-1,0-1.7,0-1.59-1a1.86,1.86,0,0,1,2.07-1.88c1.22,0,2,.93,1.81,1.87C60.92,21.45,59.45,21,58.89,21.31Z"/></svg>