<svg id="Layer_1" data-name="Layer 1" xmlns="http://www.w3.org/2000/svg" viewBox="0 0 73 44"><defs><style>.cls-1{fill:#fff;}.cls-2{fill:#0057a0;}</style></defs><rect class="cls-1" width="73" height="44" rx="12"/><path class="cls-2" d="M17.44,26.53a5,5,0,0,1-1,3.18A3.46,3.46,0,0,1,14.63,31a5.19,5.19,0,0,1-1.5.2,4.21,4.21,0,0,1-2.61-.78,4.44,4.44,0,0,1-1.37-1.74,7,7,0,0,1-.59-2.52l2.56-.19a3.92,3.92,0,0,0,.82,2.26,1.37,1.37,0,0,0,1.11.5,1.67,1.67,0,0,0,1.41-.87,2.15,2.15,0,0,0,.27-1.18,3.28,3.28,0,0,0-1-2.2l-2.39-2.26a10.23,10.23,0,0,1-1.89-2.32,5.33,5.33,0,0,1-.6-2.5,4.34,4.34,0,0,1,1.64-3.68,4,4,0,0,1,2.5-.76,4.64,4.64,0,0,1,2.46.64A3.74,3.74,0,0,1,16.72,15,5.21,5.21,0,0,1,17.31,17l-2.57.47a3.05,3.05,0,0,0-.63-1.7,1.28,1.28,0,0,0-1.06-.44,1.23,1.23,0,0,0-1.12.65,2.52,2.52,0,0,0-.32,1.31,3.88,3.88,0,0,0,1.06,2.48,8.33,8.33,0,0,0,1.19,1.14c.62.52,1,.89,1.23,1.09a9.2,9.2,0,0,1,1.54,2,7.93,7.93,0,0,1,.41.84A4.82,4.82,0,0,1,17.44,26.53Z"/><path class="cls-2" d="M22.14,15.86H19.29v-2.7h8.38v2.7H24.83V31H22.14Z"/><path class="cls-2" d="M34.06,13.16a4.07,4.07,0,0,1,3.29,1.24,4.46,4.46,0,0,1,.93,3V20a4.16,4.16,0,0,1-1.44,3.2l2,7.77h-2.9L34.3,24.25H32.51V31H29.82V13.16Zm1.6,4.29a1.36,1.36,0,0,0-1.53-1.55H32.51v5.7h1.62a1.43,1.43,0,0,0,1.08-.46,1.48,1.48,0,0,0,.45-1.09Z"/><path class="cls-2" d="M43.82,31H41.13V13.16h2.69Z"/><path class="cls-2" d="M50.45,13.16a4,4,0,0,1,3.12,1.24,4.27,4.27,0,0,1,1.08,3V20a4.12,4.12,0,0,1-1.23,3,4,4,0,0,1-3,1.25H48.9V31H46.22V13.16Zm1.6,4.29a1.56,1.56,0,0,0-.41-1.12,1.49,1.49,0,0,0-1.12-.43H48.9v5.7h1.62a1.45,1.45,0,0,0,1.09-.46,1.47,1.47,0,0,0,.44-1.09Z"/><path class="cls-2" d="M56.8,31V13.15h7.64v2.69h-5V20.7h3.63v2.7H59.48v4.86h5V31Z"/></svg>