<svg id="Layer_1" data-name="Layer 1" xmlns="http://www.w3.org/2000/svg" viewBox="0 0 73 44"><defs><style>.cls-1{fill:#9a9a9a;}.cls-2{fill:#fff;}</style></defs><rect class="cls-1" x="-0.5" width="75" height="45" rx="1.56"/><path class="cls-2" d="M10.16,23.25a1,1,0,0,1,.83.51,2.48,2.48,0,0,0,2.38,1c1.54,0,2-.5,2-1.18s-.46-1.14-2.53-1.52c-3.43-.62-4.05-1.81-4.05-3.23,0-2.11,1.9-3.18,4.23-3.18,2.08,0,3.23.7,3.84,1.53A1,1,0,0,1,16,18.74h-.36a.93.93,0,0,1-.81-.44c-.24-.41-.73-.79-1.93-.79s-1.71.39-1.71,1.07.4.92,2.25,1.27c3.75.72,4.34,1.94,4.34,3.47,0,1.82-1.34,3.3-4.65,3.3-2.2,0-3.54-.74-4.23-1.86a1,1,0,0,1,.84-1.51Z"/><path class="cls-2" d="M21.54,17.9H19a.49.49,0,0,1-.49-.49V16.34a.48.48,0,0,1,.49-.48h8.35a.48.48,0,0,1,.49.48v1.07a.49.49,0,0,1-.49.49H24.91a.49.49,0,0,0-.49.48v7.55a.49.49,0,0,1-.49.48H22.51a.49.49,0,0,1-.49-.48V18.38A.48.48,0,0,0,21.54,17.9Z"/><path class="cls-2" d="M31.79,22.86v3a.51.51,0,0,1-.51.51H29.93a.51.51,0,0,1-.51-.51V16.37a.51.51,0,0,1,.51-.51h4.86c2.28,0,3.58,1.2,3.58,3a2.49,2.49,0,0,1-1,2.11.51.51,0,0,0-.06.79,2.57,2.57,0,0,1,.78,2.08v.53c0,.49,0,1,0,1.46a.52.52,0,0,1-.51.57H36.18a.5.5,0,0,1-.5-.41,12,12,0,0,1-.08-1.8v-.34c0-1.07-.37-1.52-1.81-1.52H32.3A.51.51,0,0,0,31.79,22.86Zm0-2.95a.51.51,0,0,0,.51.51h2c1.16,0,1.66-.44,1.66-1.33s-.51-1.31-1.64-1.31h-2a.51.51,0,0,0-.51.51Z"/><path class="cls-2" d="M42.78,16.35v9.57a.49.49,0,0,1-.49.49H40.87a.49.49,0,0,1-.49-.49V16.35a.49.49,0,0,1,.49-.49h1.42A.49.49,0,0,1,42.78,16.35Z"/><path class="cls-2" d="M45.37,16.17a.3.3,0,0,1,.3-.31h4.8c2.3,0,3.82,1.24,3.82,3.31s-1.44,3.46-3.86,3.46H48.08a.3.3,0,0,0-.31.3V26.1a.3.3,0,0,1-.3.31h-1.8a.3.3,0,0,1-.3-.31Zm2.4,4.16a.31.31,0,0,0,.31.31h2.17c1,0,1.65-.38,1.65-1.42,0-.86-.49-1.39-1.65-1.39H48.08a.31.31,0,0,0-.31.31Z"/><path class="cls-2" d="M62.85,22H59.34a1,1,0,0,0-1,1v.4a1,1,0,0,0,1,1h4a1,1,0,0,1,1,1.13v.05a1,1,0,0,1-1,.87H57a1,1,0,0,1-1-1V16.86a1,1,0,0,1,1-1h6.2a1,1,0,0,1,1,1v.05a1,1,0,0,1-1,1H59.34a1,1,0,0,0-1,1h0a1,1,0,0,0,1,1h3.51a1,1,0,0,1,1,1V21A1,1,0,0,1,62.85,22Z"/></svg>