<svg id="Layer_1" data-name="Layer 1" xmlns="http://www.w3.org/2000/svg" viewBox="0 0 73 44"><defs><style>.cls-1{fill:#fff;}.cls-2{fill:#00579f;}.cls-3{fill:#efc75e;}</style></defs><rect class="cls-1" x="0.5" width="73" height="44" rx="3.8"/><path class="cls-2" d="M32.24,14.7,29.9,29.27h3.74L36,14.7Zm11.29,5.94c-1.31-.65-2.11-1.09-2.11-1.75s.68-1.21,2.16-1.21a6.47,6.47,0,0,1,2.79.54l.34.15.5-3.05a9.29,9.29,0,0,0-3.35-.6c-3.7,0-6.3,1.92-6.32,4.67,0,2,1.86,3.15,3.28,3.83s1.94,1.14,1.94,1.75c0,1-1.17,1.38-2.25,1.38A7.57,7.57,0,0,1,37,25.6l-.49-.22L36,28.55a11.69,11.69,0,0,0,4.17.75c3.93,0,6.48-1.89,6.51-4.82,0-1.61-1-2.84-3.14-3.84Zm13.28-5.89h-2.9A1.84,1.84,0,0,0,52,15.92L46.4,29.27h3.93l1.08-2.89H55.8l.56,2.9h3.47ZM52.5,23.46c.07,0,1.5-4.72,1.5-4.72l1.14,4.72ZM26.77,14.7l-3.66,9.9-.4-2a10.9,10.9,0,0,0-5.18-5.92l3.36,12.53h4L30.73,14.7Zm0,0"/><path class="cls-3" d="M21.47,16.58A2.44,2.44,0,0,0,19,14.7H13.23l-.06.27c4.53,1.12,8.34,4.56,9.57,7.79Zm0,0"/></svg>