<svg id="Layer_1" data-name="Layer 1" xmlns="http://www.w3.org/2000/svg" viewBox="0 0 73 44"><defs><style>.cls-1{fill:#9a9a9a;}</style></defs><path class="cls-1" d="M71.59,0H1.41A1.84,1.84,0,0,0-.5,1.75V42.39a1.84,1.84,0,0,0,1.91,1.75H71.59a1.84,1.84,0,0,0,1.91-1.75V1.75A1.84,1.84,0,0,0,71.59,0ZM5.23,13.34h7.9c1.06,0,1.92.35,2.22,1.4l1.71,7.6c-1.68-4-5.75-7.29-11.9-8.66Zm9.56,17.34L10.22,16.33a19.09,19.09,0,0,1,7.06,7.13l.53,1.78,5-11.74h5.4l-8,17.18Zm17.38,0h-5.1l3.19-17.2h5.1ZM41,31A17.32,17.32,0,0,1,35.36,30l.71-3.85.66.27a11.36,11.36,0,0,0,4.8.91c1.46,0,3-.53,3-1.68,0-.76-.65-1.29-2.64-2.14s-4.49-2.2-4.46-4.67c0-3.35,3.58-5.68,8.61-5.68a14.36,14.36,0,0,1,4.56.72L50,17.64l-.46-.2a10.2,10.2,0,0,0-3.82-.65c-2,0-2.92.76-2.92,1.48s1.08,1.33,2.87,2.13c2.93,1.23,4.29,2.72,4.27,4.67C49.87,28.64,46.39,31,41,31Zm22.08-.25s-.47-2-.62-2.58H56c-.19.47-1.07,2.59-1.07,2.59H49.54l7.57-15.77a2.58,2.58,0,0,1,2.67-1.43h3.93l4.13,17.2Zm0,0"/><path class="cls-1" d="M60.48,19.63l-.34-1.49c-.26.65-.71,1.69-.68,1.65l-2,4.81h4.23c-.21-.87-1.18-5-1.18-5Zm0,0"/></svg>