<svg xmlns="http://www.w3.org/2000/svg" xmlns:xlink="http://www.w3.org/1999/xlink" viewBox="0 0 3710 3710"><defs><style>.cls-1{fill:#91b3fa;}.cls-2{fill:#7d97f4;}.cls-3{isolation:isolate;}.cls-4,.cls-7{fill:#fff;}.cls-5{fill:url(#linear-gradient);}.cls-6{clip-path:url(#clip-path);}.cls-7{opacity:0.7;mix-blend-mode:soft-light;}.cls-8{clip-path:url(#clip-path-2);}.cls-9{fill:url(#linear-gradient-2);}.cls-10{fill:url(#linear-gradient-3);}.cls-11{fill:#e6e6e6;}.cls-12{fill:#bdd0fb;}.cls-13{fill:url(#linear-gradient-4);}.cls-14{fill:url(#linear-gradient-5);}.cls-15{fill:url(#linear-gradient-6);}.cls-16{fill:url(#linear-gradient-7);}.cls-17{fill:url(#linear-gradient-8);}.cls-18{fill:url(#linear-gradient-9);}.cls-19{fill:url(#linear-gradient-10);}.cls-20{fill:url(#linear-gradient-11);}.cls-21{fill:url(#linear-gradient-12);}.cls-22{fill:url(#linear-gradient-13);}.cls-23{fill:url(#linear-gradient-14);}.cls-24{fill:url(#linear-gradient-15);}.cls-25{fill:url(#linear-gradient-16);}.cls-26{fill:url(#linear-gradient-17);}.cls-27{fill:url(#linear-gradient-18);}.cls-28{fill:url(#linear-gradient-19);}.cls-29{fill:url(#linear-gradient-20);}.cls-30{fill:url(#linear-gradient-21);}.cls-31{fill:url(#linear-gradient-22);}.cls-32{fill:url(#linear-gradient-23);}.cls-33{fill:url(#linear-gradient-24);}.cls-34{fill:url(#linear-gradient-25);}.cls-35{fill:url(#linear-gradient-26);}.cls-36{fill:url(#linear-gradient-27);}</style><linearGradient id="linear-gradient" x1="3834.75" y1="3756.22" x2="1483.37" y2="1218.22" gradientTransform="translate(11.72 6.44) rotate(1.2)" gradientUnits="userSpaceOnUse"><stop offset="0" stop-color="#dae3fe"/><stop offset="1" stop-color="#e9effd"/></linearGradient><clipPath id="clip-path"><path class="cls-1" d="M1924.35,2396.75c67.13-151.05-40.06-377.94-154.31-505-133.39-148.32-222.87-101-317.63-224.41-176.44-229.79,61.37-488.08-98.18-733.92-130.44-201-338.86-104.62-473.18-333.76-96.92-165.34-35-295-166.77-411.1C703,178.67,580,73.36,449,109.69c-132.16,36.66-195.08,196.17-209.5,303C212.87,610.25,347.91,657.37,402.23,903.13c73.95,334.6-132.58,445.31-27.2,680.43,87,194.15,247.92,163.44,340.13,380.62,85.62,201.68-22,301.45,48.59,431.61C926.18,2695.23,1787.42,2704.85,1924.35,2396.75Z"/></clipPath><clipPath id="clip-path-2"><path class="cls-2" d="M1629.08,2791.89c21.92-116.54-90.39-257.23-191.14-327-117.61-81.51-172.26-33.69-258.8-104.2-161.13-131.27-37.78-350.86-189.77-496.13-124.25-118.76-253.84-17.07-385.46-154.84-95-99.42-73.14-200.15-184.32-259.45-9.51-5.06-112.79-58.26-198.21-11.27-86.2,47.43-103.77,169.17-96.19,246.15,14,142.31,116.06,152.9,194.58,315.49,106.89,221.37-19,332.77,93.4,479.5,92.82,121.17,200.07,73.15,300.32,209.54,93.08,126.65,34.42,214.07,105.21,293.28C981.55,3165.13,1584.38,3029.59,1629.08,2791.89Z"/></clipPath><linearGradient id="linear-gradient-2" x1="2238.91" y1="-381.81" x2="1982.78" y2="3372.03" gradientUnits="userSpaceOnUse"><stop offset="0" stop-color="#09005d"/><stop offset="1" stop-color="#1a0f91"/></linearGradient><linearGradient id="linear-gradient-3" x1="1197.69" y1="1840.31" x2="2945.85" y2="1840.31" gradientTransform="matrix(1, 0, 0, 1, 0, 0)" xlink:href="#linear-gradient"/><linearGradient id="linear-gradient-4" x1="-3011.31" y1="3441.44" x2="-2806.24" y2="3441.44" gradientTransform="matrix(-1, 0, 0, 1, 83.01, 0)" gradientUnits="userSpaceOnUse"><stop offset="0" stop-color="#4f52ff"/><stop offset="1" stop-color="#4042e2"/></linearGradient><linearGradient id="linear-gradient-5" x1="-3011.32" y1="3401.25" x2="-2812.04" y2="3401.25" gradientTransform="matrix(-1, 0, 0, 1, 83.01, 0)" xlink:href="#linear-gradient-2"/><linearGradient id="linear-gradient-6" x1="-2992.38" y1="3345.14" x2="-2934.62" y2="3345.14" gradientTransform="matrix(-1, 0, 0, 1, 83.01, 0)" gradientUnits="userSpaceOnUse"><stop offset="0" stop-color="#febbba"/><stop offset="1" stop-color="#ff928e"/></linearGradient><linearGradient id="linear-gradient-7" x1="-3420.13" y1="3437.02" x2="-3341.54" y2="3437.02" xlink:href="#linear-gradient-4"/><linearGradient id="linear-gradient-8" x1="-3419.55" y1="3376.51" x2="-3304.21" y2="3376.51" gradientTransform="matrix(-1, 0, 0, 1, 83.01, 0)" xlink:href="#linear-gradient-2"/><linearGradient id="linear-gradient-9" x1="-3359.6" y1="3296.99" x2="-3290.57" y2="3296.99" xlink:href="#linear-gradient-6"/><linearGradient id="linear-gradient-10" x1="4051.9" y1="2461.82" x2="3601.7" y2="2689.91" gradientTransform="matrix(1, 0, 0, 1, 0, 0)" xlink:href="#linear-gradient-4"/><linearGradient id="linear-gradient-11" x1="17015.43" y1="-19518.38" x2="16399.12" y2="-18846.05" gradientTransform="matrix(-1, 0, 0, 1, 83.01, 0)" gradientUnits="userSpaceOnUse"><stop offset="0" stop-color="#ff928e"/><stop offset="1" stop-color="#5070ff"/></linearGradient><linearGradient id="linear-gradient-12" x1="-3126.97" y1="3041.34" x2="-3093.89" y2="2975.18" gradientTransform="matrix(-1, 0, 0, 1, 83.01, 0)" gradientUnits="userSpaceOnUse"><stop offset="0" stop-color="#53d8ff"/><stop offset="1" stop-color="#3840f7"/></linearGradient><linearGradient id="linear-gradient-13" x1="-3043.33" y1="2290.75" x2="-3289.07" y2="2508.37" xlink:href="#linear-gradient-6"/><linearGradient id="linear-gradient-14" x1="16868.63" y1="-19652.92" x2="16252.33" y2="-18980.6" gradientTransform="matrix(-1, 0, 0, 1, 83.01, 0)" gradientUnits="userSpaceOnUse"><stop offset="0" stop-color="#ff928e"/><stop offset="1" stop-color="#004caa"/></linearGradient><linearGradient id="linear-gradient-15" x1="17168.96" y1="-19377.65" x2="16552.66" y2="-18705.32" xlink:href="#linear-gradient-14"/><linearGradient id="linear-gradient-16" x1="-2582.66" y1="2311.34" x2="-2389.12" y2="2311.34" xlink:href="#linear-gradient-6"/><linearGradient id="linear-gradient-17" x1="-2770.77" y1="1794.15" x2="-2772.89" y2="2155.56" xlink:href="#linear-gradient-6"/><linearGradient id="linear-gradient-18" x1="-2948.04" y1="2823.77" x2="-3125.95" y2="3059.11" gradientTransform="matrix(-0.99, -0.14, -0.14, 0.99, 222.07, -1480.94)" xlink:href="#linear-gradient-6"/><linearGradient id="linear-gradient-19" x1="2401.81" y1="1233.44" x2="3014.73" y2="2131.84" xlink:href="#linear-gradient-2"/><linearGradient id="linear-gradient-20" x1="-3208.6" y1="3010.14" x2="-3065.91" y2="2863.75" gradientTransform="matrix(-0.99, -0.14, -0.14, 0.99, 222.07, -1480.94)" xlink:href="#linear-gradient-6"/><linearGradient id="linear-gradient-21" x1="-2409.68" y1="2288.61" x2="-2340.38" y2="2288.61" xlink:href="#linear-gradient-6"/><linearGradient id="linear-gradient-22" x1="-1839.85" y1="2016.08" x2="-4072.54" y2="3644.79" gradientTransform="matrix(-1, 0.05, 0.05, 1, 47.82, 41.76)" xlink:href="#linear-gradient-2"/><linearGradient id="linear-gradient-23" x1="-1761.55" y1="2378.6" x2="-1467.46" y2="2122.97" gradientTransform="matrix(-1, 0.05, 0.05, 1, 47.82, 41.76)" xlink:href="#linear-gradient-2"/><linearGradient id="linear-gradient-24" x1="-2946.29" y1="2400.34" x2="-3192.03" y2="2617.96" xlink:href="#linear-gradient-6"/><linearGradient id="linear-gradient-25" x1="1306.14" y1="1002.69" x2="2809.54" y2="1002.69" gradientUnits="userSpaceOnUse"><stop offset="0" stop-color="#7d97f4"/><stop offset="1" stop-color="#4042e2"/></linearGradient><linearGradient id="linear-gradient-26" x1="786.62" y1="1362.86" x2="787.21" y2="1362.86" xlink:href="#linear-gradient-25"/><linearGradient id="linear-gradient-27" x1="1599.78" y1="574.17" x2="2199.95" y2="1115.98" gradientUnits="userSpaceOnUse"><stop offset="0" stop-color="#7d97f4"/><stop offset="1" stop-color="#4042e2"/></linearGradient></defs><g class="cls-3"><g id="Background"><rect class="cls-4" width="3710" height="3710"/></g><g id="Illustration"><path class="cls-5" d="M3469.58,2389.52C3130.7,3137.79,2271.19,3444.2,1604.24,3374.88c-182.1-18.93-548.49-57-829.39-334C235.42,2508.82,343,1422.7,883.33,793.26,952.9,712.2,1434.14,169.43,2165.82,192.2c535.7,16.66,905.42,327.23,950.36,365.9C3173,606.94,3298,722.81,3409.05,904.8,3670,1332.4,3681.35,1921.93,3469.58,2389.52Z"/><path class="cls-1" d="M1924.35,2396.75c67.13-151.05-40.06-377.94-154.31-505-133.39-148.32-222.87-101-317.63-224.41-176.44-229.79,61.37-488.08-98.18-733.92-130.44-201-338.86-104.62-473.18-333.76-96.92-165.34-35-295-166.77-411.1C703,178.67,580,73.36,449,109.69c-132.16,36.66-195.08,196.17-209.5,303C212.87,610.25,347.91,657.37,402.23,903.13c73.95,334.6-132.58,445.31-27.2,680.43,87,194.15,247.92,163.44,340.13,380.62,85.62,201.68-22,301.45,48.59,431.61C926.18,2695.23,1787.42,2704.85,1924.35,2396.75Z"/><g class="cls-6"><path class="cls-7" d="M1829.66,2632.28c-144.14,0-282.18-29.74-410.41-88.45-123.54-56.55-251.28-115-319.68-242.26-51.94-96.61-38.09-173.2-20.57-270.17,16.82-93.05,37.76-208.86,0-377.81-21.56-96.45-48.39-216.48-145.61-321.57C876.89,1271,826,1247.74,781.11,1227.25c-46.44-21.19-86.55-39.49-114.18-95.13C622.43,1042.5,635.6,960.23,650.85,865c9.3-58.09,18.91-118.17,17.26-187.84-4.64-195.93-120-394.46-342.86-590.07a2.44,2.44,0,0,1,3.22-3.67C552.4,279.94,668.32,479.66,673,677c1.66,70.12-8,130.42-17.33,188.74-15.11,94.43-28.17,176,15.64,264.2,26.85,54.08,64.35,71.19,111.82,92.85,45.32,20.68,96.68,44.12,153.84,105.91,98.12,106,125.11,226.79,146.79,323.8,38,169.92,17,286.27,0,379.76-17.36,96-31.07,171.88,20.06,267,67.62,125.78,194.61,183.91,317.41,240.13,129.65,59.35,269.27,88.85,415.34,88h0a2.45,2.45,0,0,1,0,4.89Z"/><path class="cls-7" d="M977.77,1385.75a2.33,2.33,0,0,1-.73-.12,2.44,2.44,0,0,1-1.6-3.06c86.4-275.58,81.76-480.73,62.65-604.31-20.67-133.69-62.16-203.07-62.58-203.75a2.44,2.44,0,1,1,4.17-2.54c.43.69,42.42,70.9,63.24,205.55,19.19,124.09,23.86,330-62.82,606.52A2.45,2.45,0,0,1,977.77,1385.75Z"/><path class="cls-7" d="M1101.56,1795l-.36,0c-152.82-22.67-287.73-71.29-401-144.52a819,819,0,0,1-228.91-221.11C367,1279.35,344.26,1139.53,344,1138.14a2.44,2.44,0,0,1,4.83-.76c.22,1.39,22.83,140.27,126.59,289.4A814.27,814.27,0,0,0,703,1646.47c112.62,72.8,246.84,121.15,398.91,143.71a2.44,2.44,0,0,1-.36,4.86Z"/><path class="cls-7" d="M1284.17,2484.34a2.44,2.44,0,0,1-1.79-4.11c224.86-242.49,280.34-472.6,287.29-622.95,7.53-162.77-38.58-269.48-39.05-270.54a2.44,2.44,0,1,1,4.47-2c.48,1.07,47,108.83,39.46,272.74-7,151.16-62.73,382.47-288.59,626.05A2.42,2.42,0,0,1,1284.17,2484.34Z"/><path class="cls-7" d="M663.15,646.4a2.47,2.47,0,0,1-.7-.1C407.07,570.62,283.55,406.43,224.9,282,161.36,147.25,158.18,28.75,158.16,27.57a2.44,2.44,0,1,1,4.88-.11c0,1.18,3.21,118.81,66.36,252.66,58.24,123.44,180.88,286.35,434.44,361.5a2.44,2.44,0,0,1-.69,4.78Z"/></g><path class="cls-2" d="M1629.08,2791.89c21.92-116.54-90.39-257.23-191.14-327-117.61-81.51-172.26-33.69-258.8-104.2-161.13-131.27-37.78-350.86-189.77-496.13-124.25-118.76-253.84-17.07-385.46-154.84-95-99.42-73.14-200.15-184.32-259.45-9.51-5.06-112.79-58.26-198.21-11.27-86.2,47.43-103.77,169.17-96.19,246.15,14,142.31,116.06,152.9,194.58,315.49,106.89,221.37-19,332.77,93.4,479.5,92.82,121.17,200.07,73.15,300.32,209.54,93.08,126.65,34.42,214.07,105.21,293.28C981.55,3165.13,1584.38,3029.59,1629.08,2791.89Z"/><g class="cls-8"><path class="cls-7" d="M1436.81,2992.15a694.85,694.85,0,0,1-136.18-13.48c-95.71-19.1-194.66-38.85-263.57-116.54-52.38-59-55.37-114.91-59.16-185.63-3.62-67.68-8.14-151.91-62.34-263.48-30.95-63.71-69.45-143-154.53-200.17-49.41-33.22-88.7-41-123.36-47.88-36-7.15-67.19-13.32-95.82-47.79-46-55.39-50.41-115.1-55.51-184.24-3.1-42.06-6.31-85.55-18.95-133.85-35.56-135.82-148.77-255.21-336.48-354.87a2.44,2.44,0,0,1,2.29-4.31c189,100.32,303,220.74,338.91,357.94,12.76,48.73,16,92.45,19.1,134.73,5,68.3,9.39,127.29,54.4,181.47,27.53,33.14,56.42,38.87,93,46.12,35.11,7,74.91,14.85,125.14,48.62,86.17,57.94,125,137.86,156.19,202.08,54.64,112.48,59.18,197.25,62.83,265.37,3.74,69.77,6.69,124.88,57.93,182.65,67.83,76.46,166,96.05,260.86,115,100.21,20,202.56,17.58,304.19-7.18a2.44,2.44,0,0,1,1.16,4.75A717.33,717.33,0,0,1,1436.81,2992.15Z"/><path class="cls-7" d="M800.87,2243.19h-.18a2.44,2.44,0,0,1-2.26-2.61c28.28-394.8-131.61-562-133.23-563.59a2.44,2.44,0,1,1,3.48-3.43c.41.41,41.43,42.59,78.25,133.27,33.92,83.53,71.23,226.64,56.37,434.1A2.44,2.44,0,0,1,800.87,2243.19Z"/><path class="cls-7" d="M882.87,2511.59c-209.41,0-347.21-81.72-428.4-154.51-97.73-87.61-136.76-181.61-137.14-182.55a2.44,2.44,0,1,1,4.52-1.84c.38.93,39.07,94,136,180.91,89.45,80.12,248.27,171.18,496.79,150a2.46,2.46,0,0,1,2.64,2.23,2.44,2.44,0,0,1-2.23,2.64C930.14,2510.59,906.06,2511.59,882.87,2511.59Z"/><path class="cls-7" d="M1196.23,2959.51a2.37,2.37,0,0,1-1.2-.32,2.44,2.44,0,0,1-.92-3.33c116.82-206.24,117.54-375.88,97.58-481.87-21.6-114.72-71.32-181.47-71.82-182.13a2.45,2.45,0,0,1,3.9-3c.51.67,50.91,68.34,72.72,184.18,20.11,106.79,19.41,277.65-98.13,485.18A2.44,2.44,0,0,1,1196.23,2959.51Z"/><path class="cls-7" d="M459.11,1779H459c-191-10.67-304.55-105-366.13-182.3-66.71-83.7-88.54-166-88.75-166.87a2.44,2.44,0,0,1,4.73-1.22c.21.81,21.84,82.3,88,165.21,61,76.42,173.31,169.73,362.45,180.3a2.44,2.44,0,0,1-.13,4.88Z"/></g><path class="cls-9" d="M1222.69,441.13c-77.15,6.71-136.3,71.32-136.52,148.76-1.34,473.58-3.56,2107.09,27.31,2685.26a116.18,116.18,0,0,0,114.82,110c303.37,3.26,1176,9.26,1671.39-22.43,103.18-6.6,183.48-92.05,183.35-195.45-.6-497-8.54-1894.88-76.63-2533.82A159.68,159.68,0,0,0,2860,491.18C2529.09,465.41,1650.46,403.92,1222.69,441.13Z"/><path class="cls-10" d="M1207.94,714c-6,405.11-22.92,1752.73,6.7,2250.11,4.32,72.7,60.79,130.09,130.52,132.52,287.1,10,1023.31,29.37,1442.81-16.79,75.54-8.31,133.27-73.79,135.28-153.07,10.5-413.41,38.84-1668.56,10.06-2160.38-4.59-78.46-64.53-141.07-139.67-146.13-310.86-21-1109.1-69.25-1465.83-39.54C1260.85,586.29,1209,643.86,1207.94,714Z"/><path class="cls-11" d="M1901.6,511.56A21,21,0,0,0,1922,532.13c55.24,1.68,210.86,6.45,280.42,9a21,21,0,0,0,21.3-25.47c-.24-.42-2-17.62-19.59-18.84-47.05-3.27-189-12.09-282.81-6.68C1902,491.2,1901,513.11,1901.6,511.56Z"/><rect class="cls-2" x="1294.19" y="1374.82" width="1543.47" height="1500.17" rx="20.88"/><rect class="cls-12" x="1743.99" y="1447.17" width="717.85" height="91.75" rx="7.35"/><rect class="cls-12" x="1383.35" y="1643.77" width="1385.41" height="83.89" rx="7.35"/><rect class="cls-12" x="1379.06" y="1832.52" width="885.32" height="83.89" rx="7.35"/><rect class="cls-12" x="1385.5" y="2024.06" width="1343.29" height="83.89" rx="7.35"/><rect class="cls-12" x="1381.21" y="2212.8" width="1113.11" height="83.89" rx="7.35"/><rect class="cls-12" x="1387.65" y="2414.7" width="1385.41" height="83.89" rx="7.35"/><rect class="cls-12" x="1383.35" y="2603.44" width="818.53" height="83.89" rx="7.35"/><path class="cls-13" d="M2895.05,3431.53c35.13,3,96.1,8,144.16,10.08,28.9,1.27,45.53-1.56,55.11-5.39,0,1.08,0,2.1-.09,3.05a9.94,9.94,0,0,1-9.44,9.39c-90.83,5.07-163.06,1.75-188.77.19a7.08,7.08,0,0,1-5.77-10.64A57,57,0,0,1,2895.05,3431.53Z"/><path class="cls-14" d="M3039.21,3441.61c-48.06-2.11-109-7.05-144.16-10.08,34.54-42.38,144.16-70.94,144.16-70.94h31c21.29,30.7,24.37,59.92,24.14,75.63C3084.74,3440.05,3068.11,3442.88,3039.21,3441.61Z"/><path class="cls-15" d="M3075.39,3310l-2.9,57.34a13.07,13.07,0,0,1-11.18,12.31,50.92,50.92,0,0,1-23.26-1.92,15.49,15.49,0,0,1-10.41-11.91l-10-55.82Z"/><path class="cls-16" d="M3477.55,3441.18c15.23-2.12,22.13-10,25-18.5l0,.23c2.24,8.92-2.95,18.17-13.34,22.57-12.56,5.32-26.28,6.23-36.94,5.79-11.44-.48-21.93-5.21-27.7-12.78l-.09-.11C3436,3444.06,3452.14,3444.72,3477.55,3441.18Z"/><path class="cls-17" d="M3405.72,3309.67h25.53c38.9-.79,63.32,81.24,71.32,113-2.89,8.46-9.79,16.38-25,18.5-25.41,3.54-41.52,2.88-53-2.8-21-27.65-31.43-68.15-36.43-91.79C3382.42,3319.71,3405.72,3309.67,3405.72,3309.67Z"/><path class="cls-18" d="M3428,3256.46l14.18,56.39a15.31,15.31,0,0,1-8,17.35c-7.94,4.07-19.1,8.34-29.37,7.11a12.83,12.83,0,0,1-10.43-8.53l-20.81-59.33Z"/><path class="cls-19" d="M3444.88,3272.76c-17.64,15.64-75,17.71-75,17.71-206.69-496.06-291.24-566.54-291.24-566.54,29.85,187.24,4.81,601.76,4.81,601.76-34.1,15-78.07,0-78.07,0a3195.05,3195.05,0,0,0-105.55-784.61c139.69-3.14,214-50.94,238.24-70.13C3254.5,2658.68,3444.88,3272.76,3444.88,3272.76Z"/><path class="cls-20" d="M3102.58,1900.47c26.44,131.89,17,368,10.74,475.62-1.75,30.26,19.38,72.22,36.45,100.84a9,9,0,0,1-3.62,12.63c-28.59,14.69-125.44,60.23-237.69,65.89a16,16,0,0,1-16.11-12c-83.26-310.89-180-509.56-180-509.56C2819.15,1863.43,3102.58,1900.47,3102.58,1900.47Z"/><path class="cls-21" d="M3064.53,2712.19a6.62,6.62,0,0,0,5.65-10.06c-1.11-1.83-27.85-45-81.95-71.14a6.62,6.62,0,1,0-5.75,11.92c50.43,24.33,76.14,65.69,76.39,66.1A6.62,6.62,0,0,0,3064.53,2712.19Z"/><path class="cls-22" d="M3268.43,2279c-8.49,61.44-33.58,128.46-83.78,199.64l-19.08-15.55s22-89.38,9.5-190.81C3206,2266.23,3242.61,2272.46,3268.43,2279Z"/><path class="cls-23" d="M3073.05,2063.21l29.53-162.74S3299.9,2051.3,3268.43,2279c-25.82-6.53-62.39-12.76-93.36-6.72C3166.05,2199.21,3139.1,2119.89,3073.05,2063.21Z"/><path class="cls-24" d="M2712.38,2033.93l76.17,164c-12.32,99-65.52,141.85-122.88,158.28a348.25,348.25,0,0,0-25.58-106.83C2713.38,2173.75,2712.38,2033.93,2712.38,2033.93Z"/><path class="cls-25" d="M2640.09,2249.42a348.25,348.25,0,0,1,25.58,106.83c-153.05,59.37-193.54-55.78-193.54-55.78l28.29-5C2564.29,2302.21,2608.91,2281.61,2640.09,2249.42Z"/><path class="cls-26" d="M2782.55,1831.42l36.77,135.17a26.3,26.3,0,0,0,35.17,17.5c15.77-6.3,35.78-14.91,53-24.21A35.42,35.42,0,0,0,2920,1909l-76.45-114Z"/><path class="cls-27" d="M2702.11,1728.72c-.34,2.32,30.67,154.25,30.67,154.25l86.37-19.54-8-148.37S2707.71,1689.86,2702.11,1728.72Z"/><path class="cls-28" d="M2791.73,1748.12l10.33,77.77a11,11,0,0,1,0,3c-.88,6.1-5.41,26.85-26.36,20.92-19-5.39-36.44-10-48.48-6.34a11,11,0,0,0-7.54,12.67c2.82,13.8,9.75,44.79,19.88,70.8a10.94,10.94,0,0,0,13.27,6.46c16.39-4.78,50.65-15.82,76.14-31.16a10.93,10.93,0,0,0,5.34-9.86c-.83-19.63-3.12-79.32-1.19-96,1.81-15.7,21.09-25.11,29.46-28.48a10.74,10.74,0,0,0,6-6c3.88-9.71,9.23-32.2-19.11-41.41a11,11,0,0,1-6.95-14.19c4.2-11.69,6-29.52-15.95-39.34-22.28-10-38.92,1.89-47.91,11.54a11,11,0,0,1-14,1.65c-2.56-1.62-5.87-2.15-9.86.34a10.8,10.8,0,0,1-15.29-4.63c-5.33-11-16.21-22.69-38-19-38.71,6.63-43.09,49.52-32.88,74.65s51.77,15.56,72.61,2.89c15.85-9.63,36.41.47,45.36,5.86A10.86,10.86,0,0,1,2791.73,1748.12Z"/><path class="cls-29" d="M2836.59,1824.67s-15.92-44.56.43-55.47,40.56-5.25,35.23,27C2865.62,1836.38,2836.59,1824.67,2836.59,1824.67Z"/><path class="cls-30" d="M2483.48,2321.54c-7.7,6-34.1-6.55-50.25-15.24a18.57,18.57,0,0,1-9-22c3.89-12.26,10.37-28.08,18.34-30.07C2455.83,2251,2515.22,2296.74,2483.48,2321.54Z"/><path class="cls-31" d="M3590.61,2610.52,2026.79,2137.83l-70.45,229.87,1564,488a71.76,71.76,0,0,0,85.06-35.51c16.48-31.72,31.32-80.75,28.87-153A61.46,61.46,0,0,0,3590.61,2610.52Z"/><path class="cls-32" d="M1548.33,2102.36,1762,2118.2c1.19,29.24-6.56,67.52-36.87,112.46l-183-108.45C1532.38,2116.45,1537.07,2101.53,1548.33,2102.36Z"/><path class="cls-11" d="M2026.79,2137.83c16.55,141.14-70.45,229.87-70.45,229.87l-231.25-137c30.31-44.94,38.06-83.22,36.87-112.46Z"/><path class="cls-11" d="M3574.87,2680.73a4.52,4.52,0,0,0,1.09-8.85L2080,2222.94a4.53,4.53,0,0,0-2.6,8.67l1496,448.93A4.64,4.64,0,0,0,3574.87,2680.73Z"/><path class="cls-11" d="M3553.77,2770.6a4.52,4.52,0,0,0,1.08-8.85l-1496-448.94a4.52,4.52,0,1,0-2.6,8.66l1496,448.94A4.7,4.7,0,0,0,3553.77,2770.6Z"/><path class="cls-33" d="M3173.43,2460.37l-89.07-7.26-38.57,35.56s9.12,12.61,37.65,5.36,67.62-9,67.62-9,39.39,17.76,39.87-15.47Z"/><path class="cls-34" d="M2804,796.71c-.48-39.76-33.81-72.79-74.51-73.79L1379.34,673.15c-42.85-1-73.2,47.75-73.2,88.62v477c0,41.21,35,75.11,78,75.68l1352.22,17.84c40.89.54,73.61-31.54,73.13-71.63Z"/><polygon class="cls-35" points="2069.46 1431.46 1946.04 1294.25 2190.68 1297.6 2069.46 1431.46"/><path class="cls-36" d="M2825.7,1241.58c.39,33.69-22.68,61.74-54.32,69.49a74.38,74.38,0,0,1-18.84,2.16L2182,1305.92l-195.07-2.51-587.23-7.53c-43.1-.55-78.09-34.44-78.09-75.66l-.06-476.93c0-40.88,34.8-73.17,77.68-72.12l3,.09,1343.3,32.64c40.72,1,74.08,34,74.55,73.78Z"/><path class="cls-4" d="M1593.32,803.65l28.27,56.88,63.12,10.26c6.81,1.11,9.53,9.4,4.6,14l-45.66,42.92,10.79,62a8.16,8.16,0,0,1-12.07,8.41L1585.85,968l-56.62,28.23c-6.12,3-13.28-2.18-12.11-8.86l10.82-61.77-45.87-44.77a8.07,8.07,0,0,1,4.63-13.9l63.37-7.79,28.31-55.78C1581.43,797.32,1590.26,797.51,1593.32,803.65Z"/><path class="cls-4" d="M1832.6,808.56l28.07,56.68,62.67,10.22c6.77,1.1,9.47,9.36,4.58,14l-45.34,42.78,10.71,61.83a8.11,8.11,0,0,1-12,8.38l-56.13-30.12L1769,1000.45a8.4,8.4,0,0,1-12-8.82l10.75-61.56-45.55-44.61a8,8,0,0,1,4.6-13.84l62.92-7.78,28.11-55.58C1820.8,802.26,1829.57,802.44,1832.6,808.56Z"/><path class="cls-4" d="M2070.19,813.44l27.87,56.47,62.24,10.18c6.71,1.1,9.39,9.33,4.53,13.93l-45,42.63,10.63,61.61a8.05,8.05,0,0,1-11.89,8.35l-55.73-30-55.82,28a8.35,8.35,0,0,1-11.94-8.79l10.67-61.34-45.23-44.45a8,8,0,0,1,4.57-13.8l62.48-7.75,27.9-55.39C2058.48,807.15,2067.18,807.33,2070.19,813.44Z"/><path class="cls-4" d="M2306.11,818.28l27.67,56.27,61.8,10.14c6.67,1.09,9.33,9.3,4.51,13.88l-44.7,42.48,10.56,61.4a8,8,0,0,1-11.82,8.32l-55.33-29.9-55.43,28a8.3,8.3,0,0,1-11.86-8.76l10.6-61.12-44.91-44.29a8,8,0,0,1,4.53-13.75l62.05-7.73,27.7-55.19C2294.48,812,2303.12,812.19,2306.11,818.28Z"/><path class="cls-4" d="M2540.37,823.08l27.48,56.07,61.37,10.11c6.62,1.09,9.26,9.26,4.47,13.83l-44.39,42.34,10.49,61.17a8,8,0,0,1-11.73,8.3l-54.95-29.79-55,27.85a8.24,8.24,0,0,1-11.77-8.73l10.52-60.91-44.59-44.13a8,8,0,0,1,4.5-13.7l61.6-7.7,27.52-55C2528.82,816.84,2537.4,817,2540.37,823.08Z"/><path class="cls-4" d="M2651.81,1172.16l-1165.09-17.83c-28-.42-50.74-23.08-50.74-50.6v-11c0-27.51,22.72-49.44,50.74-49l1165.09,19.73a49.92,49.92,0,0,1,48.93,49.73V1124A48,48,0,0,1,2651.81,1172.16Z"/></g></g></svg>