<svg xmlns="http://www.w3.org/2000/svg" xmlns:xlink="http://www.w3.org/1999/xlink" viewBox="0 0 3604.11 3367.14"><defs><style>.cls-1{fill:#91b3fa;}.cls-2{fill:#7d97f4;}.cls-3{isolation:isolate;}.cls-4{fill:url(#linear-gradient);}.cls-5{clip-path:url(#clip-path);}.cls-6{opacity:0.8;}.cls-13,.cls-6{mix-blend-mode:soft-light;}.cls-13,.cls-7{fill:#fff;}.cls-8{clip-path:url(#clip-path-2);}.cls-9{fill:url(#linear-gradient-2);}.cls-10{fill:url(#linear-gradient-3);}.cls-11{fill:url(#linear-gradient-4);}.cls-12{fill:#efefef;}.cls-13{opacity:0.48;}.cls-14{fill:url(#linear-gradient-5);}.cls-15{opacity:0.3;mix-blend-mode:multiply;fill:url(#linear-gradient-6);}.cls-16{fill:#e0e0e0;}.cls-17,.cls-19{fill:#a2a7ae;}.cls-17,.cls-18{opacity:0.39;}.cls-20{fill:url(#New_Gradient_Swatch_1);}.cls-21{fill:url(#linear-gradient-7);}.cls-22{fill:url(#linear-gradient-8);}.cls-23{fill:url(#New_Gradient_Swatch_1-2);}.cls-24{fill:url(#linear-gradient-9);}.cls-25{fill:url(#linear-gradient-10);}.cls-26{fill:url(#linear-gradient-11);}.cls-27{fill:url(#linear-gradient-12);}.cls-28{fill:url(#linear-gradient-13);}.cls-29{fill:url(#linear-gradient-14);}.cls-30{fill:url(#linear-gradient-15);}.cls-31{fill:url(#linear-gradient-16);}.cls-32{fill:url(#linear-gradient-17);}.cls-33{fill:url(#linear-gradient-18);}.cls-34{fill:url(#linear-gradient-19);}.cls-35{fill:url(#linear-gradient-20);}.cls-36{fill:url(#linear-gradient-21);}.cls-37{fill:url(#linear-gradient-22);}</style><linearGradient id="linear-gradient" x1="3957.91" y1="4524.07" x2="977.43" y2="822.5" gradientUnits="userSpaceOnUse"><stop offset="0" stop-color="#dae3fe"/><stop offset="1" stop-color="#e9effd"/></linearGradient><clipPath id="clip-path" transform="translate(-52.95 -69.04)"><path id="SVGID" class="cls-1" d="M3241.24,208.92c-37.31-30.87-93.91-47.68-141.75-51.07-339.15-24-388.64,684.87-336.66,843.3s18.3,210.46-248.81,293.34-139,242.48-106.4,335.81,97,172.17-97.69,264.91-127,150.19-127,150.19,359.09,367.31,339.25,249.71,16.1-295.17,338-308.66c138.67-5.81,351-72,398.06-220.44,11-34.58,18.56-87.39,10.23-123.18-11.55-49.64-44.14-88.76-62.23-135.48-42.16-108.89,63.58-188.63,124.44-261.41,31.77-38,63.53-77,87.86-120.28,50.51-89.94,31.61-186.4-23.4-269.31-26.38-39.76-63-81.94-74.54-129.36-12.36-50.94-1.59-120.54,1.35-173,2.3-41.09,6.22-82,3.91-123.24C3321.56,354.16,3303.62,260.53,3241.24,208.92Z"/></clipPath><clipPath id="clip-path-2" transform="translate(-52.95 -69.04)"><path id="SVGID-2" data-name="SVGID" class="cls-2" d="M3538.9,1253.06c-24.67-41.68-72.24-76.65-116.11-96-311-137.37-597.46,513-602.15,679.64s-54,204.23-333.39,191.84-212.82,181.16-213.76,280,33.05,194.84-181.56,216.22-170.38,98.34-170.38,98.34,147.49,165.74,168.62,48.37,181.15,29.1,488.68,125.35c132.46,41.46,354.67,51.06,449.16-72.75,22-28.83,47-75.95,51.32-112.45,5.92-50.62-11.5-98.46-12.72-148.55-2.83-116.73,123.66-156,205.55-203.87,42.76-25,85.83-50.93,123.38-83.46,78-67.55,92.81-164.72,69.11-261.35-11.37-46.33-31.59-98.43-26.37-146.95,5.61-52.11,39.29-114,59.79-162.28,16.07-37.9,33.61-75.1,45.38-114.65C3565.34,1416.91,3580.13,1322.72,3538.9,1253.06Z"/></clipPath><linearGradient id="linear-gradient-2" x1="1635.93" y1="2862.97" x2="1398.06" y2="2962.88" gradientUnits="userSpaceOnUse"><stop offset="0" stop-color="#09005d"/><stop offset="1" stop-color="#1a0f91"/></linearGradient><linearGradient id="linear-gradient-3" x1="1248.9" y1="1805.48" x2="1002.26" y2="1909.07" gradientUnits="userSpaceOnUse"><stop offset="0" stop-color="#4f52ff"/><stop offset="1" stop-color="#4042e2"/></linearGradient><linearGradient id="linear-gradient-4" x1="205.81" y1="1865.2" x2="2453.4" y2="1865.2" xlink:href="#linear-gradient-3"/><linearGradient id="linear-gradient-5" x1="205.81" y1="2757.95" x2="3591.71" y2="2757.95" xlink:href="#linear-gradient-3"/><linearGradient id="linear-gradient-6" x1="484.91" y1="2660.91" x2="2965.73" y2="2660.91" gradientUnits="userSpaceOnUse"><stop offset="0" stop-color="#40447e"/><stop offset="1" stop-color="#3c3b6b"/></linearGradient><linearGradient id="New_Gradient_Swatch_1" x1="9843.52" y1="2976.48" x2="9098.81" y2="3786.52" gradientTransform="matrix(-1, 0.01, 0.01, 1, 12543.61, -63.47)" gradientUnits="userSpaceOnUse"><stop offset="0" stop-color="#2b3582"/><stop offset="1" stop-color="#150e42"/></linearGradient><linearGradient id="linear-gradient-7" x1="9601.8" y1="3036.63" x2="9667.95" y2="3036.63" gradientTransform="matrix(-1, 0.01, 0.01, 1, 12543.61, -63.47)" gradientUnits="userSpaceOnUse"><stop offset="0" stop-color="#f9b776"/><stop offset="1" stop-color="#f47960"/></linearGradient><linearGradient id="linear-gradient-8" x1="1976.55" y1="3417.99" x2="3274.94" y2="2292.72" gradientTransform="matrix(1, 0, 0, 1, 0, 0)" xlink:href="#New_Gradient_Swatch_1"/><linearGradient id="New_Gradient_Swatch_1-2" x1="9676.46" y1="2822.86" x2="8931.71" y2="3632.94" xlink:href="#New_Gradient_Swatch_1"/><linearGradient id="linear-gradient-9" x1="9363.39" y1="3033.23" x2="9420.5" y2="3033.23" xlink:href="#linear-gradient-7"/><linearGradient id="linear-gradient-10" x1="2018.44" y1="3466.33" x2="3316.83" y2="2341.06" gradientTransform="matrix(1, 0, 0, 1, 0, 0)" xlink:href="#New_Gradient_Swatch_1"/><linearGradient id="linear-gradient-11" x1="3040.27" y1="1388.29" x2="2648.69" y2="2895.9" xlink:href="#linear-gradient-3"/><linearGradient id="linear-gradient-12" x1="9874.08" y1="1310.83" x2="10212.05" y2="1310.83" xlink:href="#linear-gradient-7"/><linearGradient id="linear-gradient-13" x1="309.97" y1="1253.26" x2="536.75" y2="1769.23" gradientTransform="translate(2096.89 36.7) rotate(-0.54)" xlink:href="#linear-gradient-7"/><linearGradient id="linear-gradient-14" x1="10210.43" y1="1082.35" x2="10305.06" y2="936.86" xlink:href="#linear-gradient-7"/><linearGradient id="linear-gradient-15" x1="3343.46" y1="1467.04" x2="2951.88" y2="2974.65" xlink:href="#linear-gradient-3"/><linearGradient id="linear-gradient-16" x1="9134.55" y1="1789.51" x2="9562.23" y2="1789.51" xlink:href="#linear-gradient-7"/><linearGradient id="linear-gradient-17" x1="9462.96" y1="1332.29" x2="9632.06" y2="1332.29" xlink:href="#linear-gradient-7"/><linearGradient id="linear-gradient-18" x1="9391.62" y1="1541.06" x2="9627.62" y2="2524.38" gradientTransform="matrix(-1, 0, 0, 1, 12275.32, 0)" xlink:href="#New_Gradient_Swatch_1"/><linearGradient id="linear-gradient-19" x1="9229.91" y1="1801.2" x2="9363.62" y2="1801.2" gradientTransform="matrix(-1, 0, 0, 1, 12275.32, 0)" xlink:href="#linear-gradient-7"/><linearGradient id="linear-gradient-20" x1="2180.18" y1="2051.11" x2="1960.02" y2="2342.36" gradientTransform="matrix(-0.69, -0.73, -0.73, 0.69, 5962.79, 1318.79)" xlink:href="#linear-gradient-7"/><linearGradient id="linear-gradient-21" x1="2017.19" y1="2122.13" x2="2274.16" y2="2122.13" gradientTransform="matrix(-0.69, -0.73, -0.73, 0.69, 5962.79, 1318.79)" xlink:href="#New_Gradient_Swatch_1"/><linearGradient id="linear-gradient-22" x1="1860.81" y1="2285" x2="2037.38" y2="2103.85" gradientTransform="matrix(-0.69, -0.73, -0.73, 0.69, 5962.79, 1318.79)" xlink:href="#linear-gradient-7"/></defs><g class="cls-3"><g id="Illustration"><path class="cls-4" d="M3239.29,2991.36c-74,68-144,111.92-199.36,146.59-650.34,407.53-1419.87,288.74-1583.41,259.73C1215,3354.84,748.19,3272,410.68,2925.4c-510.62-524.43-431.11-1350.65-35-1896,72.45-99.77,455.14-653.47,1232.95-742.27,470.73-53.74,1019.44,54.64,1416.8,345.39C3859.5,1242.79,3800.12,2475.72,3239.29,2991.36Z" transform="translate(-52.95 -69.04)"/><path id="SVGID-3" data-name="SVGID" class="cls-1" d="M3241.24,208.92c-37.31-30.87-93.91-47.68-141.75-51.07-339.15-24-388.64,684.87-336.66,843.3s18.3,210.46-248.81,293.34-139,242.48-106.4,335.81,97,172.17-97.69,264.91-127,150.19-127,150.19,359.09,367.31,339.25,249.71,16.1-295.17,338-308.66c138.67-5.81,351-72,398.06-220.44,11-34.58,18.56-87.39,10.23-123.18-11.55-49.64-44.14-88.76-62.23-135.48-42.16-108.89,63.58-188.63,124.44-261.41,31.77-38,63.53-77,87.86-120.28,50.51-89.94,31.61-186.4-23.4-269.31-26.38-39.76-63-81.94-74.54-129.36-12.36-50.94-1.59-120.54,1.35-173,2.3-41.09,6.22-82,3.91-123.24C3321.56,354.16,3303.62,260.53,3241.24,208.92Z" transform="translate(-52.95 -69.04)"/><g class="cls-5"><g class="cls-6"><path class="cls-7" d="M2154.64,2251.55a5,5,0,0,1-4-9.16c1.51-.79,152.68-80.31,321.32-211.28,155.39-120.67,357.83-310.95,439.79-532.15C2980.19,1314.21,3042.62,1008.81,3083,661c36.22-311.84,41.95-542.47,26.55-585.29a5,5,0,0,1,9.44-3.39c18,50.08,6.58,309.17-26,589.84-40.48,348.52-103.12,654.78-171.84,840.24-82.8,223.47-286.71,415.21-443.18,536.71-169.34,131.48-321.18,211.33-322.69,212.12A5.78,5.78,0,0,1,2154.64,2251.55Z" transform="translate(-52.95 -69.04)"/><path class="cls-7" d="M3082.47,721.5c-2.6.93-5.24.2-6.19-2.39-1.26-3.43-127.68-343.57-290.72-420.37a4.82,4.82,0,0,1-2.35-6.52,5,5,0,0,1,6.71-2.33c166.76,78.56,290.56,411.57,295.76,425.73,1,2.6-.58,4.93-3.18,5.86Z" transform="translate(-52.95 -69.04)"/><path class="cls-7" d="M3020.81,1116a5,5,0,0,1-4.88-8.59c.92-.76,94-77.13,208.86-141.2,155.19-86.58,274.12-110.75,353.49-71.83a5,5,0,1,1-4.41,9c-182.61-89.52-547.9,208.75-551.56,211.77A5,5,0,0,1,3020.81,1116Z" transform="translate(-52.95 -69.04)"/><path class="cls-7" d="M2615.55,1922.26a5.11,5.11,0,0,1-1.62.29,5,5,0,0,1-5.09-4.94c0-1.45-2.6-147.4-33.15-301.17-28-141-85.84-317.59-202.3-358.29a5,5,0,1,1,3.31-9.46c97.11,33.93,167.37,157,208.85,365.93,30.71,154.64,33.29,301.37,33.32,302.84A5,5,0,0,1,2615.55,1922.26Z" transform="translate(-52.95 -69.04)"/><path class="cls-7" d="M2822.77,1686.48a5,5,0,0,1-4.68-8.76c16.15-11.93,397.1-292,545.65-265.25a5,5,0,1,1-1.77,9.87c-144.35-26-534,260.55-537.91,263.45A5.37,5.37,0,0,1,2822.77,1686.48Z" transform="translate(-52.95 -69.04)"/></g></g><path id="SVGID-4" data-name="SVGID" class="cls-2" d="M3538.9,1253.06c-24.67-41.68-72.24-76.65-116.11-96-311-137.37-597.46,513-602.15,679.64s-54,204.23-333.39,191.84-212.82,181.16-213.76,280,33.05,194.84-181.56,216.22-170.38,98.34-170.38,98.34,147.49,165.74,168.62,48.37,181.15,29.1,488.68,125.35c132.46,41.46,354.67,51.06,449.16-72.75,22-28.83,47-75.95,51.32-112.45,5.92-50.62-11.5-98.46-12.72-148.55-2.83-116.73,123.66-156,205.55-203.87,42.76-25,85.83-50.93,123.38-83.46,78-67.55,92.81-164.72,69.11-261.35-11.37-46.33-31.59-98.43-26.37-146.95,5.61-52.11,39.29-114,59.79-162.28,16.07-37.9,33.61-75.1,45.38-114.65C3565.34,1416.91,3580.13,1322.72,3538.9,1253.06Z" transform="translate(-52.95 -69.04)"/><g class="cls-8"><g class="cls-6"><path class="cls-7" d="M1825.22,2807.51a5,5,0,0,1-.68-10c1.69-.23,170.85-23.91,373.86-90.08,187.06-61,441.94-171.54,593.91-351.95,126.94-150.69,289-416.95,444.71-730.53,139.61-281.19,223-496.29,223-541.79a5,5,0,0,1,10,0c0,53.23-98.43,293.17-224.08,546.25-156,314.26-318.6,581.26-446,732.53-153.54,182.27-410.3,293.7-598.65,355.08-203.84,66.43-373.74,90.19-375.43,90.42A4,4,0,0,1,1825.22,2807.51Z" transform="translate(-52.95 -69.04)"/><path class="cls-7" d="M3216.05,1682.69a4.9,4.9,0,0,1-5-4.84c0-3.66-3.89-366.78-131.32-494.21a5,5,0,1,1,7.09-7c130.35,130.34,134.16,486.09,134.26,501.17a4.89,4.89,0,0,1-5,4.92Z" transform="translate(-52.95 -69.04)"/><path class="cls-7" d="M3024.56,2032a5,5,0,0,1-1.69-9.74c1.13-.4,114.56-40.76,244.32-62.19,175.33-29,295.42-11.46,356.94,52a5,5,0,0,1-7.2,7c-141.55-146-586.21,11-590.68,12.64A4.79,4.79,0,0,1,3024.56,2032Z" transform="translate(-52.95 -69.04)"/><path class="cls-7" d="M2370.37,2653.6a5.16,5.16,0,0,1-1.63-.27,5,5,0,0,1-3.12-6.37c.47-1.38,47.43-139.59,70.72-294.62,21.35-142.15,26.69-327.91-69.13-405.6a5,5,0,1,1,6.32-7.79c79.89,64.78,104.36,204.42,72.71,415-23.44,155.91-70.65,294.86-71.13,296.25A5,5,0,0,1,2370.37,2653.6Z" transform="translate(-52.95 -69.04)"/><path class="cls-7" d="M2645.15,2501.85a5,5,0,0,1-1.44-9.82c19.23-5.77,472.47-140.41,603.22-65a5,5,0,0,1-5,8.68c-127-73.29-590.65,64.5-595.32,65.9A5.17,5.17,0,0,1,2645.15,2501.85Z" transform="translate(-52.95 -69.04)"/></g></g><path class="cls-9" d="M3591.71,2732.56,205.81,2702.8v88c0,23.9,14.77,44.22,34.77,47.84L1198,3012.09a130.59,130.59,0,0,0,34.35,1.63L3554.91,2816c20.74-1.77,36.8-22.15,36.8-46.71Z" transform="translate(-52.95 -69.04)"/><path class="cls-10" d="M2363,2589.82,240.82,2750.9c-38,2.88-68.85-27.75-68.85-68.42V1053c0-40.67,30.88-73.64,68.85-73.64H2363c31.28,0,56.58,29.8,56.58,66.57V2519C2419.56,2555.71,2394.26,2587.44,2363,2589.82Z" transform="translate(-52.95 -69.04)"/><path class="cls-11" d="M2396.82,2589.82,274.66,2750.9c-38,2.88-68.85-27.75-68.85-68.42V1053c0-40.67,30.88-73.64,68.85-73.64H2396.82c31.28,0,56.58,29.8,56.58,66.57V2519C2453.4,2555.71,2428.1,2587.44,2396.82,2589.82Z" transform="translate(-52.95 -69.04)"/><path class="cls-12" d="M2330.7,2486,354.14,2625.89c-30.9,2.18-56-23-56-56.16V1143.07c0-33.2,25.12-60.23,56-60.37l1976.56-8.78c25.81-.12,46.69,24.31,46.69,54.55V2427.9C2377.39,2458.14,2356.51,2484.13,2330.7,2486Z" transform="translate(-52.95 -69.04)"/><path class="cls-7" d="M1410.69,1023.88c0,15.14-10.93,27.45-24.41,27.49s-24.47-12.22-24.47-27.4,11-27.48,24.47-27.49S1410.69,1008.73,1410.69,1023.88Z" transform="translate(-52.95 -69.04)"/><path class="cls-13" d="M1885.52,2142.89c-163.6-94.55-292.24,25.26-416.38-92.95-75.27-71.66-38.32-125.1-130.93-232.2-102.57-118.61-169.35-78.74-272.44-185.49-130.34-135-65.15-240-177.43-336.92-136.2-117.57-283.09-8.75-412.75-121.5C419.67,1125.2,389,1054.5,373,979.31H246.1c-22.24,0-40.29,19.35-40.29,43.22V2711.68c0,23.88,18.05,41.85,40.29,40.16l2162.82-164.9c10.61-.81,20-7.47,26.06-17.12-158.32-6.2-255.59-63.2-317.76-122.14C1995.58,2332.39,2016.68,2218.69,1885.52,2142.89Z" transform="translate(-52.95 -69.04)"/><path class="cls-14" d="M2481.4,2582.51,205.81,2752.07,1198,2931.76a130.59,130.59,0,0,0,34.35,1.63l2359.35-200.83L2517.6,2583.66A171.24,171.24,0,0,0,2481.4,2582.51Z" transform="translate(-52.95 -69.04)"/><polygon class="cls-15" points="484.91 2687.29 2379.4 2544.03 2965.73 2624.65 1087.56 2777.8 484.91 2687.29"/><path class="cls-16" d="M2064.87,2433.78V712.68c0-49.21-41.11-89.58-93-91.31L863.1,584.53c-46.36-1.54-84.84,33.69-84.84,77.68v1860c0,39.14-29.9,72.5-70.63,78.82h0l1270.5-79.41C2026.93,2518.58,2064.87,2480.16,2064.87,2433.78Z" transform="translate(-52.95 -69.04)"/><path class="cls-17" d="M1895.14,1509.32l-916.06,5.86a88.7,88.7,0,0,1-89.27-88.7V1198.33a88.71,88.71,0,0,1,89.85-88.7l916.05,11.83a88.71,88.71,0,0,1,87.56,88.7v210.46A88.7,88.7,0,0,1,1895.14,1509.32Z" transform="translate(-52.95 -69.04)"/><path class="cls-17" d="M1880.35,1939.84l-881.73,24.52a105.86,105.86,0,0,1-108.81-105.82V1665.08a105.86,105.86,0,0,1,105-105.86l881.74-7.5a105.86,105.86,0,0,1,106.76,105.86V1834A105.86,105.86,0,0,1,1880.35,1939.84Z" transform="translate(-52.95 -69.04)"/><path class="cls-17" d="M1913.23,2374.24l-946.09,46.83a73.69,73.69,0,0,1-77.33-73.59V2089.11a73.68,73.68,0,0,1,71.46-73.65l946.09-28.56a73.68,73.68,0,0,1,75.91,73.65v240.09A73.69,73.69,0,0,1,1913.23,2374.24Z" transform="translate(-52.95 -69.04)"/><g class="cls-18"><path class="cls-19" d="M951.35,933.56l-4.86-181,42.8,1.47a59.31,59.31,0,0,1,30.78,9.56q11.83,7.62,17.23,22.95a62,62,0,0,1,3.24,19.29q.49,18.18-9.35,28.81a26.39,26.39,0,0,1-9.79,6.73q9.61,3.78,16.55,14.26,4.58,7.08,7,18.13a69.53,69.53,0,0,1,1.39,12.59q.47,17.17-6,28.92a36.31,36.31,0,0,1-14.57,14.5,40.75,40.75,0,0,1-21.46,5.6Zm28-106,11.95.41q13.31.45,17.52-11.8a33.28,33.28,0,0,0,1.35-11.35q-.3-11.25-6.2-17.23A19.68,19.68,0,0,0,990,781.75l-11.95-.41Zm2.16,80.1,11.95.41q14.51.51,19.73-13.59a29.37,29.37,0,0,0,1.66-11.19q-.41-15.16-6.64-22.29-5.62-6.54-16.2-6.91l-12-.41Z" transform="translate(-52.95 -69.04)"/><path class="cls-19" d="M1150.38,940.41l-77.89-2.68-4.86-180.85,28.58,1,4.13,153.72,49.31,1.69Z" transform="translate(-52.95 -69.04)"/><path class="cls-19" d="M1210.33,759.48a47.5,47.5,0,0,1,32.48,13.8q13.57,13.17,14.06,31.06l2.65,98.72q.48,18-12.49,30.22t-31.72,11.52a47.21,47.21,0,0,1-32.4-13.8q-13.5-13.15-14-31l-2.65-98.73q-.49-18,12.48-30.21T1210.33,759.48Zm16.73,43.26a15.71,15.71,0,0,0-5.06-11.21,17.14,17.14,0,0,0-11.7-4.94,15.46,15.46,0,0,0-11.52,4.14,13.68,13.68,0,0,0-4.54,10.88l2.66,99a15.56,15.56,0,0,0,5.14,11.21,17.44,17.44,0,0,0,11.76,4.95,15.25,15.25,0,0,0,11.45-4.15,13.85,13.85,0,0,0,4.47-10.88Z" transform="translate(-52.95 -69.04)"/><path class="cls-19" d="M1330.71,948.92a47.53,47.53,0,0,1-32.48-13.81q-13.57-13.15-14-30.91l-2.66-98.73q-.48-18,12.49-30.21t31.72-11.53a47.27,47.27,0,0,1,32.4,13.81q13.5,13.15,14,31.05l.56,20.64-29.64-1-.57-21.22a15.8,15.8,0,0,0-5.14-11.28,17.31,17.31,0,0,0-11.77-5,15.14,15.14,0,0,0-11.45,4.23,14,14,0,0,0-4.46,11l2.66,99a15.61,15.61,0,0,0,5.06,11.2,17.13,17.13,0,0,0,11.69,4.95,15.47,15.47,0,0,0,11.52-4.13,13.66,13.66,0,0,0,4.55-10.85l-1-35.55-15.88-.54-.73-27.43,45.52,1.57,1.7,63.22q.48,18-12.49,30.14T1330.71,948.92Z" transform="translate(-52.95 -69.04)"/><path class="cls-19" d="M1475.05,770.89q20.87.72,33.61,13.7,11.8,12.38,12.31,31l.71,26.27A38.64,38.64,0,0,1,1509.42,872q-12.74,12.25-31.34,11.61l-16.49-.56,1.83,68.12-28.58-1L1430,769.34Zm18.26,44.18a16.14,16.14,0,0,0-4.77-11.56,17.3,17.3,0,0,0-12-4.74l-17.24-.59,1.56,57.88,17.24.59a15.07,15.07,0,0,0,11.44-4.22,14,14,0,0,0,4.47-10.95Z" transform="translate(-52.95 -69.04)"/><path class="cls-19" d="M1584.63,772.35a47.51,47.51,0,0,1,32.48,13.81q13.58,13.15,14.05,31.05l2.66,98.73q.48,18-12.49,30.21t-31.72,11.53a47.23,47.23,0,0,1-32.4-13.81q-13.5-13.15-14-31l-2.66-98.72q-.48-18,12.49-30.22T1584.63,772.35Zm16.72,43.26a15.63,15.63,0,0,0-5.06-11.21,17.1,17.1,0,0,0-11.69-4.94,15.44,15.44,0,0,0-11.52,4.14,13.69,13.69,0,0,0-4.54,10.88l2.66,99a15.51,15.51,0,0,0,5.13,11.21,17.46,17.46,0,0,0,11.77,4.95,15.23,15.23,0,0,0,11.45-4.15,13.85,13.85,0,0,0,4.47-10.88Z" transform="translate(-52.95 -69.04)"/><path class="cls-19" d="M1751.67,916.1q.81,18.92-9.41,32-6.72,8.86-19.32,12.17a54.75,54.75,0,0,1-15.82,1.48q-16.8-.59-28-8.9A48.79,48.79,0,0,1,1664,934.64a71.64,71.64,0,0,1-7-25.84l27.17-.94q2.25,15.89,9.39,23.23,5.28,5.55,11.93,5.48,9.38,0,14.74-8.3,2.76-4.08,2.55-11.89-.3-11.26-11.34-22.76l-26-23.84q-14.58-13.63-20.75-24.24a54.81,54.81,0,0,1-7-25.65q-.66-24.69,16.39-36.81,10.53-7.29,26.41-6.75,15.27.52,26.34,7.4a41.8,41.8,0,0,1,14.07,14.61,53.38,53.38,0,0,1,6.84,21.15l-27.25,3.82q-1.52-11.16-7.12-17.55-4-4.6-11.46-4.86-7.87-.27-11.77,6.23-3.18,5.22-3,13.16.33,12.42,11.87,25.64a101.67,101.67,0,0,0,13,12q10.2,8.28,13.46,11.56A102.22,102.22,0,0,1,1742.36,890a80.88,80.88,0,0,1,4.61,8.67Q1751.32,908.44,1751.67,916.1Z" transform="translate(-52.95 -69.04)"/><path class="cls-19" d="M1798.82,809.42l-30.4-1-.74-27.43,89.23,3.07.74,27.43-30.25-1,4.12,153.42-28.58-1Z" transform="translate(-52.95 -69.04)"/></g><path class="cls-20" d="M2964.34,3064.61s8.13,43.59,12.33,86.78a29.79,29.79,0,0,1-28.18,32.54c-57.54,2.94-180.62,8.78-224.81,7.23A9.69,9.69,0,0,1,2715,3178a21.72,21.72,0,0,1,11-11.8l202.48-95.41Z" transform="translate(-52.95 -69.04)"/><path class="cls-21" d="M2970.42,3038.9l-5.7,52.28s-35.47,16.93-60-1.51l14.2-58.35Z" transform="translate(-52.95 -69.04)"/><path class="cls-22" d="M2956.39,2057.06c2.81,13.61,20.86,680.47-47.58,980a10.13,10.13,0,0,0,6.06,11.74c11,4.37,32.48,10.63,58.18,11.25a17.47,17.47,0,0,0,17.21-12.71c19.72-69.54,114.06-417.92,123.63-750,10.7-371-.12-12.63-.12-12.63l-10.54-229.17Z" transform="translate(-52.95 -69.04)"/><path class="cls-23" d="M3198.51,3085.16s12.48,21.93,24.93,80.39a18.17,18.17,0,0,1-15.78,21.91c-19,2.05-48.22,4.73-71.66,4.79a18.11,18.11,0,0,1-18.13-20c2.39-21.41,10.14-56.56,34.87-84.14Z" transform="translate(-52.95 -69.04)"/><path class="cls-24" d="M3208.65,3017.88,3194.92,3097s-14.21,10.79-42.61,3.34l6.1-85.05Z" transform="translate(-52.95 -69.04)"/><path class="cls-25" d="M3238.77,2074.83c61.67,351.35-4.35,869.87-27.31,971.45a15.81,15.81,0,0,1-12.65,12.13c-10.67,1.87-28.24,3.48-45.63-1.39a14.48,14.48,0,0,1-10.54-13.24c-4-81.91-3-585-59.24-783.3a45.16,45.16,0,0,0-17.65-24.75l-106.17-74-9.24-121.1Z" transform="translate(-52.95 -69.04)"/><path class="cls-26" d="M2860.86,1411.6c174.72-4.55,368,42.38,368,42.38,55,303.42,15.35,654.39,15.35,654.39-134.94,36.76-288.09-18.95-288.09-18.95-23.7-126.82-132-483.33-132-483.33-85.48-9.78-156-33.74-214.28-65.75,43.69-51.64,63.9-117,72.58-155.6C2744.36,1403.35,2807,1413,2860.86,1411.6Z" transform="translate(-52.95 -69.04)"/><path class="cls-27" d="M2342.26,1159.14c17-20.9,38.78-11.29,38.78-11.29,26.75,108.37,162.42,195.16,301.36,236.89-8.68,38.6-28.89,104-72.58,155.6C2378.7,1413.27,2342.26,1159.14,2342.26,1159.14Z" transform="translate(-52.95 -69.04)"/><path class="cls-28" d="M2346.47,1164.37c-1.74,5.73,19.14,14.23,31.17-9.24.32-11.2,6.67-59.21-.11-68.27-36.08-48.22-105.72-108.44-105.72-108.44-11.56,11.63-1.84,22.85-1.84,22.85l33.84,34.58c-6.89,12.73-15.34,23.5-19.2,38.86a46.94,46.94,0,0,0,5,34.5c6,10.54,14.14,24.24,21.83,34.94C2326,1164.42,2346.47,1164.37,2346.47,1164.37Z" transform="translate(-52.95 -69.04)"/><path class="cls-29" d="M2318.67,1058.36l30.78,25.59,9.83,25.67-26.93,30.46s-9.64-51-16.55-62S2312.37,1061.65,2318.67,1058.36Z" transform="translate(-52.95 -69.04)"/><path class="cls-30" d="M3163.44,1623.82,3228.85,1454s164.27,109.34,192.46,249.69c-30.82,2.57-86.86,11.12-141.53,39.38C3267.08,1676.77,3163.44,1623.82,3163.44,1623.82Z" transform="translate(-52.95 -69.04)"/><path class="cls-31" d="M3022.32,1784.39s184.24,101.82,245.23,12.79c12.66-18.48,15.56-36.76,12.23-54.13,54.67-28.26,110.71-36.81,141.53-39.38,8.49,42.31,4.65,87.44-19.83,133.24-106.42,199.16-403-7.11-403-7.11Z" transform="translate(-52.95 -69.04)"/><path class="cls-32" d="M3036.51,1268.05l57.13,160.26a5.79,5.79,0,0,1-2.57,7c-15.08,8.53-69.45,33.27-135.65-7.82a27.29,27.29,0,0,1-12.75-19.37l-19.33-139Z" transform="translate(-52.95 -69.04)"/><path class="cls-33" d="M3060,1945.3l-100.37-350.49a10.22,10.22,0,0,0-8.64-7.36c-18.18-2.12-70.88-8.08-131.71-13.23C2746,1568,2660.88,1563,2610,1567.28a10.25,10.25,0,0,0-8.39,14.75c28.92,58.51,147.87,296.49,207.44,374.45a10.28,10.28,0,0,0,8.27,4.06l232.86-2.16A10.27,10.27,0,0,0,3060,1945.3Z" transform="translate(-52.95 -69.04)"/><path class="cls-34" d="M3035.73,1860.62s14-57.49,8.34-77.88-16.57-46.62-53-40.8-79.38,21.17-79.38,21.17,2.17,26.57,29.85,18l-17.16,13.28s2.45,21.27,25.83,9.91l-16,17.61s10.05,17.47,27.25,6.27S2987,1867.54,3035.73,1860.62Z" transform="translate(-52.95 -69.04)"/><path class="cls-7" d="M2826,1678.85a29.46,29.46,0,1,1-29.46-29.46A29.46,29.46,0,0,1,2826,1678.85Z" transform="translate(-52.95 -69.04)"/><path class="cls-7" d="M2948.26,1698.27,2927.82,1629a23.75,23.75,0,0,0-17.86-16.69c-64-13.36-239.34-16.19-241.1-16.22l.11-7.83c7.23.11,177.82,2.88,242.59,16.39a31.61,31.61,0,0,1,23.78,22.13l20.43,69.32Z" transform="translate(-52.95 -69.04)"/><path class="cls-35" d="M2947.17,1104.81c-2,2-84.12,173.09-84.12,173.09l93.08,47.67,100.55-149.89S2980.53,1071.49,2947.17,1104.81Z" transform="translate(-52.95 -69.04)"/><path class="cls-36" d="M3015.49,1179.83a16.62,16.62,0,0,1-1.11,13.83l-46.43,82.1a15.06,15.06,0,0,1-2.54,3.37c-5.53,5.45-24.44,21.33-39.06-.28-12.46-18.42-24.15-35.17-36.67-42.08-7.32-4-16.32-.81-20,7-7.65,16.08-22.47,48.87-31.78,80-2.33,7.79,1.46,16.15,8.6,19.22,18.85,8.1,56.1,22.76,89.16,27.6a14.51,14.51,0,0,0,14-6.33c14.22-20.68,54.31-78.44,68-92.9,12.71-13.43,36.17-8.37,46.74-5.14a14.22,14.22,0,0,0,11.86-1.65c10.72-6.86,29.44-23.92,12.31-52.82-9.91-16.74,21.27-33.32,22.18-51.82,1-21.16-11.66-27.7-25.75-38-19-13.89-34.85-18.68-50.38-39.17-11.52-15.2-18.67-38.08-35.75-48-40.16-23.43-75.34,14.74-84.29,47s36,55,64.21,58.79C2999.54,1143.24,3010.92,1167.27,3015.49,1179.83Z" transform="translate(-52.95 -69.04)"/><path class="cls-37" d="M3000.22,1301.47s17.86-55.43,40.72-53.4,40.85,26.2,12.52,53.36C3018.22,1335.21,3000.22,1301.47,3000.22,1301.47Z" transform="translate(-52.95 -69.04)"/></g></g></svg>