<svg xmlns="http://www.w3.org/2000/svg" xmlns:xlink="http://www.w3.org/1999/xlink" viewBox="0 0 3604.11 3162.36"><defs><style>.cls-1{fill:none;}.cls-2{isolation:isolate;}.cls-3{fill:url(#linear-gradient);}.cls-4{fill:#e0e0e0;}.cls-5{fill:#f5f5f5;}.cls-6{fill:#e6e6e6;}.cls-7{fill:#f0f0f0;}.cls-8{fill:url(#linear-gradient-2);}.cls-9{fill:url(#linear-gradient-3);}.cls-10{fill:url(#linear-gradient-4);}.cls-11{fill:url(#linear-gradient-5);}.cls-12{fill:url(#linear-gradient-6);}.cls-13{fill:url(#linear-gradient-7);}.cls-14{fill:url(#linear-gradient-8);}.cls-15{fill:url(#linear-gradient-9);}.cls-16{fill:url(#linear-gradient-10);}.cls-17{fill:url(#linear-gradient-11);}.cls-18{fill:url(#linear-gradient-12);}.cls-19{fill:url(#linear-gradient-13);}.cls-20{fill:url(#linear-gradient-14);}.cls-21{fill:url(#linear-gradient-15);}.cls-22{fill:url(#linear-gradient-16);}.cls-23{fill:url(#linear-gradient-17);}.cls-24{fill:#7d97f4;}.cls-25{fill:url(#linear-gradient-18);}.cls-26{fill:#fff;}.cls-27{fill-rule:evenodd;fill:url(#linear-gradient-19);}.cls-28{fill:url(#linear-gradient-20);}.cls-29{fill:url(#linear-gradient-21);}.cls-30{mix-blend-mode:soft-light;}.cls-31{clip-path:url(#clip-path);}.cls-32{fill:url(#linear-gradient-22);}</style><linearGradient id="linear-gradient" x1="3957.91" y1="4527.83" x2="977.43" y2="826.25" gradientUnits="userSpaceOnUse"><stop offset="0" stop-color="#dae3fe"/><stop offset="1" stop-color="#e9effd"/></linearGradient><linearGradient id="linear-gradient-2" x1="3343.03" y1="-1143.64" x2="2982.22" y2="-628.21" gradientTransform="matrix(-1.39, -0.07, -0.07, 1.39, 3256.08, -570.62)" gradientUnits="userSpaceOnUse"><stop offset="0" stop-color="#09005d"/><stop offset="1" stop-color="#1a0f91"/></linearGradient><linearGradient id="linear-gradient-3" x1="17029.29" y1="-31163.1" x2="16668.49" y2="-30647.66" gradientTransform="matrix(0.65, -1.23, -1.23, -0.65, 16722.22, -5472.2)" xlink:href="#linear-gradient-2"/><linearGradient id="linear-gradient-4" x1="-6314.92" y1="3650.26" x2="-6310.65" y2="4103.25" gradientTransform="translate(7658.49)" xlink:href="#linear-gradient-2"/><linearGradient id="linear-gradient-5" x1="-6424.11" y1="3144.37" x2="-6447.62" y2="2960.61" gradientTransform="translate(7658.49)" gradientUnits="userSpaceOnUse"><stop offset="0" stop-color="#febbba"/><stop offset="1" stop-color="#ff928e"/></linearGradient><linearGradient id="linear-gradient-6" x1="-6926.95" y1="3656.03" x2="-6922.67" y2="4109.02" gradientTransform="translate(7658.49)" xlink:href="#linear-gradient-2"/><linearGradient id="linear-gradient-7" x1="-6937.84" y1="3207.35" x2="-6960.74" y2="3028.28" xlink:href="#linear-gradient-5"/><linearGradient id="linear-gradient-8" x1="-7097.9" y1="2526.91" x2="-6392.9" y2="2526.91" gradientTransform="translate(7658.49)" xlink:href="#linear-gradient-2"/><linearGradient id="linear-gradient-9" x1="11190.03" y1="-23309.74" x2="10577.95" y2="-22452.83" gradientTransform="translate(7658.49)" gradientUnits="userSpaceOnUse"><stop offset="0" stop-color="#4f52ff"/><stop offset="1" stop-color="#4042e2"/></linearGradient><linearGradient id="linear-gradient-10" x1="3440.84" y1="1600.89" x2="3483.14" y2="1600.89" gradientTransform="matrix(-1, 0, 0, 1, 4631.63, 0)" xlink:href="#linear-gradient-2"/><linearGradient id="linear-gradient-11" x1="-6764.72" y1="2035.09" x2="-6443.7" y2="2035.09" xlink:href="#linear-gradient-5"/><linearGradient id="linear-gradient-12" x1="-6466.84" y1="1653.17" x2="-5879.13" y2="1653.17" xlink:href="#linear-gradient-5"/><linearGradient id="linear-gradient-13" x1="-6684.72" y1="1292.59" x2="-6476.09" y2="1078.53" xlink:href="#linear-gradient-5"/><linearGradient id="linear-gradient-14" x1="-6382.15" y1="943.67" x2="-6642.26" y2="1287.78" xlink:href="#linear-gradient-5"/><linearGradient id="linear-gradient-15" x1="-6580.18" y1="1028.24" x2="-6270.09" y2="1028.24" gradientTransform="translate(7658.49)" xlink:href="#linear-gradient-2"/><linearGradient id="linear-gradient-16" x1="-6763.12" y1="1216.18" x2="-6554.48" y2="1002.12" xlink:href="#linear-gradient-5"/><linearGradient id="linear-gradient-17" x1="3605.93" y1="1657.89" x2="3840.88" y2="1657.89" gradientTransform="matrix(-1, 0, 0, 1, 4631.63, 0)" xlink:href="#linear-gradient-2"/><linearGradient id="linear-gradient-18" x1="2700" y1="294.21" x2="2717.43" y2="1491.42" gradientTransform="translate(1491.77 -1627.2) rotate(45)" gradientUnits="userSpaceOnUse"><stop offset="0" stop-color="#4f52fd"/><stop offset="1" stop-color="#4042e0"/></linearGradient><linearGradient id="linear-gradient-19" x1="3131.03" y1="1513.72" x2="3074.89" y2="2343.37" gradientTransform="matrix(1, 0, 0, 1, 0, 0)" xlink:href="#linear-gradient-18"/><linearGradient id="linear-gradient-20" x1="2638.68" y1="2577.89" x2="2670.97" y2="3344.96" gradientTransform="matrix(1, 0, 0, 1, 0, 0)" xlink:href="#linear-gradient-18"/><linearGradient id="linear-gradient-21" x1="2638.4" y1="2409.86" x2="2669.63" y2="3151.66" gradientUnits="userSpaceOnUse"><stop offset="0" stop-color="#4f16fd"/><stop offset="1" stop-color="#4018e0"/></linearGradient><clipPath id="clip-path" transform="translate(-52.95 -277.58)"><polygon id="SVGID" class="cls-1" points="2360.22 2725.11 2651.4 2900.88 2925.98 2735.5 2925.98 2479.46 2383.08 2479.46 2360.22 2725.11"/></clipPath><linearGradient id="linear-gradient-22" x1="2675.54" y1="2460.8" x2="2620.41" y2="3038.01" gradientTransform="matrix(1, 0, 0, 1, 0, 0)" xlink:href="#linear-gradient-18"/></defs><g class="cls-2"><g id="Illustration"><path class="cls-3" d="M3239.29,2995.12c-74,68-144,111.92-199.36,146.59-650.34,407.53-1419.87,288.74-1583.41,259.72C1215,3358.6,748.19,3275.79,410.68,2929.16c-510.62-524.43-431.11-1350.65-35-1896,72.45-99.76,455.14-653.47,1232.95-742.27,470.73-53.73,1019.44,54.65,1416.8,345.4C3859.5,1246.54,3800.12,2479.47,3239.29,2995.12Z" transform="translate(-52.95 -277.58)"/><rect class="cls-4" x="777.73" y="620.8" width="2048.65" height="1974.73"/><rect class="cls-5" x="810.6" y="656.66" width="2015.77" height="1904.43"/><polygon class="cls-6" points="825.48 2099.86 825.48 1527.05 885 1527.05 885 1451.39 1018.9 1388.75 1018.9 1311.31 1041.22 1311.31 1041.22 1527.05 1063.54 1527.05 1063.54 2099.86 1093.29 2099.86 1093.29 1802.3 1160.25 1802.3 1160.25 1646.07 1182.56 1646.07 1182.56 2099.86 1234.64 2099.86 1234.64 1928.76 1271.83 1928.76 1271.83 1884.13 1353.66 1884.13 1353.66 1727.9 1398.3 1727.9 1398.3 1623.76 1450.37 1623.76 1450.37 1467.53 1472.69 1467.53 1472.69 1623.76 1524.77 1623.76 1524.77 1727.9 1569.4 1727.9 1569.4 1884.13 1651.23 1884.13 1651.23 1928.76 1688.43 1928.76 1688.43 2099.86 1733.06 2099.86 1733.06 1884.13 1814.89 1884.13 1814.89 1408.02 1837.21 1408.02 1837.21 1355.95 2015.75 1355.95 2015.75 1408.02 2052.95 1408.02 2052.95 1750.22 2201.73 1750.22 2201.73 1787.42 2253.8 1787.42 2253.8 1809.74 2201.73 1809.74 2201.73 1943.64 2357.95 1943.64 2357.95 1497.29 2387.71 1497.29 2387.71 1408.02 2462.1 1408.02 2462.1 1065.82 2484.42 1065.82 2484.42 1408.02 2536.49 1408.02 2536.49 1497.29 2826.38 1497.29 2826.38 2561.09 810.6 2561.09 810.6 2099.86 825.48 2099.86"/><rect class="cls-7" x="2650.4" y="1520.61" width="21.08" height="21.08"/><rect class="cls-7" x="2650.4" y="1555.95" width="21.08" height="21.08"/><rect class="cls-7" x="2650.4" y="1697.3" width="21.08" height="21.08"/><rect class="cls-7" x="2650.4" y="1732.63" width="21.08" height="21.08"/><rect class="cls-7" x="2650.4" y="1767.97" width="21.08" height="21.08"/><rect class="cls-7" x="2650.4" y="1873.98" width="21.08" height="21.08"/><rect class="cls-7" x="2650.4" y="1909.31" width="21.08" height="21.08"/><rect class="cls-7" x="2616.92" y="1661.96" width="21.08" height="21.08"/><rect class="cls-7" x="2616.92" y="1697.3" width="21.08" height="21.08"/><rect class="cls-7" x="2616.92" y="1732.63" width="21.08" height="21.08"/><rect class="cls-7" x="2616.92" y="1767.97" width="21.08" height="21.08"/><rect class="cls-7" x="2616.92" y="1803.3" width="21.08" height="21.08"/><rect class="cls-7" x="2616.92" y="1873.98" width="21.08" height="21.08"/><rect class="cls-7" x="2616.92" y="1909.31" width="21.08" height="21.08"/><rect class="cls-7" x="2583.45" y="1520.61" width="21.08" height="21.08"/><rect class="cls-7" x="2583.45" y="1555.95" width="21.08" height="21.08"/><rect class="cls-7" x="2583.45" y="1591.29" width="21.08" height="21.08"/><rect class="cls-7" x="2583.45" y="1626.62" width="21.08" height="21.08"/><rect class="cls-7" x="2583.45" y="1661.96" width="21.08" height="21.08"/><rect class="cls-7" x="2583.45" y="1697.3" width="21.08" height="21.08"/><rect class="cls-7" x="2583.45" y="1732.63" width="21.08" height="21.08"/><rect class="cls-7" x="2583.45" y="1767.97" width="21.08" height="21.08"/><rect class="cls-7" x="2583.45" y="1803.3" width="21.08" height="21.08"/><rect class="cls-7" x="2583.45" y="1838.64" width="21.08" height="21.08"/><rect class="cls-7" x="2583.45" y="1909.31" width="21.08" height="21.08"/><rect class="cls-7" x="2549.97" y="1520.61" width="21.08" height="21.08"/><rect class="cls-7" x="2549.97" y="1555.95" width="21.08" height="21.08"/><rect class="cls-7" x="2549.97" y="1591.29" width="21.08" height="21.08"/><rect class="cls-7" x="2549.97" y="1626.62" width="21.08" height="21.08"/><rect class="cls-7" x="2549.97" y="1661.96" width="21.08" height="21.08"/><rect class="cls-7" x="2549.97" y="1697.3" width="21.08" height="21.08"/><rect class="cls-7" x="2549.97" y="1732.63" width="21.08" height="21.08"/><rect class="cls-7" x="2549.97" y="2050.66" width="21.08" height="21.08"/><rect class="cls-7" x="2516.5" y="1520.61" width="21.08" height="21.08"/><rect class="cls-7" x="2516.5" y="1555.95" width="21.08" height="21.08"/><rect class="cls-7" x="2516.5" y="1591.29" width="21.08" height="21.08"/><rect class="cls-7" x="2516.5" y="1626.62" width="21.08" height="21.08"/><rect class="cls-7" x="2516.5" y="1661.96" width="21.08" height="21.08"/><rect class="cls-7" x="2516.5" y="1697.3" width="21.08" height="21.08"/><rect class="cls-7" x="2516.5" y="1732.63" width="21.08" height="21.08"/><rect class="cls-7" x="2516.5" y="1767.97" width="21.08" height="21.08"/><rect class="cls-7" x="2516.5" y="1979.98" width="21.08" height="21.08"/><rect class="cls-7" x="2516.5" y="2015.32" width="21.08" height="21.08"/><rect class="cls-7" x="2516.5" y="2050.66" width="21.08" height="21.08"/><rect class="cls-7" x="2516.5" y="2085.99" width="21.08" height="21.08"/><rect class="cls-7" x="2516.5" y="2227.34" width="21.08" height="21.08"/><rect class="cls-7" x="2483.02" y="1520.61" width="21.08" height="21.08"/><rect class="cls-7" x="2483.02" y="1555.95" width="21.08" height="21.08"/><rect class="cls-7" x="2483.02" y="1591.29" width="21.08" height="21.08"/><rect class="cls-7" x="2483.02" y="1626.62" width="21.08" height="21.08"/><rect class="cls-7" x="2483.02" y="1661.96" width="21.08" height="21.08"/><rect class="cls-7" x="2483.02" y="1697.3" width="21.08" height="21.08"/><rect class="cls-7" x="2483.02" y="1732.63" width="21.08" height="21.08"/><rect class="cls-7" x="2483.02" y="1767.97" width="21.08" height="21.08"/><rect class="cls-7" x="2483.02" y="1803.3" width="21.08" height="21.08"/><rect class="cls-7" x="2483.02" y="1838.64" width="21.08" height="21.08"/><rect class="cls-7" x="2483.02" y="1944.65" width="21.08" height="21.08"/><rect class="cls-7" x="2483.02" y="1979.98" width="21.08" height="21.08"/><rect class="cls-7" x="2483.02" y="2015.32" width="21.08" height="21.08"/><rect class="cls-7" x="2483.02" y="2050.66" width="21.08" height="21.08"/><rect class="cls-7" x="2483.02" y="2085.99" width="21.08" height="21.08"/><rect class="cls-7" x="2483.02" y="2227.34" width="21.08" height="21.08"/><rect class="cls-7" x="2449.54" y="1520.61" width="21.08" height="21.08"/><rect class="cls-7" x="2449.54" y="1555.95" width="21.08" height="21.08"/><rect class="cls-7" x="2449.54" y="1591.29" width="21.08" height="21.08"/><rect class="cls-7" x="2449.54" y="1626.62" width="21.08" height="21.08"/><rect class="cls-7" x="2449.54" y="1661.96" width="21.08" height="21.08"/><rect class="cls-7" x="2449.54" y="1697.3" width="21.08" height="21.08"/><rect class="cls-7" x="2449.54" y="1732.63" width="21.08" height="21.08"/><rect class="cls-7" x="2449.54" y="1767.97" width="21.08" height="21.08"/><rect class="cls-7" x="2449.54" y="1803.3" width="21.08" height="21.08"/><rect class="cls-7" x="2449.54" y="1838.64" width="21.08" height="21.08"/><rect class="cls-7" x="2449.54" y="1873.98" width="21.08" height="21.08"/><rect class="cls-7" x="2449.54" y="1909.31" width="21.08" height="21.08"/><rect class="cls-7" x="2449.54" y="1944.65" width="21.08" height="21.08"/><rect class="cls-7" x="2449.54" y="1979.98" width="21.08" height="21.08"/><rect class="cls-7" x="2449.54" y="2015.32" width="21.08" height="21.08"/><rect class="cls-7" x="2449.54" y="2050.66" width="21.08" height="21.08"/><rect class="cls-7" x="2449.54" y="2085.99" width="21.08" height="21.08"/><rect class="cls-7" x="2449.54" y="2121.33" width="21.08" height="21.08"/><rect class="cls-7" x="2416.07" y="1520.61" width="21.08" height="21.08"/><rect class="cls-7" x="2416.07" y="1555.95" width="21.08" height="21.08"/><rect class="cls-7" x="2416.07" y="1591.29" width="21.08" height="21.08"/><rect class="cls-7" x="2416.07" y="1626.62" width="21.08" height="21.08"/><rect class="cls-7" x="2416.07" y="1661.96" width="21.08" height="21.08"/><rect class="cls-7" x="2416.07" y="1697.3" width="21.08" height="21.08"/><rect class="cls-7" x="2416.07" y="1732.63" width="21.08" height="21.08"/><rect class="cls-7" x="2416.07" y="1767.97" width="21.08" height="21.08"/><rect class="cls-7" x="2416.07" y="1803.3" width="21.08" height="21.08"/><rect class="cls-7" x="2416.07" y="1838.64" width="21.08" height="21.08"/><rect class="cls-7" x="2416.07" y="1944.65" width="21.08" height="21.08"/><rect class="cls-7" x="2416.07" y="1979.98" width="21.08" height="21.08"/><rect class="cls-7" x="2416.07" y="2015.32" width="21.08" height="21.08"/><rect class="cls-7" x="2416.07" y="2050.66" width="21.08" height="21.08"/><rect class="cls-7" x="2382.59" y="1520.61" width="21.08" height="21.08"/><rect class="cls-7" x="2382.59" y="1555.95" width="21.08" height="21.08"/><rect class="cls-7" x="2382.59" y="1591.29" width="21.08" height="21.08"/><rect class="cls-7" x="2382.59" y="1626.62" width="21.08" height="21.08"/><rect class="cls-7" x="2382.59" y="1661.96" width="21.08" height="21.08"/><rect class="cls-7" x="2382.59" y="1697.3" width="21.08" height="21.08"/><rect class="cls-7" x="2382.59" y="1732.63" width="21.08" height="21.08"/><rect class="cls-7" x="2382.59" y="1767.97" width="21.08" height="21.08"/><rect class="cls-7" x="2382.59" y="1803.3" width="21.08" height="21.08"/><rect class="cls-7" x="2382.59" y="1838.64" width="21.08" height="21.08"/><rect class="cls-7" x="2382.59" y="1944.65" width="21.08" height="21.08"/><rect class="cls-7" x="2382.59" y="1979.98" width="21.08" height="21.08"/><rect class="cls-7" x="2382.59" y="2015.32" width="21.08" height="21.08"/><rect class="cls-7" x="2005.67" y="1428.87" width="21.08" height="21.08"/><rect class="cls-7" x="2005.67" y="1464.2" width="21.08" height="21.08"/><rect class="cls-7" x="2005.67" y="1499.54" width="21.08" height="21.08"/><rect class="cls-7" x="2005.67" y="1534.87" width="21.08" height="21.08"/><rect class="cls-7" x="2005.67" y="1570.21" width="21.08" height="21.08"/><rect class="cls-7" x="2005.67" y="1605.55" width="21.08" height="21.08"/><rect class="cls-7" x="2005.67" y="1640.88" width="21.08" height="21.08"/><rect class="cls-7" x="2005.67" y="1676.22" width="21.08" height="21.08"/><rect class="cls-7" x="2005.67" y="1782.23" width="21.08" height="21.08"/><rect class="cls-7" x="2005.67" y="1817.56" width="21.08" height="21.08"/><rect class="cls-7" x="1972.2" y="1428.87" width="21.08" height="21.08"/><rect class="cls-7" x="1972.2" y="1464.2" width="21.08" height="21.08"/><rect class="cls-7" x="1972.2" y="1499.54" width="21.08" height="21.08"/><rect class="cls-7" x="1972.2" y="1534.87" width="21.08" height="21.08"/><rect class="cls-7" x="1972.2" y="1570.21" width="21.08" height="21.08"/><rect class="cls-7" x="1972.2" y="1605.55" width="21.08" height="21.08"/><rect class="cls-7" x="1972.2" y="1640.88" width="21.08" height="21.08"/><rect class="cls-7" x="1972.2" y="1676.22" width="21.08" height="21.08"/><rect class="cls-7" x="1972.2" y="1817.56" width="21.08" height="21.08"/><rect class="cls-7" x="1938.72" y="1428.87" width="21.08" height="21.08"/><rect class="cls-7" x="1938.72" y="1464.2" width="21.08" height="21.08"/><rect class="cls-7" x="1938.72" y="1499.54" width="21.08" height="21.08"/><rect class="cls-7" x="1938.72" y="1534.87" width="21.08" height="21.08"/><rect class="cls-7" x="1938.72" y="1570.21" width="21.08" height="21.08"/><rect class="cls-7" x="1938.72" y="1605.55" width="21.08" height="21.08"/><rect class="cls-7" x="1938.72" y="1640.88" width="21.08" height="21.08"/><rect class="cls-7" x="1938.72" y="1676.22" width="21.08" height="21.08"/><rect class="cls-7" x="1905.24" y="1428.87" width="21.08" height="21.08"/><rect class="cls-7" x="1905.24" y="1464.2" width="21.08" height="21.08"/><rect class="cls-7" x="1905.24" y="1499.54" width="21.08" height="21.08"/><rect class="cls-7" x="1905.24" y="1534.87" width="21.08" height="21.08"/><rect class="cls-7" x="1905.24" y="1570.21" width="21.08" height="21.08"/><rect class="cls-7" x="1905.24" y="1605.55" width="21.08" height="21.08"/><rect class="cls-7" x="1905.24" y="1676.22" width="21.08" height="21.08"/><rect class="cls-7" x="1905.24" y="1711.55" width="21.08" height="21.08"/><rect class="cls-7" x="1905.24" y="1817.56" width="21.08" height="21.08"/><rect class="cls-7" x="1905.24" y="1852.9" width="21.08" height="21.08"/><rect class="cls-7" x="1905.24" y="1888.23" width="21.08" height="21.08"/><rect class="cls-7" x="1905.24" y="1923.57" width="21.08" height="21.08"/><rect class="cls-7" x="1905.24" y="1958.91" width="21.08" height="21.08"/><rect class="cls-7" x="1905.24" y="1994.24" width="21.08" height="21.08"/><rect class="cls-7" x="1905.24" y="2029.58" width="21.08" height="21.08"/><rect class="cls-7" x="1871.77" y="1428.87" width="21.08" height="21.08"/><rect class="cls-7" x="1871.77" y="1464.2" width="21.08" height="21.08"/><rect class="cls-7" x="1871.77" y="1499.54" width="21.08" height="21.08"/><rect class="cls-7" x="1871.77" y="1534.87" width="21.08" height="21.08"/><rect class="cls-7" x="1871.77" y="1570.21" width="21.08" height="21.08"/><rect class="cls-7" x="1871.77" y="1605.55" width="21.08" height="21.08"/><rect class="cls-7" x="1871.77" y="1711.55" width="21.08" height="21.08"/><rect class="cls-7" x="1871.77" y="1746.89" width="21.08" height="21.08"/><rect class="cls-7" x="1871.77" y="1782.23" width="21.08" height="21.08"/><rect class="cls-7" x="1871.77" y="1817.56" width="21.08" height="21.08"/><rect class="cls-7" x="1871.77" y="1852.9" width="21.08" height="21.08"/><rect class="cls-7" x="1871.77" y="1888.23" width="21.08" height="21.08"/><rect class="cls-7" x="1871.77" y="1923.57" width="21.08" height="21.08"/><rect class="cls-7" x="1871.77" y="1958.91" width="21.08" height="21.08"/><rect class="cls-7" x="1871.77" y="1994.24" width="21.08" height="21.08"/><rect class="cls-7" x="1871.77" y="2029.58" width="21.08" height="21.08"/><rect class="cls-7" x="1871.77" y="2064.92" width="21.08" height="21.08"/><rect class="cls-7" x="1871.77" y="2135.59" width="21.08" height="21.08"/><rect class="cls-7" x="1838.29" y="1428.87" width="21.08" height="21.08"/><rect class="cls-7" x="1838.29" y="1464.2" width="21.08" height="21.08"/><rect class="cls-7" x="1838.29" y="1499.54" width="21.08" height="21.08"/><rect class="cls-7" x="1838.29" y="1534.87" width="21.08" height="21.08"/><rect class="cls-7" x="1838.29" y="1570.21" width="21.08" height="21.08"/><rect class="cls-7" x="1838.29" y="1605.55" width="21.08" height="21.08"/><rect class="cls-7" x="1838.29" y="1711.55" width="21.08" height="21.08"/><rect class="cls-7" x="1838.29" y="1746.89" width="21.08" height="21.08"/><rect class="cls-7" x="1838.29" y="1782.23" width="21.08" height="21.08"/><rect class="cls-7" x="1838.29" y="1817.56" width="21.08" height="21.08"/><rect class="cls-7" x="1838.29" y="1923.57" width="21.08" height="21.08"/><rect class="cls-7" x="1838.29" y="1958.91" width="21.08" height="21.08"/><rect class="cls-7" x="1838.29" y="1994.24" width="21.08" height="21.08"/><rect class="cls-7" x="1838.29" y="2029.58" width="21.08" height="21.08"/><rect class="cls-7" x="1838.29" y="2064.92" width="21.08" height="21.08"/><rect class="cls-7" x="1838.29" y="2135.59" width="21.08" height="21.08"/><rect class="cls-7" x="1838.29" y="2170.92" width="21.08" height="21.08"/><rect class="cls-7" x="1534.52" y="1757.43" width="21.08" height="21.08"/><rect class="cls-7" x="1534.52" y="1792.77" width="21.08" height="21.08"/><rect class="cls-7" x="1534.52" y="1828.1" width="21.08" height="21.08"/><rect class="cls-7" x="1534.52" y="1863.44" width="21.08" height="21.08"/><rect class="cls-7" x="1534.52" y="1898.77" width="21.08" height="21.08"/><rect class="cls-7" x="1534.52" y="1934.11" width="21.08" height="21.08"/><rect class="cls-7" x="1534.52" y="1969.45" width="21.08" height="21.08"/><rect class="cls-7" x="1534.52" y="2075.45" width="21.08" height="21.08"/><rect class="cls-7" x="1534.52" y="2110.79" width="21.08" height="21.08"/><rect class="cls-7" x="1534.52" y="2146.13" width="21.08" height="21.08"/><rect class="cls-7" x="1501.05" y="1757.43" width="21.08" height="21.08"/><rect class="cls-7" x="1501.05" y="1792.77" width="21.08" height="21.08"/><rect class="cls-7" x="1501.05" y="1828.1" width="21.08" height="21.08"/><rect class="cls-7" x="1501.05" y="1863.44" width="21.08" height="21.08"/><rect class="cls-7" x="1501.05" y="1898.77" width="21.08" height="21.08"/><rect class="cls-7" x="1501.05" y="1934.11" width="21.08" height="21.08"/><rect class="cls-7" x="1501.05" y="1969.45" width="21.08" height="21.08"/><rect class="cls-7" x="1467.57" y="1757.43" width="21.08" height="21.08"/><rect class="cls-7" x="1467.57" y="1792.77" width="21.08" height="21.08"/><rect class="cls-7" x="1467.57" y="1828.1" width="21.08" height="21.08"/><rect class="cls-7" x="1467.57" y="1863.44" width="21.08" height="21.08"/><rect class="cls-7" x="1467.57" y="1898.77" width="21.08" height="21.08"/><rect class="cls-7" x="1467.57" y="1934.11" width="21.08" height="21.08"/><rect class="cls-7" x="1467.57" y="1969.45" width="21.08" height="21.08"/><rect class="cls-7" x="1434.1" y="1757.43" width="21.08" height="21.08"/><rect class="cls-7" x="1434.1" y="1792.77" width="21.08" height="21.08"/><rect class="cls-7" x="1434.1" y="1828.1" width="21.08" height="21.08"/><rect class="cls-7" x="1434.1" y="1863.44" width="21.08" height="21.08"/><rect class="cls-7" x="1434.1" y="1898.77" width="21.08" height="21.08"/><rect class="cls-7" x="1434.1" y="1934.11" width="21.08" height="21.08"/><rect class="cls-7" x="1434.1" y="1969.45" width="21.08" height="21.08"/><rect class="cls-7" x="1434.1" y="2004.78" width="21.08" height="21.08"/><rect class="cls-7" x="1434.1" y="2040.12" width="21.08" height="21.08"/><rect class="cls-7" x="1434.1" y="2075.45" width="21.08" height="21.08"/><rect class="cls-7" x="1434.1" y="2110.79" width="21.08" height="21.08"/><rect class="cls-7" x="1400.62" y="1757.43" width="21.08" height="21.08"/><rect class="cls-7" x="1400.62" y="1792.77" width="21.08" height="21.08"/><rect class="cls-7" x="1400.62" y="1828.1" width="21.08" height="21.08"/><rect class="cls-7" x="1400.62" y="1863.44" width="21.08" height="21.08"/><rect class="cls-7" x="1400.62" y="1898.77" width="21.08" height="21.08"/><rect class="cls-7" x="1400.62" y="1934.11" width="21.08" height="21.08"/><rect class="cls-7" x="1400.62" y="1969.45" width="21.08" height="21.08"/><rect class="cls-7" x="1400.62" y="2004.78" width="21.08" height="21.08"/><rect class="cls-7" x="1400.62" y="2040.12" width="21.08" height="21.08"/><rect class="cls-7" x="1400.62" y="2075.45" width="21.08" height="21.08"/><rect class="cls-7" x="1400.62" y="2110.79" width="21.08" height="21.08"/><rect class="cls-7" x="1400.62" y="2146.13" width="21.08" height="21.08"/><rect class="cls-7" x="1400.62" y="2252.14" width="21.08" height="21.08"/><rect class="cls-7" x="1400.62" y="2287.47" width="21.08" height="21.08"/><rect class="cls-7" x="1367.14" y="1757.43" width="21.08" height="21.08"/><rect class="cls-7" x="1367.14" y="1792.77" width="21.08" height="21.08"/><rect class="cls-7" x="1367.14" y="1828.1" width="21.08" height="21.08"/><rect class="cls-7" x="1367.14" y="1934.11" width="21.08" height="21.08"/><rect class="cls-7" x="1367.14" y="1969.45" width="21.08" height="21.08"/><rect class="cls-7" x="1367.14" y="2004.78" width="21.08" height="21.08"/><rect class="cls-7" x="1367.14" y="2040.12" width="21.08" height="21.08"/><rect class="cls-7" x="1367.14" y="2075.45" width="21.08" height="21.08"/><rect class="cls-7" x="1367.14" y="2110.79" width="21.08" height="21.08"/><rect class="cls-7" x="1367.14" y="2146.13" width="21.08" height="21.08"/><rect class="cls-7" x="1367.14" y="2252.14" width="21.08" height="21.08"/><rect class="cls-7" x="1367.14" y="2287.47" width="21.08" height="21.08"/><rect class="cls-7" x="1367.14" y="2322.81" width="21.08" height="21.08"/><rect class="cls-7" x="1016.26" y="1545.41" width="21.08" height="21.08"/><rect class="cls-7" x="1016.26" y="1580.75" width="21.08" height="21.08"/><rect class="cls-7" x="1016.26" y="1616.09" width="21.08" height="21.08"/><rect class="cls-7" x="1016.26" y="1651.42" width="21.08" height="21.08"/><rect class="cls-7" x="1016.26" y="1686.76" width="21.08" height="21.08"/><rect class="cls-7" x="1016.26" y="1722.09" width="21.08" height="21.08"/><rect class="cls-7" x="1016.26" y="1757.43" width="21.08" height="21.08"/><rect class="cls-7" x="1016.26" y="1792.77" width="21.08" height="21.08"/><rect class="cls-7" x="1016.26" y="1828.1" width="21.08" height="21.08"/><rect class="cls-7" x="1016.26" y="1863.44" width="21.08" height="21.08"/><rect class="cls-7" x="1016.26" y="1898.77" width="21.08" height="21.08"/><rect class="cls-7" x="1016.26" y="1934.11" width="21.08" height="21.08"/><rect class="cls-7" x="1016.26" y="1969.45" width="21.08" height="21.08"/><rect class="cls-7" x="1016.26" y="2004.78" width="21.08" height="21.08"/><rect class="cls-7" x="1016.26" y="2040.12" width="21.08" height="21.08"/><rect class="cls-7" x="1016.26" y="2075.45" width="21.08" height="21.08"/><rect class="cls-7" x="1016.26" y="2110.79" width="21.08" height="21.08"/><rect class="cls-7" x="1016.26" y="2146.13" width="21.08" height="21.08"/><rect class="cls-7" x="1016.26" y="2181.46" width="21.08" height="21.08"/><rect class="cls-7" x="1016.26" y="2216.8" width="21.08" height="21.08"/><rect class="cls-7" x="1016.26" y="2252.14" width="21.08" height="21.08"/><rect class="cls-7" x="1016.26" y="2287.47" width="21.08" height="21.08"/><rect class="cls-7" x="1016.26" y="2322.81" width="21.08" height="21.08"/><rect class="cls-7" x="982.78" y="1545.41" width="21.08" height="21.08"/><rect class="cls-7" x="982.78" y="1580.75" width="21.08" height="21.08"/><rect class="cls-7" x="982.78" y="1616.09" width="21.08" height="21.08"/><rect class="cls-7" x="982.78" y="1651.42" width="21.08" height="21.08"/><rect class="cls-7" x="982.78" y="1686.76" width="21.08" height="21.08"/><rect class="cls-7" x="982.78" y="1722.09" width="21.08" height="21.08"/><rect class="cls-7" x="982.78" y="1757.43" width="21.08" height="21.08"/><rect class="cls-7" x="982.78" y="1792.77" width="21.08" height="21.08"/><rect class="cls-7" x="982.78" y="1828.1" width="21.08" height="21.08"/><rect class="cls-7" x="982.78" y="1863.44" width="21.08" height="21.08"/><rect class="cls-7" x="982.78" y="1898.77" width="21.08" height="21.08"/><rect class="cls-7" x="982.78" y="1934.11" width="21.08" height="21.08"/><rect class="cls-7" x="982.78" y="1969.45" width="21.08" height="21.08"/><rect class="cls-7" x="982.78" y="2004.78" width="21.08" height="21.08"/><rect class="cls-7" x="982.78" y="2040.12" width="21.08" height="21.08"/><rect class="cls-7" x="982.78" y="2075.45" width="21.08" height="21.08"/><rect class="cls-7" x="982.78" y="2110.79" width="21.08" height="21.08"/><rect class="cls-7" x="982.78" y="2146.13" width="21.08" height="21.08"/><rect class="cls-7" x="982.78" y="2181.46" width="21.08" height="21.08"/><rect class="cls-7" x="949.31" y="1545.41" width="21.08" height="21.08"/><rect class="cls-7" x="949.31" y="1580.75" width="21.08" height="21.08"/><rect class="cls-7" x="949.31" y="1616.09" width="21.08" height="21.08"/><rect class="cls-7" x="949.31" y="1651.42" width="21.08" height="21.08"/><rect class="cls-7" x="949.31" y="1686.76" width="21.08" height="21.08"/><rect class="cls-7" x="949.31" y="1722.09" width="21.08" height="21.08"/><rect class="cls-7" x="949.31" y="1757.43" width="21.08" height="21.08"/><rect class="cls-7" x="949.31" y="1792.77" width="21.08" height="21.08"/><rect class="cls-7" x="949.31" y="1828.1" width="21.08" height="21.08"/><rect class="cls-7" x="949.31" y="1863.44" width="21.08" height="21.08"/><rect class="cls-7" x="949.31" y="1898.77" width="21.08" height="21.08"/><rect class="cls-7" x="949.31" y="1934.11" width="21.08" height="21.08"/><rect class="cls-7" x="949.31" y="1969.45" width="21.08" height="21.08"/><rect class="cls-7" x="949.31" y="2004.78" width="21.08" height="21.08"/><rect class="cls-7" x="949.31" y="2040.12" width="21.08" height="21.08"/><rect class="cls-7" x="949.31" y="2075.45" width="21.08" height="21.08"/><rect class="cls-7" x="949.31" y="2110.79" width="21.08" height="21.08"/><rect class="cls-7" x="949.31" y="2146.13" width="21.08" height="21.08"/><rect class="cls-7" x="949.31" y="2181.46" width="21.08" height="21.08"/><rect class="cls-7" x="915.83" y="1545.41" width="21.08" height="21.08"/><rect class="cls-7" x="915.83" y="1580.75" width="21.08" height="21.08"/><rect class="cls-7" x="915.83" y="1616.09" width="21.08" height="21.08"/><rect class="cls-7" x="915.83" y="1651.42" width="21.08" height="21.08"/><rect class="cls-7" x="915.83" y="1686.76" width="21.08" height="21.08"/><rect class="cls-7" x="915.83" y="1722.09" width="21.08" height="21.08"/><rect class="cls-7" x="915.83" y="1757.43" width="21.08" height="21.08"/><rect class="cls-7" x="915.83" y="1792.77" width="21.08" height="21.08"/><rect class="cls-7" x="915.83" y="1828.1" width="21.08" height="21.08"/><rect class="cls-7" x="915.83" y="1863.44" width="21.08" height="21.08"/><rect class="cls-7" x="915.83" y="1898.77" width="21.08" height="21.08"/><rect class="cls-7" x="915.83" y="1934.11" width="21.08" height="21.08"/><rect class="cls-7" x="915.83" y="1969.45" width="21.08" height="21.08"/><rect class="cls-7" x="915.83" y="2004.78" width="21.08" height="21.08"/><rect class="cls-7" x="915.83" y="2040.12" width="21.08" height="21.08"/><rect class="cls-7" x="882.36" y="1545.41" width="21.08" height="21.08"/><rect class="cls-7" x="882.36" y="1580.75" width="21.08" height="21.08"/><rect class="cls-7" x="882.36" y="1616.09" width="21.08" height="21.08"/><rect class="cls-7" x="882.36" y="1651.42" width="21.08" height="21.08"/><rect class="cls-7" x="882.36" y="1686.76" width="21.08" height="21.08"/><rect class="cls-7" x="882.36" y="1722.09" width="21.08" height="21.08"/><rect class="cls-7" x="882.36" y="1757.43" width="21.08" height="21.08"/><rect class="cls-7" x="882.36" y="1792.77" width="21.08" height="21.08"/><rect class="cls-7" x="882.36" y="1828.1" width="21.08" height="21.08"/><rect class="cls-7" x="882.36" y="1863.44" width="21.08" height="21.08"/><rect class="cls-7" x="882.36" y="1898.77" width="21.08" height="21.08"/><rect class="cls-7" x="882.36" y="1934.11" width="21.08" height="21.08"/><rect class="cls-7" x="882.36" y="1969.45" width="21.08" height="21.08"/><rect class="cls-7" x="848.88" y="1545.41" width="21.08" height="21.08"/><rect class="cls-7" x="848.88" y="1580.75" width="21.08" height="21.08"/><rect class="cls-7" x="848.88" y="1616.09" width="21.08" height="21.08"/><rect class="cls-7" x="848.88" y="1651.42" width="21.08" height="21.08"/><rect class="cls-7" x="848.88" y="1686.76" width="21.08" height="21.08"/><rect class="cls-7" x="848.88" y="1722.09" width="21.08" height="21.08"/><rect class="cls-7" x="848.88" y="1757.43" width="21.08" height="21.08"/><rect class="cls-7" x="848.88" y="1792.77" width="21.08" height="21.08"/><rect class="cls-7" x="848.88" y="1828.1" width="21.08" height="21.08"/><rect class="cls-7" x="848.88" y="1863.44" width="21.08" height="21.08"/><rect class="cls-7" x="848.88" y="1898.77" width="21.08" height="21.08"/><rect class="cls-7" x="848.88" y="1934.11" width="21.08" height="21.08"/><rect class="cls-7" x="2802.9" y="1534.87" width="21.08" height="21.08"/><rect class="cls-7" x="2802.9" y="1570.21" width="21.08" height="21.08"/><rect class="cls-7" x="2802.9" y="1605.55" width="21.08" height="21.08"/><rect class="cls-7" x="2802.9" y="1640.88" width="21.08" height="21.08"/><rect class="cls-7" x="2802.9" y="1676.22" width="21.08" height="21.08"/><rect class="cls-7" x="2802.9" y="1711.55" width="21.08" height="21.08"/><rect class="cls-7" x="2802.9" y="1746.89" width="21.08" height="21.08"/><rect class="cls-7" x="2802.9" y="1782.23" width="21.08" height="21.08"/><rect class="cls-7" x="2802.9" y="1817.56" width="21.08" height="21.08"/><rect class="cls-7" x="2802.9" y="1852.9" width="21.08" height="21.08"/><rect class="cls-7" x="2802.9" y="1888.23" width="21.08" height="21.08"/><rect class="cls-7" x="2802.9" y="1923.57" width="21.08" height="21.08"/><rect class="cls-7" x="2802.9" y="1958.91" width="21.08" height="21.08"/><rect class="cls-7" x="2802.9" y="1994.24" width="21.08" height="21.08"/><rect class="cls-7" x="2802.9" y="2029.58" width="21.08" height="21.08"/><rect class="cls-7" x="2802.9" y="2064.92" width="21.08" height="21.08"/><rect class="cls-7" x="2802.9" y="2100.25" width="21.08" height="21.08"/><rect class="cls-7" x="2802.9" y="2170.92" width="21.08" height="21.08"/><rect class="cls-7" x="2802.9" y="2206.26" width="21.08" height="21.08"/><rect class="cls-7" x="2802.9" y="2241.6" width="21.08" height="21.08"/><rect class="cls-7" x="2802.9" y="2276.93" width="21.08" height="21.08"/><rect class="cls-7" x="2802.9" y="2312.27" width="21.08" height="21.08"/><rect class="cls-7" x="2769.43" y="1534.87" width="21.08" height="21.08"/><rect class="cls-7" x="2769.43" y="1570.21" width="21.08" height="21.08"/><rect class="cls-7" x="2769.43" y="1605.55" width="21.08" height="21.08"/><rect class="cls-7" x="2769.43" y="1640.88" width="21.08" height="21.08"/><rect class="cls-7" x="2769.43" y="1676.22" width="21.08" height="21.08"/><rect class="cls-7" x="2769.43" y="1711.55" width="21.08" height="21.08"/><rect class="cls-7" x="2769.43" y="1746.89" width="21.08" height="21.08"/><rect class="cls-7" x="2769.43" y="1782.23" width="21.08" height="21.08"/><rect class="cls-7" x="2769.43" y="1817.56" width="21.08" height="21.08"/><rect class="cls-7" x="2769.43" y="1852.9" width="21.08" height="21.08"/><rect class="cls-7" x="2769.43" y="1888.23" width="21.08" height="21.08"/><rect class="cls-7" x="2769.43" y="1923.57" width="21.08" height="21.08"/><rect class="cls-7" x="2769.43" y="1958.91" width="21.08" height="21.08"/><rect class="cls-7" x="2769.43" y="1994.24" width="21.08" height="21.08"/><rect class="cls-7" x="2769.43" y="2029.58" width="21.08" height="21.08"/><rect class="cls-7" x="2769.43" y="2064.92" width="21.08" height="21.08"/><rect class="cls-7" x="2769.43" y="2276.93" width="21.08" height="21.08"/><rect class="cls-7" x="2769.43" y="2312.27" width="21.08" height="21.08"/><rect class="cls-7" x="2735.95" y="1534.87" width="21.08" height="21.08"/><rect class="cls-7" x="2735.95" y="1570.21" width="21.08" height="21.08"/><rect class="cls-7" x="2735.95" y="1605.55" width="21.08" height="21.08"/><rect class="cls-7" x="2735.95" y="1640.88" width="21.08" height="21.08"/><rect class="cls-7" x="2735.95" y="1676.22" width="21.08" height="21.08"/><rect class="cls-7" x="2735.95" y="1711.55" width="21.08" height="21.08"/><rect class="cls-7" x="2735.95" y="1746.89" width="21.08" height="21.08"/><rect class="cls-7" x="2735.95" y="1782.23" width="21.08" height="21.08"/><rect class="cls-7" x="2735.95" y="1817.56" width="21.08" height="21.08"/><rect class="cls-7" x="2735.95" y="1852.9" width="21.08" height="21.08"/><rect class="cls-7" x="2735.95" y="1888.23" width="21.08" height="21.08"/><rect class="cls-7" x="2735.95" y="1923.57" width="21.08" height="21.08"/><rect class="cls-7" x="2735.95" y="1958.91" width="21.08" height="21.08"/><rect class="cls-7" x="2735.95" y="1994.24" width="21.08" height="21.08"/><rect class="cls-7" x="2735.95" y="2029.58" width="21.08" height="21.08"/><rect class="cls-7" x="2735.95" y="2064.92" width="21.08" height="21.08"/><rect class="cls-7" x="2735.95" y="2135.59" width="21.08" height="21.08"/><rect class="cls-7" x="2735.95" y="2170.92" width="21.08" height="21.08"/><rect class="cls-7" x="2735.95" y="2206.26" width="21.08" height="21.08"/><rect class="cls-7" x="2735.95" y="2241.6" width="21.08" height="21.08"/><rect class="cls-7" x="2735.95" y="2312.27" width="21.08" height="21.08"/><rect class="cls-7" x="2151.98" y="1782.23" width="21.08" height="21.08"/><rect class="cls-7" x="2151.98" y="1817.56" width="21.08" height="21.08"/><rect class="cls-7" x="2151.98" y="1852.9" width="21.08" height="21.08"/><rect class="cls-7" x="2151.98" y="1888.23" width="21.08" height="21.08"/><rect class="cls-7" x="2151.98" y="1923.57" width="21.08" height="21.08"/><rect class="cls-7" x="2151.98" y="1958.91" width="21.08" height="21.08"/><rect class="cls-7" x="2151.98" y="1994.24" width="21.08" height="21.08"/><rect class="cls-7" x="2151.98" y="2029.58" width="21.08" height="21.08"/><rect class="cls-7" x="2151.98" y="2064.92" width="21.08" height="21.08"/><rect class="cls-7" x="2151.98" y="2100.25" width="21.08" height="21.08"/><rect class="cls-7" x="2151.98" y="2135.59" width="21.08" height="21.08"/><rect class="cls-7" x="2151.98" y="2170.92" width="21.08" height="21.08"/><rect class="cls-7" x="2151.98" y="2206.26" width="21.08" height="21.08"/><rect class="cls-7" x="2151.98" y="2276.93" width="21.08" height="21.08"/><rect class="cls-7" x="2151.98" y="2312.27" width="21.08" height="21.08"/><rect class="cls-7" x="2151.98" y="2347.6" width="21.08" height="21.08"/><rect class="cls-7" x="2151.98" y="2382.94" width="21.08" height="21.08"/><rect class="cls-7" x="2151.98" y="2453.61" width="21.08" height="21.08"/><rect class="cls-7" x="2151.98" y="2488.95" width="21.08" height="21.08"/><rect class="cls-7" x="2151.98" y="2524.28" width="21.08" height="21.08"/><rect class="cls-7" x="2118.5" y="1782.23" width="21.08" height="21.08"/><rect class="cls-7" x="2118.5" y="1817.56" width="21.08" height="21.08"/><rect class="cls-7" x="2118.5" y="1852.9" width="21.08" height="21.08"/><rect class="cls-7" x="2118.5" y="1888.23" width="21.08" height="21.08"/><rect class="cls-7" x="2118.5" y="1923.57" width="21.08" height="21.08"/><rect class="cls-7" x="2118.5" y="1958.91" width="21.08" height="21.08"/><rect class="cls-7" x="2118.5" y="1994.24" width="21.08" height="21.08"/><rect class="cls-7" x="2118.5" y="2029.58" width="21.08" height="21.08"/><rect class="cls-7" x="2118.5" y="2064.92" width="21.08" height="21.08"/><rect class="cls-7" x="2118.5" y="2100.25" width="21.08" height="21.08"/><rect class="cls-7" x="2118.5" y="2135.59" width="21.08" height="21.08"/><rect class="cls-7" x="2118.5" y="2170.92" width="21.08" height="21.08"/><rect class="cls-7" x="2118.5" y="2206.26" width="21.08" height="21.08"/><rect class="cls-7" x="2118.5" y="2312.27" width="21.08" height="21.08"/><rect class="cls-7" x="2118.5" y="2347.6" width="21.08" height="21.08"/><rect class="cls-7" x="2118.5" y="2418.28" width="21.08" height="21.08"/><rect class="cls-7" x="2118.5" y="2453.61" width="21.08" height="21.08"/><rect class="cls-7" x="2118.5" y="2488.95" width="21.08" height="21.08"/><rect class="cls-7" x="2118.5" y="2524.28" width="21.08" height="21.08"/><rect class="cls-7" x="2085.02" y="1782.23" width="21.08" height="21.08"/><rect class="cls-7" x="2085.02" y="1817.56" width="21.08" height="21.08"/><rect class="cls-7" x="2085.02" y="1852.9" width="21.08" height="21.08"/><rect class="cls-7" x="2085.02" y="1888.23" width="21.08" height="21.08"/><rect class="cls-7" x="2085.02" y="1923.57" width="21.08" height="21.08"/><rect class="cls-7" x="2085.02" y="1958.91" width="21.08" height="21.08"/><rect class="cls-7" x="2085.02" y="1994.24" width="21.08" height="21.08"/><rect class="cls-7" x="2085.02" y="2029.58" width="21.08" height="21.08"/><rect class="cls-7" x="2085.02" y="2064.92" width="21.08" height="21.08"/><rect class="cls-7" x="2085.02" y="2100.25" width="21.08" height="21.08"/><rect class="cls-7" x="2085.02" y="2135.59" width="21.08" height="21.08"/><rect class="cls-7" x="2085.02" y="2170.92" width="21.08" height="21.08"/><rect class="cls-7" x="2085.02" y="2206.26" width="21.08" height="21.08"/><rect class="cls-7" x="2085.02" y="2241.6" width="21.08" height="21.08"/><rect class="cls-7" x="2085.02" y="2312.27" width="21.08" height="21.08"/><rect class="cls-7" x="2085.02" y="2382.94" width="21.08" height="21.08"/><rect class="cls-7" x="2085.02" y="2418.28" width="21.08" height="21.08"/><rect class="cls-7" x="2085.02" y="2453.61" width="21.08" height="21.08"/><rect class="cls-7" x="2085.02" y="2488.95" width="21.08" height="21.08"/><rect class="cls-7" x="2085.02" y="2524.28" width="21.08" height="21.08"/><rect class="cls-7" x="2288.36" y="1983.7" width="21.08" height="21.08"/><rect class="cls-7" x="2288.36" y="2019.04" width="21.08" height="21.08"/><rect class="cls-7" x="2288.36" y="2054.38" width="21.08" height="21.08"/><rect class="cls-7" x="2288.36" y="2089.71" width="21.08" height="21.08"/><rect class="cls-7" x="2288.36" y="2125.05" width="21.08" height="21.08"/><rect class="cls-7" x="2288.36" y="2160.39" width="21.08" height="21.08"/><rect class="cls-7" x="2288.36" y="2266.39" width="21.08" height="21.08"/><rect class="cls-7" x="2288.36" y="2301.73" width="21.08" height="21.08"/><rect class="cls-7" x="2288.36" y="2337.07" width="21.08" height="21.08"/><rect class="cls-7" x="2288.36" y="2372.4" width="21.08" height="21.08"/><rect class="cls-7" x="2288.36" y="2407.74" width="21.08" height="21.08"/><rect class="cls-7" x="2288.36" y="2443.07" width="21.08" height="21.08"/><rect class="cls-7" x="2288.36" y="2478.41" width="21.08" height="21.08"/><rect class="cls-7" x="2254.88" y="1983.7" width="21.08" height="21.08"/><rect class="cls-7" x="2254.88" y="2019.04" width="21.08" height="21.08"/><rect class="cls-7" x="2254.88" y="2054.38" width="21.08" height="21.08"/><rect class="cls-7" x="2254.88" y="2089.71" width="21.08" height="21.08"/><rect class="cls-7" x="2254.88" y="2125.05" width="21.08" height="21.08"/><rect class="cls-7" x="2254.88" y="2160.39" width="21.08" height="21.08"/><rect class="cls-7" x="2254.88" y="2266.39" width="21.08" height="21.08"/><rect class="cls-7" x="2254.88" y="2301.73" width="21.08" height="21.08"/><rect class="cls-7" x="2254.88" y="2337.07" width="21.08" height="21.08"/><rect class="cls-7" x="2254.88" y="2372.4" width="21.08" height="21.08"/><rect class="cls-7" x="2254.88" y="2407.74" width="21.08" height="21.08"/><rect class="cls-7" x="2254.88" y="2443.07" width="21.08" height="21.08"/><rect class="cls-7" x="2254.88" y="2513.75" width="21.08" height="21.08"/><rect class="cls-7" x="1142.73" y="1828.1" width="21.08" height="21.08"/><rect class="cls-7" x="1142.73" y="1863.44" width="21.08" height="21.08"/><rect class="cls-7" x="1142.73" y="1898.77" width="21.08" height="21.08"/><rect class="cls-7" x="1142.73" y="1934.11" width="21.08" height="21.08"/><rect class="cls-7" x="1142.73" y="1969.45" width="21.08" height="21.08"/><rect class="cls-7" x="1142.73" y="2004.78" width="21.08" height="21.08"/><rect class="cls-7" x="1142.73" y="2040.12" width="21.08" height="21.08"/><rect class="cls-7" x="1142.73" y="2075.45" width="21.08" height="21.08"/><rect class="cls-7" x="1142.73" y="2110.79" width="21.08" height="21.08"/><rect class="cls-7" x="1142.73" y="2146.13" width="21.08" height="21.08"/><rect class="cls-7" x="1142.73" y="2181.46" width="21.08" height="21.08"/><rect class="cls-7" x="1142.73" y="2252.14" width="21.08" height="21.08"/><rect class="cls-7" x="1142.73" y="2287.47" width="21.08" height="21.08"/><rect class="cls-7" x="1142.73" y="2322.81" width="21.08" height="21.08"/><rect class="cls-7" x="1142.73" y="2358.14" width="21.08" height="21.08"/><rect class="cls-7" x="1142.73" y="2393.48" width="21.08" height="21.08"/><rect class="cls-7" x="1142.73" y="2428.82" width="21.08" height="21.08"/><rect class="cls-7" x="1142.73" y="2464.15" width="21.08" height="21.08"/><rect class="cls-7" x="1142.73" y="2499.49" width="21.08" height="21.08"/><rect class="cls-7" x="1109.25" y="1828.1" width="21.08" height="21.08"/><rect class="cls-7" x="1109.25" y="1863.44" width="21.08" height="21.08"/><rect class="cls-7" x="1109.25" y="1898.77" width="21.08" height="21.08"/><rect class="cls-7" x="1109.25" y="1934.11" width="21.08" height="21.08"/><rect class="cls-7" x="1109.25" y="1969.45" width="21.08" height="21.08"/><rect class="cls-7" x="1109.25" y="2004.78" width="21.08" height="21.08"/><rect class="cls-7" x="1109.25" y="2040.12" width="21.08" height="21.08"/><rect class="cls-7" x="1109.25" y="2075.45" width="21.08" height="21.08"/><rect class="cls-7" x="1109.25" y="2110.79" width="21.08" height="21.08"/><rect class="cls-7" x="1109.25" y="2146.13" width="21.08" height="21.08"/><rect class="cls-7" x="1109.25" y="2181.46" width="21.08" height="21.08"/><rect class="cls-7" x="1109.25" y="2216.8" width="21.08" height="21.08"/><rect class="cls-7" x="1109.25" y="2252.14" width="21.08" height="21.08"/><rect class="cls-7" x="1109.25" y="2287.47" width="21.08" height="21.08"/><rect class="cls-7" x="1109.25" y="2322.81" width="21.08" height="21.08"/><rect class="cls-7" x="1109.25" y="2358.14" width="21.08" height="21.08"/><rect class="cls-7" x="1109.25" y="2393.48" width="21.08" height="21.08"/><rect class="cls-7" x="1109.25" y="2428.82" width="21.08" height="21.08"/><rect class="cls-7" x="1109.25" y="2464.15" width="21.08" height="21.08"/><rect class="cls-7" x="1109.25" y="2499.49" width="21.08" height="21.08"/><rect class="cls-7" x="1307.63" y="1965.73" width="21.08" height="21.08"/><rect class="cls-7" x="1307.63" y="2001.06" width="21.08" height="21.08"/><rect class="cls-7" x="1307.63" y="2036.4" width="21.08" height="21.08"/><rect class="cls-7" x="1307.63" y="2071.73" width="21.08" height="21.08"/><rect class="cls-7" x="1307.63" y="2107.07" width="21.08" height="21.08"/><rect class="cls-7" x="1307.63" y="2142.41" width="21.08" height="21.08"/><rect class="cls-7" x="1307.63" y="2177.74" width="21.08" height="21.08"/><rect class="cls-7" x="1307.63" y="2213.08" width="21.08" height="21.08"/><rect class="cls-7" x="1307.63" y="2248.42" width="21.08" height="21.08"/><rect class="cls-7" x="1307.63" y="2283.75" width="21.08" height="21.08"/><rect class="cls-7" x="1274.15" y="1965.73" width="21.08" height="21.08"/><rect class="cls-7" x="1274.15" y="2001.06" width="21.08" height="21.08"/><rect class="cls-7" x="1274.15" y="2036.4" width="21.08" height="21.08"/><rect class="cls-7" x="1274.15" y="2071.73" width="21.08" height="21.08"/><rect class="cls-7" x="1274.15" y="2107.07" width="21.08" height="21.08"/><rect class="cls-7" x="1274.15" y="2142.41" width="21.08" height="21.08"/><rect class="cls-7" x="1274.15" y="2177.74" width="21.08" height="21.08"/><rect class="cls-7" x="1274.15" y="2213.08" width="21.08" height="21.08"/><rect class="cls-7" x="1274.15" y="2248.42" width="21.08" height="21.08"/><rect class="cls-4" x="1459.04" y="624.72" width="35.38" height="1970.81"/><rect class="cls-4" x="2124.53" y="624.72" width="35.38" height="1970.81"/><rect class="cls-4" x="2790.01" y="624.72" width="35.38" height="1970.81"/><path class="cls-8" d="M1264.51,2207.25c.47,0,.93,0,1.4,0l607-.62a27.4,27.4,0,0,0,27.14-27.68c0-15.28-12.24-27.91-27.2-27.64l-607.05.62c-15,0-27.15,12.41-27.14,27.69A27.46,27.46,0,0,0,1264.51,2207.25Z" transform="translate(-52.95 -277.58)"/><path class="cls-9" d="M2108,1600.92c-.21.42-.42.85-.62,1.28L1852,2163.86a27.9,27.9,0,0,0,13.17,36.77,26.8,26.8,0,0,0,36-13.5l255.42-561.66a27.94,27.94,0,0,0-13.17-36.78A26.92,26.92,0,0,0,2108,1600.92Z" transform="translate(-52.95 -277.58)"/><path class="cls-10" d="M1206.13,3116a616.72,616.72,0,0,0-7.41,64.53,27.8,27.8,0,0,0,25,29.34c51.82,5,169.76,14.3,245.08,3.43a12.63,12.63,0,0,0,6.94-21.74c-31-28.94-106-85.22-229.49-97.52Z" transform="translate(-52.95 -277.58)"/><path class="cls-11" d="M1180.37,3049.5l26.2,64.22a21.39,21.39,0,0,0,22,13.28,116,116,0,0,0,21.4-4.15,28.11,28.11,0,0,0,18.7-35l-19.77-66.14Z" transform="translate(-52.95 -277.58)"/><path class="cls-12" d="M732.46,3167.15s52.46,43.89,72.9,100.2c5.62,15.48-6.26,31.8-22.73,31.8h-108a25.47,25.47,0,0,1-25.17-29.78C656.38,3230.49,676.21,3167.31,732.46,3167.15Z" transform="translate(-52.95 -277.58)"/><path class="cls-13" d="M667.47,3110s10.6,46.91,18.74,77.9a9.91,9.91,0,0,0,13,6.76c16.34-5.84,29.64-8.43,39.3-7.13a7.65,7.65,0,0,0,8.43-7.62l1-77.91Z" transform="translate(-52.95 -277.58)"/><path class="cls-14" d="M946.48,2054.6l319.11,973.5s-61.21,40.08-90.37,38.41l-379-782.36S729.88,2766.22,762,3112.3l-108.56,8.29s-176.52-884.43-42.82-1187.35Z" transform="translate(-52.95 -277.58)"/><path class="cls-15" d="M1011.63,1224.9s-258.54,23-222,207.17c0,0-142.91,268.94-209.72,585.75A18.62,18.62,0,0,0,595.06,2040l430.54,73.72a23.17,23.17,0,0,0,26.35-17l102.87-397.57,40.09,184.84,127.37-33.18-107.23-543.17S1200.1,1228.31,1011.63,1224.9Z" transform="translate(-52.95 -277.58)"/><path class="cls-16" d="M1151.7,1718.63a2.35,2.35,0,0,1-.69-.1c-1.73-.52-2.82-2.87-2.45-5.25l35.89-226.66c.38-2.37,2.06-3.87,3.82-3.37s2.82,2.87,2.45,5.25l-35.89,226.66C1154.5,1717.22,1153.17,1718.63,1151.7,1718.63Z" transform="translate(-52.95 -277.58)"/><path class="cls-17" d="M1125.71,2148.58a61.45,61.45,0,0,0-44.46-5.78l-30,7.45a10.85,10.85,0,0,1-13.4-9.32l-31-275.91c-38.76,18.4-94.68,16.21-113.12,14.86l71.34,325.28h249.68Z" transform="translate(-52.95 -277.58)"/><path class="cls-18" d="M1759.49,1573.21a21.57,21.57,0,0,0,19-27.7h0a49.64,49.64,0,0,0-29-31.73L1613,1458.89s-2.06-17.5,28.84-29.39,23.68-46.5,23.68-46.5-42.22,19.25-104,49.79c-35.35,17.47-55.18,48.31-65.69,71.52L1194.17,1872a11.1,11.1,0,0,0,2.3,16.2l26.34,18.1a96.94,96.94,0,0,0,140.55-34.5l167.54-321.27C1606.36,1573.18,1682.62,1579.41,1759.49,1573.21Z" transform="translate(-52.95 -277.58)"/><path class="cls-19" d="M1090.07,1022.09l-79.52,222.55s70.41,55,121.8,36.43l40.06-127.57S1141.81,997.58,1090.07,1022.09Z" transform="translate(-52.95 -277.58)"/><path class="cls-20" d="M1327.39,942.16c0,3.43-76.6,216.84-76.6,216.84l-120.92-46.33,42.54-213.05S1327.39,884.75,1327.39,942.16Z" transform="translate(-52.95 -277.58)"/><path class="cls-21" d="M1193.63,951.53l-31.18,110.4a15.69,15.69,0,0,0-.61,4.31c0,9,2.22,40,33.78,35.77,28.63-3.82,54.83-6.88,71.48,1a16,16,0,0,1,8.26,19.91c-7,19.38-23.46,62.78-43.55,98.3a16,16,0,0,1-20.56,6.58c-22.71-10.33-70-33.46-103.68-61a16,16,0,0,1-5.67-15.39c5.3-28.24,21.08-114.14,21.78-138.76.65-23.1-25.27-40.74-36.69-47.37a15.71,15.71,0,0,1-7.41-10c-8.73-36.22,29.69-58.9,47.31-86.18,20.86-32.29,34.47-51.57,77.34-36.81,24.49,8.42,24.56,16.14,55,13.17,28.57-2.79,54.82-16.68,84-7.27l.07,0c54.63,17.67,52,80.66,32,114.9s-78.17,11.71-105.7-11c-20.92-17.25-52.79-6.93-66.86-1A15.86,15.86,0,0,0,1193.63,951.53Z" transform="translate(-52.95 -277.58)"/><path class="cls-22" d="M1112.73,1052.94s32.33-61.16,11-80.36-57.6-16.07-56.63,31.76C1068.26,1063.83,1112.73,1052.94,1112.73,1052.94Z" transform="translate(-52.95 -277.58)"/><path class="cls-23" d="M918.85,1880.17a310.35,310.35,0,0,1-31.6-1.49l-2.29-.26-94.14-438.91a3.21,3.21,0,0,1,6.27-1.35l93.16,434.36c14,1.23,88.82,6.2,128.32-21.78L937,1469.41l17-32.08a3.21,3.21,0,0,1,5.67,3l-15.94,30,81.93,383.09-1.64,1.23C995.53,1876.11,949.56,1880.17,918.85,1880.17Z" transform="translate(-52.95 -277.58)"/><path class="cls-24" d="M1434,2259.75c-2.46,8.35-237.55,730.59-297.15,913.69-6.87,21.1,12.31,41.82,38.68,41.82,18.38,0,34.4-10.37,38.86-25.16l261-866.72Z" transform="translate(-52.95 -277.58)"/><path class="cls-24" d="M1562.69,2259.75c2.46,8.35,237.55,730.59,297.15,913.69,6.87,21.1-12.31,41.82-38.67,41.82-18.39,0-34.41-10.37-38.87-25.16l-261-866.72Z" transform="translate(-52.95 -277.58)"/><path class="cls-24" d="M1572.48,2230.92v88.27c0,18.4-18,33.32-40.12,33.32h-10.2v.12h-45.77v-.12H1456.3c-16.7,0-30.23-11.24-30.23-25.11v-96.48Z" transform="translate(-52.95 -277.58)"/><path class="cls-24" d="M978.75,2202.67H2003.23c14.32,0,26.82,7.83,30.4,19l14.31,44.76c5.14,16.1-10,31.78-30.59,31.69l-1051.23-4.88c-20.37-.1-35.24-15.6-30.26-31.55l12.44-39.88C951.81,2210.57,964.36,2202.67,978.75,2202.67Z" transform="translate(-52.95 -277.58)"/><circle class="cls-25" cx="2710.09" cy="987.12" r="349.03" transform="translate(42.82 1927.87) rotate(-45)"/><path class="cls-26" d="M2924.78,1078.36a62.2,62.2,0,0,0-36.94-40.92l-25.1-10a48.14,48.14,0,0,0-56.29,15.91l-22.36,29.87c-35.11,1-75.62-12.06-111.57-39-33.77-25.28-57-57.86-67.1-89.83a1.09,1.09,0,0,1,1.71-1.19l20.15-26.93a55,55,0,0,0-1-67.21l-16.68-21a62.93,62.93,0,0,0-99.63,1.46,81.49,81.49,0,0,0-13.24,27c-18.5,65.4,34.16,164.27,131.35,237s206.78,95.36,264.32,59.26a82.07,82.07,0,0,0,22.33-20.39A62.22,62.22,0,0,0,2924.78,1078.36Z" transform="translate(-52.95 -277.58)"/><path class="cls-27" d="M3296.08,2244.17a42.1,42.1,0,0,1,42.06-42.87l20.83,0A102.22,102.22,0,0,0,3461.11,2099l-.31-346.81A102.22,102.22,0,0,0,3358.49,1650l-511.18.44a102.23,102.23,0,0,0-102.14,102.32l.31,346.81a102.22,102.22,0,0,0,102.31,102.14l330-.29a57.86,57.86,0,0,1,48.68,26.52l56.63,87.91a7.72,7.72,0,0,0,14.2-4.32Z" transform="translate(-52.95 -277.58)"/><rect class="cls-26" x="2860.86" y="1792.03" width="484.34" height="17.09" rx="7.89" transform="translate(6154.68 3320.87) rotate(179.95)"/><rect class="cls-26" x="2860.97" y="1913.23" width="484.34" height="17.09" rx="7.89" transform="translate(6154.99 3563.28) rotate(179.95)"/><rect class="cls-26" x="2861.07" y="2034.43" width="484.34" height="17.09" rx="7.89" transform="translate(6155.31 3805.68) rotate(179.95)"/><path class="cls-28" d="M2333.89,2709.2v322.29c0,23.71,20.84,42.94,46.53,42.94h541.17c25.7,0,46.53-19.23,46.53-42.94V2709.2Z" transform="translate(-52.95 -277.58)"/><path class="cls-29" d="M2809.89,2613.25,2672.34,2530a40.53,40.53,0,0,0-42.66,0l-137.56,83.21-158.88,96.11,158.88,95.87L2651,2901.07l158.88-96,158.89-95.77Z" transform="translate(-52.95 -277.58)"/><g class="cls-30"><path class="cls-26" d="M2346.32,3060.5a1.11,1.11,0,0,1-.83-1.85l198.17-223a1.11,1.11,0,1,1,1.66,1.47l-198.17,223A1.09,1.09,0,0,1,2346.32,3060.5Z" transform="translate(-52.95 -277.58)"/><path class="cls-26" d="M2955.7,3060.5a1.11,1.11,0,0,1-.84-.37l-198.16-223a1.11,1.11,0,1,1,1.66-1.47l198.17,223a1.12,1.12,0,0,1-.1,1.57A1.08,1.08,0,0,1,2955.7,3060.5Z" transform="translate(-52.95 -277.58)"/></g><g class="cls-31"><path class="cls-26" d="M2848.29,2553.25H2404.35c-7.83,0-14.31,6.79-14.31,14.62v360.27H2912v-310.2Z" transform="translate(-52.95 -277.58)"/><path class="cls-24" d="M2911.73,2617.94l-58.26.5a5.14,5.14,0,0,1-3.85-1.67c-1.09-1.09-1.2-2.57-1.2-4.11v-59Z" transform="translate(-52.95 -277.58)"/><path class="cls-32" d="M2766.15,2708.34a102.62,102.62,0,0,1-6.49,37.18q-6.49,16.86-18.34,26.45a42.41,42.41,0,0,1-27.51,9.59,34.29,34.29,0,0,1-18.48-5,28.73,28.73,0,0,1-11.57-13.2h-2.26q-15.24,18.21-38.8,18.2-25,0-39.36-15T2589,2725.41q0-29.76,18.91-48t49.37-18.2a171.17,171.17,0,0,1,26.74,2.32,147.22,147.22,0,0,1,24.05,5.58l-3.24,69q0,19.61,10.72,19.61,9,0,14.39-13.2t5.36-34.49q0-22.71-9.45-40.14a64.17,64.17,0,0,0-26.59-26.59q-17.14-9.18-39.15-9.17-28.5,0-49.52,11.71a78.24,78.24,0,0,0-32.24,33.79q-11.22,22.08-11.22,51,0,38.94,20.81,59.75t60.32,20.81a181.85,181.85,0,0,0,32.87-3.32,218.25,218.25,0,0,0,35.27-9.66v27.08q-30.2,12.84-67,12.84-53.61,0-83.59-28.21t-30-78.45q0-34.85,15.31-63.27a111.16,111.16,0,0,1,43.59-44.58q28.29-16.16,65.11-16.16,31,0,55.45,12.7a90,90,0,0,1,37.67,36.12Q2766.15,2677.73,2766.15,2708.34ZM2621.68,2726q0,29.76,24.27,29.77,12.69,0,19.33-9t8-29.14l1.83-31.18a77.48,77.48,0,0,0-16.22-1.55q-17.64,0-27.44,11T2621.68,2726Z" transform="translate(-52.95 -277.58)"/></g></g></g></svg>