<svg xmlns="http://www.w3.org/2000/svg" xmlns:xlink="http://www.w3.org/1999/xlink" viewBox="0 0 3406.15 3249.68"><defs><style>.cls-1{fill:#91b3fa;}.cls-2{fill:#7d97f4;}.cls-3{isolation:isolate;}.cls-4{fill:url(#linear-gradient);}.cls-5{clip-path:url(#clip-path);}.cls-6{opacity:0.8;}.cls-18,.cls-6{mix-blend-mode:soft-light;}.cls-14,.cls-15,.cls-30,.cls-31,.cls-7{fill:#fff;}.cls-8{clip-path:url(#clip-path-2);}.cls-9{clip-path:url(#clip-path-3);}.cls-10{fill:url(#linear-gradient-2);}.cls-11{fill:url(#linear-gradient-3);}.cls-12{fill:url(#linear-gradient-4);}.cls-13{opacity:0.71;}.cls-14{opacity:0.65;}.cls-15{opacity:0.75;}.cls-16{fill:#0041c1;}.cls-17{fill:url(#linear-gradient-5);}.cls-18{opacity:0.5;}.cls-19{fill:url(#linear-gradient-6);}.cls-20{fill:url(#linear-gradient-7);}.cls-21{fill:url(#linear-gradient-8);}.cls-22{fill:url(#linear-gradient-9);}.cls-23{fill:url(#linear-gradient-10);}.cls-24{fill:url(#linear-gradient-11);}.cls-25{fill:url(#linear-gradient-12);}.cls-26{fill:url(#linear-gradient-13);}.cls-27{fill:url(#linear-gradient-14);}.cls-28{fill:url(#linear-gradient-15);}.cls-29{fill:url(#linear-gradient-16);}.cls-30{opacity:0.6;}.cls-31{opacity:0.72;}</style><linearGradient id="linear-gradient" x1="3908.73" y1="4433.53" x2="1003.08" y2="824.9" gradientUnits="userSpaceOnUse"><stop offset="0" stop-color="#dae3fe"/><stop offset="1" stop-color="#e9effd"/></linearGradient><clipPath id="clip-path" transform="translate(-91.71 -211.61)"><path id="SVGID" class="cls-1" d="M2827.55,608.88c-39.51-32.69-99.44-50.49-150.11-54.08-359.14-25.45-411.54,725.24-356.5,893s19.38,222.86-263.46,310.63S1910.32,2015.2,1944.8,2114s102.74,182.31-103.45,280.52-134.54,159-134.54,159,380.26,389,359.25,264.43,17.05-312.57,358-326.85c146.84-6.15,371.71-76.2,421.51-233.44,11.59-36.61,19.66-92.54,10.84-130.43-12.24-52.57-46.74-94-65.9-143.47-44.65-115.3,67.33-199.75,131.77-276.81,33.65-40.24,67.28-81.5,93-127.38,53.49-95.24,33.47-197.38-24.78-285.18-27.93-42.1-66.75-86.77-78.93-137-13.09-53.94-1.68-127.64,1.43-183.14,2.44-43.52,6.58-86.87,4.14-130.5C2912.61,762.68,2893.61,663.53,2827.55,608.88Z"/></clipPath><clipPath id="clip-path-2" transform="translate(-91.71 -211.61)"><path id="SVGID-2" data-name="SVGID" class="cls-2" d="M3142.75,1714.55c-26.12-44.13-76.49-81.17-122.95-101.69-329.34-145.46-632.67,543.2-637.64,719.7s-57.18,216.27-353,203.15-225.37,191.83-226.36,296.5,35,206.33-192.27,229-180.42,104.13-180.42,104.13,156.19,175.51,178.56,51.22,191.83,30.82,517.48,132.74c140.26,43.89,375.58,54.07,475.64-77,23.3-30.53,49.81-80.43,54.34-119.07,6.27-53.61-12.18-104.27-13.47-157.31-3-123.61,130.95-165.18,217.67-215.89,45.27-26.48,90.88-53.93,130.65-88.38,82.56-71.53,98.28-174.42,73.17-276.75-12-49.06-33.45-104.23-27.92-155.61,5.94-55.19,41.61-120.68,63.32-171.85,17-40.12,35.59-79.52,48.05-121.4C3170.75,1888.06,3186.42,1788.33,3142.75,1714.55Z"/></clipPath><clipPath id="clip-path-3" transform="translate(-91.71 -211.61)"><path id="SVGID-3" data-name="SVGID" class="cls-1" d="M451.59,608.88C491.1,576.19,551,558.39,601.7,554.8c359.14-25.45,411.54,725.24,356.5,893s-19.38,222.86,263.47,310.63,147.15,256.77,112.67,355.6-102.74,182.31,103.45,280.52,134.54,159,134.54,159-380.25,389-359.25,264.43-17-312.57-358-326.85C708.26,2485,483.39,2415,433.59,2257.73c-11.59-36.61-19.66-92.54-10.84-130.43,12.24-52.57,46.74-94,65.9-143.47,44.65-115.3-67.33-199.75-131.77-276.81-33.65-40.24-67.27-81.5-93-127.38-53.49-95.24-33.47-197.38,24.78-285.18,27.93-42.1,66.75-86.77,78.93-137,13.09-53.94,1.68-127.64-1.43-183.14-2.44-43.52-6.58-86.87-4.13-130.5C366.54,762.68,385.54,663.53,451.59,608.88Z"/></clipPath><linearGradient id="linear-gradient-2" x1="2341.18" y1="545.35" x2="-687.7" y2="6040.61" gradientUnits="userSpaceOnUse"><stop offset="0" stop-color="#09005d"/><stop offset="1" stop-color="#1a0f91"/></linearGradient><linearGradient id="linear-gradient-3" x1="1432.31" y1="655.07" x2="1763.09" y2="655.07" xlink:href="#linear-gradient"/><linearGradient id="linear-gradient-4" x1="1117.55" y1="1024.13" x2="1786.55" y2="1024.13" gradientUnits="userSpaceOnUse"><stop offset="0" stop-color="#4f52ff"/><stop offset="1" stop-color="#4042e2"/></linearGradient><linearGradient id="linear-gradient-5" x1="2292.42" y1="905.1" x2="2755.91" y2="484.5" xlink:href="#linear-gradient-4"/><linearGradient id="linear-gradient-6" x1="-5865.72" y1="3345.68" x2="-5491.11" y2="2381.31" gradientTransform="matrix(-1, 0, 0, 1, -3446.32, 0)" gradientUnits="userSpaceOnUse"><stop offset="0" stop-color="#febbba"/><stop offset="1" stop-color="#ff928e"/></linearGradient><linearGradient id="linear-gradient-7" x1="-5871.41" y1="6447.63" x2="-4633.28" y2="-8022.98" xlink:href="#linear-gradient-6"/><linearGradient id="linear-gradient-8" x1="-5826.9" y1="1820.06" x2="-5668.12" y2="1820.06" xlink:href="#linear-gradient-6"/><linearGradient id="linear-gradient-9" x1="-5317.01" y1="3373.03" x2="-4939.28" y2="2793.51" gradientTransform="matrix(-1, 0, 0, 1, -3211.16, 0)" xlink:href="#linear-gradient-4"/><linearGradient id="linear-gradient-10" x1="-5657.34" y1="3549.52" x2="-5238.22" y2="2825.11" gradientTransform="matrix(-1, 0, 0, 1, -3211.16, 0)" xlink:href="#linear-gradient-4"/><linearGradient id="linear-gradient-11" x1="2583.42" y1="1759.01" x2="2187.16" y2="2295.6" xlink:href="#linear-gradient-4"/><linearGradient id="linear-gradient-12" x1="-5653.49" y1="1465.77" x2="-5540.72" y2="1465.77" gradientTransform="matrix(-1, 0, 0, 1, -3538.03, -211.61)" xlink:href="#linear-gradient-6"/><linearGradient id="linear-gradient-13" x1="-4991.83" y1="1530.07" x2="-5967.19" y2="2088.83" xlink:href="#linear-gradient-6"/><linearGradient id="linear-gradient-14" x1="-4909.54" y1="1708.05" x2="-5819.85" y2="2229.55" xlink:href="#linear-gradient-6"/><linearGradient id="linear-gradient-15" x1="-5465.66" y1="1465.73" x2="-5684.81" y2="1145.27" xlink:href="#linear-gradient-6"/><linearGradient id="linear-gradient-16" x1="-5346.57" y1="1236.77" x2="-5657.03" y2="1640.37" gradientTransform="matrix(-1, 0, 0, 1, -3211.16, 0)" xlink:href="#linear-gradient-2"/></defs><g class="cls-3"><g id="Illustration"><path class="cls-4" d="M3118.34,3004.19c-67.24,69.92-130.85,115-181.11,150.64-590.82,418.78-1289.91,296.71-1438.48,266.9-219.4-44-643.5-129.11-950.11-485.32C84.76,2397.5,157,1548.47,516.81,988,582.62,885.49,930.28,316.5,1636.9,225.25,2064.54,170,2563,281.4,2924,580.18,3681.78,1207.34,3627.83,2474.31,3118.34,3004.19Z" transform="translate(-91.71 -211.61)"/><path id="SVGID-4" data-name="SVGID" class="cls-1" d="M2827.55,608.88c-39.51-32.69-99.44-50.49-150.11-54.08-359.14-25.45-411.54,725.24-356.5,893s19.38,222.86-263.46,310.63S1910.32,2015.2,1944.8,2114s102.74,182.31-103.45,280.52-134.54,159-134.54,159,380.26,389,359.25,264.43,17.05-312.57,358-326.85c146.84-6.15,371.71-76.2,421.51-233.44,11.59-36.61,19.66-92.54,10.84-130.43-12.24-52.57-46.74-94-65.9-143.47-44.65-115.3,67.33-199.75,131.77-276.81,33.65-40.24,67.28-81.5,93-127.38,53.49-95.24,33.47-197.38-24.78-285.18-27.93-42.1-66.75-86.77-78.93-137-13.09-53.94-1.68-127.64,1.43-183.14,2.44-43.52,6.58-86.87,4.14-130.5C2912.61,762.68,2893.61,663.53,2827.55,608.88Z" transform="translate(-91.71 -211.61)"/><g class="cls-5"><g class="cls-6"><path class="cls-7" d="M1676.91,2771.89a5.31,5.31,0,0,1-4.25-9.7c1.59-.84,161.68-85,340.26-223.73,164.54-127.78,378.91-329.28,465.71-563.51,72.49-195.64,138.6-519,181.38-887.3,38.35-330.22,44.41-574.45,28.11-619.79a5.31,5.31,0,0,1,10-3.59c19.08,53,7,327.39-27.55,624.6-42.88,369.07-109.2,693.37-182,889.77C2400.9,2215.27,2185,2418.31,2019.28,2547c-179.31,139.23-340.1,223.79-341.7,224.63A6.46,6.46,0,0,1,1676.91,2771.89Z" transform="translate(-91.71 -211.61)"/><path class="cls-7" d="M2659.42,1151.66c-2.75,1-5.54.22-6.55-2.52-1.33-3.63-135.21-363.83-307.86-445.15a5.11,5.11,0,0,1-2.48-6.91,5.32,5.32,0,0,1,7.1-2.46c176.59,83.19,307.69,435.82,313.2,450.82,1,2.75-.62,5.22-3.38,6.21Z" transform="translate(-91.71 -211.61)"/><path class="cls-7" d="M2594.13,1569.38a5.31,5.31,0,0,1-5.17-9.1c1-.81,99.55-81.67,221.18-149.52,164.33-91.68,290.27-117.27,374.32-76.07a5.31,5.31,0,1,1-4.68,9.54c-193.37-94.8-580.18,221-584.07,224.25A5.42,5.42,0,0,1,2594.13,1569.38Z" transform="translate(-91.71 -211.61)"/><path class="cls-7" d="M2165,2423.19a5.31,5.31,0,0,1-7.1-4.92c0-1.54-2.76-156.08-35.11-318.92-29.66-149.29-90.9-336.31-214.21-379.4a5.31,5.31,0,1,1,3.5-10c102.83,35.94,177.24,166.31,221.16,387.5,32.52,163.76,35.25,319.14,35.28,320.69A5.33,5.33,0,0,1,2165,2423.19Z" transform="translate(-91.71 -211.61)"/><path class="cls-7" d="M2384.42,2173.52a5.31,5.31,0,0,1-5-9.27c17.09-12.64,420.49-309.21,577.8-280.89a5.31,5.31,0,1,1-1.88,10.45c-152.86-27.51-565.46,275.91-569.61,279A5.65,5.65,0,0,1,2384.42,2173.52Z" transform="translate(-91.71 -211.61)"/></g></g><path id="SVGID-5" data-name="SVGID" class="cls-2" d="M3142.75,1714.55c-26.12-44.13-76.49-81.17-122.95-101.69-329.34-145.46-632.67,543.2-637.64,719.7s-57.18,216.27-353,203.15-225.37,191.83-226.36,296.5,35,206.33-192.27,229-180.42,104.13-180.42,104.13,156.19,175.51,178.56,51.22,191.83,30.82,517.48,132.74c140.26,43.89,375.58,54.07,475.64-77,23.3-30.53,49.81-80.43,54.34-119.07,6.27-53.61-12.18-104.27-13.47-157.31-3-123.61,130.95-165.18,217.67-215.89,45.27-26.48,90.88-53.93,130.65-88.38,82.56-71.53,98.28-174.42,73.17-276.75-12-49.06-33.45-104.23-27.92-155.61,5.94-55.19,41.61-120.68,63.32-171.85,17-40.12,35.59-79.52,48.05-121.4C3170.75,1888.06,3186.42,1788.33,3142.75,1714.55Z" transform="translate(-91.71 -211.61)"/><g class="cls-8"><g class="cls-6"><path class="cls-7" d="M1328.08,3360.62a5.31,5.31,0,0,1-.72-10.57c1.79-.25,180.92-25.32,395.89-95.39,198.08-64.57,468-181.64,628.92-372.69,134.41-159.57,306-441.53,470.92-773.59,147.83-297.76,236.17-525.53,236.17-573.71a5.31,5.31,0,0,1,10.62,0c0,56.36-104.22,310.44-237.28,578.43-165.23,332.79-337.37,615.52-472.31,775.71-162.58,193-434.47,311-633.93,376-215.84,70.34-395.76,95.5-397.55,95.75A6.11,6.11,0,0,1,1328.08,3360.62Z" transform="translate(-91.71 -211.61)"/><path class="cls-7" d="M2800.88,2169.51a5.2,5.2,0,0,1-5.32-5.13c0-3.87-4.12-388.39-139.06-523.34a5.29,5.29,0,1,1,7.51-7.45c138,138,142.07,514.73,142.18,530.71a5.2,5.2,0,0,1-5.28,5.21Z" transform="translate(-91.71 -211.61)"/><path class="cls-7" d="M2598.1,2539.4a5.31,5.31,0,0,1-1.79-10.31c1.19-.43,121.31-43.17,258.72-65.86,185.66-30.67,312.83-12.13,378,55.08a5.31,5.31,0,1,1-7.63,7.39c-149.89-154.63-620.75,11.69-625.49,13.39A5.35,5.35,0,0,1,2598.1,2539.4Z" transform="translate(-91.71 -211.61)"/><path class="cls-7" d="M1905.35,3197.64a5.18,5.18,0,0,1-1.72-.29,5.31,5.31,0,0,1-3.3-6.74c.5-1.46,50.22-147.82,74.88-312,22.61-150.53,28.26-347.23-73.2-429.51a5.31,5.31,0,0,1,6.69-8.25c84.6,68.61,110.51,216.47,77,439.48-24.81,165.1-74.81,312.24-75.31,313.71A5.33,5.33,0,0,1,1905.35,3197.64Z" transform="translate(-91.71 -211.61)"/><path class="cls-7" d="M2196.33,3036.94a5.31,5.31,0,0,1-1.53-10.4c20.37-6.1,500.32-148.68,638.77-68.8a5.31,5.31,0,1,1-5.3,9.2c-134.54-77.61-625.47,68.29-630.41,69.78A5.44,5.44,0,0,1,2196.33,3036.94Z" transform="translate(-91.71 -211.61)"/></g></g><path id="SVGID-6" data-name="SVGID" class="cls-1" d="M451.59,608.88C491.1,576.19,551,558.39,601.7,554.8c359.14-25.45,411.54,725.24,356.5,893s-19.38,222.86,263.47,310.63,147.15,256.77,112.67,355.6-102.74,182.31,103.45,280.52,134.54,159,134.54,159-380.25,389-359.25,264.43-17-312.57-358-326.85C708.26,2485,483.39,2415,433.59,2257.73c-11.59-36.61-19.66-92.54-10.84-130.43,12.24-52.57,46.74-94,65.9-143.47,44.65-115.3-67.33-199.75-131.77-276.81-33.65-40.24-67.27-81.5-93-127.38-53.49-95.24-33.47-197.38,24.78-285.18,27.93-42.1,66.75-86.77,78.93-137,13.09-53.94,1.68-127.64-1.43-183.14-2.44-43.52-6.58-86.87-4.13-130.5C366.54,762.68,385.54,663.53,451.59,608.88Z" transform="translate(-91.71 -211.61)"/><g class="cls-9"><g class="cls-6"><path class="cls-7" d="M1602.23,2771.89a5.31,5.31,0,0,0,4.25-9.7c-1.59-.84-161.68-85-340.25-223.73C1101.68,2410.68,887.31,2209.18,800.52,1975c-72.49-195.64-138.6-519-181.38-887.3C580.78,757.43,574.72,513.2,591,467.86a5.31,5.31,0,1,0-10-3.59c-19.07,53-7,327.39,27.56,624.6,42.87,369.07,109.2,693.37,182,889.77,87.68,236.63,303.6,439.67,469.3,568.33,179.31,139.23,340.1,223.79,341.7,224.63A6.46,6.46,0,0,0,1602.23,2771.89Z" transform="translate(-91.71 -211.61)"/><path class="cls-7" d="M619.72,1151.66c2.75,1,5.55.22,6.55-2.52,1.34-3.63,135.21-363.83,307.86-445.15a5.11,5.11,0,0,0,2.48-6.91,5.31,5.31,0,0,0-7.09-2.46c-176.6,83.19-307.7,435.82-313.2,450.82-1,2.75.61,5.22,3.37,6.21Z" transform="translate(-91.71 -211.61)"/><path class="cls-7" d="M685,1569.38a5.31,5.31,0,0,0,5.17-9.1c-1-.81-99.55-81.67-221.17-149.52-164.34-91.68-290.27-117.27-374.32-76.07a5.31,5.31,0,0,0,4.67,9.54c193.37-94.8,580.18,221,584.07,224.25A5.42,5.42,0,0,0,685,1569.38Z" transform="translate(-91.71 -211.61)"/><path class="cls-7" d="M1114.16,2423.19a5.31,5.31,0,0,0,7.1-4.92c0-1.54,2.76-156.08,35.11-318.92,29.66-149.29,90.9-336.31,214.22-379.4a5.31,5.31,0,0,0-3.51-10c-102.83,35.94-177.24,166.31-221.16,387.5-32.51,163.76-35.25,319.14-35.27,320.69A5.3,5.3,0,0,0,1114.16,2423.19Z" transform="translate(-91.71 -211.61)"/><path class="cls-7" d="M894.72,2173.52a5.31,5.31,0,0,0,5-9.27c-17.1-12.64-420.5-309.21-577.81-280.89a5.31,5.31,0,1,0,1.88,10.45c152.86-27.51,565.46,275.91,569.61,279A5.65,5.65,0,0,0,894.72,2173.52Z" transform="translate(-91.71 -211.61)"/></g></g><path class="cls-10" d="M725.79,694.3c-9.29,438-39.39,1949-25,2484.46,1.52,56.73,40.39,102.25,88.88,104.11,239.82,9.18,1119,32.45,1511.24,13.2,81.7-4,146.67-81.43,148.37-177.07,8.15-459.79,26.14-1753-16.61-2345.39-5.12-71-52.74-127.5-113.33-134.6-261.17-30.56-1144.11-105.27-1483-79.55C775.2,564.1,727.3,622.67,725.79,694.3Z" transform="translate(-91.71 -211.61)"/><path class="cls-2" d="M832.79,828.69c-12.91,353.57-53.62,1529.8-40.7,1964.74,1.89,63.58,44.72,115,99,118.7,223.5,15.3,986,49,1313.84,18.33,59-5.53,105.35-61.38,108.54-130.56,16.61-360.71,64.31-1455.94,51.92-1886-2-68.61-47.41-124.64-105.85-130.78-241.79-25.4-1052.06-85.83-1330.63-68.05C876.62,718.4,835,767.48,832.79,828.69Z" transform="translate(-91.71 -211.61)"/><path class="cls-11" d="M1432.31,646.35h0c0,13.44,9,24.53,20.42,25.23,56.65,3.47,216.21,13.29,287.53,18.13,14.06,1,25.09-13.83,22.43-30l-.46-2.76c-1.82-11-9.65-19.35-19.21-20.37-48.21-5.17-193.66-19.5-290-15.47C1441.41,621.58,1432.31,632.8,1432.31,646.35Z" transform="translate(-91.71 -211.61)"/><circle class="cls-12" cx="1452.05" cy="1024.13" r="334.5"/><path class="cls-7" d="M1646.18,1109.35c0,56.64-45.92,117.79-102.56,117.79s-102.55-61.15-102.55-117.79,45.91-96.82,102.55-96.82S1646.18,1052.71,1646.18,1109.35Z" transform="translate(-91.71 -211.61)"/><path class="cls-7" d="M1416.35,1445.21h250.36a60.6,60.6,0,0,0,57.71-42.14l13.47-42.1c9.87-30.83-6.17-64.21-36.57-75.33-101.89-37.25-207.24-32.47-315.16,3.44-30.24,10.06-47,42.4-38.67,73.15l10.37,38.24A60.61,60.61,0,0,0,1416.35,1445.21Z" transform="translate(-91.71 -211.61)"/><g class="cls-13"><rect class="cls-14" x="866.06" y="1702.95" width="1234.32" height="189.9" rx="75.77"/><rect class="cls-14" x="859.4" y="2012.78" width="1234.32" height="189.9" rx="94.95"/><rect class="cls-14" x="1059.56" y="2330.11" width="797.38" height="242.1" rx="45.6"/></g><rect class="cls-15" x="920.73" y="1745.96" width="1065.19" height="105.5" rx="52.75"/><rect class="cls-15" x="918.77" y="2056.99" width="1065.19" height="105.5" rx="52.75"/><path class="cls-16" d="M2189.19,764.2c0-144.78,126.3-262.13,277.86-262.11,147.08,0,263.16,111.19,263.16,248.31s-116.08,254.22-263.16,261.74C2315.49,1019.9,2189.19,909,2189.19,764.2Z" transform="translate(-91.71 -211.61)"/><path class="cls-17" d="M2205.53,752.66c0-144.79,122.65-262.14,269.82-262.12,142.83,0,255.55,111.19,255.55,248.31s-112.72,254.22-255.55,261.75C2328.18,1008.35,2205.53,897.44,2205.53,752.66Z" transform="translate(-91.71 -211.61)"/><g class="cls-18"><path class="cls-7" d="M2247.52,751.55c0-121.64,103-220.23,226.69-220.22,120,0,214.7,93.42,214.7,208.63s-94.7,213.58-214.7,219.9C2350.56,966.38,2247.52,873.19,2247.52,751.55Z" transform="translate(-91.71 -211.61)"/></g><path class="cls-7" d="M2371.69,721.78V828c0,30.69,25.82,54.9,57.58,54.08L2508,880c31.38-.82,56.73-26.1,56.73-56.47v-105Zm72.52,109.76,14.63-44.35a19.13,19.13,0,0,1-10.51-17c0-10.9,9.13-19.91,20.39-20.12s20.36,8.43,20.36,19.3a20.09,20.09,0,0,1-10.48,17.44l14.58,43.61Z" transform="translate(-91.71 -211.61)"/><path class="cls-7" d="M2542.36,709.25a14.63,14.63,0,0,1-15.13-14.44c0-31.21-26.2-56.26-58.51-55.85s-58.88,26.31-58.88,57.72c0,8.17-6.87,14.9-15.35,15.05a14.81,14.81,0,0,1-15.38-14.56c0-47.8,40.31-87.14,89.61-87.69,49-.55,88.75,37.51,88.75,84.84A15.2,15.2,0,0,1,2542.36,709.25Z" transform="translate(-91.71 -211.61)"/><path class="cls-19" d="M2122.28,2466.55,2255,2499.72l-33.17,248.79s49.76,49.76,66.34,116.1S2320,3209.53,2320,3209.53l31.49,19,3.82,15.89-91.59,123.16,15.19-98c2.41-15.56-1.77-47.12-.46-47.78-49.75-132.69-156.19-506.47-156.19-506.47Z" transform="translate(-91.71 -211.61)"/><path class="cls-20" d="M2083.51,3246.16c1.44,0,2.85.09,4.29,0-6.41-80-35.71-432-65-564-33.17-149.28,49.76-447.83,49.76-447.83l149.28,149.28-82.93,282c56.83,85.25-9.27,584.48-7.85,584.26l-.09,1.11,21.64,29.75-2.63,16.13-132.19,78,52-84.47A94.77,94.77,0,0,0,2083.51,3246.16Z" transform="translate(-91.71 -211.61)"/><path class="cls-21" d="M2251.41,1572.3s290.64,327.56,0,495.52l-29.61-21.44s144.29-138.18,0-307.32Z" transform="translate(-91.71 -211.61)"/><path class="cls-22" d="M2009,3387.07h42.19a25.37,25.37,0,0,0,20.15-9.88c13.16-17.09,40.4-50.43,53.43-51.29,17.54-1.18,15.3,61.17,15.3,61.17h9.83l12.45-77.47a45.86,45.86,0,0,0-24.07-47.94h0s-4,29.65-25.75,42.76-88.46,60.08-88.46,60.08a60.39,60.39,0,0,0-17.14.46C1993.66,3367.36,1995.51,3387.07,2009,3387.07Z" transform="translate(-91.71 -211.61)"/><path class="cls-23" d="M2260.46,3382.27l38.88-16.36a25.38,25.38,0,0,0,14.75-16.93c5.5-20.85,17.68-62.15,29.35-68,15.72-7.88,37.83,50.46,37.83,50.46l9.06-3.81-18.57-76.25a45.85,45.85,0,0,0-40.77-34.85h0s7.8,28.88-7.15,49.4-58.25,89.69-58.25,89.69a60,60,0,0,0-15.62,7.07C2238.63,3370.06,2248,3387.51,2260.46,3382.27Z" transform="translate(-91.71 -211.61)"/><path class="cls-24" d="M2034.51,1982.5s4.87,37.35-2.27,140-41.31,343.72-34.36,574.35c0,0,97.12,28.27,265.85,14.88,0,0,71.21-360.08,53.86-497s-111.44-235.1-111.44-235.1Z" transform="translate(-91.71 -211.61)"/><polygon class="cls-25" points="2014.56 1221.11 2002.69 1360.68 2115.46 1360.68 2087.42 1147.63 2014.56 1221.11"/><path class="cls-7" d="M2240.58,1553c-38.92-2.15-125.94-6.12-187.59-2.76a71.61,71.61,0,0,0-66.28,56.87l-15,72.06a173.5,173.5,0,0,0,2.45,81.07l60.39,221.7s53.71,32.28,171.64-2.27c0,0,103.56-247,61.17-404.93A29.36,29.36,0,0,0,2240.58,1553Z" transform="translate(-91.71 -211.61)"/><path class="cls-26" d="M1989.66,1594.19C1973,1638,1958,1683.83,1941.92,1726.8c-8.19,21.51-16.51,42.6-25.4,62-4.5,9.64-9.44,18.5-14,26.54a116.63,116.63,0,0,1-12.31,17.61c-.52.45,1.23.8,1.81.83.35,0-11.23,1.9-14.78,2.49l-13.88-.08c-19.9-1-42.44-4.53-65.05-8.92-45.59-8.51-93-20.44-141.67-29.47l-.38-.07a17.15,17.15,0,0,0-14.46,29.74c19.63,17.28,40.43,31.47,62,45.28,10.86,6.64,21.92,13.15,33.15,19.4,11.46,5.84,22.94,11.73,34.87,17.17,24,10.47,48.84,20.11,77.43,26.3,7.51,1.26,14.93,2.58,22.66,3.62,8.67.3,16.54,1.07,26,.52,5-.5,10.08-1.12,15.12-1.85a68.81,68.81,0,0,0,7.92-1.42q5.19-1.56,10.3-3.48c7.1-2.54,11.69-5.63,17.45-8.84,4.79-3.15,9.16-6.45,13.39-9.84,15.63-13.31,25.34-26.52,33.89-39.21a309.41,309.41,0,0,0,21.36-37.82,515.49,515.49,0,0,0,29.39-74.29c15.63-49.7,26.23-98.54,30.7-150.42a45.17,45.17,0,0,0-87.22-20Z" transform="translate(-91.71 -211.61)"/><path class="cls-27" d="M1671.35,1818.56c-5.71-13.56-10.64-37.92-22.89-46.67-23.2-16.58-57.75-27.82-86.53-22.2-5.74,1.12-17.11,7.46-6.69,13.79a63.46,63.46,0,0,0,16.34,6.52,7.59,7.59,0,0,1,4.84,10.72c-3.58,7.08-6.76,17.92-1.89,29.79,8.3,20.23,94.86,40.5,97.4,11.43A7.16,7.16,0,0,0,1671.35,1818.56Z" transform="translate(-91.71 -211.61)"/><path class="cls-28" d="M2058.52,1271.53c-4,2.37-35.75,114.27-9.17,161.19s107.78-5.63,129.78-73.48S2165.79,1208.27,2058.52,1271.53Z" transform="translate(-91.71 -211.61)"/><path class="cls-29" d="M2269,1359.24c18.21,89.23,78.55,64.81,121.29,104.51,69.26,64.33,168.35-2,264.68,59,69.54,44,103,156.62,69.68,247.53-46.23,125.92-204.19,177.71-286,139.36-78.24-36.66-67.1-146.44-172.36-188.86-44.69-18-66.75-6.31-93.51-33-46.86-46.73-34.21-137.42-29.34-172.35,10.57-75.81,36-89.54,23.83-122.86-23.62-64.8-133.83-51.43-143-97.18-8.36-41.66,71.52-120.62,146.69-108.18C2287.16,1206.44,2260.83,1319.49,2269,1359.24Z" transform="translate(-91.71 -211.61)"/><path class="cls-30" d="M2689.86,1748.94a3,3,0,0,0,3-2.33c14.89-61.82,8.14-112.52-20.09-150.69-46.84-63.36-137.87-69.63-138.78-69.68a3.09,3.09,0,0,0-3.22,2.86,3,3,0,0,0,2.85,3.22c.89,0,89.16,6.18,134.28,67.25,27.09,36.65,33.49,85.65,19,145.61a3.06,3.06,0,0,0,2.25,3.68A3.43,3.43,0,0,0,2689.86,1748.94Z" transform="translate(-91.71 -211.61)"/><path class="cls-31" d="M2391.71,1805.53a1.74,1.74,0,0,0,.39,0,1.53,1.53,0,0,0,1.09-1.86c-14.51-55.65-40-94.3-75.64-114.88-26-15-50.27-16.37-71.72-17.6-20.67-1.19-38.53-2.22-52.91-15-29.71-26.42-28-90,5.12-188.82a1.52,1.52,0,0,0-2.89-1c-33.53,100.13-35,164.74-4.25,192.05,15.17,13.49,33.51,14.55,54.76,15.77s45,2.59,70.37,17.2c34.95,20.15,59.92,58.18,74.21,113A1.52,1.52,0,0,0,2391.71,1805.53Z" transform="translate(-91.71 -211.61)"/><path class="cls-31" d="M2225.86,1337.1a1.4,1.4,0,0,0,.49-.08,1.52,1.52,0,0,0,1-1.93c-11.53-34.3-44.75-29.2-79.95-23.79-22.28,3.42-45.31,7-64.85,1.17-14.57-4.32-23.23-11-25.74-19.91-4.27-15.14,10.7-32,10.85-32.19a1.52,1.52,0,0,0-2.26-2c-.67.74-16.24,18.27-11.52,35,2.8,10,12.16,17.37,27.8,22,20.21,6,43.57,2.4,66.18-1.07,35.33-5.43,65.88-10.13,76.6,21.76A1.52,1.52,0,0,0,2225.86,1337.1Z" transform="translate(-91.71 -211.61)"/></g></g></svg>