<svg xmlns="http://www.w3.org/2000/svg" xmlns:xlink="http://www.w3.org/1999/xlink" viewBox="0 0 3749.34 3577.1"><defs><style>.cls-1{fill:#91b3fa;}.cls-2{fill:#7d97f4;}.cls-3{isolation:isolate;}.cls-4{fill:url(#linear-gradient);}.cls-5{clip-path:url(#clip-path);}.cls-6{opacity:0.8;}.cls-13,.cls-19,.cls-6{mix-blend-mode:soft-light;}.cls-19,.cls-7{fill:#fff;}.cls-8{clip-path:url(#clip-path-2);}.cls-9{clip-path:url(#clip-path-3);}.cls-10{fill:url(#linear-gradient-2);}.cls-11{fill:url(#linear-gradient-3);}.cls-12{fill:#d8dee8;}.cls-14{fill:url(#linear-gradient-4);}.cls-15{fill:url(#linear-gradient-5);}.cls-16,.cls-17{opacity:0.1;mix-blend-mode:multiply;}.cls-16{fill:url(#linear-gradient-6);}.cls-17{fill:url(#linear-gradient-7);}.cls-18{fill:#dadbfc;}.cls-19{opacity:0.4;}.cls-20{fill:url(#New_Gradient_Swatch_1);}.cls-21{fill:url(#linear-gradient-8);}.cls-22{fill:url(#linear-gradient-9);}.cls-23{fill:url(#New_Gradient_Swatch_1-2);}.cls-24{fill:url(#linear-gradient-10);}.cls-25{fill:url(#linear-gradient-11);}.cls-26{fill:url(#linear-gradient-12);}.cls-27{fill:url(#linear-gradient-13);}.cls-28{fill:url(#linear-gradient-14);}.cls-29{fill:url(#linear-gradient-15);}.cls-30{fill:url(#linear-gradient-16);}.cls-31{fill:url(#linear-gradient-17);}.cls-32{fill:url(#linear-gradient-18);}.cls-33{fill:url(#linear-gradient-19);}.cls-34{fill:url(#linear-gradient-20);}.cls-35{fill:url(#linear-gradient-21);}.cls-36{fill:url(#linear-gradient-22);}.cls-37{fill:url(#linear-gradient-23);}</style><linearGradient id="linear-gradient" x1="4115.07" y1="4719.85" x2="916.66" y2="747.62" gradientUnits="userSpaceOnUse"><stop offset="0" stop-color="#dae3fe"/><stop offset="1" stop-color="#e9effd"/></linearGradient><clipPath id="clip-path" transform="translate(86.53 -72.55)"><path id="SVGID" class="cls-1" d="M2925,509.84c-43.49-36-109.46-55.58-165.23-59.53-395.33-28-453,798.31-392.42,983s21.33,245.31-290,341.92-162,282.64-124,391.43,113.09,200.69-113.88,308.78-148.09,175.07-148.09,175.07,418.57,428.15,395.45,291.07,18.76-344,394-359.78c161.64-6.77,409.17-83.88,464-257,12.76-40.3,21.64-101.86,11.93-143.57-13.47-57.87-51.44-103.46-72.54-157.93-49.14-126.92,74.12-219.87,145.06-304.7,37-44.29,74.05-89.71,102.41-140.2,58.88-104.84,36.84-217.28-27.28-313.92-30.75-46.34-73.47-95.51-86.88-150.78-14.41-59.38-1.85-140.51,1.57-201.59,2.69-47.91,7.24-95.63,4.55-143.66C3018.59,679.14,2997.67,570,2925,509.84Z"/></clipPath><clipPath id="clip-path-2" transform="translate(86.53 -72.55)"><path id="SVGID-2" data-name="SVGID" class="cls-2" d="M3271.92,1726.91c-28.75-48.57-84.2-89.34-135.34-111.93-362.53-160.12-696.42,597.93-701.89,792.21s-62.93,238.06-388.6,223.62S1798,2842,1796.93,2957.18s38.51,227.12-211.64,252-198.6,114.63-198.6,114.63,171.92,193.19,196.55,56.37,211.16,33.93,569.62,146.12c154.39,48.32,413.41,59.52,523.56-84.81,25.65-33.6,54.83-88.53,59.81-131.06,6.91-59-13.4-114.77-14.82-173.16-3.31-136.06,144.14-181.82,239.6-237.64,49.83-29.15,100-59.37,143.81-97.29,90.88-78.73,108.18-192,80.55-304.63-13.25-54-36.82-114.73-30.74-171.29,6.54-60.74,45.81-132.84,69.7-189.16,18.73-44.17,39.17-87.54,52.89-133.64C3302.74,1917.9,3320,1808.12,3271.92,1726.91Z"/></clipPath><clipPath id="clip-path-3" transform="translate(86.53 -72.55)"><path id="SVGID-3" data-name="SVGID" class="cls-1" d="M309.61,509.84c43.49-36,109.46-55.58,165.23-59.53,395.33-28,453,798.31,392.42,983s-21.33,245.31,290,341.92,162,282.64,124,391.43-113.1,200.69,113.87,308.78,148.09,175.07,148.09,175.07-418.57,428.15-395.44,291.07-18.77-344-394-359.78c-161.64-6.77-409.17-83.88-464-257-12.76-40.3-21.64-101.86-11.93-143.57,13.47-57.87,51.45-103.46,72.54-157.93,49.15-126.92-74.12-219.87-145-304.7-37-44.29-74.05-89.71-102.42-140.2-58.88-104.84-36.83-217.28,27.28-313.92,30.75-46.34,73.48-95.51,86.89-150.78,14.4-59.38,1.84-140.51-1.58-201.59-2.68-47.91-7.24-95.63-4.55-143.66C216,679.14,236.9,570,309.61,509.84Z"/></clipPath><linearGradient id="linear-gradient-2" x1="667.54" y1="1859.28" x2="96.34" y2="1921.6" gradientTransform="translate(744.87)" gradientUnits="userSpaceOnUse"><stop offset="0" stop-color="#4f52ff"/><stop offset="1" stop-color="#4042e2"/></linearGradient><linearGradient id="linear-gradient-3" x1="1170.82" y1="419.46" x2="-241.59" y2="5227.91" xlink:href="#linear-gradient-2"/><linearGradient id="linear-gradient-4" x1="754.71" y1="1903.16" x2="2589.22" y2="1903.16" gradientTransform="matrix(1, 0, 0, 1, 0, 0)" xlink:href="#linear-gradient-2"/><linearGradient id="linear-gradient-5" x1="1498.64" y1="3071.69" x2="1904.42" y2="383.38" gradientTransform="matrix(1, 0, 0, 1, 0, 0)" xlink:href="#linear-gradient-2"/><linearGradient id="linear-gradient-6" x1="1879.01" y1="1703.66" x2="3198.91" y2="1703.66" gradientTransform="matrix(-1, 0, 0, 1, 4220.76, 0)" gradientUnits="userSpaceOnUse"><stop offset="0" stop-color="#f36f56"/><stop offset="1" stop-color="#ffc444"/></linearGradient><linearGradient id="linear-gradient-7" x1="1832.35" y1="2049.94" x2="3151.23" y2="2049.94" xlink:href="#linear-gradient-6"/><linearGradient id="New_Gradient_Swatch_1" x1="9842.6" y1="3262.35" x2="9055.8" y2="4118.17" gradientTransform="matrix(-1, 0.01, 0.01, 1, 12543.61, -63.47)" gradientUnits="userSpaceOnUse"><stop offset="0" stop-color="#2b3582"/><stop offset="1" stop-color="#150e42"/></linearGradient><linearGradient id="linear-gradient-8" x1="9587.21" y1="3325.9" x2="9657.1" y2="3325.9" gradientTransform="matrix(-1, 0.01, 0.01, 1, 12543.61, -63.47)" gradientUnits="userSpaceOnUse"><stop offset="0" stop-color="#f9b776"/><stop offset="1" stop-color="#f47960"/></linearGradient><linearGradient id="linear-gradient-9" x1="1937.71" y1="3727.11" x2="3309.47" y2="2538.25" gradientTransform="matrix(1, 0, 0, 1, 0, 0)" xlink:href="#New_Gradient_Swatch_1"/><linearGradient id="New_Gradient_Swatch_1-2" x1="9666.09" y1="3100.05" x2="8879.26" y2="3955.9" xlink:href="#New_Gradient_Swatch_1"/><linearGradient id="linear-gradient-10" x1="9335.33" y1="3322.31" x2="9395.67" y2="3322.31" xlink:href="#linear-gradient-8"/><linearGradient id="linear-gradient-11" x1="1981.97" y1="3778.17" x2="3353.72" y2="2589.32" gradientTransform="matrix(1, 0, 0, 1, 0, 0)" xlink:href="#New_Gradient_Swatch_1"/><linearGradient id="linear-gradient-12" x1="3061.54" y1="1582.71" x2="2647.83" y2="3175.51" gradientTransform="matrix(1, 0, 0, 1, 0, 0)" xlink:href="#linear-gradient-2"/><linearGradient id="linear-gradient-13" x1="9874.88" y1="1502.58" x2="10231.95" y2="1502.58" xlink:href="#linear-gradient-8"/><linearGradient id="linear-gradient-14" x1="294.33" y1="1441.81" x2="533.92" y2="1986.93" gradientTransform="translate(2096.89 36.7) rotate(-0.54)" xlink:href="#linear-gradient-8"/><linearGradient id="linear-gradient-15" x1="10230.23" y1="1261.19" x2="10330.21" y2="1107.48" xlink:href="#linear-gradient-8"/><linearGradient id="linear-gradient-16" x1="3381.87" y1="1665.91" x2="2968.15" y2="3258.71" gradientTransform="matrix(1, 0, 0, 1, 0, 0)" xlink:href="#linear-gradient-2"/><linearGradient id="linear-gradient-17" x1="9093.55" y1="2008.3" x2="9545.41" y2="2008.3" xlink:href="#linear-gradient-8"/><linearGradient id="linear-gradient-18" x1="9440.53" y1="1525.26" x2="9619.19" y2="1525.26" xlink:href="#linear-gradient-8"/><linearGradient id="linear-gradient-19" x1="9379.2" y1="1744.11" x2="9628.53" y2="2782.99" gradientTransform="matrix(-1, 0, 0, 1, 12275.32, 0)" xlink:href="#New_Gradient_Swatch_1"/><linearGradient id="linear-gradient-20" x1="9208.35" y1="2018.95" x2="9349.62" y2="2018.95" gradientTransform="matrix(-1, 0, 0, 1, 12275.32, 0)" xlink:href="#linear-gradient-8"/><linearGradient id="linear-gradient-21" x1="2036.89" y1="2161.85" x2="1804.28" y2="2469.56" gradientTransform="matrix(-0.69, -0.73, -0.73, 0.69, 5962.79, 1318.79)" xlink:href="#linear-gradient-8"/><linearGradient id="linear-gradient-22" x1="1864.68" y1="2236.18" x2="2136.18" y2="2236.18" gradientTransform="matrix(-0.69, -0.73, -0.73, 0.69, 5962.79, 1318.79)" xlink:href="#New_Gradient_Swatch_1"/><linearGradient id="linear-gradient-23" x1="1699.47" y1="2408.96" x2="1886.01" y2="2217.57" gradientTransform="matrix(-0.69, -0.73, -0.73, 0.69, 5962.79, 1318.79)" xlink:href="#linear-gradient-8"/></defs><g class="cls-3"><g id="Illustration"><path class="cls-4" d="M3245.05,3146.49c-74,77-144,126.61-199.36,165.82-650.34,461-1419.87,326.61-1583.42,293.79-241.5-48.46-708.33-142.12-1045.83-534.22-510.62-593.2-431.11-1527.78-35-2144.71C453.85,814.33,836.54,188,1614.35,87.56c470.72-60.79,1019.44,61.81,1416.8,390.69C3865.25,1168.6,3805.87,2563.22,3245.05,3146.49Z" transform="translate(86.53 -72.55)"/><path id="SVGID-4" data-name="SVGID" class="cls-1" d="M2925,509.84c-43.49-36-109.46-55.58-165.23-59.53-395.33-28-453,798.31-392.42,983s21.33,245.31-290,341.92-162,282.64-124,391.43,113.09,200.69-113.88,308.78-148.09,175.07-148.09,175.07,418.57,428.15,395.45,291.07,18.76-344,394-359.78c161.64-6.77,409.17-83.88,464-257,12.76-40.3,21.64-101.86,11.93-143.57-13.47-57.87-51.44-103.46-72.54-157.93-49.14-126.92,74.12-219.87,145.06-304.7,37-44.29,74.05-89.71,102.41-140.2,58.88-104.84,36.84-217.28-27.28-313.92-30.75-46.34-73.47-95.51-86.88-150.78-14.41-59.38-1.85-140.51,1.57-201.59,2.69-47.91,7.24-95.63,4.55-143.66C3018.59,679.14,2997.67,570,2925,509.84Z" transform="translate(86.53 -72.55)"/><g class="cls-5"><g class="cls-6"><path class="cls-7" d="M1658.39,2890.79a5.84,5.84,0,0,1-4.68-10.68c1.75-.92,178-93.61,374.54-246.27,181.12-140.66,417.09-362.46,512.63-620.29,79.79-215.35,152.56-571.34,199.65-976.7,42.23-363.49,48.9-632.33,30.95-682.23a5.85,5.85,0,0,1,11-4c21,58.38,7.67,360.38-30.33,687.54-47.2,406.25-120.2,763.23-200.31,979.41-96.52,260.48-334.19,484-516.59,625.59-197.37,153.26-374.36,246.34-376.13,247.27A7.71,7.71,0,0,1,1658.39,2890.79Z" transform="translate(86.53 -72.55)"/><path class="cls-7" d="M2739.89,1107.31c-3,1.09-6.1.25-7.21-2.77-1.47-4-148.83-400.49-338.87-490a5.62,5.62,0,0,1-2.74-7.6,5.84,5.84,0,0,1,7.81-2.7c194.39,91.56,338.7,479.73,344.76,496.23,1.11,3-.68,5.75-3.72,6.84Z" transform="translate(86.53 -72.55)"/><path class="cls-7" d="M2668,1567.11a5.85,5.85,0,0,1-5.7-10c1.08-.89,109.58-89.9,243.46-164.59,180.89-100.92,319.52-129.09,412-83.73a5.85,5.85,0,0,1-5.15,10.5c-212.86-104.35-638.64,243.32-642.92,246.84A5.78,5.78,0,0,1,2668,1567.11Z" transform="translate(86.53 -72.55)"/><path class="cls-7" d="M2195.64,2507a5.65,5.65,0,0,1-1.89.34,5.84,5.84,0,0,1-5.94-5.75c0-1.7-3-171.81-38.64-351.05-32.64-164.34-100.05-370.2-235.8-417.63a5.85,5.85,0,1,1,3.86-11c113.19,39.55,195.09,183.06,243.44,426.54,35.79,180.26,38.81,351.29,38.83,353A5.85,5.85,0,0,1,2195.64,2507Z" transform="translate(86.53 -72.55)"/><path class="cls-7" d="M2437.18,2232.12a5.84,5.84,0,0,1-5.45-10.2c18.82-13.91,462.86-340.36,636-309.19a5.85,5.85,0,0,1-2.07,11.51c-168.26-30.29-622.43,303.7-627,307.08A5.88,5.88,0,0,1,2437.18,2232.12Z" transform="translate(86.53 -72.55)"/></g></g><path id="SVGID-5" data-name="SVGID" class="cls-2" d="M3271.92,1726.91c-28.75-48.57-84.2-89.34-135.34-111.93-362.53-160.12-696.42,597.93-701.89,792.21s-62.93,238.06-388.6,223.62S1798,2842,1796.93,2957.18s38.51,227.12-211.64,252-198.6,114.63-198.6,114.63,171.92,193.19,196.55,56.37,211.16,33.93,569.62,146.12c154.39,48.32,413.41,59.52,523.56-84.81,25.65-33.6,54.83-88.53,59.81-131.06,6.91-59-13.4-114.77-14.82-173.16-3.31-136.06,144.14-181.82,239.6-237.64,49.83-29.15,100-59.37,143.81-97.29,90.88-78.73,108.18-192,80.55-304.63-13.25-54-36.82-114.73-30.74-171.29,6.54-60.74,45.81-132.84,69.7-189.16,18.73-44.17,39.17-87.54,52.89-133.64C3302.74,1917.9,3320,1808.12,3271.92,1726.91Z" transform="translate(86.53 -72.55)"/><g class="cls-8"><g class="cls-6"><path class="cls-7" d="M1274.41,3538.83a5.84,5.84,0,0,1-.79-11.63c2-.27,199.15-27.87,435.78-105,218-71.07,515.13-199.94,692.28-410.24,148-175.64,336.89-486,518.37-851.53,162.73-327.76,260-578.48,260-631.51a5.85,5.85,0,1,1,11.69,0c0,62-114.73,341.72-261.19,636.71-181.87,366.32-371.37,677.54-519.9,853.86-179,212.46-478.25,342.35-697.8,413.9-237.59,77.43-435.64,105.13-437.61,105.4A5.46,5.46,0,0,1,1274.41,3538.83Z" transform="translate(86.53 -72.55)"/><path class="cls-7" d="M2895.6,2227.71a5.71,5.71,0,0,1-5.85-5.65c0-4.26-4.54-427.52-153.08-576.06a5.83,5.83,0,1,1,8.27-8.21c151.94,151.94,156.39,566.6,156.5,584.19a5.71,5.71,0,0,1-5.81,5.73Z" transform="translate(86.53 -72.55)"/><path class="cls-7" d="M2672.39,2634.87a5.85,5.85,0,0,1-2-11.35c1.31-.47,133.53-47.51,284.79-72.5,204.37-33.75,344.35-13.35,416.06,60.64a5.85,5.85,0,0,1-8.4,8.14c-165-170.22-683.29,12.86-688.51,14.73A5.92,5.92,0,0,1,2672.39,2634.87Z" transform="translate(86.53 -72.55)"/><path class="cls-7" d="M1909.85,3359.43a5.74,5.74,0,0,1-1.9-.32,5.84,5.84,0,0,1-3.63-7.42c.55-1.61,55.28-162.71,82.42-343.42,24.89-165.69,31.11-382.21-80.57-472.78a5.84,5.84,0,0,1,7.36-9.08c93.13,75.52,121.64,238.28,84.75,483.75-27.31,181.74-82.35,343.7-82.9,345.32A5.85,5.85,0,0,1,1909.85,3359.43Z" transform="translate(86.53 -72.55)"/><path class="cls-7" d="M2230.14,3182.54a5.84,5.84,0,0,1-1.68-11.44c22.42-6.73,550.73-163.67,703.13-75.74a5.85,5.85,0,0,1-5.84,10.13c-148.09-85.44-688.49,75.17-693.93,76.8A5.8,5.8,0,0,1,2230.14,3182.54Z" transform="translate(86.53 -72.55)"/></g></g><path id="SVGID-6" data-name="SVGID" class="cls-1" d="M309.61,509.84c43.49-36,109.46-55.58,165.23-59.53,395.33-28,453,798.31,392.42,983s-21.33,245.31,290,341.92,162,282.64,124,391.43-113.1,200.69,113.87,308.78,148.09,175.07,148.09,175.07-418.57,428.15-395.44,291.07-18.77-344-394-359.78c-161.64-6.77-409.17-83.88-464-257-12.76-40.3-21.64-101.86-11.93-143.57,13.47-57.87,51.45-103.46,72.54-157.93,49.15-126.92-74.12-219.87-145-304.7-37-44.29-74.05-89.71-102.42-140.2-58.88-104.84-36.83-217.28,27.28-313.92,30.75-46.34,73.48-95.51,86.89-150.78,14.4-59.38,1.84-140.51-1.58-201.59-2.68-47.91-7.24-95.63-4.55-143.66C216,679.14,236.9,570,309.61,509.84Z" transform="translate(86.53 -72.55)"/><g class="cls-9"><g class="cls-6"><path class="cls-7" d="M1576.19,2890.79a5.84,5.84,0,0,0,4.68-10.68c-1.76-.92-178-93.61-374.55-246.27-181.12-140.66-417.09-362.46-512.63-620.29C613.9,1798.2,541.13,1442.21,494,1036.85c-42.23-363.49-48.9-632.33-31-682.23a5.85,5.85,0,1,0-11-4C431.1,409,444.42,711,482.43,1038.2c47.19,406.25,120.2,763.23,200.3,979.41,96.52,260.48,334.2,484,516.59,625.59,197.38,153.26,374.37,246.34,376.13,247.27A6.88,6.88,0,0,0,1576.19,2890.79Z" transform="translate(86.53 -72.55)"/><path class="cls-7" d="M494.68,1107.31c3,1.09,6.11.25,7.21-2.77,1.47-4,148.83-400.49,338.88-490a5.61,5.61,0,0,0,2.73-7.6,5.84,5.84,0,0,0-7.81-2.7C641.3,695.79,497,1084,490.93,1100.46c-1.11,3,.68,5.75,3.72,6.84Z" transform="translate(86.53 -72.55)"/><path class="cls-7" d="M566.55,1567.11a5.84,5.84,0,0,0,5.69-10c-1.08-.89-109.58-89.9-243.46-164.59-180.89-100.92-319.52-129.09-412-83.73a5.85,5.85,0,0,0-2.68,7.82,5.85,5.85,0,0,0,7.82,2.68c212.86-104.35,638.64,243.32,642.92,246.84A5.71,5.71,0,0,0,566.55,1567.11Z" transform="translate(86.53 -72.55)"/><path class="cls-7" d="M1038.93,2507a5.7,5.7,0,0,0,1.89.34,5.84,5.84,0,0,0,5.94-5.75c0-1.7,3-171.81,38.64-351.05,32.65-164.34,100.06-370.2,235.8-417.63a5.85,5.85,0,1,0-3.86-11c-113.19,39.55-195.09,183.06-243.44,426.54-35.79,180.26-38.81,351.29-38.83,353A5.85,5.85,0,0,0,1038.93,2507Z" transform="translate(86.53 -72.55)"/><path class="cls-7" d="M797.39,2232.12a5.84,5.84,0,0,0,5.45-10.2C784,2208,340,1881.56,166.82,1912.73a5.85,5.85,0,1,0,2.07,11.51c168.26-30.29,622.44,303.7,627,307.08A5.88,5.88,0,0,0,797.39,2232.12Z" transform="translate(86.53 -72.55)"/></g></g><path class="cls-10" d="M2094.46,420.16l348,2892.39c5.22,43.37-24.67,82.25-66.54,86.4L926.5,3558.08c-88.79,5.52-137.41-39.84-142.89-86L418.27,397c-5.45-45.86,38.11-87.39,127.28-87.39l1462.59,30.8C2050.48,341.15,2089.27,377,2094.46,420.16Z" transform="translate(86.53 -72.55)"/><path class="cls-11" d="M2159.69,415.19,2509.59,3322c5.25,43.59-24.75,82.67-66.77,86.85L940.19,3558.49c-47.11,4.69-90.28-29.39-95.79-75.74L477,391.77c-5.48-46.1,29.13-83.15,76.75-82.35L2073,335.06C2115.53,335.77,2154.47,371.83,2159.69,415.19Z" transform="translate(86.53 -72.55)"/><path class="cls-12" d="M2131.18,575.53l324.31,2695.23c4.9,40.72-23.19,77.16-62.53,81L979.79,3489.11c-43.79,4.26-83.92-27.55-89-70.7L551.21,563.06c-5.11-42.92,27-77.65,71.26-77.18l1427.67,15.2C2089.88,501.51,2126.3,535,2131.18,575.53Z" transform="translate(86.53 -72.55)"/><path class="cls-7" d="M1373.36,413.19c1.86,15.47-9.25,27.86-24.82,27.66s-29.73-12.92-31.59-28.43,9.29-27.89,24.88-27.66S1371.51,397.71,1373.36,413.19Z" transform="translate(86.53 -72.55)"/><g class="cls-13"><path class="cls-7" d="M1886.86,2384.74c-289.31-534.89-721.49-695-851.61-1246.26-70.34-298-22.42-583.18,58.3-819.95l-539.8-9.11c-47.62-.8-82.23,36.25-76.75,82.35l367.4,3091c5.51,46.35,48.68,80.43,95.79,75.74l1181.21-117.6C2130.14,2961.61,2015.82,2623.17,1886.86,2384.74Z" transform="translate(86.53 -72.55)"/></g><path class="cls-14" d="M821.15,749l-7.06,38.12h0l145.38.34,1261.57,3c32.45.08,62.3,26.9,66.75,59.92l301.15,2012.74c4.49,33.31-47.37,84.16-79.63,86.65l-559.69,43v-.67l-837.21,64.23h0l-2,.84c-35.75,2.76-68.54-23.18-73.18-58.36,0,0,0,.14,0,.13L755.12,850C750.55,815.1,785.2,748.87,821.15,749Z" transform="translate(86.53 -72.55)"/><path class="cls-15" d="M1065.69,2956.89c4.62,35.2,37.41,61.51,73.16,58.76l1400.39-107.53c32.25-2.48,54.7-31.49,50.21-64.81L2315.68,809.18c-4.44-33-34.28-59.84-66.71-59.93l-1408.3-3.87c-35.94-.1-61.43,28.07-56.86,62.94Z" transform="translate(86.53 -72.55)"/><path class="cls-7" d="M1047.1,1838.23c2.29,17.43,18.57,30.43,36.36,29.78L2316,1823c16.27-.59,27.71-14,25.47-30.63l-24.23-179.61c-2.23-16.63-17.08-27.89-33.36-27.44l-1233.6,34.26c-17.81.49-30.42,13.07-28.13,30.49Z" transform="translate(86.53 -72.55)"/><path class="cls-7" d="M1094.83,2203.17c2.29,17.46,18.59,32.37,36.37,31.49l1231.58-60.84c16.26-.81,27.57-16.36,25.33-33l-24.42-183.08c-2.24-16.66-17.23-30.93-33.49-30.28l-1232.34,49.71c-17.79.71-30.36,16.81-28.07,34.25Z" transform="translate(86.53 -72.55)"/><path class="cls-16" d="M1022,1649.37a34,34,0,0,1,9.41-1.56l1233.62-34.23c16.28-.47,31.14,10.81,33.35,27.41l24.26,179.62c.05.47.1.89.15,1.36,12.51-3.53,20.55-15.38,18.67-29.58l-24.27-179.61c-2.21-16.61-17.07-27.89-33.35-27.42L1050.24,1619.6C1032.75,1620.11,1020.19,1632.29,1022,1649.37Z" transform="translate(86.53 -72.55)"/><path class="cls-17" d="M1069.53,2007.37a28.91,28.91,0,0,1,9.54-2l1232.31-49.71c16.27-.66,31.27,13.64,33.48,30.29L2369.32,2169a29.21,29.21,0,0,1,.24,3.48c12.51-4,20.45-17.49,18.57-31.7l-24.45-183.09c-2.21-16.65-17.22-30.94-33.49-30.29l-1232.31,49.72C1081.42,1977.83,1069.48,1991.56,1069.53,2007.37Z" transform="translate(86.53 -72.55)"/><path class="cls-18" d="M1422.37,2499c-3.64-27.55,15.84-52.93,43.53-54.52l637.54-36.61c26.4-1.52,50.79,20.71,54.38,47.54l26.32,198.31c3.59,26.86-14.73,52.58-41.12,54.38l-637.22,43.6c-27.67,1.89-53.16-21.48-56.8-49.06Z" transform="translate(86.53 -72.55)"/><path class="cls-18" d="M1374.22,1162.9c8.4,63.4,41,120.62,87.27,162.7,49.89,45.39,115.62,73,184,71.69,68-1.31,125.25-31,162-77.43,33.91-42.76,50.51-99.76,42.19-162.09-17.3-129.66-136.44-234.48-267.17-234.17C1450.52,923.91,1356.76,1031,1374.22,1162.9Z" transform="translate(86.53 -72.55)"/><path class="cls-7" d="M1501.35,1090.85c7.54,56.8,60,102.3,116.88,101.62,56.69-.67,96.39-46.94,88.88-103.32S1647.71,987.3,1591,987.57C1534,987.83,1493.82,1034.07,1501.35,1090.85Z" transform="translate(86.53 -72.55)"/><path class="cls-7" d="M1461.49,1325.6c49.89,45.39,115.62,73,184,71.69,68-1.31,125.25-31,162-77.43-42.08-58.62-111.45-97.59-185.15-96.63C1548.23,1224.19,1488.52,1265.25,1461.49,1325.6Z" transform="translate(86.53 -72.55)"/><path class="cls-19" d="M783.81,808.32l281.88,2148.57c4.62,35.19,39.5,61.35,75.23,58.6L1982,2950.91c40-40.9,72.86-90,96.34-148.91,11.53-28.89,20-60.06,25.58-92.84,15.62-90.72,9.57-193.84-13.21-295.08-17.51-77.92-45-154.86-80.11-224.27-28.1-55.5-61.16-106.24-98.08-148.88-26.58-30.69-55.33-60.52-85.66-89.76-36.56-35.29-75.42-69.75-115.51-103.88-93.41-79.59-193.44-157.4-286-239.58-213.69-189.57-387-401.38-345.34-703.6,1.33-9.52,14.36-82.42,31-158l-268.21-.74C806.83,745.28,779.24,773.47,783.81,808.32Z" transform="translate(86.53 -72.55)"/><path class="cls-20" d="M2981.32,3353.76s8.59,46,13,91.68a31.46,31.46,0,0,1-29.77,34.37c-60.79,3.12-190.82,9.28-237.52,7.65a10.24,10.24,0,0,1-9.14-13.94,22.93,22.93,0,0,1,11.61-12.46l213.92-100.8Z" transform="translate(86.53 -72.55)"/><path class="cls-21" d="M2987.74,3326.59l-6,55.24s-37.47,17.88-63.37-1.6l15-61.64Z" transform="translate(86.53 -72.55)"/><path class="cls-22" d="M2972.92,2289.27c3,14.38,22,718.92-50.27,1035.42a10.72,10.72,0,0,0,6.41,12.41c11.59,4.61,34.31,11.23,61.46,11.88a18.47,18.47,0,0,0,18.19-13.42c20.83-73.47,120.5-441.54,130.61-792.33,11.3-392-.13-13.34-.13-13.34l-11.13-242.13Z" transform="translate(86.53 -72.55)"/><path class="cls-23" d="M3228.72,3375.47s13.19,23.16,26.34,84.93a19.2,19.2,0,0,1-16.67,23.14c-20.06,2.17-50.95,5-75.72,5.07a19.14,19.14,0,0,1-19.15-21.17c2.53-22.61,10.72-59.75,36.84-88.89Z" transform="translate(86.53 -72.55)"/><path class="cls-24" d="M3239.43,3304.39l-14.5,83.59s-15,11.39-45,3.52l6.45-89.85Z" transform="translate(86.53 -72.55)"/><path class="cls-25" d="M3271.26,2308.05c65.15,371.2-4.6,919-28.86,1026.34A16.69,16.69,0,0,1,3229,3347.2c-11.26,2-29.83,3.69-48.2-1.46a15.28,15.28,0,0,1-11.13-14c-4.22-86.54-3.19-618.07-62.59-827.56a47.7,47.7,0,0,0-18.66-26.15l-112.16-78.14L2966.52,2272Z" transform="translate(86.53 -72.55)"/><path class="cls-26" d="M2872,1607.34c184.59-4.81,388.78,44.77,388.78,44.77,58.1,320.57,16.22,691.37,16.22,691.37-142.56,38.84-304.37-20-304.37-20-25-134-139.47-510.64-139.47-510.64-90.31-10.33-164.86-35.65-226.38-69.47,46.16-54.55,67.5-123.61,76.67-164.39C2748.91,1598.62,2815.06,1608.82,2872,1607.34Z" transform="translate(86.53 -72.55)"/><path class="cls-27" d="M2324.08,1340.62c17.93-22.08,41-11.94,41-11.94,28.26,114.5,171.6,206.19,318.38,250.28-9.17,40.78-30.51,109.84-76.67,164.39C2362.58,1609.11,2324.08,1340.62,2324.08,1340.62Z" transform="translate(86.53 -72.55)"/><path class="cls-28" d="M2328.54,1346.14c-1.84,6,20.22,15,32.92-9.77.34-11.83,7.05-62.55-.11-72.12-38.12-51-111.7-114.57-111.7-114.57-12.21,12.29-1.94,24.15-1.94,24.15l35.75,36.53c-7.28,13.45-16.2,24.83-20.28,41.05a49.59,49.59,0,0,0,5.3,36.46c6.32,11.13,14.93,25.6,23.05,36.91C2306.91,1346.19,2328.54,1346.14,2328.54,1346.14Z" transform="translate(86.53 -72.55)"/><path class="cls-29" d="M2299.17,1234.14l32.51,27,10.39,27.13-28.45,32.18s-10.19-53.93-17.49-65.55S2292.51,1237.62,2299.17,1234.14Z" transform="translate(86.53 -72.55)"/><path class="cls-30" d="M3191.67,1831.55l69.1-179.44s173.56,115.52,203.34,263.8c-32.56,2.71-91.77,11.75-149.53,41.61C3301.16,1887.5,3191.67,1831.55,3191.67,1831.55Z" transform="translate(86.53 -72.55)"/><path class="cls-31" d="M3042.58,2001.19s194.65,107.57,259.08,13.52c13.38-19.53,16.44-38.84,12.92-57.19,57.76-29.86,117-38.9,149.53-41.61,9,44.71,4.91,92.38-21,140.77-112.43,210.42-425.75-7.51-425.75-7.51Z" transform="translate(86.53 -72.55)"/><path class="cls-32" d="M3057.56,1455.68,3117.93,1625a6.12,6.12,0,0,1-2.72,7.4c-15.93,9-73.38,35.15-143.32-8.27a28.83,28.83,0,0,1-13.47-20.45L2938,1456.82Z" transform="translate(86.53 -72.55)"/><path class="cls-33" d="M3082.36,2171.2l-106-370.3a10.82,10.82,0,0,0-9.14-7.78c-19.21-2.24-74.88-8.53-139.15-14-77.42-6.55-167.33-11.85-221.06-7.34a10.83,10.83,0,0,0-8.85,15.59c30.55,61.81,156.22,313.24,219.15,395.61a10.88,10.88,0,0,0,8.75,4.29l246-2.29A10.83,10.83,0,0,0,3082.36,2171.2Z" transform="translate(86.53 -72.55)"/><path class="cls-34" d="M3056.74,2081.73s14.77-60.73,8.81-82.28-17.5-49.26-56-43.1-83.87,22.37-83.87,22.37,2.3,28.06,31.54,19l-18.13,14s2.59,22.47,27.29,10.47l-16.87,18.61s10.61,18.45,28.79,6.62S3005.2,2089.05,3056.74,2081.73Z" transform="translate(86.53 -72.55)"/><path class="cls-7" d="M2835.11,1889.69a31.13,31.13,0,1,1-31.13-31.12A31.13,31.13,0,0,1,2835.11,1889.69Z" transform="translate(86.53 -72.55)"/><path class="cls-7" d="M2964.33,1910.21,2942.74,1837a25.11,25.11,0,0,0-18.87-17.63c-67.66-14.11-252.87-17.11-254.73-17.14l.12-8.27c7.64.12,187.87,3,256.3,17.32a33.35,33.35,0,0,1,25.12,23.38l21.59,73.23Z" transform="translate(86.53 -72.55)"/><path class="cls-35" d="M2963.17,1283.21c-2.1,2.11-88.87,182.88-88.87,182.88l98.34,50.36,106.23-158.37S2998.43,1248,2963.17,1283.21Z" transform="translate(86.53 -72.55)"/><path class="cls-36" d="M3035.36,1362.47a17.51,17.51,0,0,1-1.18,14.61l-49,86.75a16.12,16.12,0,0,1-2.69,3.55c-5.83,5.76-25.81,22.53-41.26-.3-13.16-19.46-25.51-37.15-38.74-44.45-7.73-4.26-17.24-.85-21.17,7.4-8.08,17-23.73,51.63-33.56,84.47-2.47,8.23,1.54,17.07,9.08,20.32,19.92,8.55,59.27,24,94.2,29.15a15.31,15.31,0,0,0,14.83-6.69c15-21.84,57.38-82.87,71.83-98.14,13.43-14.2,38.21-8.85,49.38-5.44a15,15,0,0,0,12.53-1.75c11.33-7.24,31.1-25.27,13-55.79a17.29,17.29,0,0,1,4.86-22.63c12.65-8.83,26.38-25.4,13.3-52.23-13.24-27.17-36.88-29.61-53-27.52a16.14,16.14,0,0,1-17.1-10.08,10.5,10.5,0,0,0-8.09-6.76,16.11,16.11,0,0,1-12.32-19c2.84-15.38.7-35.35-22.44-48.84-42.43-24.75-79.6,15.58-89.05,49.62s38,58.1,67.84,62.12C3018.51,1323.82,3030.53,1349.2,3035.36,1362.47Z" transform="translate(86.53 -72.55)"/><path class="cls-37" d="M3019.23,1491s18.87-58.57,43-56.42,43.16,27.68,13.23,56.37C3038.24,1526.63,3019.23,1491,3019.23,1491Z" transform="translate(86.53 -72.55)"/></g></g></svg>