<svg id="Layer_1" data-name="Layer 1" xmlns="http://www.w3.org/2000/svg" viewBox="0 0 33.48 47.2"><defs><style>.cls-1{fill:#ff9000;}.cls-2{fill:none;stroke:#000;stroke-linecap:round;stroke-miterlimit:10;stroke-width:4px;}</style></defs><g id="logo"><path class="cls-1" d="M9.26,19.84V33.31a1.58,1.58,0,0,0,2.41,1.28l11-6.41a1.86,1.86,0,0,0,0-3.2l-11-6.42A1.59,1.59,0,0,0,9.26,19.84Z" transform="translate(-9.26 -1.26)"/><path class="cls-2" d="M21.49,9.37s16,7.88,9.58,24.66a26.74,26.74,0,0,1-5.3,8.15" transform="translate(-9.26 -1.26)"/><path class="cls-2" d="M28.42,3.26s17.11,10.59,11,32.6a25.46,25.46,0,0,1-6.13,10.6" transform="translate(-9.26 -1.26)"/></g></svg>