<svg id="OBJECTS" xmlns="http://www.w3.org/2000/svg" xmlns:xlink="http://www.w3.org/1999/xlink" viewBox="0 0 3878.87 3163.34"><defs><style>.cls-1{fill:none;}.cls-1,.cls-2{clip-rule:evenodd;}.cls-2,.cls-32{fill:url(#linear-gradient);}.cls-3{clip-path:url(#clip-path);}.cls-14,.cls-15,.cls-16,.cls-17,.cls-19,.cls-20,.cls-21,.cls-25,.cls-26,.cls-27,.cls-29,.cls-30,.cls-31,.cls-32,.cls-34,.cls-36,.cls-37,.cls-4,.cls-40,.cls-5,.cls-51,.cls-54,.cls-55,.cls-56{fill-rule:evenodd;}.cls-4{fill:url(#linear-gradient-2);}.cls-5{fill:url(#linear-gradient-3);}.cls-6{fill:#2a2121;}.cls-40,.cls-7,.cls-9{fill:#fff;}.cls-8{fill:#efefef;}.cls-9{opacity:0.65;}.cls-10{fill:url(#linear-gradient-4);}.cls-11{fill:url(#linear-gradient-5);}.cls-12{fill:url(#linear-gradient-6);}.cls-13{fill:url(#linear-gradient-7);}.cls-14,.cls-46{fill:#3f345c;}.cls-15{fill:#ffdabb;}.cls-16,.cls-28{fill:#7d96f1;}.cls-17{fill:url(#linear-gradient-8);}.cls-18{clip-path:url(#clip-path-2);}.cls-19{fill:url(#linear-gradient-9);}.cls-20{fill:url(#linear-gradient-10);}.cls-21{fill:url(#linear-gradient-11);}.cls-22{clip-path:url(#clip-path-3);}.cls-23{clip-path:url(#clip-path-4);}.cls-24{fill:url(#linear-gradient-12);}.cls-25{fill:url(#linear-gradient-13);}.cls-26{fill:#ffdaba;}.cls-27{fill:#b4b3c6;}.cls-28{stroke:#fff;stroke-linecap:round;stroke-linejoin:round;stroke-width:11px;}.cls-29{fill:url(#linear-gradient-14);}.cls-30{fill:#ffb87b;}.cls-31{fill:#7a5fc3;}.cls-33{clip-path:url(#clip-path-5);}.cls-34{fill:url(#linear-gradient-16);}.cls-35{fill:#8a76c4;}.cls-36{fill:#ac99e3;}.cls-37,.cls-48{fill:#53457c;}.cls-38{clip-path:url(#clip-path-6);}.cls-39{fill:#342b4e;}.cls-41{fill:#2b2340;}.cls-42{fill:#040329;}.cls-43{fill:#28213b;}.cls-44{fill:#302848;}.cls-45{fill:#201e69;}.cls-47{fill:url(#linear-gradient-17);}.cls-49{fill:url(#linear-gradient-18);}.cls-50{fill:url(#linear-gradient-19);}.cls-51{fill:#3d335b;}.cls-52{fill:url(#linear-gradient-20);}.cls-53{fill:#e8e8e8;}.cls-54{fill:url(#linear-gradient-21);}.cls-55{fill:url(#linear-gradient-22);}.cls-56{fill:url(#linear-gradient-23);}.cls-57{fill:url(#linear-gradient-24);}</style><linearGradient id="linear-gradient" x1="2734.25" y1="1815.44" x2="2849.47" y2="1815.44" gradientUnits="userSpaceOnUse"><stop offset="0" stop-color="#5153fc"/><stop offset="1" stop-color="#4243df"/></linearGradient><clipPath id="clip-path" transform="translate(157.8 -177.66)"><path class="cls-1" d="M3600.67,1603.39c55.64,923.48-592.78,1700.44-1448.3,1735.4S394.7,2988.94,137.35,2479.3,528.43,1192.68,1585.65,743.89,3545,679.91,3600.67,1603.39Z"/></clipPath><linearGradient id="linear-gradient-2" x1="81" y1="1948.73" x2="3604" y2="1948.73" gradientUnits="userSpaceOnUse"><stop offset="0" stop-color="#b4e1fc"/><stop offset="1" stop-color="#ccedfb"/></linearGradient><linearGradient id="linear-gradient-3" x1="-157.8" y1="1722.39" x2="3365.2" y2="1722.39" gradientUnits="userSpaceOnUse"><stop offset="0" stop-color="#d8e1fc"/><stop offset="1" stop-color="#e7edfb"/></linearGradient><linearGradient id="linear-gradient-4" x1="1124.6" y1="3106.97" x2="1198.04" y2="2834.81" xlink:href="#linear-gradient"/><linearGradient id="linear-gradient-5" x1="1413.06" y1="2790.13" x2="2181.6" y2="2790.13" xlink:href="#linear-gradient"/><linearGradient id="linear-gradient-6" x1="894.36" y1="2597.8" x2="3786.8" y2="2597.8" gradientUnits="userSpaceOnUse"><stop offset="0" stop-color="#4243df"/><stop offset="1" stop-color="#5153fc"/></linearGradient><linearGradient id="linear-gradient-7" x1="894.36" y1="2597.8" x2="1786.75" y2="2597.8" xlink:href="#linear-gradient-6"/><linearGradient id="linear-gradient-8" x1="2716.55" y1="2013.53" x2="3233.52" y2="2013.53" gradientUnits="userSpaceOnUse"><stop offset="0" stop-color="#0b025c"/><stop offset="1" stop-color="#1c128e"/></linearGradient><clipPath id="clip-path-2" transform="translate(157.8 -177.66)"><path class="cls-1" d="M2912,1529.44c-186.37,14.14-220.94,121.93-180.08,233.5s110,73.86,100.56,176-28.16,55.56-52.36,166.19c-19.31,88.24-5.78,177.94,75.94,240.79s50.28,152.43,50.28,152.43,143-26.72,218.42-143,116.91-117.85,107.48-249.85-70.81-183.69-75.53-246.54.11-148.82-50.18-227.38S2989.13,1523.58,2912,1529.44Z"/></clipPath><linearGradient id="linear-gradient-9" x1="2620.2" y1="2061.77" x2="2997.31" y2="2061.77" xlink:href="#linear-gradient-8"/><linearGradient id="linear-gradient-10" x1="2240.82" y1="3023.88" x2="2738.47" y2="3023.88" gradientUnits="userSpaceOnUse"><stop offset="0" stop-color="#5153fc"/><stop offset="1" stop-color="#422fdf"/></linearGradient><linearGradient id="linear-gradient-11" x1="2648.85" y1="2608.3" x2="3665" y2="2608.3" xlink:href="#linear-gradient"/><clipPath id="clip-path-3" transform="translate(157.8 -177.66)"><path class="cls-1" d="M3407.48,2178c-76.24,0-138.14,19.76-138.14,44.11s61.9,44.11,138.14,44.11,138.14-19.77,138.14-44.11S3483.72,2178,3407.48,2178ZM2658.8,3201c-20.85-41.47-14.62-408.65,74.63-605.61s239.34-126.19,304.33-289.3,38.15-200.29,147-261.72,410.84-53.73,466.24,116.7-71.14,1044.07-71.14,1044.07S2664.34,3212.06,2658.8,3201Z"/></clipPath><clipPath id="clip-path-4" transform="translate(157.8 -177.66)"><path class="cls-1" d="M2733.71,3222.8s-19.34-413.8,55.81-544.94c83.71-146.09,242.51-160.86,287-241.29s50.46-258.35,135.55-335,219-68.62,333.51-32.67,118.87,85.2,118.87,85.2"/></clipPath><linearGradient id="linear-gradient-12" x1="3430.81" y1="2050.37" x2="3726.96" y2="2050.37" gradientUnits="userSpaceOnUse"><stop offset="0" stop-color="#5133fc"/><stop offset="1" stop-color="#422fdf"/></linearGradient><linearGradient id="linear-gradient-13" x1="2710.87" y1="2537.03" x2="3721.06" y2="2537.03" xlink:href="#linear-gradient-10"/><linearGradient id="linear-gradient-14" x1="2765.5" y1="1641.02" x2="2975.19" y2="1641.02" xlink:href="#linear-gradient"/><clipPath id="clip-path-5" transform="translate(157.8 -177.66)"><path class="cls-2" d="M2735.25,1777.23c.23-17.89,15.58-32.39,34.28-32.4l46.5,0c18.7,0,33.67,14.48,33.43,32.37-.29,22.92-.69,53.55-1,76.48-.24,17.88-15.58,32.39-34.28,32.4l-46.5,0c-18.7,0-33.67-14.48-33.44-32.37C2734.55,1830.78,2735,1800.16,2735.25,1777.23Z"/></clipPath><linearGradient id="linear-gradient-16" x1="2681.36" y1="1659.33" x2="2798.45" y2="1659.33" gradientUnits="userSpaceOnUse"><stop offset="0" stop-color="#1c128e"/><stop offset="1" stop-color="#0b025c"/></linearGradient><clipPath id="clip-path-6" transform="translate(157.8 -177.66)"><path class="cls-1" d="M2203.83,1822.66a46.52,46.52,0,0,1-25.36,25.22,47.37,47.37,0,0,1-36-.05l-120-49.45a23.72,23.72,0,0,1-12.84-12.71,23.3,23.3,0,0,1-.06-18l26.56-64.16a23.33,23.33,0,0,1,12.74-12.68,23.78,23.78,0,0,1,18.08,0l120,49.45a47.15,47.15,0,0,1,25.54,25.3,46.31,46.31,0,0,1,.13,35.73Z"/></clipPath><linearGradient id="linear-gradient-17" x1="1048.75" y1="2126.52" x2="1082.48" y2="2126.52" xlink:href="#linear-gradient-3"/><linearGradient id="linear-gradient-18" x1="1282.41" y1="2189.15" x2="1409.06" y2="2189.15" gradientTransform="translate(5.15 -3.16) rotate(0.13)" xlink:href="#linear-gradient-3"/><linearGradient id="linear-gradient-19" x1="799.87" y1="2141.32" x2="944.81" y2="2141.32" gradientTransform="translate(1739.65 4284.68) rotate(-179.87)" xlink:href="#linear-gradient-3"/><linearGradient id="linear-gradient-20" x1="2045.55" y1="794.05" x2="3148.43" y2="794.05" gradientTransform="translate(489.06 -918.11) rotate(22.08)" xlink:href="#linear-gradient"/><linearGradient id="linear-gradient-21" x1="159.24" y1="2338.94" x2="652.07" y2="2338.94" xlink:href="#linear-gradient"/><linearGradient id="linear-gradient-22" x1="337.11" y1="1500.09" x2="1136.52" y2="1500.09" xlink:href="#linear-gradient"/><linearGradient id="linear-gradient-23" x1="1182.68" y1="855.53" x2="1817.44" y2="855.53" xlink:href="#linear-gradient"/><linearGradient id="linear-gradient-24" x1="3264.76" y1="1126.2" x2="3762.24" y2="1126.2" xlink:href="#linear-gradient"/></defs><g class="cls-3"><path class="cls-4" d="M3600.67,1603.39c55.64,923.48-592.78,1700.44-1448.3,1735.4S394.7,2988.94,137.35,2479.3,528.43,1192.68,1585.65,743.89,3545,679.91,3600.67,1603.39Z" transform="translate(157.8 -177.66)"/><path class="cls-5" d="M3361.87,1377.05c55.64,923.48-592.78,1700.45-1448.3,1735.41S155.9,2762.61-101.45,2253,289.63,966.34,1346.85,517.55,3306.23,453.57,3361.87,1377.05Z" transform="translate(157.8 -177.66)"/></g><rect class="cls-6" x="1541.69" y="1670.26" width="1422.38" height="928.29" transform="translate(154.45 -174.12) rotate(-0.09)"/><rect class="cls-6" x="1541.69" y="1670.26" width="1422.38" height="928.29" transform="translate(154.45 -174.12) rotate(-0.09)"/><rect class="cls-7" x="1827.55" y="1462.04" width="850.65" height="1344.75" transform="translate(4541.54 -299.48) rotate(89.91)"/><rect class="cls-8" x="1755.83" y="1841.4" width="993.89" height="454.64" transform="translate(154.55 -174.12) rotate(-0.09)"/><rect class="cls-9" x="1806.64" y="2136.6" width="246.54" height="118.55" transform="translate(154.35 -174.63) rotate(-0.09)"/><rect class="cls-8" x="1756.28" y="2342.75" width="993.89" height="20.43" transform="translate(154.1 -174.12) rotate(-0.09)"/><rect class="cls-8" x="1756.38" y="2406.98" width="993.89" height="20.44" transform="translate(154 -174.12) rotate(-0.09)"/><rect class="cls-8" x="1615.3" y="1835.88" width="104.47" height="596.4" transform="translate(154.45 -175.04) rotate(-0.09)"/><rect class="cls-8" x="2787.08" y="1834.04" width="104.47" height="596.4" transform="translate(154.46 -173.2) rotate(-0.09)"/><path class="cls-7" d="M2358.38,2068.56a105.61,105.61,0,1,1-105.77-105.45A105.61,105.61,0,0,1,2358.38,2068.56Z" transform="translate(157.8 -177.66)"/><path class="cls-8" d="M2216.56,2007.31l.21,129.86a6.89,6.89,0,0,0,10.9,5.6l91.12-65.07a6.9,6.9,0,0,0,0-11.24l-91.32-64.78A6.9,6.9,0,0,0,2216.56,2007.31Z" transform="translate(157.8 -177.66)"/><rect class="cls-6" x="2173.82" y="2598.56" width="154.51" height="86.09" transform="translate(153.65 -174.12) rotate(-0.09)"/><polygon class="cls-6" points="2752.11 2560.51 2071.14 2561.59 2160.06 2507.38 2677.86 2506.56 2752.11 2560.51"/><rect class="cls-10" x="984.18" y="2561.72" width="451.83" height="456.82"/><rect class="cls-11" x="1413.06" y="2561.72" width="768.54" height="456.82"/><rect class="cls-12" x="894.36" y="2561.72" width="2892.44" height="72.17"/><rect class="cls-13" x="894.36" y="2561.72" width="892.38" height="72.17"/><path class="cls-14" d="M1569.21,3024.82H1747.3a25.37,25.37,0,0,0,25.37-25.36h0a25.37,25.37,0,0,0-25.37-25.37H1569.21a25.36,25.36,0,0,0-25.36,25.37h0A25.36,25.36,0,0,0,1569.21,3024.82Z" transform="translate(157.8 -177.66)"/><path class="cls-15" d="M3014.78,1959.22c35-37.53,60.46-89.86,68.88-149.59,18-127.49-48.6-240.68-148.55-252.61s-195.67,81.89-213.63,209.37c-13.72,97.4,8,278.08,88.4,236.33-8.83,64.26-23.11,129.19-23.11,129.19s237.77,44,230.32,25.47C3011.77,2144.2,3013.41,2026,3014.78,1959.22Z" transform="translate(157.8 -177.66)"/><path class="cls-16" d="M3088.58,2083c-53.3-15.75-236.78-15.37-345.21,1.23-46.12,7.06-123.84,1.74-168.31,70.8-70.83,110,15.15,229.43,27.94,303s4,133,4,195c0,36.55,11.62,188.88-17.35,292.31-15.83,56.48-34.13,117.34-49.14,166.17-14.56,47.34,21.08,95.18,70.6,94.79,87-.69,211.68-1.15,294.86.76,224.62,5.15,267.32-28.51,267.32-28.51-6.73,0,8.15-463.59,14.79-491.45,29.57-124,78.75-144.72,99.54-460.52C3297.07,2082.89,3131.14,2095.56,3088.58,2083Z" transform="translate(157.8 -177.66)"/><path class="cls-17" d="M2912,1529.44c-186.37,14.14-220.94,121.93-180.08,233.5s110,73.86,100.56,176-28.16,55.56-52.36,166.19c-19.31,88.24-5.78,177.94,75.94,240.79s50.28,152.43,50.28,152.43,143-26.72,218.42-143,116.91-117.85,107.48-249.85-70.81-183.69-75.53-246.54.11-148.82-50.18-227.38S2989.13,1523.58,2912,1529.44Z" transform="translate(157.8 -177.66)"/><g class="cls-18"><path class="cls-19" d="M2644.34,1629.06c44.41,73.11,120.53-39.47,199,33.63s38.06,199,2.38,328.3-63.87,231.69,8.5,269.7,175.84,95,133,162.29-163.56,139.76-191.72,78.94S2810,2398.05,2775.76,2326s-109.61-138.49-89.05-222.71,86.86-260,44.23-334.84-86.77-21.52-94.38-79.54S2599.92,1556,2644.34,1629.06Z" transform="translate(157.8 -177.66)"/></g><path class="cls-20" d="M2697,2970.9c40.2.49,72.19,110.18-8.65,111.3-28.09.39-332.89-23.17-407.83-27-57-2.94-50.24-88.67,5.06-89.58C2309.58,2965.2,2471.55,2968.12,2697,2970.9Z" transform="translate(157.8 -177.66)"/><path class="cls-21" d="M3407.48,2178c-76.24,0-138.14,19.76-138.14,44.11s61.9,44.11,138.14,44.11,138.14-19.77,138.14-44.11S3483.72,2178,3407.48,2178ZM2658.8,3201c-20.85-41.47-14.62-408.65,74.63-605.61s239.34-126.19,304.33-289.3,38.15-200.29,147-261.72,410.84-53.73,466.24,116.7-71.14,1044.07-71.14,1044.07S2664.34,3212.06,2658.8,3201Z" transform="translate(157.8 -177.66)"/><g class="cls-22"><g class="cls-23"><ellipse class="cls-24" cx="3578.88" cy="2050.37" rx="148.08" ry="56.52"/></g><path class="cls-25" d="M3721.06,1815.44s-47.74,496.89-322.47,928c-366.4,574.92-687.72,495.78-687.72,495.78l979,19.43Z" transform="translate(157.8 -177.66)"/></g><path class="cls-26" d="M2702.09,2319.71s-249.19,493-329.15,502.56-108-73.05-116.72-115.45c-13.44-64.92-40-466.91-40-466.91l65.5,8.25,67.54,329.14s147.63-425.94,243.37-462.43c71.31-27.19,126.46-27.53,135.18-16.16C2762.2,2143.46,2702.09,2319.71,2702.09,2319.71Z" transform="translate(157.8 -177.66)"/><path class="cls-27" d="M2249.12,1866.41C2322,1881,2374,1835,2468.67,1852.86c17,3.21,28.32,21.7,31.39,39.18l54.78,312.06c2.95,16.78-1.59,35.32-15.64,41.13-41.92,17.34-120.69,32.8-228.77,14.84-13.87-2.31-21.79-21-24.37-35.69l-55.32-315.17C2227.57,1891.14,2233.13,1863.21,2249.12,1866.41Z" transform="translate(157.8 -177.66)"/><line class="cls-28" x1="2434.12" y1="1757.58" x2="2528.29" y2="1751.95"/><line class="cls-28" x1="2441.89" y1="1800.39" x2="2603.44" y2="1790.73"/><line class="cls-28" x1="2449.44" y1="1843.1" x2="2610.99" y2="1833.44"/><line class="cls-28" x1="2459.8" y1="1902.99" x2="2553.97" y2="1897.35"/><line class="cls-28" x1="2467.57" y1="1945.8" x2="2629.12" y2="1936.14"/><line class="cls-28" x1="2475.12" y1="1988.51" x2="2636.67" y2="1978.85"/><path class="cls-26" d="M2251.52,2280.37c-24.49,1-33.88-19.68-33.88-19.68s-23.88-109.79-1.4-146c8.81-14.19,26.09-30.81,39.62-45.23,21-22.37,37.66-38.35,48.45-44.52,20.22-11.56,25.34-2.93,11.17,21-9.13,15.42-12.78,17.36-28.32,36.07-.56.68-30.72,46.53-30.24,51.11,1.54,15,10,54,24.72,46.65s74.83-91,83.17-61.7c4.37,15.35-44,70.29-44,70.29s-4.27,39.39-21,63.68C2283.83,2275.11,2265.85,2279.81,2251.52,2280.37Z" transform="translate(157.8 -177.66)"/><path class="cls-26" d="M2557.31,2254.58c24.49,1,33.88-19.68,33.88-19.68s23.87-109.79,1.4-146c-8.82-14.19-26.09-30.81-39.63-45.23-21-22.37-37.66-38.35-48.44-44.52-20.23-11.56-25.34-2.93-11.17,21,9.12,15.42,12.78,17.36,28.31,36.07.56.67,30.72,46.53,30.25,51.11-1.55,15-10,54-24.73,46.65s-74.83-90.95-83.16-61.7c-4.38,15.35,44.05,70.29,44.05,70.29s4.27,39.39,21,63.68C2525,2249.32,2543,2254,2557.31,2254.58Z" transform="translate(157.8 -177.66)"/><path class="cls-16" d="M2438.71,2345.81c1.67,73.14,138.77,157.46,185.4,142.17,0,0,120-159.48,123.59-246.56,3.53-86.18,21.42-155.24,18.57-155.5-31.35-2.83-136.6,6.18-183.61,34C2513.58,2160.85,2438.71,2345.81,2438.71,2345.81Z" transform="translate(157.8 -177.66)"/><path class="cls-29" d="M2765.5,1753.51c2.05-139.29,58.71-211.12,125.3-222,33.37-5.45,87.64-3.31,84.24,1.77-102.49,13.78-134.86,99.21-138.89,220.44Z" transform="translate(157.8 -177.66)"/><path class="cls-30" d="M2810.5,1787.69c-24.49-.11-44.65,24.33-45,54.55s19.27,54.85,43.76,55,44.65-24.33,45-54.55S2835,1787.8,2810.5,1787.69Z" transform="translate(157.8 -177.66)"/><path class="cls-16" d="M2735.26,1776.8c.26-20.28,18.21-36.72,40.09-36.74l54.41,0c21.88,0,39.4,16.41,39.14,36.68-.34,26-.79,60.71-1.13,86.69-.27,20.28-18.22,36.72-40.1,36.74l-54.41,0c-21.88,0-39.4-16.42-39.13-36.69C2734.46,1837.5,2734.92,1802.79,2735.26,1776.8Z" transform="translate(157.8 -177.66)"/><path class="cls-31" d="M2735.25,1777.23c.23-17.89,15.58-32.39,34.28-32.4l46.5,0c18.7,0,33.67,14.48,33.43,32.37-.29,22.92-.69,53.55-1,76.48-.24,17.88-15.58,32.39-34.28,32.4l-46.5,0c-18.7,0-33.67-14.48-33.44-32.37C2734.55,1830.78,2735,1800.16,2735.25,1777.23Z" transform="translate(157.8 -177.66)"/><path class="cls-32" d="M2735.25,1777.23c.23-17.89,15.58-32.39,34.28-32.4l46.5,0c18.7,0,33.67,14.48,33.43,32.37-.29,22.92-.69,53.55-1,76.48-.24,17.88-15.58,32.39-34.28,32.4l-46.5,0c-18.7,0-33.67-14.48-33.44-32.37C2734.55,1830.78,2735,1800.16,2735.25,1777.23Z" transform="translate(157.8 -177.66)"/><g class="cls-33"><path class="cls-16" d="M2790,1738c-26.69,2.13-47.69,38.3-46.87,80.72s23.16,75.13,49.85,73,47.69-38.3,46.87-80.72S2816.7,1735.86,2790,1738Z" transform="translate(157.8 -177.66)"/></g><path class="cls-34" d="M2798.45,1565.9s-80.39,4.58-104.92,70.74-5.9,75.72,3.24,91.37,17.79,24.75,17.79,24.75-7.69-49.5-3.85-38.89,12.51,21.21,12.51,21.21c-2.75-39.27,3.45-75.06,44.15-97.43Z" transform="translate(157.8 -177.66)"/><rect class="cls-35" x="1772.9" y="931.13" width="19.1" height="875.07" transform="translate(-288.47 902.58) rotate(-30.15)"/><rect class="cls-35" x="1744.23" y="943.72" width="19.1" height="875.07" transform="translate(-298.65 889.77) rotate(-30.14)"/><path class="cls-36" d="M1986.68,1680.67c-22-9.08-47,.77-55.73,22s2,45.81,24,54.9,47-.77,55.73-22S2008.68,1689.75,1986.68,1680.67Z" transform="translate(157.8 -177.66)"/><path class="cls-36" d="M2059.63,1719l-22.88,54.54-126.27-53a23.67,23.67,0,0,1-12.67-31c1.5-3.58,3.06-7.3,4.57-10.88a23.65,23.65,0,0,1,31-12.67Z" transform="translate(157.8 -177.66)"/><path class="cls-37" d="M2203.83,1822.66a46.52,46.52,0,0,1-25.36,25.22,47.37,47.37,0,0,1-36-.05l-120-49.45a23.72,23.72,0,0,1-12.84-12.71,23.3,23.3,0,0,1-.06-18l26.56-64.16a23.33,23.33,0,0,1,12.74-12.68,23.78,23.78,0,0,1,18.08,0l120,49.45a47.15,47.15,0,0,1,25.54,25.3,46.31,46.31,0,0,1,.13,35.73Z" transform="translate(157.8 -177.66)"/><g class="cls-38"><rect class="cls-39" x="2113.21" y="1745.66" width="138.23" height="115.82" transform="translate(-167.16 2940.79) rotate(-67.25)"/></g><path class="cls-40" d="M2100.06,1759.59a12.05,12.05,0,1,0,6.54,15.74A12,12,0,0,0,2100.06,1759.59Z" transform="translate(157.8 -177.66)"/><path class="cls-41" d="M1990.14,1711.64l12.76,1.25c5-51.32-15.25-98.84-51.59-121.06-30.28-18.54-66.49-18.26-101.5-18l-4.37,0c-35.29.23-71.31-2.46-95.7-23.47-25.41-21.89-35.29-63.14-26.43-110.34,3.19-17,8.19-34,13-50.51,6.82-23.24,13.87-47.27,16.21-72,7.87-83.34-42.42-167.39-119.58-199.85-7.76-3.22-15.52-6-23.14-8.62-15-5.2-29.09-10.12-41.62-18.29-17.43-11.35-32-33.14-26-52.83l-12.26-3.71c-8.14,26.93,10.51,53.76,31.28,67.28,13.84,9,29.38,14.43,44.4,19.66,7.44,2.59,15.24,5.31,22.39,8.32,71,29.86,119,110.18,111.79,186.84-2.22,23.55-9.1,47-15.75,69.64-4.93,16.79-10,34.16-13.32,51.76-9.72,51.73,1.74,97.49,30.66,122.41,27.57,23.77,66.35,26.81,104.14,26.58l4.38,0c33.22-.25,67.56-.5,94.73,16.11C1976.8,1622.43,1994.67,1665.18,1990.14,1711.64Z" transform="translate(157.8 -177.66)"/><path class="cls-14" d="M2003,1710.82c4.55,1.93,5.31,10.52,1.7,19.17h0c-3.6,8.66-10.21,14.11-14.75,12.18l-75.41-32.08c-4.55-1.93-5.31-10.51-1.71-19.17h0c3.6-8.65,10.21-14.1,14.75-12.17Z" transform="translate(157.8 -177.66)"/><rect class="cls-42" x="987.19" y="2325.02" width="200.02" height="30.12" rx="1.62" transform="translate(2337.69 4499.93) rotate(179.87)"/><rect class="cls-43" x="1061.2" y="2324.84" width="200.02" height="30.12" rx="1.62" transform="matrix(-1, 0, 0, -1, 2485.7, 4499.41)"/><rect class="cls-42" x="1040.35" y="2355.1" width="122.52" height="30.12" rx="1.45" transform="translate(2366.58 4560.06) rotate(179.87)"/><rect class="cls-43" x="1085.68" y="2354.99" width="122.52" height="30.12" rx="1.45" transform="translate(2457.25 4559.73) rotate(179.87)"/><polygon class="cls-44" points="1420.69 2533.88 1443.74 2513.47 1295.52 2364.26 1272.8 2366.86 1420.69 2533.88"/><rect class="cls-42" x="1246.04" y="2660.2" width="49.09" height="73.63" rx="3.52" transform="translate(4167.6 3696.24) rotate(138.48)"/><polygon class="cls-44" points="1149.71 2533.52 1126.56 2513.21 1273.26 2364.25 1295.93 2366.81 1149.71 2533.52"/><rect class="cls-42" x="959.57" y="2660.12" width="49.09" height="73.19" rx="3.52" transform="translate(2180.24 -157.26) rotate(41.25)"/><rect class="cls-43" x="1111.17" y="2385.16" width="30.79" height="320.01" transform="translate(2416.92 4910) rotate(179.87)"/><rect class="cls-42" x="1102.38" y="2662.73" width="49.09" height="76.83" rx="3.52" transform="translate(2418 5221.97) rotate(179.87)"/><rect class="cls-45" x="969.82" y="2448.12" width="151.75" height="12.06" transform="translate(2254.95 4728.17) rotate(179.87)"/><rect class="cls-42" x="945.53" y="2438.49" width="92.46" height="31.57" rx="1.94" transform="translate(2147.08 4728.55) rotate(179.87)"/><rect class="cls-42" x="1091.57" y="2419.17" width="69.57" height="69.57" rx="2.46" transform="translate(2416.27 4727.6) rotate(179.87)"/><rect class="cls-42" x="916" y="2053.25" width="324.95" height="271.79" rx="3.05" transform="translate(2319.89 4198.08) rotate(179.87)"/><rect class="cls-46" x="1015.59" y="2053.02" width="324.95" height="271.79" rx="2.8" transform="matrix(-1, 0, 0, -1, 2519.06, 4197.38)"/><path class="cls-47" d="M1048.75,2126.56c0,13.44,7.61,24.32,16.92,24.3s16.84-10.93,16.81-24.38-7.61-24.32-16.92-24.29S1048.72,2113.12,1048.75,2126.56Z" transform="translate(157.8 -177.66)"/><path class="cls-7" d="M1037.43,2217.8c0,22.64,12.81,41,28.5,40.92s28.36-18.41,28.3-41-12.81-41-28.49-40.92S1037.38,2195.16,1037.43,2217.8Z" transform="translate(157.8 -177.66)"/><path class="cls-43" d="M1037,2053.34l121.93-.29,3.14-13.72a15,15,0,0,1,14.56-11.66,15,15,0,0,0,15-15v-2.82a15,15,0,0,0-15-15l-86.51.21a48.51,48.51,0,0,0-46.55,35.32Z" transform="translate(157.8 -177.66)"/><path class="cls-42" d="M1037,2053.34l66.44-.16,7.79-30.54a37.7,37.7,0,0,1,29.39-27.69h0l-50.57.12a48.51,48.51,0,0,0-46.55,35.32Z" transform="translate(157.8 -177.66)"/><path class="cls-48" d="M1129.92,2098.92a33.19,33.19,0,0,1,26.59-13.66l81.5-.45,75.65-.18.49,209.21-75.65.17L1157,2294a33.21,33.21,0,0,1-26.67-13.55c-16.32-22.07-26.48-54.27-26.57-90.7S1113.71,2121,1129.92,2098.92Z" transform="translate(157.8 -177.66)"/><path class="cls-39" d="M1291.26,2067.77l54.19-.12.07,31.14c16.16,22,26.2,54.07,26.29,90.3s-9.81,68.3-25.86,90.42l.07,31.14-54.19.13c-45,.1-80.39-53.19-80.55-121.32S1246.25,2067.88,1291.26,2067.77Z" transform="translate(157.8 -177.66)"/><ellipse class="cls-49" cx="1345.73" cy="2189.15" rx="63.32" ry="104.56" transform="matrix(1, 0, 0, 1, 152.66, -174.49)"/><path class="cls-43" d="M1346,2310.65c45-.11,80.14-53.56,80-121.69s-35.54-121.42-80.55-121.31-80.14,53.56-80,121.69S1301,2310.75,1346,2310.65Zm-.49-209.12c21.94-.05,46.47,35.87,46.59,87.51s-24.24,87.68-46.18,87.73-46.47-35.88-46.59-87.51S1323.59,2101.58,1345.53,2101.53Z" transform="translate(157.8 -177.66)"/><rect class="cls-42" x="767.33" y="2109.86" width="180.86" height="168.05" rx="2.65" transform="translate(1878.48 4208.09) rotate(179.87)"/><rect class="cls-46" x="782.1" y="2109.82" width="180.86" height="168.05" rx="2.65" transform="translate(1908.02 4207.99) rotate(179.87)"/><rect class="cls-50" x="799.89" y="2131.32" width="144.9" height="20" rx="1.5" transform="translate(1907.51 4102.92) rotate(179.87)"/><path class="cls-37" d="M1759.73,2546.93h117a25.79,25.79,0,0,1,25.79,25.78V2673.4a25.79,25.79,0,0,1-25.79,25.78h-41.12c-75.85,0-75.85-22-75.85-22h107.15a15,15,0,0,0,15-15v-78.29a15,15,0,0,0-15-15H1759.73Z" transform="translate(157.8 -177.66)"/><path class="cls-37" d="M1660.58,2506.72h128.6a31.25,31.25,0,0,1,31.26,31.26v175.56a26.15,26.15,0,0,1-3.73,13.73,25.35,25.35,0,0,1-21.63,12.12H1651.81a26.22,26.22,0,0,1-13.75-3.73A25.37,25.37,0,0,1,1626,2714V2541.34A34.62,34.62,0,0,1,1660.58,2506.72Z" transform="translate(157.8 -177.66)"/><path class="cls-51" d="M1644.62,2562.47a28.32,28.32,0,0,1,28.31-28.32h0a28.34,28.34,0,0,1,28.32,28.32v127.59a28.32,28.32,0,0,1-28.32,28.31h0a28.3,28.3,0,0,1-28.31-28.31Z" transform="translate(157.8 -177.66)"/><rect class="cls-52" x="2080.59" y="551.51" width="1032.8" height="485.07" rx="60.38" transform="translate(49.8 856.96) rotate(-22.08)"/><path class="cls-7" d="M2443.69,921l-130,52.76L2230,767.65l47.72-19.37,71.09,175.23,82.32-33.4Z" transform="translate(157.8 -177.66)"/><path class="cls-7" d="M2524.23,888.36l-47.73,19.36-83.64-206.15,47.73-19.36Z" transform="translate(157.8 -177.66)"/><path class="cls-7" d="M2620.7,849.22,2480.5,666l50-20.29L2635.43,790.3l-25.2-176.92,50-20.3,26.07,229.51Z" transform="translate(157.8 -177.66)"/><path class="cls-7" d="M2783.81,783,2700.1,576.73,2836,521.61l12.68,31.26-88.13,35.75,22.83,56.27,64.39-26.12L2860.41,650,2796,676.15l22.82,56.27L2907,696.66l12.68,31.26Z" transform="translate(157.8 -177.66)"/><path class="cls-53" d="M3074.06,203.71c73.28,32.6,129.14,87.78,161.92,165.79,7.35,17.49.92,30.6-15.29,37.3-15.68,6.48-32.62-.81-39.78-17.77-21.34-50.53-54.7-86.92-102-114.87-68.08-40.23-139.84-47.18-214.67-21.29-3.7,1.28-7.29,2.92-11,4.06-15.94,4.83-32.13-3-37.69-18a29.75,29.75,0,0,1,16.88-38.16c55.27-22.32,112.35-28.65,171.15-18.27C3026.52,186.57,3048.71,193.32,3074.06,203.71Z" transform="translate(157.8 -177.66)"/><path class="cls-53" d="M3030,298.83c45.19,19.81,78.34,48.54,98.07,94.65,7.42,17.34,1,34.69-15.13,41.48-15.34,6.46-32.38-1.1-39.86-17.69-29.31-64.94-95.16-88.58-162.42-64.19-16.85,6.12-34.09-1.23-40.1-17.08s2.1-32.66,19-39.14C2936.38,278.93,2983,279.66,3030,298.83Z" transform="translate(157.8 -177.66)"/><path class="cls-7" d="M2409.84,1033.34a20.31,20.31,0,0,1-.21,17q-2.46,5.76-9.32,10.51a46.57,46.57,0,0,1-9,4.73q-10,4-18,3.13a24.51,24.51,0,0,1-11.88-4.44,27.18,27.18,0,0,1-8.4-10l15.8-7.4q4,6.67,9.4,8.19a11.13,11.13,0,0,0,7.92-.56,12.42,12.42,0,0,0,7.28-7.56,8.35,8.35,0,0,0-.49-6.08q-2.05-5.07-10.45-7.49l-19.26-4.21q-10.83-2.49-16.23-5.74a20.76,20.76,0,0,1-8.41-9.9q-4.5-11.12,3.5-21,5-6,14.38-9.85a40.4,40.4,0,0,1,16.72-3.37,22.12,22.12,0,0,1,10.69,3.06,20.37,20.37,0,0,1,7.55,7.9L2376.05,999a13.17,13.17,0,0,0-7.11-6.18q-3.15-1.06-7.55.72c-3.11,1.26-5.06,3.21-5.87,5.86a9.78,9.78,0,0,0,.44,6.78q2.26,5.58,11.25,8.65a56.93,56.93,0,0,0,9.64,2.14c4.92.77,8.19,1.39,9.84,1.82a50.89,50.89,0,0,1,13.32,5,34.43,34.43,0,0,1,4.16,2.77A18.67,18.67,0,0,1,2409.84,1033.34Z" transform="translate(157.8 -177.66)"/><path class="cls-7" d="M2419.77,972.55l-18,7.32-5-12.33,52.94-21.48,5,12.33-17.95,7.28,28,69-17,6.88Z" transform="translate(157.8 -177.66)"/><path class="cls-7" d="M2490,929.69q14.19-5.76,23.11-2.8c5.23,1.7,9,5.5,11.41,11.39l4.79,11.81q3.51,8.63-3.14,18.28l27,30.39-18.34,7.44-22.71-26.45-1.53.62-9.77,4,12.42,30.63-16.95,6.88-33-81.31Zm18.1,15.48q-2.88-7.08-12.56-3.15l-10.23,4.16,10.55,26,10.23-4.15a12.1,12.1,0,0,0,6-4.86,6.57,6.57,0,0,0,.8-6.15Z" transform="translate(157.8 -177.66)"/><path class="cls-7" d="M2567.72,992.86l-33-81.37L2583,891.9l5,12.33-31.31,12.71,9,22.19,22.88-9.29,5,12.34-22.88,9.28,9,22.19L2611,961l5,12.33Z" transform="translate(157.8 -177.66)"/><path class="cls-7" d="M2641.85,941l3.47,20.36-17.66,7.16-13.87-89.06,23.32-9.46,51.83,73.66-17.83,7.23-11.54-17.07Zm-8.93-47.62,6.72,34.61,12.56-5.09Z" transform="translate(157.8 -177.66)"/><path class="cls-7" d="M2720.16,931l-16.95,6.88-33-81.37,24.34-9.87,39.52,52-8.55-64.61,23.38-9.48,33,81.37-17,6.88-20.74-51.14,6,57.1-13.65,5.54L2699.47,880Z" transform="translate(157.8 -177.66)"/><path class="cls-7" d="M2814,892.93l-17,6.88-33-81.31,17-6.88Z" transform="translate(157.8 -177.66)"/><path class="cls-7" d="M2815.2,797.69l44.69,45.55-22.18-54.68,16.95-6.88,33,81.37-18.22,7.39L2825,827.79l21.14,52.11-17,6.88-33-81.37Z" transform="translate(157.8 -177.66)"/><path class="cls-7" d="M2929.92,847.12q-11.24,4.56-21.39,2t-13.4-10.5l-18-44.39q-3.28-8.1,2.3-17t16.72-13.4q11.21-4.54,21.33-2t13.4,10.58l3.76,9.28L2917,788.86l-3.87-9.54a6.52,6.52,0,0,0-4.9-3.83,12.32,12.32,0,0,0-7.75.73,12.14,12.14,0,0,0-6,4.86,6.55,6.55,0,0,0-.8,6.14l18.07,44.52a6.45,6.45,0,0,0,4.83,3.82,12.33,12.33,0,0,0,7.7-.75,12.48,12.48,0,0,0,6.07-4.84,6.41,6.41,0,0,0,.87-6.12l-6.48-16-9.42,3.82-5-12.33,27-11,11.53,28.42q3.28,8.1-2.32,17T2929.92,847.12Z" transform="translate(157.8 -177.66)"/><path class="cls-54" d="M387.84,2232.05l-14.1-73a11.17,11.17,0,0,1,15.35-12.38L645.3,2256.25a11.16,11.16,0,0,1,3.51,18.15l-197,197.13a11.15,11.15,0,0,1-18.85-5.77l-15.46-80c-106.1,12.93-194.12,86.83-249.07,144.64a5.33,5.33,0,0,1-9.23-3.56C158.57,2387.25,243.71,2265.3,387.84,2232.05Z" transform="translate(157.8 -177.66)"/><path class="cls-55" d="M575.77,1759.33l-66.53,9.12a107.81,107.81,0,0,1-121.45-92.17l-49.67-362.36a107.81,107.81,0,0,1,92.17-121.45l534.1-73.21a107.81,107.81,0,0,1,121.45,92.17l49.67,362.36a107.81,107.81,0,0,1-92.17,121.45L665.55,1747,605,1877.22a8.14,8.14,0,0,1-15.46-2.46Z" transform="translate(157.8 -177.66)"/><rect class="cls-7" x="463.48" y="1303.92" width="510.79" height="18.03" transform="translate(-13.84 -67.88) rotate(-7.8)"/><rect class="cls-7" x="480.83" y="1430.56" width="510.79" height="18.03" transform="translate(-30.88 -64.34) rotate(-7.81)"/><rect class="cls-7" x="498.19" y="1557.19" width="510.79" height="18.03" transform="translate(-47.91 -60.81) rotate(-7.8)"/><path class="cls-56" d="M1682.56,1103.57l-446.18-89A66.74,66.74,0,0,1,1184,936.1l55.08-276.22a66.74,66.74,0,0,1,78.5-52.4l446.18,89a66.73,66.73,0,0,1,52.39,78.5l-55.08,276.22A66.74,66.74,0,0,1,1682.56,1103.57Z" transform="translate(157.8 -177.66)"/><path class="cls-40" d="M1599.24,796.61a9.23,9.23,0,0,0-7.23-10.83l-267.37-53.32a9.21,9.21,0,0,0-10.83,7.23c-5.89,29.52-24.53,123-30.42,152.53a9.21,9.21,0,0,0,7.23,10.83L1558,956.37a9.23,9.23,0,0,0,10.83-7.23C1574.71,919.61,1593.35,826.13,1599.24,796.61Z" transform="translate(157.8 -177.66)"/><path class="cls-40" d="M1623.36,824.8a6.59,6.59,0,0,0-1-4.89,6.5,6.5,0,0,0-4.14-2.76l-4.18-.84a6.51,6.51,0,0,0-7.65,5.11l-21.24,106.51a6.49,6.49,0,0,0,5.1,7.64l4.19.84a6.48,6.48,0,0,0,4.88-1,6.55,6.55,0,0,0,2.77-4.14Z" transform="translate(157.8 -177.66)"/><path class="cls-40" d="M1645.57,819.43a12.12,12.12,0,0,0-8.09,9.16c-4.22,21.12-16.87,84.56-21.08,105.69a12.17,12.17,0,0,0,4,11.56L1675,993.19a12.16,12.16,0,0,0,19.88-6.8L1730,810.58a12.15,12.15,0,0,0-15.74-13.92Z" transform="translate(157.8 -177.66)"/><circle class="cls-57" cx="3513.5" cy="1126.2" r="248.74"/><path class="cls-7" d="M3473,1204.24c-31.58-31-80.83-21.7-114.74,6.76a13.21,13.21,0,0,1-16.83.14c-34.36-27.87-83.56-36.35-114.6-4.78a87,87,0,0,0,1.06,123.08l114.71,112.75a13.23,13.23,0,0,0,18.71-.16l112.75-114.71A87,87,0,0,0,3473,1204.24Z" transform="translate(157.8 -177.66)"/></svg>