<svg xmlns="http://www.w3.org/2000/svg" xmlns:xlink="http://www.w3.org/1999/xlink" viewBox="0 0 3710 3710"><defs><style>.cls-1,.cls-10,.cls-4{fill:#fff;}.cls-2{fill:url(#linear-gradient);}.cls-3{fill:#bdd0fb;}.cls-4{opacity:0.5;}.cls-5{fill:#91b3fa;}.cls-6{fill:url(#linear-gradient-2);}.cls-7{fill:url(#linear-gradient-3);}.cls-8{fill:url(#linear-gradient-4);}.cls-9{opacity:0.9;}.cls-10{fill-rule:evenodd;}.cls-11{fill:#7d97f4;}.cls-12{fill:url(#linear-gradient-5);}.cls-13{fill:url(#linear-gradient-6);}.cls-14{fill:url(#linear-gradient-7);}.cls-15{fill:url(#linear-gradient-8);}.cls-16{fill:url(#linear-gradient-9);}.cls-17{fill:url(#linear-gradient-10);}.cls-18{fill:url(#linear-gradient-11);}.cls-19{fill:url(#linear-gradient-12);}.cls-20{fill:url(#linear-gradient-13);}.cls-21{fill:url(#linear-gradient-14);}.cls-22{fill:url(#linear-gradient-15);}.cls-23{fill:url(#linear-gradient-16);}.cls-24{fill:url(#linear-gradient-17);}.cls-25{fill:url(#linear-gradient-18);}.cls-26{fill:url(#linear-gradient-19);}.cls-27{fill:url(#linear-gradient-20);}</style><linearGradient id="linear-gradient" x1="3619.68" y1="4085.53" x2="1122.49" y2="984.17" gradientUnits="userSpaceOnUse"><stop offset="0" stop-color="#dae3fe"/><stop offset="1" stop-color="#e9effd"/></linearGradient><linearGradient id="linear-gradient-2" x1="2707.92" y1="1028.59" x2="912.85" y2="3411.84" gradientUnits="userSpaceOnUse"><stop offset="0" stop-color="#4f52ff"/><stop offset="1" stop-color="#29abe2"/></linearGradient><linearGradient id="linear-gradient-3" x1="2707.92" y1="1028.59" x2="912.85" y2="3411.84" gradientTransform="translate(1969.06 -852.33) rotate(45)" xlink:href="#linear-gradient-2"/><linearGradient id="linear-gradient-4" x1="2707.92" y1="1028.59" x2="912.85" y2="3411.84" gradientTransform="translate(1969.06 -852.33) rotate(45)" xlink:href="#linear-gradient-2"/><linearGradient id="linear-gradient-5" x1="500.65" y1="3160.43" x2="697.79" y2="3160.43" gradientTransform="matrix(-1, 0, 0, 1, 3069.12, 0)" gradientUnits="userSpaceOnUse"><stop offset="0" stop-color="#4f52ff"/><stop offset="1" stop-color="#4042e2"/></linearGradient><linearGradient id="linear-gradient-6" x1="500.64" y1="3121.8" x2="692.22" y2="3121.8" gradientTransform="matrix(-1, 0, 0, 1, 3069.12, 0)" gradientUnits="userSpaceOnUse"><stop offset="0" stop-color="#09005d"/><stop offset="1" stop-color="#1a0f91"/></linearGradient><linearGradient id="linear-gradient-7" x1="518.85" y1="3067.85" x2="574.38" y2="3067.85" gradientTransform="matrix(-1, 0, 0, 1, 3069.12, 0)" gradientUnits="userSpaceOnUse"><stop offset="0" stop-color="#febbba"/><stop offset="1" stop-color="#ff928e"/></linearGradient><linearGradient id="linear-gradient-8" x1="148.77" y1="3209.32" x2="224.32" y2="3209.32" xlink:href="#linear-gradient-5"/><linearGradient id="linear-gradient-9" x1="149.32" y1="3134.14" x2="260.21" y2="3134.14" xlink:href="#linear-gradient-6"/><linearGradient id="linear-gradient-10" x1="206.96" y1="3038.9" x2="273.33" y2="3038.9" xlink:href="#linear-gradient-7"/><linearGradient id="linear-gradient-11" x1="743.76" y1="2322.73" x2="177.15" y2="3250.89" gradientTransform="matrix(-1, 0, 0, 1, 3069.12, 0)" gradientUnits="userSpaceOnUse"><stop offset="0" stop-color="#09005d"/><stop offset="1" stop-color="#6bbdff"/></linearGradient><linearGradient id="linear-gradient-12" x1="1119.78" y1="1640.98" x2="856.94" y2="1982.94" xlink:href="#linear-gradient-7"/><linearGradient id="linear-gradient-13" x1="1656.96" y1="150.47" x2="1278.81" y2="798.73" gradientTransform="matrix(-1, 0, 0, 1, 3069.12, 0)" gradientUnits="userSpaceOnUse"><stop offset="0" stop-color="#e1473d"/><stop offset="1" stop-color="#fffb93"/></linearGradient><linearGradient id="linear-gradient-14" x1="533.91" y1="1861.99" x2="562.67" y2="1711.03" xlink:href="#linear-gradient-7"/><linearGradient id="linear-gradient-15" x1="611.72" y1="1585.02" x2="447.65" y2="1710.55" xlink:href="#linear-gradient-7"/><linearGradient id="linear-gradient-16" x1="496.23" y1="1485.62" x2="649.03" y2="1682.35" xlink:href="#linear-gradient-6"/><linearGradient id="linear-gradient-17" x1="591.37" y1="1558.42" x2="427.3" y2="1683.96" xlink:href="#linear-gradient-7"/><linearGradient id="linear-gradient-18" x1="548.2" y1="2144.96" x2="715.32" y2="1628.4" xlink:href="#linear-gradient-7"/><linearGradient id="linear-gradient-19" x1="-2974.28" y1="2087.79" x2="-3233.7" y2="2158.89" gradientTransform="translate(5450.38 -55.03) rotate(-2.83)" xlink:href="#linear-gradient-6"/><linearGradient id="linear-gradient-20" x1="-3260.85" y1="2011.63" x2="-3443.84" y2="2205.05" gradientTransform="translate(5491.85)" xlink:href="#linear-gradient-6"/></defs><g id="Background"><rect class="cls-1" width="3710" height="3710"/></g><g id="Illustration"><path class="cls-2" d="M2932.69,2862.46c-57.36,60.39-111.64,99.33-154.52,130.1-504,361.66-1100.47,256.24-1227.22,230.49-187.18-38-549-111.5-810.58-419.12-395.76-465.4-334.13-1198.63-27.16-1682.64,56.15-88.54,352.76-579.92,955.6-658.72,364.84-47.69,790.12,48.49,1098.1,306.52C3413.38,1310.7,3367.36,2404.86,2932.69,2862.46Z"/><path class="cls-3" d="M2814.92,50.8a28.46,28.46,0,0,1,35,28.91c-2,48.34-3.17,159.05,2.63,411.88,9.91,431.85-250.9,494.18-385.59,580.93s-113.79,386.87-113.79,386.87S2097.92,846.65,2188,497.3C2263.9,202.62,2685,81.49,2814.92,50.8Z"/><path class="cls-4" d="M2721.88,177.36s-3.61,3.53-10.27,10.4-16.23,16.94-28,30.23c-5.84,6.67-12.43,13.95-19.28,22.15s-14.46,16.91-22.19,26.54-16.14,19.74-24.58,30.73l-13,16.88-13.25,18q-6.75,9.18-13.78,18.75l-13.84,19.81-14.29,20.52-14.22,21.49c-4.78,7.29-9.74,14.61-14.56,22.14l-14.37,23c-4.77,7.81-9.73,15.63-14.48,23.67s-9.39,16.27-14.15,24.5-9.62,16.51-14.3,25l-13.81,25.71c-4.63,8.64-9.33,17.3-13.88,26.1q-6.55,13.34-13.16,26.79l-13.27,27-12.42,27.61q-6.22,13.85-12.45,27.74l-1.56,3.47-.46,1.07-.35.88-.71,1.75-2.82,7-5.65,14a984.32,984.32,0,0,0-37,116.22,1092.05,1092.05,0,0,0-22.23,115.76c-5.29,37.86-8.11,74.72-9.64,109.67s-1.43,68-.43,98.53,3.16,58.38,5.66,83,5.41,46.06,8.14,63.64,5.44,31.32,7.35,40.7c1,4.68,1.79,8.28,2.31,10.7s.87,3.74.87,3.74a7.28,7.28,0,0,0,14.24-3l0-.2-.67-3.51-1.85-10.5c-1.57-9.23-3.56-22.85-5.81-40.23s-4.49-38.58-6.3-62.94-3.08-51.89-3.7-81.93-.1-62.6,1.87-96.94,5.56-70.44,10.81-107.53a1091.17,1091.17,0,0,1,22.3-113.2,960.68,960.68,0,0,1,35.87-113.26l5.62-14.06,2.82-7,.7-1.76.35-.87.29-.67,1.51-3.44,12.06-27.49,12-27.37q6.45-13.44,12.88-26.79T2455.57,593q6.75-13,13.42-25.94t13.25-25.64c4.49-8.43,9.22-16.66,13.76-24.91l13.6-24.45c4.57-8,9.36-15.84,14-23.65l13.61-23.18c4.58-7.58,9.29-14.95,13.84-22.29l13.52-21.66q6.93-10.5,13.62-20.69l13.2-20q6.72-9.64,13.17-18.94l12.66-18.15,12.45-17.08c7.93-11.23,15.77-21.65,23.15-31.43s14.41-18.84,20.94-27.2S2686.44,232,2692,225.11c11.17-13.59,20.09-24.15,26.27-31.25s9.58-10.76,9.58-10.76a4.13,4.13,0,0,0-5.91-5.77Z"/><path class="cls-5" d="M2210.74,2289.51c-27.92,14,262.6-357.3,350-937.5,41.17-273.41,39.06-615.55,193.58-748.61,128.6-110.75,569.68-44.92,714-19.72,18,3.15,24.28,25.85,10.35,37.74C3410,680,3263.21,818.1,3225.76,956.41c-49.36,182.3-221.39,299.35-376,331.87s-240.46,63.59-314,311.77S2290.09,2249.83,2210.74,2289.51Z"/><path class="cls-3" d="M3266.27,663.8s-4.4.13-12.51.74-20,1.69-35.09,3.78-33.29,5.08-54,9.53-44,10.22-68.81,18.22a701.58,701.58,0,0,0-78.69,30.36,591.52,591.52,0,0,0-82.47,45.76,521.28,521.28,0,0,0-78.2,64A477.62,477.62,0,0,0,2791,917.61l-6.93,11.2-3.46,5.59-3.14,5.78c-4.12,7.73-8.36,15.42-12.27,23.22l-22.51,46.22L2721,1055.39l-20.73,44.89c-6.8,14.75-13.24,29.35-19.67,43.59s-12.35,28.34-18.31,42c-11.76,27.35-22.63,53.3-32.5,77.33l-14,34.54-12.17,31.34c-7.52,19.73-14,37-19.13,51.21s-9.07,25.5-11.68,33.2-4,11.83-4,11.83a2.84,2.84,0,0,0,5.35,1.92l0-.07,4.39-11.58c3-7.54,7.31-18.59,12.83-32.65s12.52-31,20.59-50.49l27.61-65.11c10.27-23.79,21.57-49.49,33.78-76.55s25.28-55.52,39-84.88,28.15-59.52,42.87-90.16q11.24-22.94,22.61-46.17c3.83-7.6,8-15,11.91-22.56l3-5.63,3.33-5.46,6.65-10.9a464.14,464.14,0,0,1,63.1-79.53,508.32,508.32,0,0,1,75.87-62.92,610.72,610.72,0,0,1,80.16-46.13,690.22,690.22,0,0,1,77-31.27c24.43-8.22,47.18-14.76,67.56-19.7s38.36-8.46,53.22-10.94,26.59-4.07,34.61-5,12.28-1.19,12.28-1.19a2.28,2.28,0,0,0-.22-4.56Z"/><path class="cls-3" d="M2226,2290.36c-18.13,9.56,102.12-197.43,111.35-379.78S2387.71,1417,2545,1230.8s329.46-203.17,546.45-33.91c180.83,141,293.62,212.22,359.77,225.46,16.38,3.27,24.74,21.77,16.77,36.44-42.43,78.14-162.38,257.61-363.79,245-256.91-16.11-568.26-183.12-663.16-43.8s-82.71,217.28-85.62,283.3S2346,2227.1,2226,2290.36Z"/><path class="cls-4" d="M3017,1422.19s-2.68-2.52-7.81-7-12.76-11-22.82-18.75-22.46-17-37.16-27a596.38,596.38,0,0,0-51.09-30.82,482.71,482.71,0,0,0-64.53-29.27c-11.83-4.4-24.33-8-37.2-11.38-13-3-26.33-5.86-40.2-7.16-6.89-.95-13.94-1-21-1.49-3.54,0-7.11,0-10.68.05l-5.37,0-5.38.4c-14.42.64-28.82,3.5-43.17,7.17-13.56,3.74-27.81,8.53-41.4,13.71a417.58,417.58,0,0,0-40.13,18.36,383.69,383.69,0,0,0-37.6,23.19,374,374,0,0,0-34,27.64,364.42,364.42,0,0,0-55,64.7,488.85,488.85,0,0,0-38.32,69.15,654.49,654.49,0,0,0-25.6,65.77c-6.81,20.74-12.15,40-16.43,57.18-2.17,8.58-4.13,16.62-5.75,24.1s-3.23,14.32-4.44,20.55c-2.59,12.43-4.3,22.25-5.47,28.94s-1.83,10.25-1.83,10.25a2.54,2.54,0,0,0,5,1v0l2.24-10.14c.72-3.3,1.62-7.37,2.68-12.16s2.44-10.25,3.9-16.39,3.12-12.92,5-20.27,4-15.3,6.44-23.74c4.75-16.9,10.67-35.79,18-56.07,14.31-40.56,34.43-87.1,65-131a374.62,374.62,0,0,1,53.63-62,361.79,361.79,0,0,1,32.83-26.31,369.39,369.39,0,0,1,36.24-22,403.6,403.6,0,0,1,38.74-17.43c13.37-5,26.36-9.28,40.27-13,13.19-3.36,26.62-6.18,40.12-6.81l5-.4,5.05-.06c3.36,0,6.7-.14,10-.1,6.68.41,13.33.43,19.88,1.32,13.16,1.12,26,3.65,38.46,6.35,12.41,3.08,24.52,6.37,36.05,10.48a475.1,475.1,0,0,1,63.68,26.85c19.21,9.63,36.22,19.66,51.16,28.78s27.59,17.71,37.87,25,18.16,13.25,23.51,17.35,8.07,6.41,8.07,6.41a2.64,2.64,0,0,0,3.5-3.94Z"/><circle class="cls-1" cx="2013.38" cy="1950.7" r="934.12" transform="translate(-789.65 1995.02) rotate(-45)"/><circle class="cls-6" cx="2013.38" cy="1950.7" r="797.24"/><path class="cls-3" d="M2013.38,2764.82c-217.46,0-421.9-84.68-575.67-238.45s-238.44-358.21-238.44-575.67S1284,1528.8,1437.71,1375s358.21-238.45,575.67-238.45,421.91,84.69,575.67,238.45,238.45,358.21,238.45,575.67-84.68,421.91-238.45,575.67S2230.84,2764.82,2013.38,2764.82Zm0-1594.47c-430.29,0-780.35,350.06-780.35,780.35s350.06,780.36,780.35,780.36S2793.74,2381,2793.74,1950.7,2443.67,1170.35,2013.38,1170.35Z"/><circle class="cls-7" cx="2013.38" cy="1950.7" r="486.03" transform="translate(-789.65 1995.02) rotate(-45)"/><path class="cls-3" d="M2013.38,2453.62c-277.31,0-502.91-225.61-502.91-502.92s225.6-502.91,502.91-502.91,502.92,225.6,502.92,502.91S2290.69,2453.62,2013.38,2453.62Zm0-972.07c-258.69,0-469.15,210.46-469.15,469.15s210.46,469.15,469.15,469.15,469.15-210.46,469.15-469.15S2272.07,1481.55,2013.38,1481.55Z"/><circle class="cls-8" cx="2013.38" cy="1950.7" r="188.3" transform="translate(-789.65 1995.02) rotate(-45)"/><path class="cls-3" d="M2013.38,2155.89c-113.14,0-205.18-92-205.18-205.19s92-205.18,205.18-205.18,205.19,92,205.19,205.18S2126.52,2155.89,2013.38,2155.89Zm0-376.61c-94.52,0-171.42,76.9-171.42,171.42s76.9,171.42,171.42,171.42,171.42-76.9,171.42-171.42S2107.9,1779.28,2013.38,1779.28Z"/><circle class="cls-5" cx="1339.16" cy="2854.64" r="246.96" transform="translate(-1626.31 1783.03) rotate(-45)"/><path class="cls-1" d="M1338.48,2798.69c6.17,7.37,53.07,35.33,0,80.08-2.52,4.84,4.56,17.36,9.51,15.77,76.38-52.37,4.7-117.58-3.16-111.19S1331.31,2790.12,1338.48,2798.69Z"/><path class="cls-1" d="M1370.29,2926.12c1.14,9.77,7.8,19,16.35,16.2s117.29-95.9-5.45-199.71a7.38,7.38,0,0,0-10.46.91c-3.94,4.73-6.58,8.75-5.94,14C1472.5,2852.49,1369.14,2916.35,1370.29,2926.12Z"/><path class="cls-1" d="M1402.81,2974.64c-1.39,6.94,3.83,21.12,15.23,17.45,178.49-164.05-8.59-310.15-16.14-304.79s-7.83,16.22-5.28,20.6C1564.17,2838.52,1404.2,2967.7,1402.81,2974.64Z"/><path class="cls-1" d="M1295.65,2715.87a3.59,3.59,0,0,0-4,.87L1229.85,2780a3.77,3.77,0,0,1-2.51,1.15l-51.36,2.57a10,10,0,0,0-9.48,9.3l-6.43,92.7a10,10,0,0,0,8.89,10.65l58.63,6.51a3.86,3.86,0,0,1,2.22,1l62.06,59.3a3.33,3.33,0,0,0,3.84.75,3.55,3.55,0,0,0,2-3.51v-241A3.57,3.57,0,0,0,1295.65,2715.87Z"/><path class="cls-5" d="M1078.35,2516.52H743.56c-25.6,0-46.36-19-46.36-42.47V2166.51c0-22.13,18.55-40.55,42.62-42.34l356.7-26.45c28.1-2.08,51.7,19.11,50,44.89l-21.9,334C1123.16,2499,1102.87,2516.52,1078.35,2516.52Z"/><path class="cls-1" d="M737.54,2436.06h323.7c10.08,0,16.34-10,11.23-18L944.32,2218.48c-5.34-8.32-18.7-7.69-23.08,1.1L859.36,2343.8c-3.67,7.37-14.13,9.32-20.66,3.84l-25-21c-5.81-4.89-15-3.95-19.5,2l-67.33,88.71C720.84,2425.23,727,2436.06,737.54,2436.06Z"/><ellipse class="cls-1" cx="1024.26" cy="2212.6" rx="43.7" ry="40.03"/><path class="cls-5" d="M1086.55,1876.8l-380.92-6.27a47.93,47.93,0,0,1-47-50.94l25.06-396.95a47.93,47.93,0,0,1,41.53-44.49l332-26.52c31.78-4.21,98.79,35.58,93.76,67.24l-16.23,417.53A47.94,47.94,0,0,1,1086.55,1876.8Z"/><g class="cls-9"><path class="cls-1" d="M915.84,1767.76c-82.61,0-149.81-67.21-149.81-149.82s67.2-149.81,149.81-149.81,149.82,67.2,149.82,149.81S998.45,1767.76,915.84,1767.76Zm0-274.53a124.71,124.71,0,1,0,124.71,124.71A124.86,124.86,0,0,0,915.84,1493.23Z"/><path class="cls-10" d="M868.91,1675.64V1567.93a14.85,14.85,0,0,1,22.42-12.77L982.09,1609a14.85,14.85,0,0,1,0,25.54l-90.76,53.86A14.85,14.85,0,0,1,868.91,1675.64Z"/></g><circle class="cls-11" cx="1339.16" cy="1019.39" r="264.69"/><path class="cls-1" d="M1464,913.39c-33.6-33-86-23.1-122.09,7.19a14,14,0,0,1-17.91.14c-36.56-29.65-88.92-38.68-121.94-5.08a92.62,92.62,0,0,0,1.13,131l122.06,120a14.08,14.08,0,0,0,19.91-.17l120-122.06A92.61,92.61,0,0,0,1464,913.39Z"/><path class="cls-12" d="M2376.89,3150.9c33.78,2.92,92.39,7.66,138.6,9.69,27.78,1.23,43.77-1.49,53-5.18,0,1,0,2-.09,2.93a9.56,9.56,0,0,1-9.08,9c-87.31,4.87-156.75,1.68-181.47.18a6.81,6.81,0,0,1-5.55-10.23A56.63,56.63,0,0,1,2376.89,3150.9Z"/><path class="cls-13" d="M2515.49,3160.59c-46.21-2-104.82-6.77-138.6-9.69,33.21-40.74,138.6-68.2,138.6-68.2h29.77c20.47,29.51,23.43,57.61,23.21,72.71C2559.26,3159.1,2543.27,3161.82,2515.49,3160.59Z"/><path class="cls-14" d="M2550.27,3034.11l-2.79,55.12a12.58,12.58,0,0,1-10.74,11.84,49,49,0,0,1-22.36-1.85,14.9,14.9,0,0,1-10-11.45l-9.62-53.66Z"/><path class="cls-15" d="M2895.74,3214.49c14.65-2.64,21.28-12.48,24.05-23l.06.28a26.21,26.21,0,0,1-12.83,28c-12.07,6.61-25.27,7.73-35.51,7.19a32.84,32.84,0,0,1-26.63-15.88l-.08-.14C2855.83,3218.06,2871.32,3218.89,2895.74,3214.49Z"/><path class="cls-16" d="M2826.69,3051.09h24.55c37.39-1,60.87,100.94,68.55,140.41-2.77,10.51-9.4,20.35-24.05,23-24.42,4.4-39.91,3.57-50.94-3.49-20.21-34.35-30.22-84.67-35-114C2804.29,3063.57,2826.69,3051.09,2826.69,3051.09Z"/><path class="cls-17" d="M2848.08,2999.93l13.63,54.21a14.72,14.72,0,0,1-7.65,16.68c-7.63,3.91-18.36,8-28.23,6.84a12.3,12.3,0,0,1-10-8.2l-20-57Z"/><path class="cls-18" d="M2368.58,2285.89s121.81,761.43,119.81,765.62c0,0,33.64,15.29,70.32,1.95,0,0-11-407-36.83-563.11,0,0,207.89,363.81,273.91,545.09,0,0,34.43-4.1,62.93-22.86,0,0-223.84-654.85-283.56-742.07Z"/><path class="cls-19" d="M1809.59,1540.29s82.2,18.13,132.19,41.21a45.67,45.67,0,0,1,22.36,22.48c14.95,32.76,59.69,114.89,146.44,154.08-12.49,16.59-32.61,51.08-41.37,109.06-52.11-38.79-97.09-103.55-118.69-209.78,0,0-16.44,8.94-37-1-10.84-5.26-23.35-12.73-32.75-18.6a42.94,42.94,0,0,1-19-25.57c-3.57-14-1.47-26.36-1.47-39.6l-42.25-13.09S1805.35,1554.67,1809.59,1540.29Z"/><path class="cls-20" d="M2069.21,1867.12c8.76-58,28.88-92.47,41.37-109.06,53.9,24.35,124,32.14,213.28,1.2a94.87,94.87,0,0,1,25.51-5c47.53-2.79,204.14-7.87,333.73,34.94a100.75,100.75,0,0,1,60.75,55.3c35.05,80.45,91.81,263.66-65.75,356.15a391.63,391.63,0,0,0-38-72c25.37-42.8,32.88-101.25-12.14-177.37-32.83,88.65-48.24,218-51.46,275.25a123,123,0,0,0,9.65,55.06l.8,1.9a6.51,6.51,0,0,1-4.57,8.9c-88.7,19.92-181,14.51-208.52,12.23a11.35,11.35,0,0,1-10.13-8.68c-43.13-181.74-43.23-305.71-32.67-384.08C2290.69,1920.89,2167.31,1940.13,2069.21,1867.12Z"/><path class="cls-21" d="M2549.75,1648.36s9,94.88,16.88,122.94a9.59,9.59,0,0,1-4.52,11c-13.41,7.66-45.57,20.16-89.56-1.4a20,20,0,0,1-11.08-18.79l3.88-91.68Z"/><path class="cls-22" d="M2463.41,1527s-28.7,65.93-30.63,100.53-9.38,57.06,30.63,64,73.72-13,92-47.43c0,0,28.61-53.11,22.19-74.86S2463.41,1527,2463.41,1527Z"/><path class="cls-23" d="M2541.72,1619.33l-2.28-1a5.49,5.49,0,0,1-2.69-7.54c5.65-10.9,16.65-35.88,2.44-41.71-18.31-7.51-90.85-22.3-106.5-48-15-24.74-1.72-56.67,18.31-65.75a2.76,2.76,0,0,1,3.61,1.18l1.67,3.15a2.72,2.72,0,0,0,5-.51,2.7,2.7,0,0,1,4.89-.7c4.81,7.7,17.8,20.18,52.53,26.59,49.36,9.11,82,29.09,82.81,63.2a2.72,2.72,0,0,0,4.21,2.24c3.64-2.22,9.47-3.26,17.27,3.29,13.55,11.4,8,41-21.71,65.29a2.7,2.7,0,0,0,.13,4.35c5.39,3.51,13.42,11.86-7.39,23-21.53,11.5-37.6,10.56-43.79,9.54a2.71,2.71,0,0,1-2.2-3.27l6.61-30a2.72,2.72,0,0,0-2.65-3.3Z"/><path class="cls-24" d="M2540.47,1625.65s11-42.11,29.83-30.3-9.79,47.19-25,48.76Z"/><path class="cls-25" d="M2541.87,2246.22,2415,2247.79l44.4-41.8a33.12,33.12,0,0,1,40.61-3.8,95.74,95.74,0,0,1,22.56,20.1s79.13-28.92,117.5-93.63a391.63,391.63,0,0,1,38,72C2643.71,2220.81,2599.13,2236.68,2541.87,2246.22Z"/><path class="cls-26" d="M2528.2,2262.58c-.25,0-.49,0-.74,0l-322-.34a14.26,14.26,0,1,1,0-28.52l322,.34a14.26,14.26,0,0,1,.71,28.51Z"/><path class="cls-27" d="M1916,1973.29h268.18a51.16,51.16,0,0,1,46.23,29l124,260.11H2021.07a31.08,31.08,0,0,1-28.89-19.44l-96.13-240.7C1890.49,1988.37,1900.85,1973.29,1916,1973.29Z"/><ellipse class="cls-5" cx="2084.78" cy="2113.07" rx="21.11" ry="34.02" transform="translate(-556.68 758.8) rotate(-18.24)"/></g></svg>