<svg id="Illustration" xmlns="http://www.w3.org/2000/svg" xmlns:xlink="http://www.w3.org/1999/xlink" viewBox="0 0 3441.43 3650.92"><defs><style>.cls-1{fill:url(#linear-gradient);}.cls-2{fill:#bdd0fb;}.cls-10,.cls-3,.cls-5{fill:#fff;}.cls-3{opacity:0.5;}.cls-4{fill:#91b3fa;}.cls-6{fill:url(#linear-gradient-2);}.cls-7{fill:url(#linear-gradient-3);}.cls-8{fill:url(#linear-gradient-4);}.cls-9{opacity:0.9;}.cls-10{fill-rule:evenodd;}.cls-11{fill:#7d97f4;}.cls-12{fill:url(#linear-gradient-5);}.cls-13{fill:url(#linear-gradient-6);}.cls-14{fill:url(#linear-gradient-7);}.cls-15{fill:url(#linear-gradient-8);}.cls-16{fill:url(#linear-gradient-9);}.cls-17{fill:url(#linear-gradient-10);}.cls-18{fill:#150e42;}.cls-19{fill:url(#linear-gradient-11);}.cls-20{fill:url(#linear-gradient-12);}.cls-21{fill:url(#linear-gradient-13);}.cls-22{fill:url(#linear-gradient-14);}.cls-23{fill:url(#linear-gradient-15);}.cls-24{fill:url(#linear-gradient-16);}.cls-25{fill:url(#linear-gradient-17);}.cls-26{fill:url(#linear-gradient-18);}.cls-27{fill:url(#linear-gradient-19);}</style><linearGradient id="linear-gradient" x1="3759.89" y1="4613.76" x2="917.21" y2="1083.32" gradientUnits="userSpaceOnUse"><stop offset="0" stop-color="#dae3fe"/><stop offset="1" stop-color="#e9effd"/></linearGradient><linearGradient id="linear-gradient-2" x1="2555.39" y1="1113.95" x2="511.96" y2="3826.93" gradientUnits="userSpaceOnUse"><stop offset="0" stop-color="#4f52ff"/><stop offset="1" stop-color="#29abe2"/></linearGradient><linearGradient id="linear-gradient-3" x1="2721.99" y1="1133.89" x2="678.57" y2="3846.86" gradientTransform="translate(2109.7 -726.12) rotate(45)" xlink:href="#linear-gradient-2"/><linearGradient id="linear-gradient-4" x1="2721.99" y1="1133.89" x2="678.57" y2="3846.86" gradientTransform="translate(2109.7 -726.12) rotate(45)" xlink:href="#linear-gradient-2"/><linearGradient id="linear-gradient-5" x1="505.87" y1="3560.68" x2="730.29" y2="3560.68" gradientTransform="matrix(-1, 0, 0, 1, 3069.12, 0)" gradientUnits="userSpaceOnUse"><stop offset="0" stop-color="#4f52ff"/><stop offset="1" stop-color="#4042e2"/></linearGradient><linearGradient id="linear-gradient-6" x1="505.86" y1="3516.69" x2="723.95" y2="3516.69" gradientTransform="matrix(-1, 0, 0, 1, 3069.12, 0)" gradientUnits="userSpaceOnUse"><stop offset="0" stop-color="#09005d"/><stop offset="1" stop-color="#1a0f91"/></linearGradient><linearGradient id="linear-gradient-7" x1="526.59" y1="3455.29" x2="589.81" y2="3455.29" gradientTransform="matrix(-1, 0, 0, 1, 3069.12, 0)" gradientUnits="userSpaceOnUse"><stop offset="0" stop-color="#febbba"/><stop offset="1" stop-color="#ff928e"/></linearGradient><linearGradient id="linear-gradient-8" x1="105.32" y1="3616.32" x2="191.32" y2="3616.32" xlink:href="#linear-gradient-5"/><linearGradient id="linear-gradient-9" x1="105.94" y1="3530.74" x2="232.18" y2="3530.74" xlink:href="#linear-gradient-6"/><linearGradient id="linear-gradient-10" x1="171.56" y1="3422.32" x2="247.1" y2="3422.32" xlink:href="#linear-gradient-7"/><linearGradient id="linear-gradient-11" x1="1210.67" y1="1831.01" x2="911.46" y2="2220.27" xlink:href="#linear-gradient-7"/><linearGradient id="linear-gradient-12" x1="1822.17" y1="134.28" x2="1391.7" y2="872.23" gradientTransform="matrix(-1, 0, 0, 1, 3069.12, 0)" gradientUnits="userSpaceOnUse"><stop offset="0" stop-color="#e1473d"/><stop offset="1" stop-color="#fffb93"/></linearGradient><linearGradient id="linear-gradient-13" x1="543.74" y1="2082.6" x2="576.48" y2="1910.74" xlink:href="#linear-gradient-7"/><linearGradient id="linear-gradient-14" x1="632.31" y1="1767.3" x2="445.55" y2="1910.21" xlink:href="#linear-gradient-7"/><linearGradient id="linear-gradient-15" x1="500.84" y1="1654.15" x2="674.78" y2="1878.1" xlink:href="#linear-gradient-6"/><linearGradient id="linear-gradient-16" x1="609.15" y1="1737.02" x2="422.38" y2="1879.93" xlink:href="#linear-gradient-7"/><linearGradient id="linear-gradient-17" x1="560.01" y1="2404.71" x2="750.25" y2="1816.69" xlink:href="#linear-gradient-7"/><linearGradient id="linear-gradient-18" x1="-2990.57" y1="2351.51" x2="-3285.89" y2="2432.45" gradientTransform="translate(5450.38 -55.03) rotate(-2.83)" xlink:href="#linear-gradient-6"/><linearGradient id="linear-gradient-19" x1="-3312.76" y1="2252.94" x2="-3521.07" y2="2473.11" gradientTransform="translate(5491.85)" xlink:href="#linear-gradient-6"/></defs><path class="cls-1" d="M2977.85,3221.48c-65.3,68.74-127.08,113.07-175.89,148.09-573.78,411.7-1252.72,291.69-1397,262.39C1191.87,3588.68,780,3505,482.23,3154.85,31.72,2625.06,101.87,1790.39,451.31,1239.41c63.92-100.78,401.56-660.15,1087.81-749.85,415.31-54.29,899.43,55.2,1250,348.92C3525.05,1455,3472.66,2700.56,2977.85,3221.48Z" transform="translate(-166.61 -19.93)"/><path class="cls-2" d="M2843.79,20.82a32.4,32.4,0,0,1,39.81,32.91c-2.25,55-3.61,181.06,3,468.87,11.28,491.6-285.61,562.55-438.94,661.3s-129.52,440.39-129.52,440.39S2027.59,926.78,2130.08,529.1C2216.54,193.65,2695.88,55.76,2843.79,20.82Z" transform="translate(-166.61 -19.93)"/><path class="cls-3" d="M2737.88,164.89s-4.12,4-11.69,11.84-18.48,19.28-31.84,34.41c-6.65,7.59-14.16,15.88-21.95,25.22s-16.46,19.25-25.26,30.21-18.37,22.47-28,35l-14.8,19.22q-7.38,10-15.08,20.45l-15.68,21.35-15.76,22.55-16.27,23.35-16.19,24.47c-5.44,8.3-11.08,16.63-16.58,25.2s-10.83,17.39-16.35,26.23-11.07,17.79-16.49,26.95-10.68,18.51-16.1,27.89-11,18.79-16.28,28.42-10.45,19.45-15.72,29.27-10.62,19.69-15.8,29.7l-15,30.51q-7.53,15.32-15.11,30.75-7,15.67-14.14,31.44l-14.17,31.57-1.77,4-.53,1.22-.4,1-.8,2-3.22,8-6.43,16a1121.85,1121.85,0,0,0-42.14,132.3,1242.15,1242.15,0,0,0-25.3,131.77c-6,43.1-9.23,85.06-11,124.84s-1.63,77.46-.48,112.16,3.6,66.46,6.43,94.52,6.16,52.43,9.27,72.45,6.2,35.65,8.37,46.32c1.15,5.34,2,9.43,2.63,12.19l1,4.25a8.29,8.29,0,0,0,16.21-3.44l0-.23s-.26-1.36-.77-4-1.19-6.72-2.1-12c-1.79-10.5-4-26-6.61-45.8s-5.11-43.91-7.18-71.64-3.5-59.07-4.21-93.27-.11-71.26,2.12-110.35,6.34-80.18,12.31-122.41a1239.86,1239.86,0,0,1,25.39-128.86,1092.44,1092.44,0,0,1,40.83-128.93l6.4-16,3.21-8,.8-2,.39-1,.34-.77,1.72-3.91L2391.83,730q6.86-15.62,13.69-31.15l14.66-30.5,14.55-30.26L2450,608.54q7.59-14.68,15.09-29.19c5.11-9.6,10.48-19,15.65-28.35l15.49-27.84c5.21-9.14,10.66-18,15.89-26.92l15.5-26.38c5.21-8.63,10.57-17,15.75-25.37l15.39-24.66,15.51-23.55,15-22.76,15-21.56,14.42-20.67,14.16-19.44c9-12.78,18-24.64,26.36-35.77s16.41-21.45,23.84-31,14.48-18.08,20.77-25.87c12.72-15.48,22.87-27.49,29.91-35.58s10.9-12.25,10.9-12.25a4.7,4.7,0,0,0-6.73-6.56Z" transform="translate(-166.61 -19.93)"/><path class="cls-4" d="M2156,2569.26c-31.79,15.9,298.93-406.73,398.39-1067.21,46.87-311.23,44.46-700.71,220.36-852.18,146.4-126.07,648.5-51.13,812.82-22.45,20.54,3.59,27.64,29.44,11.79,43-78.18,66.71-245.29,223.9-287.91,381.34-56.19,207.52-252,340.77-428,377.79s-273.73,72.38-357.38,354.9S2246.35,2524.09,2156,2569.26Z" transform="translate(-166.61 -19.93)"/><path class="cls-2" d="M3357.58,718.63s-5,.15-14.23.85-22.81,1.91-39.95,4.3-37.89,5.78-61.47,10.85-50,11.63-78.34,20.74A797.8,797.8,0,0,0,3074,789.93,672.64,672.64,0,0,0,2980.14,842a594,594,0,0,0-89,72.86,544.21,544.21,0,0,0-74.52,92.69l-7.88,12.74-3.94,6.37-3.58,6.58c-4.69,8.8-9.51,17.56-14,26.43q-12.87,26.44-25.62,52.62-12.52,26.29-24.8,52.1-12,25.89-23.6,51.1c-7.73,16.78-15.07,33.41-22.39,49.62s-14.06,32.26-20.85,47.78c-13.38,31.12-25.75,60.67-37,88l-15.93,39.33c-4.87,12.56-9.5,24.48-13.85,35.67-8.55,22.46-15.89,42.08-21.77,58.3s-10.32,29-13.3,37.78-4.5,13.48-4.5,13.48a3.23,3.23,0,0,0,6.08,2.18l0-.08,5-13.18c3.38-8.58,8.32-21.16,14.61-37.17s14.25-35.34,23.44-57.47c9.36-22.07,19.91-47,31.42-74.12,11.7-27.08,24.56-56.34,38.47-87.14s28.77-63.2,44.34-96.62,32-67.76,48.8-102.64l25.74-52.56c4.36-8.65,9.09-17.08,13.55-25.68l3.43-6.41,3.78-6.21,7.58-12.41a528.92,528.92,0,0,1,71.82-90.54,580.11,580.11,0,0,1,86.37-71.62,695.22,695.22,0,0,1,91.25-52.51A785.7,785.7,0,0,1,3167,765.7c27.81-9.35,53.71-16.8,76.91-22.43s43.66-9.62,60.58-12.45,30.28-4.63,39.4-5.64,14-1.36,14-1.36a2.6,2.6,0,0,0-.25-5.19Z" transform="translate(-166.61 -19.93)"/><path class="cls-2" d="M2173.38,2570.22c-20.64,10.88,116.26-224.74,126.76-432.32s57.34-561.88,236.35-773.82,375-231.28,622.06-38.61c205.84,160.56,334.24,241.59,409.54,256.65,18.65,3.73,28.16,24.78,19.09,41.49-48.3,89-184.85,293.25-414.12,278.87-292.45-18.35-646.88-208.47-754.91-49.87S2324,2100,2320.68,2175.11,2310,2498.21,2173.38,2570.22Z" transform="translate(-166.61 -19.93)"/><path class="cls-3" d="M3073.78,1582s-3.06-2.88-8.89-8-14.54-12.48-26-21.35-25.57-19.38-42.3-30.71-36.22-23.22-58.15-35.09a550.81,550.81,0,0,0-73.46-33.31c-13.47-5-27.7-9.11-42.35-13-14.77-3.4-30-6.68-45.76-8.16-7.84-1.09-15.87-1.18-23.91-1.69-4-.06-8.09,0-12.16,0l-6.1.06-6.13.45c-16.42.73-32.8,4-49.14,8.17-15.44,4.26-31.66,9.71-47.13,15.6a477.78,477.78,0,0,0-45.68,20.9,438,438,0,0,0-42.81,26.4,428.34,428.34,0,0,0-38.74,31.46,415,415,0,0,0-62.57,73.65,557.09,557.09,0,0,0-43.62,78.72,744.86,744.86,0,0,0-29.14,74.87c-7.76,23.61-13.84,45.55-18.7,65.1-2.48,9.76-4.71,18.92-6.55,27.43s-3.68,16.3-5.06,23.39c-2.94,14.15-4.89,25.33-6.22,32.94s-2.08,11.68-2.08,11.68a2.88,2.88,0,0,0,5.65,1.13v-.06s.89-4,2.55-11.53l3.05-13.85c1.29-5.43,2.78-11.67,4.44-18.66s3.56-14.71,5.74-23.08,4.58-17.41,7.33-27c5.41-19.23,12.15-40.74,20.44-63.83,16.29-46.17,39.2-99.15,74-149.1a427,427,0,0,1,61.05-70.51,411.91,411.91,0,0,1,37.38-30,419.29,419.29,0,0,1,41.25-25.08,460.53,460.53,0,0,1,44.1-19.83c15.22-5.66,30-10.57,45.84-14.84,15-3.82,30.3-7,45.67-7.75l5.73-.46,5.74-.07c3.83,0,7.64-.15,11.44-.11,7.6.47,15.16.5,22.63,1.5,15,1.28,29.57,4.16,43.78,7.23,14.12,3.51,27.91,7.25,41,11.94a542.47,542.47,0,0,1,72.5,30.55c21.86,11,41.23,22.38,58.23,32.77s31.42,20.16,43.11,28.44,20.68,15.08,26.76,19.75,9.19,7.29,9.19,7.29a3,3,0,0,0,4-4.48Z" transform="translate(-166.61 -19.93)"/><circle class="cls-5" cx="1931.36" cy="2183.58" r="1063.36" transform="translate(-1144.95 1985.3) rotate(-45)"/><circle class="cls-6" cx="1764.75" cy="2163.64" r="907.54"/><path class="cls-2" d="M1931.36,3110.33c-247.55,0-480.27-96.4-655.31-271.44s-271.44-407.77-271.44-655.31,96.4-480.27,271.44-655.32,407.76-271.44,655.31-271.44,480.27,96.4,655.31,271.44,271.44,407.77,271.44,655.32-96.4,480.27-271.44,655.31S2178.9,3110.33,1931.36,3110.33Zm0-1815.07c-489.82,0-888.32,398.5-888.32,888.32s398.5,888.32,888.32,888.32,888.32-398.5,888.32-888.32S2421.18,1295.26,1931.36,1295.26Z" transform="translate(-166.61 -19.93)"/><circle class="cls-7" cx="1931.36" cy="2183.58" r="553.28" transform="translate(-1144.95 1985.3) rotate(-45)"/><path class="cls-2" d="M1931.36,2756.07c-315.67,0-572.49-256.82-572.49-572.49s256.82-572.5,572.49-572.5,572.49,256.82,572.49,572.5S2247,2756.07,1931.36,2756.07Zm0-1106.55c-294.48,0-534.06,239.58-534.06,534.06s239.58,534.06,534.06,534.06,534.06-239.58,534.06-534.06S2225.84,1649.52,1931.36,1649.52Z" transform="translate(-166.61 -19.93)"/><circle class="cls-8" cx="1931.36" cy="2183.58" r="214.36" transform="translate(-1144.95 1985.3) rotate(-45)"/><path class="cls-2" d="M1931.36,2417.15c-128.79,0-233.57-104.78-233.57-233.57S1802.57,1950,1931.36,1950s233.57,104.79,233.57,233.58S2060.15,2417.15,1931.36,2417.15Zm0-428.71c-107.6,0-195.14,87.54-195.14,195.14s87.54,195.14,195.14,195.14,195.14-87.54,195.14-195.14S2039,1988.44,1931.36,1988.44Z" transform="translate(-166.61 -19.93)"/><circle class="cls-4" cx="1163.86" cy="3212.58" r="281.12" transform="translate(-2097.36 1743.98) rotate(-45)"/><path class="cls-5" d="M1163.09,3148.88c7,8.39,60.4,40.23,0,91.16-2.87,5.51,5.18,19.76,10.82,17.95,86.94-59.61,5.35-133.84-3.6-126.56S1154.92,3139.13,1163.09,3148.88Z" transform="translate(-166.61 -19.93)"/><path class="cls-5" d="M1199.29,3294c1.3,11.11,8.89,21.56,18.61,18.44s133.53-109.18-6.19-227.35a8.43,8.43,0,0,0-11.92,1c-4.48,5.38-7.49,10-6.76,15.91C1315.65,3210.13,1198,3282.83,1199.29,3294Z" transform="translate(-166.61 -19.93)"/><path class="cls-5" d="M1236.32,3349.18c-1.58,7.89,4.35,24,17.33,19.87,203.19-186.76-9.78-353.07-18.37-347s-8.91,18.47-6,23.45C1420,3194.22,1237.9,3341.28,1236.32,3349.18Z" transform="translate(-166.61 -19.93)"/><path class="cls-5" d="M1114.33,3054.61a4.07,4.07,0,0,0-4.58,1l-70.33,72a4.23,4.23,0,0,1-2.85,1.3l-58.47,2.93a11.38,11.38,0,0,0-10.78,10.59L960,3247.93A11.4,11.4,0,0,0,970.11,3260l66.74,7.42a4.32,4.32,0,0,1,2.53,1.18l70.65,67.51a3.8,3.8,0,0,0,4.37.85,4,4,0,0,0,2.28-4V3058.64A4,4,0,0,0,1114.33,3054.61Z" transform="translate(-166.61 -19.93)"/><path class="cls-4" d="M867,2827.68H485.86c-29.14,0-52.77-21.65-52.77-48.35V2429.24c0-25.19,21.11-46.16,48.51-48.19l406-30.11c32-2.37,58.86,21.74,56.93,51.09l-24.94,380.2C918,2807.76,894.88,2827.68,867,2827.68Z" transform="translate(-166.61 -19.93)"/><path class="cls-5" d="M479,2736.09H847.49c11.47,0,18.6-11.42,12.79-20.48L714.39,2488.4c-6.08-9.47-21.29-8.75-26.27,1.25l-70.44,141.41c-4.18,8.39-16.09,10.61-23.52,4.37l-28.49-23.93c-6.62-5.56-17.07-4.49-22.2,2.26l-76.64,101C460,2723.75,467,2736.09,479,2736.09Z" transform="translate(-166.61 -19.93)"/><ellipse class="cls-5" cx="638.79" cy="2461.77" rx="49.74" ry="45.57"/><path class="cls-4" d="M876.3,2099.45l-433.62-7.14a54.56,54.56,0,0,1-53.55-58l28.52-451.87a54.57,54.57,0,0,1,47.29-50.65l377.89-30.19c36.18-4.79,112.46,40.51,106.74,76.55l-18.49,475.29A54.55,54.55,0,0,1,876.3,2099.45Z" transform="translate(-166.61 -19.93)"/><g class="cls-9"><path class="cls-5" d="M682,1975.32c-94,0-170.54-76.5-170.54-170.54S587.94,1634.24,682,1634.24s170.54,76.5,170.54,170.54S776,1975.32,682,1975.32Zm0-312.5c-78.27,0-142,63.68-142,142s63.69,142,142,142,142-63.68,142-142S760.25,1662.82,682,1662.82Z" transform="translate(-166.61 -19.93)"/><path class="cls-10" d="M628.55,1870.46V1747.85a16.91,16.91,0,0,1,25.53-14.54l103.31,61.31a16.91,16.91,0,0,1,0,29.07L654.08,1885A16.9,16.9,0,0,1,628.55,1870.46Z" transform="translate(-166.61 -19.93)"/></g><circle class="cls-11" cx="997.25" cy="1103.48" r="301.31"/><path class="cls-5" d="M1306,1002.75c-38.25-37.6-97.91-26.29-139,8.19a16,16,0,0,1-20.39.16c-41.62-33.75-101.21-44-138.81-5.79a105.44,105.44,0,0,0,1.29,149.1L1148,1291a16,16,0,0,0,22.67-.19l136.57-139A105.43,105.43,0,0,0,1306,1002.75Z" transform="translate(-166.61 -19.93)"/><path class="cls-12" d="M2345.16,3549.82c38.45,3.32,105.17,8.72,157.78,11,31.62,1.39,49.82-1.71,60.3-5.9,0,1.18,0,2.3-.09,3.33a10.88,10.88,0,0,1-10.34,10.28c-99.39,5.55-178.44,1.92-206.58.21a7.75,7.75,0,0,1-6.32-11.64A64.4,64.4,0,0,1,2345.16,3549.82Z" transform="translate(-166.61 -19.93)"/><path class="cls-13" d="M2502.94,3560.86c-52.61-2.32-119.33-7.72-157.78-11,37.8-46.37,157.78-77.63,157.78-77.63h33.88c23.3,33.59,26.68,65.58,26.42,82.77C2552.76,3559.15,2534.56,3562.25,2502.94,3560.86Z" transform="translate(-166.61 -19.93)"/><path class="cls-14" d="M2542.53,3416.87l-3.18,62.75a14.31,14.31,0,0,1-12.23,13.48,55.71,55.71,0,0,1-25.45-2.11,16.94,16.94,0,0,1-11.4-13l-11-61.09Z" transform="translate(-166.61 -19.93)"/><path class="cls-15" d="M2935.8,3622.21c16.67-3,24.21-14.2,27.37-26.17l.07.32a29.83,29.83,0,0,1-14.61,31.93c-13.74,7.52-28.76,8.8-40.42,8.18a37.41,37.41,0,0,1-30.32-18.07l-.09-.16C2890.36,3626.27,2908,3627.22,2935.8,3622.21Z" transform="translate(-166.61 -19.93)"/><path class="cls-16" d="M2857.19,3436.21h27.94c42.57-1.13,69.29,114.9,78,159.83-3.16,12-10.7,23.16-27.37,26.17-27.81,5-45.44,4.06-58-4-23-39.11-34.4-96.39-39.88-129.81C2831.69,3450.41,2857.19,3436.21,2857.19,3436.21Z" transform="translate(-166.61 -19.93)"/><path class="cls-17" d="M2881.54,3378l15.52,61.71a16.74,16.74,0,0,1-8.72,19c-8.68,4.46-20.9,9.14-32.13,7.78a14,14,0,0,1-11.42-9.33L2822,3392.18Z" transform="translate(-166.61 -19.93)"/><path class="cls-18" d="M2335.7,2565.14s138.66,866.78,136.38,871.54c0,0,38.3,17.41,80.05,2.22,0,0-12.54-463.35-41.92-641,0,0,236.65,414.14,311.8,620.5,0,0,39.2-4.67,71.65-26,0,0-254.81-745.45-322.79-844.74Z" transform="translate(-166.61 -19.93)"/><path class="cls-19" d="M1699.37,1716.38s93.57,20.64,150.48,46.92a52,52,0,0,1,25.46,25.59c17,37.28,67.94,130.78,166.7,175.4-14.22,18.87-37.12,58.14-47.1,124.14-59.31-44.15-110.52-117.88-135.11-238.8,0,0-18.72,10.18-42.07-1.16-12.34-6-26.59-14.49-37.28-21.18a48.86,48.86,0,0,1-21.68-29.11c-4.07-16-1.67-30-1.67-45.07l-48.09-14.9S1694.55,1732.75,1699.37,1716.38Z" transform="translate(-166.61 -19.93)"/><path class="cls-20" d="M1994.91,2088.43c10-66,32.88-105.27,47.1-124.14,61.35,27.71,141.16,36.58,242.78,1.36a108.57,108.57,0,0,1,29.05-5.73c54.1-3.17,232.37-9,379.89,39.78a114.63,114.63,0,0,1,69.15,63c39.91,91.58,104.52,300.13-74.84,405.42a444.63,444.63,0,0,0-43.28-81.91c28.88-48.72,37.43-115.26-13.82-201.91-37.37,100.91-54.91,248.16-58.57,313.33a140.14,140.14,0,0,0,11,62.68l.92,2.16a7.42,7.42,0,0,1-5.21,10.13c-101,22.68-206,16.52-237.36,13.92a13,13,0,0,1-11.54-9.88c-49.1-206.88-49.21-348-37.19-437.21C2247,2149.64,2106.59,2171.55,1994.91,2088.43Z" transform="translate(-166.61 -19.93)"/><path class="cls-21" d="M2541.94,1839.41s10.21,108,19.21,139.94a10.93,10.93,0,0,1-5.15,12.48c-15.26,8.72-51.87,22.94-101.95-1.6a22.71,22.71,0,0,1-12.61-21.38l4.41-104.36Z" transform="translate(-166.61 -19.93)"/><path class="cls-22" d="M2443.65,1701.24s-32.67,75-34.86,114.44-10.69,65,34.86,72.88,83.92-14.75,104.7-54c0,0,32.57-60.46,25.27-85.22S2443.65,1701.24,2443.65,1701.24Z" transform="translate(-166.61 -19.93)"/><path class="cls-23" d="M2532.79,1806.36l-2.59-1.15a6.25,6.25,0,0,1-3.06-8.58c6.42-12.41,18.94-40.85,2.77-47.48-20.85-8.55-103.42-25.39-121.23-54.69-17.12-28.16-1.95-64.51,20.85-74.85a3.14,3.14,0,0,1,4.1,1.34l1.9,3.6a3.09,3.09,0,0,0,5.71-.59,3.09,3.09,0,0,1,5.58-.8c5.47,8.77,20.26,23,59.79,30.28,56.19,10.37,93.34,33.1,94.27,71.93a3.1,3.1,0,0,0,4.79,2.56c4.14-2.53,10.78-3.72,19.66,3.74,15.43,13,9.11,46.64-24.71,74.32a3.08,3.08,0,0,0,.14,5c6.13,4,15.28,13.49-8.41,26.15-24.5,13.1-42.8,12-49.85,10.87a3.09,3.09,0,0,1-2.5-3.73l7.52-34.12a3.09,3.09,0,0,0-3-3.76Z" transform="translate(-166.61 -19.93)"/><path class="cls-24" d="M2531.37,1813.56s12.47-47.94,34-34.5-11.15,53.72-28.43,55.51Z" transform="translate(-166.61 -19.93)"/><path class="cls-25" d="M2533,2520l-144.41,1.78,50.54-47.57a37.72,37.72,0,0,1,46.24-4.34,109.36,109.36,0,0,1,25.67,22.88s90.09-32.92,133.76-106.57a444.63,444.63,0,0,1,43.28,81.91C2648.89,2491.05,2598.15,2509.12,2533,2520Z" transform="translate(-166.61 -19.93)"/><path class="cls-26" d="M2517.4,2538.6l-.84,0-366.57-.4a16.23,16.23,0,1,1,0-32.46l366.56.39a16.23,16.23,0,0,1,.81,32.45Z" transform="translate(-166.61 -19.93)"/><path class="cls-27" d="M1820.46,2209.3h305.28a58.23,58.23,0,0,1,52.63,33l141.13,296.1H1940.12a35.36,35.36,0,0,1-32.89-22.13l-109.44-274C1791.47,2226.45,1803.26,2209.3,1820.46,2209.3Z" transform="translate(-166.61 -19.93)"/><ellipse class="cls-4" cx="2012.64" cy="2368.41" rx="24.03" ry="38.72" transform="translate(-806.84 729.12) rotate(-18.24)"/></svg>