<svg xmlns="http://www.w3.org/2000/svg" xmlns:xlink="http://www.w3.org/1999/xlink" viewBox="0 0 3710 3710"><defs><style>.cls-1,.cls-10,.cls-4{fill:#fff;}.cls-2{fill:url(#linear-gradient);}.cls-3{fill:#bdd0fb;}.cls-4{opacity:0.5;}.cls-5{fill:#91b3fa;}.cls-6{fill:url(#linear-gradient-2);}.cls-7{fill:url(#linear-gradient-3);}.cls-8{fill:url(#linear-gradient-4);}.cls-9{opacity:0.9;}.cls-10{fill-rule:evenodd;}.cls-11{fill:#7d97f4;}.cls-12{fill:url(#linear-gradient-5);}.cls-13{fill:url(#linear-gradient-6);}.cls-14{fill:url(#linear-gradient-7);}.cls-15{fill:url(#linear-gradient-8);}.cls-16{fill:url(#linear-gradient-9);}.cls-17{fill:url(#linear-gradient-10);}.cls-18{fill:#150e42;}.cls-19{fill:url(#linear-gradient-11);}.cls-20{fill:url(#linear-gradient-12);}.cls-21{fill:url(#linear-gradient-13);}.cls-22{fill:url(#linear-gradient-14);}.cls-23{fill:url(#linear-gradient-15);}.cls-24{fill:url(#linear-gradient-16);}.cls-25{fill:url(#linear-gradient-17);}.cls-26{fill:url(#linear-gradient-18);}.cls-27{fill:url(#linear-gradient-19);}</style><linearGradient id="linear-gradient" x1="3721.25" y1="4556.63" x2="937.22" y2="1099.05" gradientUnits="userSpaceOnUse"><stop offset="0" stop-color="#dae3fe"/><stop offset="1" stop-color="#e9effd"/></linearGradient><linearGradient id="linear-gradient-2" x1="2704.77" y1="1148.57" x2="703.51" y2="3805.57" gradientUnits="userSpaceOnUse"><stop offset="0" stop-color="#4f52ff"/><stop offset="1" stop-color="#29abe2"/></linearGradient><linearGradient id="linear-gradient-3" x1="2704.77" y1="1148.57" x2="703.51" y2="3805.56" gradientTransform="translate(2104.5 -727.52) rotate(45)" xlink:href="#linear-gradient-2"/><linearGradient id="linear-gradient-4" x1="2704.77" y1="1148.57" x2="703.51" y2="3805.56" gradientTransform="translate(2104.5 -727.52) rotate(45)" xlink:href="#linear-gradient-2"/><linearGradient id="linear-gradient-5" x1="519.82" y1="3525.28" x2="739.61" y2="3525.28" gradientTransform="matrix(-1, 0, 0, 1, 3069.12, 0)" gradientUnits="userSpaceOnUse"><stop offset="0" stop-color="#4f52ff"/><stop offset="1" stop-color="#4042e2"/></linearGradient><linearGradient id="linear-gradient-6" x1="519.81" y1="3482.21" x2="733.4" y2="3482.21" gradientTransform="matrix(-1, 0, 0, 1, 3069.12, 0)" gradientUnits="userSpaceOnUse"><stop offset="0" stop-color="#09005d"/><stop offset="1" stop-color="#1a0f91"/></linearGradient><linearGradient id="linear-gradient-7" x1="540.11" y1="3422.07" x2="602.02" y2="3422.07" gradientTransform="matrix(-1, 0, 0, 1, 3069.12, 0)" gradientUnits="userSpaceOnUse"><stop offset="0" stop-color="#febbba"/><stop offset="1" stop-color="#ff928e"/></linearGradient><linearGradient id="linear-gradient-8" x1="127.53" y1="3579.78" x2="211.76" y2="3579.78" xlink:href="#linear-gradient-5"/><linearGradient id="linear-gradient-9" x1="128.14" y1="3495.97" x2="251.77" y2="3495.97" xlink:href="#linear-gradient-6"/><linearGradient id="linear-gradient-10" x1="192.4" y1="3389.79" x2="266.39" y2="3389.79" xlink:href="#linear-gradient-7"/><linearGradient id="linear-gradient-11" x1="1210.07" y1="1831.31" x2="917.04" y2="2212.54" xlink:href="#linear-gradient-7"/><linearGradient id="linear-gradient-12" x1="1808.95" y1="169.59" x2="1387.36" y2="892.31" gradientTransform="matrix(-1, 0, 0, 1, 3069.12, 0)" gradientUnits="userSpaceOnUse"><stop offset="0" stop-color="#e1473d"/><stop offset="1" stop-color="#fffb93"/></linearGradient><linearGradient id="linear-gradient-13" x1="556.91" y1="2077.7" x2="588.97" y2="1909.39" xlink:href="#linear-gradient-7"/><linearGradient id="linear-gradient-14" x1="643.65" y1="1768.91" x2="460.74" y2="1908.87" xlink:href="#linear-gradient-7"/><linearGradient id="linear-gradient-15" x1="514.89" y1="1658.1" x2="685.24" y2="1877.43" xlink:href="#linear-gradient-6"/><linearGradient id="linear-gradient-16" x1="620.96" y1="1739.26" x2="438.05" y2="1879.22" xlink:href="#linear-gradient-7"/><linearGradient id="linear-gradient-17" x1="572.84" y1="2393.17" x2="759.15" y2="1817.28" xlink:href="#linear-gradient-7"/><linearGradient id="linear-gradient-18" x1="-3004.22" y1="2338.52" x2="-3293.45" y2="2417.79" gradientTransform="translate(5450.38 -55.03) rotate(-2.83)" xlink:href="#linear-gradient-6"/><linearGradient id="linear-gradient-19" x1="-3318.78" y1="2244.53" x2="-3522.8" y2="2460.16" gradientTransform="translate(5491.85)" xlink:href="#linear-gradient-6"/></defs><g id="Background"><rect class="cls-1" width="3710" height="3710"/></g><g id="Illustration"><path class="cls-2" d="M2955.35,3193.09c-63.95,67.32-124.46,110.73-172.26,145-562,403.2-1226.87,285.67-1368.19,257-208.68-42.38-612.05-124.31-903.68-467.26C70,2609,138.71,1791.52,480.94,1251.92c62.6-98.71,393.28-646.53,1065.36-734.39,406.75-53.16,880.88,54.07,1224.23,341.73C3491.25,1463.08,3439.94,2682.92,2955.35,3193.09Z"/><path class="cls-3" d="M2824.05,58.47a31.74,31.74,0,0,1,39,32.23c-2.21,53.9-3.54,177.32,2.92,459.19,11.05,481.46-279.71,550.95-429.88,647.66s-126.85,431.3-126.85,431.3S2024.7,945.73,2125.07,556.26C2209.74,227.73,2679.2,92.69,2824.05,58.47Z"/><path class="cls-4" d="M2720.33,199.56s-4,3.94-11.45,11.6-18.1,18.88-31.18,33.7c-6.51,7.44-13.87,15.56-21.5,24.7s-16.12,18.85-24.73,29.59-18,22-27.41,34.25l-14.5,18.83-14.76,20-15.36,20.92L2544,415.25q-7.83,11.25-15.93,22.87l-15.85,24c-5.34,8.12-10.86,16.28-16.24,24.68s-10.61,17-16,25.69-10.85,17.42-16.15,26.39l-15.77,27.31c-5.26,9.21-10.73,18.4-16,27.83l-15.4,28.67c-5.15,9.63-10.39,19.29-15.47,29.09l-14.67,29.88-14.8,30.11q-6.9,15.36-13.84,30.79T2344,773.46l-1.74,3.87-.51,1.18-.4,1-.78,2-3.15,7.82-6.3,15.66a1097.24,1097.24,0,0,0-41.27,129.57,1214.85,1214.85,0,0,0-24.78,129.06c-5.9,42.21-9,83.3-10.75,122.26s-1.59,75.85-.48,109.84,3.53,65.09,6.31,92.57,6,51.35,9.08,71,6.06,34.93,8.19,45.37c1.13,5.23,2,9.24,2.58,11.94l1,4.16a8.11,8.11,0,0,0,15.87-3.36l0-.23-.76-3.91c-.46-2.65-1.15-6.58-2-11.7-1.76-10.29-4-25.48-6.48-44.86s-5-43-7-70.16-3.43-57.86-4.12-91.34-.11-69.79,2.07-108.08,6.21-78.53,12.06-119.88a1214.5,1214.5,0,0,1,24.86-126.21,1070.25,1070.25,0,0,1,40-126.27l6.27-15.66,3.14-7.83.78-2,.39-1,.33-.75,1.68-3.83q6.72-15.35,13.44-30.64l13.41-30.52,14.36-29.86L2423.43,663q7.53-14.54,15-28.92l14.77-28.58c5-9.41,10.28-18.58,15.34-27.77s10.16-18.26,15.16-27.27,10.44-17.66,15.56-26.36l15.18-25.84c5.11-8.45,10.36-16.67,15.43-24.85s10.13-16.21,15.08-24.15l15.18-23.06q7.5-11.34,14.72-22.29l14.68-21.12,14.12-20.24,13.87-19c8.84-12.52,17.58-24.13,25.81-35s16.07-21,23.35-30.32,14.18-17.7,20.34-25.34c12.45-15.15,22.4-26.92,29.29-34.84S2727,206,2727,206a4.6,4.6,0,0,0-6.59-6.42Z"/><path class="cls-5" d="M2150.48,2554.33c-31.13,15.56,292.76-398.34,390.17-1045.19,45.91-304.82,43.55-686.25,215.82-834.6,143.37-123.47,635.12-50.08,796.05-22,20.11,3.51,27.07,28.82,11.54,42.07-76.56,65.32-240.22,219.28-282,373.47-55,203.23-246.82,333.73-419.15,370s-268.08,70.89-350,347.58S2238.94,2510.09,2150.48,2554.33Z"/><path class="cls-3" d="M3327.24,741.88s-4.89.15-13.94.83-22.33,1.88-39.12,4.21-37.11,5.66-60.2,10.62-49,11.4-76.72,20.32a781.81,781.81,0,0,0-87.73,33.85,658.27,658.27,0,0,0-91.94,51,581.1,581.1,0,0,0-87.18,71.35,532.33,532.33,0,0,0-73,90.78l-7.72,12.48-3.86,6.24-3.5,6.44c-4.6,8.62-9.32,17.19-13.68,25.88l-25.09,51.53-24.29,51-23.11,50c-7.58,16.43-14.76,32.72-21.93,48.59s-13.77,31.6-20.42,46.8c-13.11,30.48-25.22,59.42-36.23,86.2L2602,1448.61l-13.57,34.94c-8.38,22-15.57,41.2-21.32,57.09s-10.11,28.43-13,37-4.41,13.19-4.41,13.19a3.17,3.17,0,0,0,6,2.13l0-.07s1.71-4.49,4.9-12.91,8.14-20.72,14.31-36.4,13.95-34.61,22.95-56.29l30.78-72.59c11.45-26.52,24-55.17,37.66-85.34s28.19-61.89,43.43-94.63,31.39-66.36,47.8-100.52l25.21-51.47c4.26-8.47,8.9-16.73,13.27-25.15l3.35-6.28,3.71-6.08,7.42-12.16a517.65,517.65,0,0,1,70.34-88.67,567.35,567.35,0,0,1,84.59-70.14,681.22,681.22,0,0,1,89.36-51.43A770.49,770.49,0,0,1,3140.59,788c27.23-9.16,52.6-16.45,75.32-22s42.76-9.43,59.33-12.2,29.65-4.53,38.59-5.53,13.68-1.33,13.68-1.33a2.54,2.54,0,0,0-.23-5.08Z"/><path class="cls-3" d="M2167.48,2555.27c-20.21,10.65,113.85-220.1,124.14-423.41s56.16-550.28,231.47-757.85,367.31-226.51,609.23-37.81c201.59,157.25,327.34,236.6,401.09,251.36,18.26,3.65,27.58,24.26,18.7,40.63-47.31,87.11-181,287.19-405.58,273.11-286.42-18-633.53-204.16-739.33-48.84s-92.21,242.23-95.46,315.84S2301.24,2484.74,2167.48,2555.27Z"/><path class="cls-4" d="M3049.3,1587.38s-3-2.81-8.71-7.8-14.23-12.22-25.45-20.91-25-19-41.43-30.07-35.48-22.75-56.95-34.37a540.74,540.74,0,0,0-71.94-32.63c-13.19-4.9-27.14-8.92-41.48-12.68-14.46-3.33-29.35-6.54-44.81-8-7.69-1.06-15.55-1.15-23.42-1.65-4-.07-7.92,0-11.91,0l-6,.06-6,.44c-16.08.71-32.13,3.9-48.13,8-15.11,4.17-31,9.5-46.15,15.27a464.3,464.3,0,0,0-44.74,20.48,428.12,428.12,0,0,0-41.93,25.85,418.12,418.12,0,0,0-37.93,30.81,405.87,405.87,0,0,0-61.28,72.13,546.28,546.28,0,0,0-42.73,77.1,730.86,730.86,0,0,0-28.53,73.32c-7.6,23.12-13.55,44.61-18.32,63.75-2.42,9.57-4.61,18.53-6.41,26.87s-3.6,16-5,22.91c-2.88,13.86-4.79,24.8-6.1,32.26s-2,11.44-2,11.44a2.82,2.82,0,0,0,5.53,1.1l0,0s.86-3.93,2.49-11.3c.81-3.68,1.82-8.22,3-13.56s2.72-11.43,4.35-18.27,3.48-14.41,5.62-22.61,4.49-17,7.18-26.46c5.29-18.84,11.9-39.9,20-62.51,16-45.22,38.38-97.1,72.51-146a418,418,0,0,1,59.79-69.06,402.64,402.64,0,0,1,36.61-29.35,414,414,0,0,1,40.4-24.56,449.9,449.9,0,0,1,43.18-19.42c14.91-5.54,29.39-10.35,44.9-14.54,14.71-3.73,29.68-6.88,44.73-7.58l5.61-.45,5.63-.07c3.74,0,7.47-.15,11.2-.11,7.44.46,14.85.49,22.16,1.47,14.66,1.25,29,4.07,42.87,7.08,13.84,3.43,27.34,7.11,40.19,11.69a530.81,530.81,0,0,1,71,29.93c21.41,10.74,40.38,21.92,57,32.09s30.77,19.74,42.22,27.85,20.25,14.77,26.21,19.34,9,7.14,9,7.14a2.93,2.93,0,0,0,3.89-4.38Z"/><circle class="cls-1" cx="1930.45" cy="2176.6" r="1041.42" transform="translate(-973.67 2002.55) rotate(-45)"/><circle class="cls-6" cx="1930.45" cy="2176.6" r="888.81"/><path class="cls-3" d="M1930.45,3084.23c-242.44,0-470.36-94.41-641.79-265.84S1022.82,2419,1022.82,2176.6s94.41-470.36,265.84-641.79S1688,1269,1930.45,1269s470.36,94.41,641.79,265.84,265.84,399.35,265.84,641.79-94.41,470.36-265.84,641.79S2172.89,3084.23,1930.45,3084.23Zm0-1777.62c-479.71,0-870,390.28-870,870s390.27,870,870,870,870-390.28,870-870S2410.16,1306.61,1930.45,1306.61Z"/><circle class="cls-7" cx="1930.45" cy="2176.6" r="541.86" transform="translate(-973.67 2002.55) rotate(-45)"/><path class="cls-3" d="M1930.45,2737.28c-309.16,0-560.68-251.52-560.68-560.68s251.52-560.68,560.68-560.68,560.68,251.52,560.68,560.68S2239.61,2737.28,1930.45,2737.28Zm0-1083.72c-288.4,0-523,234.63-523,523s234.64,523,523,523,523-234.64,523-523S2218.85,1653.56,1930.45,1653.56Z"/><circle class="cls-8" cx="1930.45" cy="2176.6" r="209.93" transform="translate(-973.67 2002.55) rotate(-45)"/><path class="cls-3" d="M1930.45,2405.35c-126.13,0-228.75-102.62-228.75-228.75s102.62-228.75,228.75-228.75,228.76,102.62,228.76,228.75S2056.59,2405.35,1930.45,2405.35Zm0-419.86c-105.38,0-191.11,85.73-191.11,191.11s85.73,191.11,191.11,191.11,191.11-85.73,191.11-191.11S2035.83,1985.49,1930.45,1985.49Z"/><circle class="cls-5" cx="1178.78" cy="3184.37" r="275.32" transform="translate(-1906.43 1766.21) rotate(-45)"/><path class="cls-1" d="M1178,3122c6.88,8.21,59.16,39.39,0,89.28-2.81,5.39,5.08,19.35,10.6,17.57,85.15-58.37,5.24-131.08-3.52-124S1170,3112.43,1178,3122Z"/><path class="cls-1" d="M1213.49,3264.06c1.27,10.88,8.7,21.12,18.23,18.06,9.38-3,130.76-106.92-6.07-222.66a8.25,8.25,0,0,0-11.67,1c-4.39,5.27-7.34,9.76-6.62,15.58C1327.45,3182,1212.21,3253.17,1213.49,3264.06Z"/><path class="cls-1" d="M1249.75,3318.15c-1.55,7.73,4.27,23.54,17,19.46,199-182.9-9.57-345.78-18-339.81s-8.72,18.09-5.89,23C1429.64,3166.39,1251.3,3310.41,1249.75,3318.15Z"/><path class="cls-1" d="M1130.28,3029.66a4,4,0,0,0-4.49,1l-68.87,70.49a4.14,4.14,0,0,1-2.8,1.28l-57.25,2.86a11.16,11.16,0,0,0-10.57,10.38L979.13,3219a11.15,11.15,0,0,0,9.9,11.86l65.37,7.27a4.24,4.24,0,0,1,2.48,1.15l69.19,66.12a3.69,3.69,0,0,0,4.27.83,4,4,0,0,0,2.24-3.92V3033.61A4,4,0,0,0,1130.28,3029.66Z"/><path class="cls-5" d="M888,2807.41H514.78c-28.55,0-51.69-21.2-51.69-47.35V2417.19c0-24.67,20.68-45.21,47.52-47.2l397.66-29.48c31.33-2.32,57.65,21.29,55.77,50L939.61,2762.9C938,2787.9,915.36,2807.41,888,2807.41Z"/><path class="cls-1" d="M508.06,2717.71H869c11.23,0,18.21-11.18,12.52-20.06L738.6,2475.14c-6-9.29-20.86-8.58-25.74,1.22l-69,138.48c-4.1,8.23-15.76,10.4-23,4.29l-27.91-23.44c-6.48-5.44-16.72-4.4-21.74,2.22l-75.06,98.89C489.44,2705.63,496.33,2717.71,508.06,2717.71Z"/><ellipse class="cls-1" cx="827.72" cy="2468.57" rx="48.71" ry="44.63"/><path class="cls-5" d="M897.17,2094.21l-424.68-7A53.44,53.44,0,0,1,420,2030.43L448,1587.89a53.44,53.44,0,0,1,46.31-49.61l370.09-29.56c35.44-4.7,110.14,39.67,104.53,75l-18.09,465.48A53.44,53.44,0,0,1,897.17,2094.21Z"/><g class="cls-9"><path class="cls-1" d="M706.85,1972.64c-92.1,0-167-74.93-167-167s74.93-167,167-167,167,74.92,167,167S798.94,1972.64,706.85,1972.64Zm0-306.06c-76.67,0-139,62.37-139,139s62.37,139,139,139,139-62.37,139-139S783.51,1666.58,706.85,1666.58Z"/><path class="cls-10" d="M654.52,1869.94V1749.86a16.55,16.55,0,0,1,25-14.23l101.18,60a16.56,16.56,0,0,1,0,28.48l-101.18,60A16.55,16.55,0,0,1,654.52,1869.94Z"/></g><circle class="cls-11" cx="1178.78" cy="1138.31" r="295.09"/><path class="cls-1" d="M1318,1020.13c-37.46-36.82-95.89-25.74-136.12,8a15.66,15.66,0,0,1-20,.16c-40.77-33.06-99.13-43.13-136-5.67a103.26,103.26,0,0,0,1.26,146l136.08,133.75a15.69,15.69,0,0,0,22.19-.19l133.76-136.08A103.26,103.26,0,0,0,1318,1020.13Z"/><path class="cls-12" d="M2335.72,3514.65c37.65,3.26,103,8.54,154.51,10.81,31,1.36,48.8-1.67,59.07-5.78,0,1.16-.05,2.25-.1,3.27a10.65,10.65,0,0,1-10.12,10.06c-97.35,5.44-174.76,1.88-202.32.2a7.58,7.58,0,0,1-6.18-11.39A61.42,61.42,0,0,1,2335.72,3514.65Z"/><path class="cls-13" d="M2490.23,3525.46c-51.51-2.27-116.86-7.55-154.51-10.81,37-45.41,154.51-76,154.51-76h33.19c22.82,32.9,26.13,64.23,25.88,81.06C2539,3523.79,2521.2,3526.82,2490.23,3525.46Z"/><path class="cls-14" d="M2529,3384.45l-3.11,61.45a14,14,0,0,1-12,13.2A54.51,54.51,0,0,1,2489,3457a16.6,16.6,0,0,1-11.16-12.76l-10.73-59.82Z"/><path class="cls-15" d="M2914.16,3585.54c16.33-2.94,23.72-13.9,26.81-25.62l.07.31a29.22,29.22,0,0,1-14.3,31.27c-13.46,7.37-28.18,8.62-39.6,8a36.62,36.62,0,0,1-29.69-17.69l-.09-.16C2869.66,3589.53,2886.93,3590.45,2914.16,3585.54Z"/><path class="cls-16" d="M2837.18,3403.38h27.36c41.69-1.1,67.87,112.53,76.43,156.54-3.09,11.72-10.48,22.68-26.81,25.62-27.23,4.91-44.5,4-56.8-3.88-22.52-38.3-33.68-94.4-39.05-127.14C2812.2,3417.29,2837.18,3403.38,2837.18,3403.38Z"/><path class="cls-17" d="M2861,3346.34l15.19,60.44a16.41,16.41,0,0,1-8.53,18.6c-8.5,4.36-20.47,8.94-31.47,7.62a13.71,13.71,0,0,1-11.18-9.14l-22.31-63.59Z"/><path class="cls-18" d="M2326.45,2550.29s135.8,848.89,133.56,853.56c0,0,37.51,17,78.4,2.17,0,0-12.28-453.79-41.06-627.79,0,0,231.78,405.6,305.38,607.71,0,0,38.39-4.58,70.16-25.49,0,0-249.55-730.07-316.13-827.31Z"/><path class="cls-19" d="M1703.25,1719.05s91.64,20.21,147.38,45.94a50.85,50.85,0,0,1,24.92,25.06c16.67,36.52,66.55,128.09,163.27,171.78-13.93,18.49-36.36,57-46.13,121.58-58.09-43.23-108.24-115.44-132.32-233.86,0,0-18.33,10-41.21-1.15-12.08-5.86-26-14.19-36.51-20.74a47.85,47.85,0,0,1-21.22-28.5c-4-15.64-1.64-29.39-1.64-44.14l-47.11-14.6S1698.52,1735.08,1703.25,1719.05Z"/><path class="cls-20" d="M1992.69,2083.41c9.77-64.63,32.2-103.09,46.13-121.58,60.08,27.15,138.24,35.83,237.77,1.34a105.67,105.67,0,0,1,28.45-5.61c53-3.11,227.58-8.77,372.05,39a112.26,112.26,0,0,1,67.73,61.65c39.08,89.68,102.35,293.94-73.3,397a436,436,0,0,0-42.39-80.22c28.28-47.71,36.66-112.88-13.53-197.75-36.61,98.84-53.78,243.05-57.37,306.87a137.28,137.28,0,0,0,10.75,61.39l.9,2.11a7.26,7.26,0,0,1-5.1,9.92c-98.89,22.22-201.74,16.18-232.46,13.64a12.69,12.69,0,0,1-11.31-9.68c-48.08-202.61-48.19-340.82-36.42-428.19C2239.61,2143.37,2102.06,2164.82,1992.69,2083.41Z"/><path class="cls-21" d="M2528.43,1839.53s10,105.77,18.81,137.06a10.7,10.7,0,0,1-5,12.22c-14.95,8.54-50.81,22.47-99.85-1.57A22.23,22.23,0,0,1,2430,1966.3l4.32-102.21Z"/><path class="cls-22" d="M2432.17,1704.22s-32,73.5-34.14,112.07-10.46,63.61,34.14,71.38,82.19-14.45,102.54-52.88c0,0,31.9-59.21,24.74-83.46S2432.17,1704.22,2432.17,1704.22Z"/><path class="cls-23" d="M2519.47,1807.16l-2.54-1.12a6.13,6.13,0,0,1-3-8.41c6.29-12.15,18.55-40,2.71-46.5-20.41-8.37-101.28-24.86-118.73-53.56-16.77-27.57-1.91-63.17,20.42-73.3a3.07,3.07,0,0,1,4,1.31l1.86,3.52a3,3,0,0,0,5.59-.57,3,3,0,0,1,5.46-.78c5.36,8.58,19.84,22.5,58.56,29.65,55,10.15,91.42,32.42,92.32,70.45a3,3,0,0,0,4.69,2.5c4.07-2.48,10.57-3.64,19.26,3.67,15.11,12.71,8.93,45.67-24.2,72.79a3,3,0,0,0,.14,4.85c6,3.91,15,13.21-8.24,25.62-24,12.82-41.92,11.77-48.81,10.63a3,3,0,0,1-2.45-3.64l7.36-33.42a3,3,0,0,0-3-3.69Z"/><path class="cls-24" d="M2518.08,1814.22s12.21-47,33.26-33.79-10.92,52.61-27.85,54.36Z"/><path class="cls-25" d="M2519.64,2506.06l-141.43,1.75,49.5-46.6A36.94,36.94,0,0,1,2473,2457a106.87,106.87,0,0,1,25.15,22.41s88.22-32.24,131-104.38a436,436,0,0,1,42.39,80.22C2633.18,2477.73,2583.48,2495.43,2519.64,2506.06Z"/><path class="cls-26" d="M2504.4,2524.3l-.83,0-359-.39a15.9,15.9,0,1,1,0-31.8l359,.39a15.9,15.9,0,0,1,.79,31.78Z"/><path class="cls-27" d="M1821.84,2201.79h299a57,57,0,0,1,51.54,32.33l138.22,290H1939a34.63,34.63,0,0,1-32.21-21.67l-107.18-268.35C1793.44,2218.59,1805,2201.79,1821.84,2201.79Z"/><ellipse class="cls-5" cx="2010.05" cy="2357.61" rx="23.53" ry="37.92" transform="translate(-636.99 747.7) rotate(-18.24)"/></g></svg>