<svg id="Layer_1" data-name="Layer 1" xmlns="http://www.w3.org/2000/svg" viewBox="0 0 237.21 99.11"><defs><style>.cls-1,.cls-6,.cls-7{fill:#ff9000;}.cls-2,.cls-3{fill:none;stroke:#020202;stroke-linecap:round;stroke-miterlimit:10;}.cls-2{stroke-width:6px;}.cls-4{font-size:13.25px;letter-spacing:0.17em;}.cls-4,.cls-5,.cls-6,.cls-7{font-family:NowAlt-Regular, Now Alt;}.cls-5{font-size:13.95px;letter-spacing:0.17em;}.cls-6,.cls-7{font-size:16.04px;}.cls-6{letter-spacing:0.07em;}.cls-7{letter-spacing:0em;}.cls-8{letter-spacing:0.07em;}</style></defs><g id="logo"><path class="cls-1" d="M56.12,34.22v23a2.71,2.71,0,0,0,4.13,2.19L79,48.48A3.18,3.18,0,0,0,79,43L60.25,32A2.71,2.71,0,0,0,56.12,34.22Z" transform="translate(-6.79 -2.84)"/><path class="cls-2" d="M77,16.3S104.4,29.78,93.42,58.49c-1.84,4.81-4.53,8.72-9.06,13.95" transform="translate(-6.79 -2.84)"/><path class="cls-2" d="M88.89,5.84S118.18,24,107.72,61.63c-1.79,6.43-4.88,11.85-10.49,18.13" transform="translate(-6.79 -2.84)"/><line class="cls-3" x1="116.27" y1="10.67" x2="116.27" y2="70.64"/><path d="M9,50.66c.72,2.69,2.69,4.3,6.07,4.3,3.81,0,5.35-1.69,5.35-4s-1-3.52-5.82-4.63C9.06,45,7.69,43.42,7.69,40.69s2.23-5.5,7.06-5.5S21.9,38,22.24,41H20.1c-.38-1.74-1.79-3.89-5.43-3.89s-4.8,1.78-4.8,3.44c0,1.9,1,2.85,5.27,3.84,6,1.41,7.53,3.31,7.53,6.41,0,3.77-3.17,6.09-7.66,6.09-4.88,0-7.62-2.49-8.22-6.21Z" transform="translate(-6.79 -2.84)"/><path d="M29.82,53.31V64.64H27.68V40.77c0-1.69,0-3.51,0-5.08h2.09c.09.78.09,2,.09,3.72,1.33-2.48,3.68-4.22,7.53-4.22,5,0,8.56,4.09,8.56,10.3,0,7.45-4.11,11.38-9.29,11.38C32.86,56.87,30.89,55.25,29.82,53.31Zm13.82-7.74c0-4.8-2.39-8.4-6.63-8.4-5.18,0-7.32,3.15-7.32,8.77s1.67,9,7,9C41.16,54.92,43.64,51.28,43.64,45.57Z" transform="translate(-6.79 -2.84)"/><text class="cls-4" transform="translate(32.62 94.27)">STREAMING </text><text class="cls-5" transform="translate(133.62 94.88)">PLUG</text><text class="cls-6" transform="translate(126.78 36.05)">Share</text><text class="cls-7" transform="translate(126.11 54.99)">Y<tspan class="cls-8" x="9.71" y="0">our</tspan></text><text class="cls-6" transform="translate(166.47 54.52)">Content</text></g></svg>