<svg id="Layer_1" data-name="Layer 1" xmlns="http://www.w3.org/2000/svg" viewBox="0 0 224.44 90.74"><defs><style>.cls-1,.cls-5{fill:#f28f1c;}.cls-2,.cls-3{fill:none;stroke:#020202;stroke-linecap:round;}.cls-2,.cls-3,.cls-4,.cls-5{stroke-miterlimit:10;}.cls-2{stroke-width:6px;}.cls-4{fill:#010101;stroke:#010101;}.cls-4,.cls-5{stroke-width:0.25px;}.cls-5{stroke:#f28f1c;}</style></defs><g id="logo_dark"><path class="cls-1" d="M59.67,34.75V56.68a2.58,2.58,0,0,0,3.93,2.09L81.46,48.32a3,3,0,0,0,0-5.21L63.6,32.66A2.58,2.58,0,0,0,59.67,34.75Z" transform="translate(-12.56 -4.73)"/><path class="cls-2" d="M79.59,17.69s26.05,12.83,15.6,40.16c-1.75,4.59-4.32,8.3-8.63,13.28" transform="translate(-12.56 -4.73)"/><path class="cls-2" d="M90.87,7.73S118.76,25,108.8,60.84c-1.7,6.13-4.65,11.29-10,17.26" transform="translate(-12.56 -4.73)"/><line class="cls-3" x1="110.85" y1="10.3" x2="110.85" y2="67.4"/><path class="cls-4" d="M14.78,50.4c.7,2.56,2.57,4.1,5.79,4.1,3.63,0,5.1-1.62,5.1-3.82s-1-3.35-5.55-4.41c-5.25-1.23-6.56-2.76-6.56-5.36s2.12-5.24,6.73-5.24,6.8,2.72,7.13,5.51h-2c-.37-1.65-1.71-3.7-5.18-3.7s-4.56,1.7-4.56,3.27c0,1.81,1,2.72,5,3.66,5.75,1.34,7.18,3.15,7.18,6.11,0,3.58-3,5.79-7.3,5.79-4.65,0-7.25-2.37-7.82-5.91Z" transform="translate(-12.56 -4.73)"/><path class="cls-4" d="M34.63,52.92V63.71h-2V41c0-1.62,0-3.35,0-4.85h2c.08.75.08,1.93.08,3.55,1.26-2.36,3.5-4,7.17-4,4.81,0,8.15,3.9,8.15,9.81,0,7.09-3.91,10.83-8.84,10.83C37.52,56.31,35.65,54.77,34.63,52.92Zm13.16-7.36c0-4.57-2.28-8-6.31-8-4.94,0-7,3-7,8.35s1.59,8.55,6.68,8.55C45.43,54.46,47.79,51,47.79,45.56Z" transform="translate(-12.56 -4.73)"/><path class="cls-4" d="M44.22,92.83l.91-.53a2.24,2.24,0,0,0,2.18,1.45c1,0,1.89-.57,1.89-1.58,0-2.35-4.6-1.59-4.6-4.63A2.47,2.47,0,0,1,47.23,85a3.23,3.23,0,0,1,2.52,1.19l-.79.66a2,2,0,0,0-1.7-.84c-.88,0-1.66.46-1.66,1.41,0,2.25,4.61,1.46,4.61,4.68a2.65,2.65,0,0,1-2.92,2.61A3.24,3.24,0,0,1,44.22,92.83Z" transform="translate(-12.56 -4.73)"/><path class="cls-4" d="M59.16,86.18H56.54v8.45h-1V86.18H52.92v-1h6.24Z" transform="translate(-12.56 -4.73)"/><path class="cls-4" d="M69.18,94.63H68l-2.68-4.27H63.57v4.27h-1V85.17H66a2.63,2.63,0,0,1,2.63,2.65,2.51,2.51,0,0,1-2.19,2.49Zm-3.3-5.23a1.59,1.59,0,0,0,1.69-1.61,1.6,1.6,0,0,0-1.69-1.61H63.57V89.4Z" transform="translate(-12.56 -4.73)"/><path class="cls-4" d="M73.67,86.15v3.26h3.62v1H73.67v3.26h4.16v1H72.66V85.17h5.17v1Z" transform="translate(-12.56 -4.73)"/><path class="cls-4" d="M87,92.42H82.76L82,94.63H80.88l3.43-9.46h1.11l3.42,9.46h-1.1Zm-.33-1-1.77-5.09-1.78,5.09Z" transform="translate(-12.56 -4.73)"/><path class="cls-4" d="M101.5,85.17v9.46h-1V87.19l-3.3,7.44h-.83l-3.27-7.47v7.47h-1V85.17h1.08l3.62,8.25,3.64-8.25Z" transform="translate(-12.56 -4.73)"/><path class="cls-4" d="M106,85.17h1v9.46h-1Z" transform="translate(-12.56 -4.73)"/><path class="cls-4" d="M119.26,85.17v9.46h-1l-5.83-7.77v7.77h-1V85.17h1l5.84,7.77V85.17Z" transform="translate(-12.56 -4.73)"/><path class="cls-4" d="M133.05,89.62v.28a4.9,4.9,0,1,1-.65-2.4l-.87.49a3.85,3.85,0,1,0,.45,2.57h-3.8v-.94Z" transform="translate(-12.56 -4.73)"/><path class="cls-4" d="M147.48,88a2.74,2.74,0,0,1-2.77,2.75H142.2v4.44h-1.06v-10h3.57A2.76,2.76,0,0,1,147.48,88Zm-1.06,0a1.73,1.73,0,0,0-1.81-1.76H142.2v3.48h2.41A1.69,1.69,0,0,0,146.42,88Z" transform="translate(-12.56 -4.73)"/><path class="cls-4" d="M156,94.14v1.07h-4.76v-10h1.06v8.89Z" transform="translate(-12.56 -4.73)"/><path class="cls-4" d="M159.48,91.94V85.25h1.06v6.52a2.69,2.69,0,0,0,5.36,0V85.25H167v6.69a3.76,3.76,0,0,1-7.49,0Z" transform="translate(-12.56 -4.73)"/><path class="cls-4" d="M181.43,89.93v.3a5.15,5.15,0,1,1-.68-2.53l-.91.52a4.06,4.06,0,1,0,.47,2.7h-4v-1Z" transform="translate(-12.56 -4.73)"/><path class="cls-5" d="M134,37l1.11-.65a2.69,2.69,0,0,0,2.63,1.76c1.28,0,2.29-.69,2.29-1.91,0-2.84-5.57-1.93-5.57-5.61a3,3,0,0,1,3.19-3,3.91,3.91,0,0,1,3,1.43l-.95.81a2.45,2.45,0,0,0-2.07-1,1.77,1.77,0,0,0-2,1.7c0,2.73,5.57,1.78,5.57,5.67,0,2-1.58,3.17-3.53,3.17A3.92,3.92,0,0,1,134,37Z" transform="translate(-12.56 -4.73)"/><path class="cls-5" d="M150,34.31V39.2h-1.16V34.31a1.72,1.72,0,0,0-1.72-1.72,1.7,1.7,0,0,0-1.7,1.72V39.2h-1.19V25.15h1.19V32a3,3,0,0,1,1.7-.55A2.87,2.87,0,0,1,150,34.31Z" transform="translate(-12.56 -4.73)"/><path class="cls-5" d="M161.29,38.21v1a1.15,1.15,0,0,1-.57.15A1.77,1.77,0,0,1,159,38a3.45,3.45,0,0,1-3,1.37c-1.61,0-2.6-.84-2.6-2.14s1-2.15,2.58-2.15h2.92v-.63c0-1.19-.95-1.84-2.16-1.84a1.9,1.9,0,0,0-2.15,1.84h-1.19a3.36,3.36,0,0,1,6.68,0v2.78c0,.71.37,1,.79,1Zm-2.44-1.66v-.5h-2.67c-.94,0-1.53.46-1.53,1.14s.61,1.13,1.55,1.13A2.68,2.68,0,0,0,158.85,36.55Z" transform="translate(-12.56 -4.73)"/><path class="cls-5" d="M168.21,31.47v1.2a1.79,1.79,0,0,0-.59-.08,2.48,2.48,0,0,0-2.54,2.47V39.2h-1.19V31.56h1.19v1.09a3.09,3.09,0,0,1,2.54-1.24A2.61,2.61,0,0,1,168.21,31.47Z" transform="translate(-12.56 -4.73)"/><path class="cls-5" d="M178.14,35.55H171.4a2.79,2.79,0,0,0,5.34,1H178a4,4,0,1,1,.16-1.21Zm-6.59-1.07h5.25a2.75,2.75,0,0,0-2.62-1.89A2.79,2.79,0,0,0,171.55,34.48Z" transform="translate(-12.56 -4.73)"/><path class="cls-5" d="M138,51.79v5.44h-1.22V51.81l-4-6h1.53l3.09,4.75,3.09-4.75H142Z" transform="translate(-12.56 -4.73)"/><path class="cls-5" d="M142.88,53.41a4,4,0,1,1,4,4A4,4,0,0,1,142.88,53.41Zm6.76,0a2.79,2.79,0,1,0-2.79,2.79A2.8,2.8,0,0,0,149.64,53.41Z" transform="translate(-12.56 -4.73)"/><path class="cls-5" d="M153.88,54.48V49.59H155v4.76a1.71,1.71,0,1,0,3.4,0V49.59h1.17v4.89a2.87,2.87,0,1,1-5.73,0Z" transform="translate(-12.56 -4.73)"/><path class="cls-5" d="M167.5,49.5v1.2a1.86,1.86,0,0,0-.6-.08,2.49,2.49,0,0,0-2.54,2.47v4.14h-1.18V49.59h1.18v1.09a3.1,3.1,0,0,1,2.54-1.24A2.71,2.71,0,0,1,167.5,49.5Z" transform="translate(-12.56 -4.73)"/><path class="cls-5" d="M172.14,51.05a5.88,5.88,0,0,1,11-2.9l-1,.59a4.66,4.66,0,1,0,0,4.62l1,.59a5.88,5.88,0,0,1-11-2.9Z" transform="translate(-12.56 -4.73)"/><path class="cls-5" d="M185.68,53a4,4,0,1,1,4,4A4,4,0,0,1,185.68,53Zm6.76,0a2.79,2.79,0,1,0-2.79,2.79A2.8,2.8,0,0,0,192.44,53Z" transform="translate(-12.56 -4.73)"/><path class="cls-5" d="M202.79,51.91v4.87H201.6V51.91a1.72,1.72,0,0,0-1.73-1.74,1.74,1.74,0,0,0-1.76,1.74v4.87h-1.18V49.14h1.18v.61A2.71,2.71,0,0,1,200,49,2.93,2.93,0,0,1,202.79,51.91Z" transform="translate(-12.56 -4.73)"/><path class="cls-5" d="M208,50.29v4.33a1.14,1.14,0,0,0,1.15,1.17H210v.89a2.07,2.07,0,0,1-1,.25,2.18,2.18,0,0,1-2.19-2.15V50.29h-1.28V49.14h1.28V45.82H208v3.32h2.05v1.15Z" transform="translate(-12.56 -4.73)"/><path class="cls-5" d="M220.51,53.13h-6.74a2.8,2.8,0,0,0,5.35,1h1.26a4,4,0,1,1,.15-1.21Zm-6.59-1.07h5.25a2.74,2.74,0,0,0-2.61-1.89A2.81,2.81,0,0,0,213.92,52.06Z" transform="translate(-12.56 -4.73)"/><path class="cls-5" d="M229.62,51.91v4.87h-1.19V51.91a1.72,1.72,0,0,0-1.73-1.74,1.74,1.74,0,0,0-1.76,1.74v4.87h-1.18V49.14h1.18v.61a2.71,2.71,0,0,1,1.85-.76A2.93,2.93,0,0,1,229.62,51.91Z" transform="translate(-12.56 -4.73)"/><path class="cls-5" d="M234.83,50.29v4.33A1.14,1.14,0,0,0,236,55.79h.88v.89a2.07,2.07,0,0,1-1,.25,2.18,2.18,0,0,1-2.19-2.15V50.29h-1.28V49.14h1.28V45.82h1.18v3.32h2v1.15Z" transform="translate(-12.56 -4.73)"/></g></svg>