<svg id="Layer_1" data-name="Layer 1" xmlns="http://www.w3.org/2000/svg" viewBox="0 0 228.47 95.57"><defs><style>.cls-1{fill:#ff9000;}.cls-2,.cls-3{fill:none;stroke:#fff;stroke-linecap:round;stroke-miterlimit:10;}.cls-2{stroke-width:6px;}.cls-4,.cls-5,.cls-6,.cls-7,.cls-8{fill:#fff;}.cls-5{font-size:12.76px;letter-spacing:0.17em;}.cls-5,.cls-6,.cls-7,.cls-8{font-family:NowAlt-Regular, Now Alt;}.cls-6{font-size:13.43px;letter-spacing:0.17em;}.cls-7,.cls-8{font-size:15.45px;}.cls-7,.cls-9{letter-spacing:0.07em;}.cls-8{letter-spacing:0em;}</style></defs><g id="logo"><path class="cls-1" d="M59,34.53V56.72a2.61,2.61,0,0,0,4,2.11L81.08,48.26a3,3,0,0,0,0-5.27L63,32.42A2.61,2.61,0,0,0,59,34.53Z" transform="translate(-11.53 -4.2)"/><path class="cls-2" d="M79.19,17.27S105.54,30.26,95,57.9c-1.77,4.64-4.36,8.4-8.73,13.44" transform="translate(-11.53 -4.2)"/><path class="cls-2" d="M90.61,7.2s28.21,17.46,18.13,53.73C107,67.12,104,72.34,98.64,78.39" transform="translate(-11.53 -4.2)"/><line class="cls-3" x1="111.98" y1="10.39" x2="111.98" y2="68.15"/><path class="cls-4" d="M13.64,50.36c.7,2.59,2.59,4.15,5.85,4.15,3.67,0,5.15-1.64,5.15-3.87s-1-3.38-5.6-4.46C13.72,45,12.4,43.39,12.4,40.76s2.14-5.3,6.8-5.3,6.88,2.75,7.21,5.58H24.35c-.37-1.67-1.73-3.74-5.23-3.74S14.5,39,14.5,40.6c0,1.84,1,2.75,5.07,3.71,5.81,1.35,7.25,3.19,7.25,6.17,0,3.63-3.05,5.86-7.37,5.86-4.7,0-7.34-2.39-7.92-6Z" transform="translate(-11.53 -4.2)"/><path class="cls-4" d="M33.71,52.91V63.83H31.65v-23c0-1.63,0-3.38,0-4.9h2c.08.76.08,2,.08,3.59A7.62,7.62,0,0,1,41,35.46c4.87,0,8.25,3.95,8.25,9.92,0,7.18-4,11-9,11C36.64,56.34,34.74,54.79,33.71,52.91ZM47,45.46c0-4.62-2.31-8.08-6.39-8.08-5,0-7,3-7,8.44s1.6,8.65,6.76,8.65C44.63,54.47,47,51,47,45.46Z" transform="translate(-11.53 -4.2)"/><text class="cls-5" transform="translate(31.42 90.9)">STREAMING </text><text class="cls-6" transform="translate(128.69 91.49)">PLUG</text><text class="cls-7" transform="translate(122.11 34.83)">Share</text><text class="cls-8" transform="translate(121.47 53.07)">Y<tspan class="cls-9" x="9.35" y="0">our</tspan></text><text class="cls-7" transform="translate(160.34 52.62)">Content</text></g></svg>