<svg id="Layer_1" data-name="Layer 1" xmlns="http://www.w3.org/2000/svg" viewBox="0 0 224.44 90.74"><defs><style>.cls-1{fill:#f28f1c;}.cls-2,.cls-3{fill:none;stroke-linecap:round;}.cls-2,.cls-3,.cls-4{stroke:#fff;stroke-miterlimit:10;}.cls-2{stroke-width:6px;}.cls-4{fill:#fff;stroke-width:0.25px;}</style></defs><g id="logo_white"><path class="cls-1" d="M59.67,146.7v21.94a2.58,2.58,0,0,0,3.93,2.08l17.86-10.44a3,3,0,0,0,0-5.22L63.6,144.62A2.58,2.58,0,0,0,59.67,146.7Z" transform="translate(-12.56 -116.68)"/><path class="cls-2" d="M79.59,129.64s26.05,12.84,15.6,40.17c-1.75,4.58-4.32,8.3-8.63,13.28" transform="translate(-12.56 -116.68)"/><path class="cls-2" d="M90.87,119.68S118.76,137,108.8,172.8c-1.7,6.12-4.65,11.29-10,17.26" transform="translate(-12.56 -116.68)"/><line class="cls-3" x1="110.85" y1="10.3" x2="110.85" y2="67.4"/><path class="cls-4" d="M14.78,162.36c.7,2.56,2.57,4.09,5.79,4.09,3.63,0,5.1-1.61,5.1-3.82s-1-3.35-5.55-4.41c-5.25-1.22-6.56-2.76-6.56-5.35s2.12-5.24,6.73-5.24,6.8,2.71,7.13,5.51h-2c-.37-1.65-1.71-3.7-5.18-3.7s-4.56,1.69-4.56,3.27c0,1.81,1,2.71,5,3.66,5.75,1.34,7.18,3.15,7.18,6.1,0,3.59-3,5.79-7.3,5.79-4.65,0-7.25-2.36-7.82-5.9Z" transform="translate(-12.56 -116.68)"/><path class="cls-4" d="M34.63,164.88v10.79h-2V152.94c0-1.61,0-3.34,0-4.84h2c.08.75.08,1.93.08,3.54,1.26-2.36,3.5-4,7.17-4,4.81,0,8.15,3.9,8.15,9.8,0,7.09-3.91,10.83-8.84,10.83C37.52,168.26,35.65,166.73,34.63,164.88Zm13.16-7.37c0-4.57-2.28-8-6.31-8-4.94,0-7,3-7,8.35s1.59,8.54,6.68,8.54C45.43,166.41,47.79,163,47.79,157.51Z" transform="translate(-12.56 -116.68)"/><path class="cls-4" d="M44.22,204.79l.91-.54a2.22,2.22,0,0,0,2.18,1.45c1,0,1.89-.57,1.89-1.57,0-2.35-4.6-1.6-4.6-4.64A2.46,2.46,0,0,1,47.23,197a3.22,3.22,0,0,1,2.52,1.18l-.79.67a2,2,0,0,0-1.7-.84c-.88,0-1.66.46-1.66,1.4,0,2.26,4.61,1.47,4.61,4.68a2.65,2.65,0,0,1-2.92,2.62A3.25,3.25,0,0,1,44.22,204.79Z" transform="translate(-12.56 -116.68)"/><path class="cls-4" d="M59.16,198.14H56.54v8.44h-1v-8.44H52.92v-1h6.24Z" transform="translate(-12.56 -116.68)"/><path class="cls-4" d="M69.18,206.58H68l-2.68-4.27H63.57v4.27h-1v-9.45H66a2.62,2.62,0,0,1,2.63,2.65,2.53,2.53,0,0,1-2.19,2.49Zm-3.3-5.23a1.58,1.58,0,0,0,1.69-1.61,1.6,1.6,0,0,0-1.69-1.6H63.57v3.21Z" transform="translate(-12.56 -116.68)"/><path class="cls-4" d="M73.67,198.1v3.27h3.62v1H73.67v3.27h4.16v1H72.66v-9.45h5.17v1Z" transform="translate(-12.56 -116.68)"/><path class="cls-4" d="M87,204.38H82.76l-.77,2.2H80.88l3.43-9.45h1.11l3.42,9.45h-1.1Zm-.33-1-1.77-5.09-1.78,5.09Z" transform="translate(-12.56 -116.68)"/><path class="cls-4" d="M101.5,197.13v9.45h-1v-7.43l-3.3,7.43h-.83l-3.27-7.47v7.47h-1v-9.45h1.08l3.62,8.24,3.64-8.24Z" transform="translate(-12.56 -116.68)"/><path class="cls-4" d="M106,197.13h1v9.45h-1Z" transform="translate(-12.56 -116.68)"/><path class="cls-4" d="M119.26,197.13v9.45h-1l-5.83-7.77v7.77h-1v-9.45h1l5.84,7.77v-7.77Z" transform="translate(-12.56 -116.68)"/><path class="cls-4" d="M133.05,201.57v.29a4.86,4.86,0,1,1-4.86-4.86,4.8,4.8,0,0,1,4.21,2.46l-.87.49a3.78,3.78,0,0,0-3.34-1.94,3.85,3.85,0,1,0,3.79,4.51h-3.8v-1Z" transform="translate(-12.56 -116.68)"/><path class="cls-4" d="M147.48,200a2.74,2.74,0,0,1-2.77,2.76H142.2v4.43h-1.06v-10h3.57A2.77,2.77,0,0,1,147.48,200Zm-1.06,0a1.74,1.74,0,0,0-1.81-1.76H142.2v3.49h2.41A1.69,1.69,0,0,0,146.42,200Z" transform="translate(-12.56 -116.68)"/><path class="cls-4" d="M156,206.1v1.06h-4.76v-10h1.06v8.9Z" transform="translate(-12.56 -116.68)"/><path class="cls-4" d="M159.48,203.89V197.2h1.06v6.53a2.69,2.69,0,0,0,5.37,0V197.2H167v6.69a3.76,3.76,0,0,1-7.49,0Z" transform="translate(-12.56 -116.68)"/><path class="cls-4" d="M181.44,201.88v.3a5.12,5.12,0,1,1-5.12-5.11,5.07,5.07,0,0,1,4.43,2.59l-.91.51a4.05,4.05,0,1,0,.47,2.71h-4v-1Z" transform="translate(-12.56 -116.68)"/><path class="cls-4" d="M134,149l1.11-.65a2.69,2.69,0,0,0,2.63,1.76c1.28,0,2.29-.69,2.29-1.91,0-2.85-5.57-1.93-5.57-5.61a3,3,0,0,1,3.19-3,3.91,3.91,0,0,1,3,1.43l-.95.8a2.44,2.44,0,0,0-2.06-1c-1.07,0-2,.55-2,1.7,0,2.73,5.58,1.78,5.58,5.67,0,2-1.59,3.17-3.54,3.17A3.94,3.94,0,0,1,134,149Z" transform="translate(-12.56 -116.68)"/><path class="cls-4" d="M150,146.27v4.89h-1.16v-4.89a1.71,1.71,0,0,0-1.72-1.72,1.69,1.69,0,0,0-1.7,1.72v4.89h-1.18v-14h1.18v6.81a3,3,0,0,1,1.7-.55A2.87,2.87,0,0,1,150,146.27Z" transform="translate(-12.56 -116.68)"/><path class="cls-4" d="M161.29,150.16v1a1.15,1.15,0,0,1-.57.15,1.78,1.78,0,0,1-1.77-1.38,3.46,3.46,0,0,1-3,1.38c-1.6,0-2.6-.84-2.6-2.14s1-2.16,2.58-2.16h2.92v-.63c0-1.18-.95-1.83-2.16-1.83s-2.15.65-2.15,1.83h-1.19a3.36,3.36,0,0,1,6.68,0v2.79c0,.71.37,1,.79,1Zm-2.44-1.66V148h-2.67c-.94,0-1.53.45-1.53,1.14s.61,1.13,1.55,1.13A2.68,2.68,0,0,0,158.85,148.5Z" transform="translate(-12.56 -116.68)"/><path class="cls-4" d="M168.21,143.42v1.21a1.79,1.79,0,0,0-.59-.08,2.48,2.48,0,0,0-2.54,2.46v4.15h-1.19v-7.64h1.19v1.09a3.06,3.06,0,0,1,2.54-1.24A3.42,3.42,0,0,1,168.21,143.42Z" transform="translate(-12.56 -116.68)"/><path class="cls-4" d="M178.14,147.51H171.4a2.79,2.79,0,0,0,5.34,1H178a4,4,0,1,1,.16-1.2Zm-6.59-1.07h5.25a2.73,2.73,0,0,0-2.61-1.89A2.78,2.78,0,0,0,171.55,146.44Z" transform="translate(-12.56 -116.68)"/><path class="cls-4" d="M138,163.75v5.44h-1.22v-5.43l-4-6h1.53l3.09,4.76,3.09-4.76H142Z" transform="translate(-12.56 -116.68)"/><path class="cls-4" d="M142.88,165.37a4,4,0,1,1,4,4A4,4,0,0,1,142.88,165.37Zm6.76,0a2.79,2.79,0,1,0-2.79,2.78A2.79,2.79,0,0,0,149.64,165.37Z" transform="translate(-12.56 -116.68)"/><path class="cls-4" d="M153.88,166.44v-4.89h1.17v4.75a1.7,1.7,0,1,0,3.39,0v-4.75h1.17v4.89a2.87,2.87,0,1,1-5.73,0Z" transform="translate(-12.56 -116.68)"/><path class="cls-4" d="M167.5,161.46v1.2a1.86,1.86,0,0,0-.6-.08,2.48,2.48,0,0,0-2.53,2.46v4.15h-1.19v-7.64h1.19v1.09a3.09,3.09,0,0,1,2.53-1.24A2.71,2.71,0,0,1,167.5,161.46Z" transform="translate(-12.56 -116.68)"/><path class="cls-4" d="M172.15,163a5.88,5.88,0,0,1,11-2.9l-1,.59a4.66,4.66,0,1,0,0,4.62l1,.59a5.88,5.88,0,0,1-11-2.9Z" transform="translate(-12.56 -116.68)"/><path class="cls-4" d="M185.68,164.92a4,4,0,1,1,4,4A4,4,0,0,1,185.68,164.92Zm6.76,0a2.79,2.79,0,1,0-2.79,2.78A2.79,2.79,0,0,0,192.44,164.92Z" transform="translate(-12.56 -116.68)"/><path class="cls-4" d="M202.79,163.87v4.87h-1.18v-4.87a1.75,1.75,0,0,0-3.5,0v4.87h-1.18V161.1h1.18v.61A2.66,2.66,0,0,1,200,161,2.93,2.93,0,0,1,202.79,163.87Z" transform="translate(-12.56 -116.68)"/><path class="cls-4" d="M208,162.25v4.33a1.13,1.13,0,0,0,1.15,1.16H210v.9a2.19,2.19,0,0,1-3.21-1.91v-4.48h-1.28V161.1h1.28v-3.32H208v3.32h2.05v1.15Z" transform="translate(-12.56 -116.68)"/><path class="cls-4" d="M220.51,165.09h-6.74a2.8,2.8,0,0,0,5.35.95h1.26a4,4,0,1,1-3.82-5.09,4,4,0,0,1,4,3.89ZM213.92,164h5.25a2.73,2.73,0,0,0-2.61-1.89A2.8,2.8,0,0,0,213.92,164Z" transform="translate(-12.56 -116.68)"/><path class="cls-4" d="M229.62,163.87v4.87h-1.18v-4.87a1.75,1.75,0,0,0-3.5,0v4.87h-1.18V161.1h1.18v.61a2.66,2.66,0,0,1,1.85-.76A2.93,2.93,0,0,1,229.62,163.87Z" transform="translate(-12.56 -116.68)"/><path class="cls-4" d="M234.83,162.25v4.33a1.13,1.13,0,0,0,1.15,1.16h.88v.9a2.19,2.19,0,0,1-3.21-1.91v-4.48h-1.28V161.1h1.28v-3.32h1.18v3.32h2v1.15Z" transform="translate(-12.56 -116.68)"/></g></svg>